<svg id="Layer_1" data-name="Layer 1" xmlns="http://www.w3.org/2000/svg" xmlns:xlink="http://www.w3.org/1999/xlink" viewBox="0 0 280 281"><defs><clipPath id="clip-path"><rect y="0.46484" width="280" height="280" style="fill:none"/></clipPath></defs><g style="clip-path:url(#clip-path)"><path d="M145.828,200.386a97.3192,97.3192,0,1,0-11.666,0" style="fill:none;stroke:#52cead;stroke-linejoin:round;stroke-width:10px"/><circle cx="139.995" cy="61.8613" r="30.4794" style="fill:none;stroke:#52cead;stroke-linejoin:round;stroke-width:10px"/><path d="M78.2383,156.284l-4.7533-1.552a5.00022,5.00022,0,0,0,.9618,4.811Zm123.5137-.005,3.792,3.259a5.00113,5.00113,0,0,0,.961-4.811ZM82.9916,157.835a59.97716,59.97716,0,0,1,57.0044-41.334v-10a69.97718,69.97718,0,0,0-66.511,48.231Zm57.0044-41.334a59.978,59.978,0,0,1,57.003,41.329l9.506-3.103a69.97747,69.97747,0,0,0-66.509-48.226Zm57.964,36.518a76.22031,76.22031,0,0,1-57.967,26.628v10a86.22483,86.22483,0,0,0,65.551-30.109Zm-57.967,26.628a76.22148,76.22148,0,0,1-57.9633-26.623l-7.5829,6.519a86.22326,86.22326,0,0,0,65.5462,30.104Z" style="fill:#52cead"/><path d="M139.998,180.517l11.727,36.093h37.951l-30.703,22.306,11.728,36.093-30.703-22.306-30.702,22.306,11.727-36.093L90.3203,216.61H128.271Z" style="fill:none;stroke:#40a1e9;stroke-linejoin:round;stroke-width:10px"/><path d="M52.128,173.531l7.4423,22.906h24.084L64.17,210.593l7.4423,22.905L52.128,219.342,32.6436,233.498l7.4423-22.905L20.6016,196.437h24.084Z" style="fill:none;stroke:#40a1e9;stroke-linejoin:round;stroke-width:10px"/><path d="M227.866,173.531l7.443,22.906h24.084l-19.485,14.156,7.443,22.905-19.485-14.156-19.484,14.156,7.442-22.905L196.34,196.437h24.084Z" style="fill:none;stroke:#40a1e9;stroke-linejoin:round;stroke-width:10px"/></g></svg>