<svg id="Layer_1" data-name="Layer 1" xmlns="http://www.w3.org/2000/svg" viewBox="0 0 281 281"><path d="M77.3001,225.264H24.2969a14,14,0,0,0-14,14v5.753a14,14,0,0,0,14,14H73.3144" style="fill:none;stroke:#52cead;stroke-linejoin:round;stroke-width:10px"/><path d="M74.2002,185.965H24.2969a14,14,0,0,0-14,14v5.753a14,14,0,0,0,14,14H88.8143" style="fill:none;stroke:#52cead;stroke-linejoin:round;stroke-width:10px"/><path d="M73.7573,146.669H24.2969a14,14,0,0,0-14,14v5.753a14,14,0,0,0,14,14H73.7573" style="fill:none;stroke:#52cead;stroke-linejoin:round;stroke-width:10px"/><path d="M74.2002,107.37H24.2969a14,14,0,0,0-14,14v5.753a14,14,0,0,0,14,14H74.2002" style="fill:none;stroke:#52cead;stroke-linejoin:round;stroke-width:10px"/><path d="M202.188,225.264h55.237a14,14,0,0,1,14,14v5.753a14,14,0,0,1-14,14h-49.48" style="fill:none;stroke:#52cead;stroke-linejoin:round;stroke-width:10px"/><path d="M208.388,185.965h49.037a14,14,0,0,1,14,14v5.753a14,14,0,0,1-14,14H193.773" style="fill:none;stroke:#52cead;stroke-linejoin:round;stroke-width:10px"/><path d="M208.832,146.669h48.595a14,14,0,0,1,14,14v5.753a14,14,0,0,1-14,14H208.832" style="fill:none;stroke:#52cead;stroke-linejoin:round;stroke-width:10px"/><path d="M207.5,107.37h49.923a14,14,0,0,1,14,14v5.753a14,14,0,0,1-14,14H207.5" style="fill:none;stroke:#52cead;stroke-linejoin:round;stroke-width:10px"/><rect x="73.2461" y="223.688" width="135.22399" height="43.41701" rx="14" style="fill:none;stroke:#40a1e9;stroke-linejoin:round;stroke-width:10px"/><rect x="73.2461" y="173.14" width="135.22399" height="43.41701" rx="14" style="fill:none;stroke:#40a1e9;stroke-linejoin:round;stroke-width:10px"/><rect x="73.2461" y="122.591" width="135.22399" height="43.41699" rx="14" style="fill:none;stroke:#40a1e9;stroke-linejoin:round;stroke-width:10px"/><rect x="73.2461" y="72.042" width="135.22399" height="43.417" rx="14" style="fill:none;stroke:#40a1e9;stroke-linejoin:round;stroke-width:10px"/><circle cx="96.0411" cy="93.7501" r="6.72859" style="fill:#40a1e9"/><circle cx="96.0411" cy="144.299" r="6.72859" style="fill:#40a1e9"/><circle cx="96.0411" cy="194.84801" r="6.72859" style="fill:#40a1e9"/><circle cx="96.0411" cy="245.397" r="6.72859" style="fill:#40a1e9"/><path d="M10.2969,74.2294,140.862,13.0566" style="fill:none;stroke:#40a1e9;stroke-linecap:round;stroke-linejoin:round;stroke-width:10px"/><path d="M271.426,74.2294,140.861,13.0566" style="fill:none;stroke:#40a1e9;stroke-linecap:round;stroke-linejoin:round;stroke-width:10px"/></svg>