<svg width="64" height="42" viewBox="0 0 64 42" fill="none" xmlns="http://www.w3.org/2000/svg">
<path fill-rule="evenodd" clip-rule="evenodd" d="M1 33.3914H62.4565V37.0098C62.4565 38.9996 60.8348 40.627 58.852 40.627H4.6045C2.62173 40.627 1 38.9996 1 37.0098V33.3914Z" fill="white" stroke="#3E8AE3" stroke-width="2" stroke-miterlimit="22.9256" stroke-linecap="round" stroke-linejoin="round"/>
<path fill-rule="evenodd" clip-rule="evenodd" d="M6.26361 33.3912H57.1929V6.2084C57.1929 3.3439 54.8572 1 52.0028 1H11.4536C8.59924 1 6.26361 3.3439 6.26361 6.2084V33.3912Z" fill="white" stroke="#3E8AE3" stroke-width="2" stroke-miterlimit="22.9256" stroke-linecap="round" stroke-linejoin="round"/>
<path fill-rule="evenodd" clip-rule="evenodd" d="M22.4215 21.9545L16.7419 17.1963L22.4215 12.437" fill="white"/>
<path d="M22.4215 21.9545L16.7419 17.1963L22.4215 12.437" stroke="#34D07E" stroke-width="2" stroke-miterlimit="22.9256" stroke-linecap="round" stroke-linejoin="round"/>
<path d="M35.2059 11.1521L28.2516 23.2398" stroke="#34D07E" stroke-width="2" stroke-miterlimit="22.9256" stroke-linecap="round" stroke-linejoin="round"/>
<path fill-rule="evenodd" clip-rule="evenodd" d="M41.0363 21.9545L46.717 17.1963L41.0363 12.437" fill="white"/>
<path d="M41.0363 21.9545L46.717 17.1963L41.0363 12.437" stroke="#34D07E" stroke-width="2" stroke-miterlimit="22.9256" stroke-linecap="round" stroke-linejoin="round"/>
</svg>
