<svg id="locations-map" xmlns="http://www.w3.org/2000/svg" xmlns:xlink="http://www.w3.org/1999/xlink" viewBox="0 0 1422.38 800">
    <defs>
        <linearGradient id="map-linear-gradient" x1="580.41" y1="-886.22" x2="297.7" y2="-396.54" gradientTransform="matrix(1, 0, 0, -1, 0, 37.96)" gradientUnits="userSpaceOnUse">
            <stop offset="0" stop-color="#eaf0f5"/>
            <stop offset="0.75" stop-color="#ecf1f6"/>
            <stop offset="1" stop-color="#f2f6f9"/>
        </linearGradient>
        <linearGradient id="map-linear-gradient-2" x1="1056.07" y1="-505.61" x2="1035.64" y2="-470.23" xlink:href="#map-linear-gradient"/>
        <linearGradient id="map-linear-gradient-3" x1="1018.27" y1="-559.27" x2="821.27" y2="-218.06" xlink:href="#map-linear-gradient"/>
        <linearGradient id="map-linear-gradient-4" x1="1157.96" y1="-384.78" x2="1139.33" y2="-352.51" xlink:href="#map-linear-gradient"/>
        <linearGradient id="map-linear-gradient-5" x1="1243.13" y1="-366.1" x2="1225.6" y2="-335.72" xlink:href="#map-linear-gradient"/>
        <linearGradient id="map-linear-gradient-6" x1="1314.39" y1="-433.3" x2="1266.96" y2="-351.14" xlink:href="#map-linear-gradient"/>
        <style type="text/css">
            @import url('/css/main/fonts/rubik.css');
            #locations-map * {
                transition: all 0.3s;
                -webkit-transition: all 0.3s;
                -moz-transition: all 0.3s;
            }
            #locations-map .location-tooltip {
                cursor: pointer;
            }
            #locations-map .location-tooltip:hover > *,
            #locations-map .location-tooltip.active > * {
                fill: #feda00 !important;
            }
            #locations-map .location-tooltip:hover > ellipse.ring,
            #locations-map .location-tooltip.active > ellipse.ring {
                fill: none !important;
                stroke: #ffd900 !important;
            }
            #locations-map .location-tooltip:hover > ellipse:not(.ring),
            #locations-map .location-tooltip.active > ellipse:not(.ring) {
                stroke: #feda00 !important;
                animation-duration: 1.5s;
                -webkit-animation-duration: 1.5s;
                -moz-animation-duration: 1.5s;
                animation-name: pulse;
                -webkit-animation-name: pulse;
                -moz-animation-name: pulse;
                animation-animation-iteration-count: infinite;
                -webkit-animation-iteration-count: infinite;
                -moz-animation-animation-iteration-count: infinite;
            }
            #locations-map .location-tooltip:hover > text,
            #locations-map .location-tooltip.active > text {
                fill: #000 !important;
            }
            #locations-map .location-tooltip.closest .closest-box {
                transform: translate(0, -20px);
                -webkit-transform: translate(0, -20px);
                -moz-transform: translate(0, -20px);
            }
            @keyframes pulse {
                0% {
                    stroke-width: 0px;
                }
                50% {
                    stroke-width: 10px;
                }
                100% {
                    stroke-width: 0px;
                }
            }
            @-webkit-keyframes pulse {
                0% {
                    stroke-width: 0px;
                }
                50% {
                    stroke-width: 10px;
                }
                100% {
                    stroke-width: 0px;
                }
            }
        </style>
    </defs>
    <title>locations-map</title>
    <g>
        <path d="M457.58,384.29v27.83c0,.54-.63,1.22-1.67,2.09-3.32,2.79-5.24,5.45-5.24,8V394.37c0-2.54,1.92-5.2,5.24-8C456.95,385.51,457.58,384.83,457.58,384.29Z" style="fill: #d4dadf"/>
        <path d="M301.8,457.57V485.4c0-1.13-.71-2.16-2.35-3-2.85-1.48-4.08-2.92-4.08-4.35V450.2c0,1.43,1.23,2.87,4.08,4.35C301.09,455.41,301.8,456.44,301.8,457.57Z" style="fill: #d4dadf"/>
        <path d="M494.76,436.53v27.83c0,2.51-2.37,4.77-7.38,7.15-9,4.28-19.06,6.44-19.06,16.9V460.63c0-10.46,10.08-12.63,19.06-16.9C492.39,441.31,494.76,439,494.76,436.53Z" style="fill: #d4dadf"/>
        <path d="M469.34,468.83v27.8c0,11.12-14.34,15.48-30.29,15.48q-2.09,0-4.21-.1c-19.2-.88-44-10.94-55.66-17-6.76-3.51-16.15-5.29-24.61-5.29-6,0-11.59.9-15.4,2.71-7.85,3.73-13,9.38-25,9.38a46.67,46.67,0,0,1-6.88-.55,71.41,71.41,0,0,0-10.32-.87c-9.46,0-13.44,3-14.94,7.7a6,6,0,0,0-.27,1.79V482.09a6,6,0,0,1,.27-1.79c1.5-4.72,5.47-7.7,14.94-7.7a71.41,71.41,0,0,1,10.32.87,46.67,46.67,0,0,0,6.88.55c12,0,17.19-5.65,25-9.38,3.81-1.81,9.38-2.71,15.4-2.71,8.46,0,17.85,1.78,24.61,5.29,11.65,6,36.47,16.1,55.66,17q2.12.1,4.21.1C455,484.31,469.34,480,469.34,468.83Z" style="fill: #d4dadf"/>
        <path d="M238.67,500.8v27.83a2.59,2.59,0,0,0-1.28-2.64,7.1,7.1,0,0,0-3.21-.54,68.71,68.71,0,0,0-10,1.12,41.47,41.47,0,0,1-6.58.53,28.46,28.46,0,0,1-12.74-2.6c-2.09-1.09-3.29-2.39-3.29-3.62V493.06c0,1.23,1.19,2.53,3.29,3.62a28.46,28.46,0,0,0,12.74,2.6,41.47,41.47,0,0,0,6.58-.53,68.71,68.71,0,0,1,10-1.12,7.1,7.1,0,0,1,3.21.54A2.59,2.59,0,0,1,238.67,500.8Z" style="fill: #d4dadf"/>
        <path d="M394.57,490.25v27.83c0,3.15-16.42,11-29.62,14a59.17,59.17,0,0,1-13,1.32,153.17,153.17,0,0,1-19.86-1.71,145,145,0,0,0-18.22-1.7h-2.29c-6.32.3-9.18,1.92-9.18,4V506.21c0-2,2.86-3.66,9.18-4h2.29a145,145,0,0,1,18.22,1.7A153.16,153.16,0,0,0,352,505.68a59.17,59.17,0,0,0,13-1.32C378.15,501.31,394.57,493.4,394.57,490.25Z" style="fill: #d4dadf"/>
        <path d="M268.62,529.8v27.83c0-1.63-1.49-3.14-4-4.44a44.31,44.31,0,0,0-13.75-3.81A27.13,27.13,0,0,1,242,547c-3.44-1.81-4.21-4.3-4.21-7.34V511.81c0,3,.77,5.53,4.21,7.34a27.13,27.13,0,0,0,8.9,2.4c5.52.75,10.49,2.11,13.75,3.81C267.13,526.63,268.62,528.17,268.62,529.8Z" style="fill: #d4dadf"/>
        <path d="M479.3,525.06v27.83c0,4.87-11.53,9.36-11.53,11.91V537C467.77,534.42,479.3,529.93,479.3,525.06Z" style="fill: #d4dadf"/>
        <path d="M327.06,522.43v27.83c0,4.6-4.6,10.36-8.43,15.57a12.44,12.44,0,0,0-2.63,7.22V545.22a12.44,12.44,0,0,1,2.63-7.22C322.46,532.79,327.06,527,327.06,522.43Z" style="fill: #d5dadf"/>
        <path d="M400,552.46v27.83c0-.49-.47-1.11-1.52-1.86-6.08-4.36-4.86-11.79-11.73-15.38a18,18,0,0,0-5.72-1.73c-6.77-1-13-2.42-17-4.55-3.06-1.6-4.92-3.6-4.92-6.12V522.83c0,2.52,1.86,4.52,4.92,6.12,4.07,2.13,10.25,3.55,17,4.55a18,18,0,0,1,5.72,1.73c6.87,3.59,5.65,11,11.73,15.38C399.57,551.35,400,552,400,552.46Z" style="fill: #d4dadf"/>
        <path d="M478.78,543.48v27.83c0,4.87-7,12.17-7,15.88V559.36C471.81,555.63,478.78,548.35,478.78,543.48Z" style="fill: #d5dbdf"/>
        <path d="M199.18,558.54v27.83c0-.26-.2-.49-.57-.68-1.07-.57-3.58-.86-6.83-.86-7,0-17.47,1.35-24.39,4.18a32,32,0,0,1-11.87,2.18A25.48,25.48,0,0,1,144,588.8c-2.55-1.36-4.15-3.25-4.15-5.61V555.36c0,2.36,1.6,4.25,4.15,5.61a25.48,25.48,0,0,0,11.52,2.39,32,32,0,0,0,11.87-2.18c6.92-2.83,17.38-4.18,24.39-4.18,3.25,0,5.76.29,6.83.86C199,558.05,199.18,558.28,199.18,558.54Z" style="fill: #d4dadf"/>
        <path d="M783.31,610.27V638.1c0,2.74-2.09,6.48-2.09,10.23V620.5C781.22,616.76,783.31,613,783.31,610.27Z" style="fill: #d6dce0"/>
        <path d="M512.23,610.45v27.83c0,.5-.5.79-1.6.79a30.21,30.21,0,0,1-7.75-1.69,39.22,39.22,0,0,0-11.81-2.13c-8.36,0-14,4-29.86,6.81-9.07,1.63-12.81,5-12.81,8.8V623c0-3.85,3.74-7.18,12.81-8.8,15.84-2.84,21.51-6.81,29.86-6.81a39.22,39.22,0,0,1,11.81,2.13,30.21,30.21,0,0,0,7.75,1.69C511.74,611.25,512.23,611,512.23,610.45Z" style="fill: #d4dadf"/>
        <path d="M26.67,660.69V632.88c0,2.35,1.09,4.31,3.76,5.76,3.17,1.7,8.55,2.66,17,2.66q1.76,0,3.7-.06h3.56c11,0,17.66,1.68,22.43,4.25,4.54,2.46,7.41,5.7,12.37,10.2v27.83c-5-4.51-7.83-7.75-12.37-10.2C72.3,670.69,65.67,669,54.67,669H51.11c-1.24,0-2.53.06-3.7.06-8.4,0-13.77-1-17-2.66C27.77,665,26.67,663.07,26.67,660.69Z" style="fill: #d4dadf"/>
        <path d="M113.16,665.77V637.94c0-8.71,19.12-16.54,45.58-19.71,13.16-1.58,24.28-2.61,34.3-2.61,12.07,0,22.53,1.51,33,5.39a33.24,33.24,0,0,0,11.7,2.14,54,54,0,0,0,10.68-1.31,50.76,50.76,0,0,1,9.78-1.31,20.7,20.7,0,0,1,10,2.52c.58.3,1.18.65,1.78,1,7.56,4.78,15.3,9.86,22.73,13.81s14.43,6.7,20.67,6.92c1.84.07,3.92.09,6.2.09h5.7c13,0,31.06.33,52.69,5.5,21.4,5.15,49.81,12.33,74.41,12.33a84.21,84.21,0,0,0,24.93-3.33c21.08-6.73,38.08-11.62,52.37-11.62a49.58,49.58,0,0,1,12.41,1.46,77.94,77.94,0,0,0,19.18,2.19c10.83,0,20.43-1.76,25.62-3.62v27.85c-5.19,1.86-14.81,3.61-25.63,3.61a77.94,77.94,0,0,1-19.18-2.19,49.58,49.58,0,0,0-12.41-1.42c-14.29,0-31.28,4.89-52.37,11.62-7.45,2.37-15.93,3.33-24.93,3.33-24.61,0-53-7.18-74.41-12.33-21.64-5.17-39.68-5.5-52.69-5.5h-5.7c-2.28,0-4.35,0-6.2-.09-6.25-.21-13.3-3-20.67-6.92s-15.17-9-22.73-13.81a16.14,16.14,0,0,0-1.78-1,20.7,20.7,0,0,0-10-2.52,50.76,50.76,0,0,0-9.78,1.31A54,54,0,0,1,237.73,651a33.24,33.24,0,0,1-11.7-2.14c-10.47-3.88-20.94-5.39-33-5.39-10,0-21.14,1-34.3,2.61C132.28,649.23,113.16,657.06,113.16,665.77Z" style="fill: #d4dadf"/>
        <path d="M114.41,643.34v27.83c0,6.79-11.35,13.44-19.79,13.44a11,11,0,0,1-5.18-1.13V655.63a11,11,0,0,0,5.18,1.13C103.06,656.79,114.41,650.13,114.41,643.34Z" style="fill: #d4dadf"/>
        <path d="M807.39,651.33v27.83a13.22,13.22,0,0,1-1.25,5.51,10.62,10.62,0,0,0-1,4.41V661.25a10.62,10.62,0,0,1,1-4.41A13.22,13.22,0,0,0,807.39,651.33Z" style="fill: #d6dbe0"/>
        <path d="M818.79,686.11v27.83c0,5.79-17.6,6.51-17.6,8.5V694.63C801.19,692.63,818.79,691.89,818.79,686.11Z" style="fill: #d4dadf"/>
        <path d="M843.67,764.09v27.83a25.86,25.86,0,0,0-2.25-1.29,44.09,44.09,0,0,0-12.08-3.85c-3.84-.78-7.42-1.43-10.34-3a12,12,0,0,1-5.35-5.37c-5.18-10-25.06-19-40.58-28.49-1.19-.73-2.39-1.4-3.59-2a123.81,123.81,0,0,0-15-6.25,121.4,121.4,0,0,1-14.93-6.22,54.77,54.77,0,0,1-14-10.26,39,39,0,0,0-9.77-7.2c-9.27-4.82-20.06-5.94-30.81-5.94-5.36,0-10.71.28-15.85.51-3,.14-6.17.23-9.28.23-11.21,0-22.4-1.18-30.76-5.55a24.88,24.88,0,0,1-10-9c-4.92-8.1-13.81-15.08-21.46-19.08-4.33-2.26-8.27-3.56-10.85-3.56V647.78c2.59,0,6.52,1.3,10.85,3.56,7.64,4,16.53,11,21.46,19.08a24.88,24.88,0,0,0,10,9c8.36,4.37,19.54,5.55,30.76,5.55,3.11,0,6.22-.09,9.28-.23,5.14-.23,10.49-.51,15.85-.51,10.75,0,21.54,1.12,30.81,5.94a39,39,0,0,1,9.77,7.2,54.77,54.77,0,0,0,14,10.26,121.4,121.4,0,0,0,14.93,6.22,123.8,123.8,0,0,1,15,6.25c1.21.63,2.4,1.3,3.59,2,15.6,9.52,35.43,18.52,40.6,28.52A12,12,0,0,0,819,756c2.93,1.52,6.5,2.17,10.34,3a44.09,44.09,0,0,1,12.08,3.85A17,17,0,0,1,843.67,764.09Z" style="fill: #d4dadf"/>
        <path d="M856.06,762.88v27.81c0,2.44-1.79,4-4.62,4a13.22,13.22,0,0,1-6-1.7,21.43,21.43,0,0,1-1.89-1.13V764.05a13.72,13.72,0,0,0,1.89,1,13.22,13.22,0,0,0,6,1.7C854.27,766.84,856.06,765.32,856.06,762.88Z" style="fill: #d4dadf"/>
        <path d="M456.37,383.3c1.93.57,1.39,1.54-.45,3.08-5.84,4.91-7.35,9.39-1.7,13.6s12.09,7.51,13.39,14.83c.49,2.8,2.14,4.36,4.55,5.59a47.6,47.6,0,0,0,5.06,2.09,61.8,61.8,0,0,1,6.07,2.62,34.18,34.18,0,0,1,4.27,2.59c9.3,6.8,10,11.17-.17,16s-21.82,7-18.47,21.67c3.23,13.7-12.35,19-29.86,19q-2.09,0-4.21-.1c-19.2-.88-44-10.94-55.66-17C372.43,463.76,363,462,354.58,462c-6,0-11.59.9-15.4,2.71-7.85,3.73-13,9.38-25,9.38a46.67,46.67,0,0,1-6.88-.55,71.41,71.41,0,0,0-10.32-.87c-9.46,0-13.44,3-14.94,7.7-1,3.33,1,7,4.8,9a13.48,13.48,0,0,0,6.24,1.47,17.22,17.22,0,0,0,6.48-1.32,34.28,34.28,0,0,1,13.11-2.44c6.73,0,13.63,1.61,20.74,3.62a60.91,60.91,0,0,0,15.89,1.68c10.83,0,24-1.48,37.29-3.07A37.77,37.77,0,0,1,391,489a7.29,7.29,0,0,1,3.09.46c4.22,2.21-14.37,11.58-29,14.87a59.17,59.17,0,0,1-13,1.32,153.17,153.17,0,0,1-19.86-1.69,145,145,0,0,0-18.22-1.7h-2.29c-11.28.54-11.55,5.27-4.19,9.1a40.55,40.55,0,0,0,10.17,3.51,21.24,21.24,0,0,1,5.36,1.8c8.75,4.57,1.31,13.56-4.41,21.35-4.32,6-3.41,12.42,3.39,16,3.22,1.71,7.79,2.74,13.74,2.74,18.64-.58,19.16-4.9,28.26-4.9a42.15,42.15,0,0,1,5.68.44,189.78,189.78,0,0,0,22.7,1.92c6.33,0,9.84-.93,6.11-3.6-6.08-4.36-4.86-11.79-11.73-15.38a18,18,0,0,0-5.72-1.73c-6.77-1-13-2.42-17-4.55s-6-4.94-4.31-8.74c2.25-5.06,12.73-7.42,21-7.42,3.78,0,7.09.49,8.93,1.45a28,28,0,0,0,12.16,3.4c4.09,0,7.19-1.67,7-6.2-.11-2.25.64-3.09,2-3.09,2.08,0,5.6,1.83,10,3.67s9.58,3.66,15.06,3.66a23.38,23.38,0,0,0,2.64-.15,132,132,0,0,1,14.38-1c7.21,0,13.6,1.06,19.64,4.19a35.73,35.73,0,0,1,4.37,2.7c9.7,6.88-13.58,13.77-8.37,16.49a11.68,11.68,0,0,0,3.67.84,12.13,12.13,0,0,1,4.28,1.11c7.49,3.89-5.83,15.68-4.59,20.12,1.37,4.89-3.6,11.88,9.51,18.73,8.88,4.56,9.41,8.14,9.6,11.52s.28,6.68,5.78,9.55c2,1,3.11,1.5,4.15,2,8.36,4.37,14.29,9.41,9.7,9.41a30.21,30.21,0,0,1-7.75-1.69,39.22,39.22,0,0,0-11.81-2.13c-8.36,0-14,4-29.86,6.81-19.86,3.57-14.17,15.24.38,22.88A53.4,53.4,0,0,0,467,639.5a54.2,54.2,0,0,0,20,4.32c8.83,0,15.59-3.07,18.82-8.53.83-1.42,1.53-2,2.15-2,1.58.69,2.45,2.9,3.49,5.19s2.27,4.66,4,5.56a5.85,5.85,0,0,0,5.51-1.56,14.34,14.34,0,0,1,10.22-4c7.45,0,16.7,4.35,31.28,6.59a60.82,60.82,0,0,0,9.07.79c13.56,0,15.74-7.08,20.75-18.11s41.3-11.61,61.79-14.45c11.2-1.54,20.63-2.94,27.14-2.94,3.28,0,5.82.35,7.48,1.22a3.91,3.91,0,0,1,2.11,2.37c.69,2.42,2.91,4.75,5.71,6.21a12.67,12.67,0,0,0,5.74,1.46,9.49,9.49,0,0,0,7-3c6.22-6.6,29.3-10,59.46-12.42,2.16-.18,4-.26,5.61-.26,3.47,0,5.68.4,7.06,1.11,6.75,3.48-7.34,14.46,5.45,21.59,16.47,9.24,23.69,18.53,19.32,28.15s7.11,17.78,12.17,27.51c4.34,8.2-21.82,8.15-16.36,11a37,37,0,0,0,7.15,2,37.12,37.12,0,0,1,9.26,3.16c12.56,6.51,8.07,17.9,10.52,25.88,2.92,9.51,2.53,13.69,18.24,24.76,11.71,8.31,10.56,15.65,4.32,15.65a13.22,13.22,0,0,1-6-1.7,20,20,0,0,1-1.78-1,25.86,25.86,0,0,0-2.25-1.29,44.09,44.09,0,0,0-12.08-3.85c-3.84-.78-7.42-1.43-10.34-3a12,12,0,0,1-5.35-5.28c-5.18-10-25.06-19-40.58-28.49-1.19-.73-2.39-1.4-3.59-2a123.8,123.8,0,0,0-15-6.25,121.4,121.4,0,0,1-14.78-6.26,54.77,54.77,0,0,1-14-10.26,39,39,0,0,0-9.77-7.2c-9.27-4.82-20.06-5.94-30.81-5.94-5.36,0-10.71.28-15.85.51-3,.14-6.17.23-9.28.23-11.21,0-22.4-1.18-30.76-5.55a24.88,24.88,0,0,1-10-9c-4.92-8.1-13.81-15.08-21.46-19.08-4.33-2.26-8.27-3.56-10.85-3.56-5.19,1.86-14.81,3.61-25.63,3.61a77.94,77.94,0,0,1-19.18-2.19,49.58,49.58,0,0,0-12.41-1.45c-14.29,0-31.28,4.89-52.37,11.62a84.43,84.43,0,0,1-24.92,3.32c-24.61,0-53-7.18-74.41-12.33-21.64-5.17-39.68-5.5-52.69-5.5h-5.7c-2.28,0-4.35,0-6.2-.09-6.25-.21-13.3-3-20.67-6.92s-15.17-9-22.73-13.81a16.14,16.14,0,0,0-1.78-1,20.7,20.7,0,0,0-10-2.52,50.76,50.76,0,0,0-9.78,1.31,54,54,0,0,1-10.68,1.31A33.24,33.24,0,0,1,226,621c-10.47-3.88-20.94-5.39-33-5.39-10,0-21.14,1-34.3,2.61-29.24,3.47-49.52,12.7-44.94,22.47,3.6,7.58-9.65,16.08-19.18,16.08a11,11,0,0,1-5.18-1.16c-5-4.51-7.83-7.75-12.37-10.2-4.77-2.57-11.4-4.25-22.43-4.25H51.08c-1.24,0-2.53.06-3.7.06-8.4,0-13.77-1-17-2.66-4.79-2.6-4.49-6.86-1.93-12,4.42-9,18.5-23.39,45-28.46s49.29-10.2,55-18.93,15.33-9.77,30.4-10.29,29.55-4.36,38.53-8.79c2-1,2.29-1.76,1.29-2.29s-3.58-.86-6.83-.86c-7,0-17.47,1.35-24.39,4.18a32,32,0,0,1-11.87,2.18,25.48,25.48,0,0,1-11.52-2.39c-4.09-2.17-5.74-5.72-2.27-10.35,8.19-11,38-11.93,79-18.15a103.6,103.6,0,0,1,15.4-1.41c5.38,0,8.51.79,10.51,1.84a9.12,9.12,0,0,1,3.11,2.68,7.12,7.12,0,0,0,2.07,2.12,14.77,14.77,0,0,0,8-1.11c11-4.1,10.58-8.23,4.86-11.23A44.31,44.31,0,0,0,251,521.49a27.13,27.13,0,0,1-8.9-2.4c-5.41-2.84-4.21-7.38-3.81-13.07.36-4.23,1.28-6.85-.76-7.91a7.1,7.1,0,0,0-3.21-.54,68.71,68.71,0,0,0-10,1.12,41.47,41.47,0,0,1-6.58.53,28.46,28.46,0,0,1-12.74-2.6c-4.26-2.22-4.8-5.32.88-6.88,11-3,20.27-4,32.07-18.13,6.54-7.82,14.37-11.37,20.94-11.37a15.25,15.25,0,0,1,7.1,1.64,12,12,0,0,1,4.92,4.65,5,5,0,0,0,2.05,1.9,11.14,11.14,0,0,0,5.1,1c11.45,0,30.46-10.27,21.45-15-11.62-6,3.68-11.46,19.67-17.8s26-14.82,46.56-30.07C386,391.45,414,395.88,434.42,389.1Q451.92,383.28,456.37,383.3Z" style="fill: url(#map-linear-gradient)"/>
    </g>
    <g>
        <path d="M1028.74,549.89V522.05a5.13,5.13,0,0,0,.93,2.78v27.86A5.2,5.2,0,0,1,1028.74,549.89Z" style="fill: #d4dadf"/>
        <path d="M1066.56,535.91v27.83c0,2.38-2.67,3.48-6.12,3.48a21.86,21.86,0,0,1-9.38-2.27,12.72,12.72,0,0,1-4.81-3.93,11.73,11.73,0,0,0-4.46-4,21.64,21.64,0,0,0-5.69-1.7,17.88,17.88,0,0,1-4.76-1.24,3.93,3.93,0,0,1-1.67-1.39V524.83a3.93,3.93,0,0,0,1.67,1.47,17.88,17.88,0,0,0,4.76,1.24,21.64,21.64,0,0,1,5.69,1.7,11.73,11.73,0,0,1,4.46,4,12.72,12.72,0,0,0,4.81,3.93,21.86,21.86,0,0,0,9.38,2.27C1063.9,539.39,1066.56,538.29,1066.56,535.91Z" style="fill: #d4dadf"/>
        <path d="M1032.78,510.25c1.54,0,3.82,1,6.44,2.27,1.35.67,2.79,1.45,4.26,2.24,1.27.69,2.6,1.38,3.9,2,.83.42,1.63.8,2.42,1.18s1.3.61,1.87.91c7.4,3.71,9.49,6.52,14.09,14.53,2.33,4.13-.83,6-5.33,6a21.86,21.86,0,0,1-9.38-2.27,12.72,12.72,0,0,1-4.81-3.93,11.73,11.73,0,0,0-4.46-4,21.64,21.64,0,0,0-5.69-1.7,17.88,17.88,0,0,1-4.76-1.24,3.93,3.93,0,0,1-1.67-1.47c-2.6-4.11,1.28-5.86,1-11.85C1030.59,511,1031.38,510.25,1032.78,510.25Z" style="fill: url(#map-linear-gradient-2)"/>
    </g>
    <g>
        <path d="M1086.59,213.14V241a2,2,0,0,1-1.42,1.88c-4,1.65-12.28-.84-20,4.12-1.63,1.06-2.25,1.8-2.25,2.39V221.53c0-.59.62-1.33,2.25-2.39,7.71-5,16-2.47,20-4.12A2,2,0,0,0,1086.59,213.14Z" style="fill: #d4dadf"/>
        <path d="M1069.34,227.85v27.84a5.77,5.77,0,0,1-.57,2.33c-3.6,8.08.41,6.41-8.79,10.26-4.52,1.9-6.34,3.1-6.34,4.47V244.91c0-1.37,1.81-2.58,6.34-4.47,9.21-3.85,5.19-2.17,8.79-10.26A5.77,5.77,0,0,0,1069.34,227.85Z" style="fill: #d4dadf"/>
        <path d="M1045.12,248.69v27.79c0-2.51-.35-4.29-1.63-4.91V243.69C1044.77,244.32,1045.12,246.1,1045.12,248.69Z" style="fill: #d4dadf"/>
        <path d="M1074.23,270.05v27.84c0,.41-.19.6-.56.6a7.24,7.24,0,0,1-2.5-.9c-2.13-1-5.38-2.91-9.85-5.08l-4.88-2.38c-8.51-4.16-11.44-6-11.44-10.85V251.45c0,4.89,2.93,6.68,11.44,10.85l4.88,2.38c4.46,2.17,7.71,4,9.85,5.08a7.24,7.24,0,0,0,2.5.9.54.54,0,0,0,.56-.61Z" style="fill: #d4dadf"/>
        <path d="M849.55,261.26V289.1c0,1-1.28,2.4-4.35,4.21-5.09,3-6.74,5.33-6.74,6.92V272.4c0-1.59,1.65-4,6.74-6.92C848.27,263.69,849.55,262.27,849.55,261.26Z" style="fill: #d4dadf"/>
        <path d="M804.08,272.69v27.8c0-.78-.16-1.58-.16-2.48V270.18C803.93,271.08,804.08,271.88,804.08,272.69Z" style="fill: #d4dadf"/>
        <path d="M1004,301.55V273.69c0-1.49.09-3,.2-4.45.58-8.81,23.72-3.9,24-10.71s2.83-10.28,9.73-13.75a9,9,0,0,1,5.56-1.15v27.9a9,9,0,0,0-5.56,1.08c-6.9,3.48-9.44,7-9.73,13.75s-23.37,1.9-24,10.71C1004.13,298.55,1004,300.06,1004,301.55Z" style="fill: #d4dadf"/>
        <path d="M776.95,304.37l0,27.83c0-1.06-.67-2.08-2.33-2.91s-2.39-1.55-2.39-2.18l0-27.87c0,.64.63,1.36,2.34,2.21S776.95,303.3,776.95,304.37Z" style="fill: #d4dadf"/>
        <path d="M1048.41,310.55v27.83c0,2.39-1.48,4.15-2.82,6.83a2.78,2.78,0,0,0-.35,1.26V318.69a2.78,2.78,0,0,1,.35-1.26C1046.93,314.69,1048.41,312.94,1048.41,310.55Z" style="fill: #d5dbdf"/>
        <path d="M799,321.11v27.83c0-1.31-1.78-3.12-4.4-4.43a15.75,15.75,0,0,0-6.9-1.68,12.52,12.52,0,0,0-2.83.32,16.91,16.91,0,0,1-3.79.42,26.07,26.07,0,0,1-11.28-2.88,29.42,29.42,0,0,1-2.75-1.55V311.23a29.44,29.44,0,0,0,2.75,1.55,26.07,26.07,0,0,0,11.29,3,16.91,16.91,0,0,0,3.79-.42,12.52,12.52,0,0,1,2.83-.32,15.75,15.75,0,0,1,6.9,1.68C797.19,318,799,319.8,799,321.11Z" style="fill: #d4dadf"/>
        <path d="M782.93,326.33v27.83c0-1.39-.6-2.64-.6-3.52V322.81C782.33,323.69,782.93,324.94,782.93,326.33Z" style="fill: #d4dadf"/>
        <path d="M739.9,344.23V316.39c0,3.63,4.16,7.26,8.72,9.53a39.74,39.74,0,0,0,6.33,2.4v27.84a39.74,39.74,0,0,1-6.33-2.4C744.06,351.49,739.9,347.86,739.9,344.23Z" style="fill: #d4dadf"/>
        <path d="M755.25,328.59v27.83c0-.08-.1-.16-.31-.27V328.32C755.15,328.43,755.25,328.52,755.25,328.59Z" style="fill: #d4dadf"/>
        <path d="M1063.67,330.64v27.83c0,.87-.88,1.33-2.4,1.33-2.13,0-5.5-.9-9.46-2.86a29.09,29.09,0,0,0-12.74-3.17c-4.92,0-9.32,1.56-12.37,4.63-1.56,1.59-2.28,3.09-2.28,4.31V334.89c0-1.21.71-2.72,2.28-4.31,3-3.07,7.45-4.63,12.37-4.63a29.09,29.09,0,0,1,12.74,3.17c4,2,7.34,2.86,9.46,2.86C1062.67,332,1063.67,331.56,1063.67,330.64Z" style="fill: #d4dadf"/>
        <path d="M714.17,355.69v27.8c0-1.65-2.54-4.17-2.54-6.48V349.16C711.67,351.47,714.17,354,714.17,355.69Z" style="fill: #d4dadf"/>
        <path d="M706.93,369.22v27.83c0-3.56-6.89-9.23-12.19-13.75-.83-.7-1.19-1.2-1.19-1.54V353.93c0,.34.37.84,1.19,1.54C700,360,706.93,365.69,706.93,369.22Z" style="fill: #d4dadf"/>
        <path d="M690.4,363.69v27.83c0,2-1.86,4.29-5.94,6.2-2.13,1-3,1.78-3,2.38V372.29c0-.59.89-1.37,3-2.38C688.54,368,690.4,365.69,690.4,363.69Z" style="fill: #d4dadf"/>
        <path d="M1083.61,363.2V391c0,6.06-8.91,9.25-12.09,13.12-3.66,4.46-8.52,4.21-8.52,7.86V384.18c0-3.65,4.86-3.4,8.52-7.86C1074.67,372.45,1083.61,369.26,1083.61,363.2Z" style="fill: #d4dadf"/>
        <path d="M662.49,384.2V412a3,3,0,0,0-1.74-2.88,6.73,6.73,0,0,0-3-.6c-3.5,0-7.66,1.79-7.66,3.74V384.47c0-2,4.16-3.74,7.66-3.74a6.73,6.73,0,0,1,3,.6A3,3,0,0,1,662.49,384.2Z" style="fill: #d4dadf"/>
        <path d="M697.34,391.77V419.6a.65.65,0,0,0-.42-.6V391.16A.65.65,0,0,1,697.34,391.77Z" style="fill: #d4dadf"/>
        <path d="M650.11,384.79v27.9c0,1.86-1.21,5.06-1.21,8.22V393.09C648.9,390,650.11,386.69,650.11,384.79Z" style="fill: #d7dce1"/>
        <path d="M661.22,417.93V390.1c0,3.08,2,5.4,4.63,6.75a12.9,12.9,0,0,0,5.73,1.34,9.8,9.8,0,0,0,5.23-1.37c4.2-2.65,14.36-5.92,18.61-5.91a3.47,3.47,0,0,1,1.5.25V419a3.47,3.47,0,0,0-1.5-.25c-4.25,0-14.41,3.26-18.61,5.91a9.8,9.8,0,0,1-5.23,1.37,12.9,12.9,0,0,1-5.73-1.34C663.19,423.33,661.22,421,661.22,417.93Z" style="fill: #d4dadf"/>
        <path d="M1105.48,395.05v27.83c0,2.51-6.3,5.11-13,5.11a23.77,23.77,0,0,1-4.45-.41,18.75,18.75,0,0,0-3.4-.38c-1.69,0-2.49.44-2.49,1.14V400.53c0-.7.8-1.14,2.49-1.14a18.75,18.75,0,0,1,3.4.38,23.77,23.77,0,0,0,4.45.41C1099.19,400.16,1105.48,397.53,1105.48,395.05Z" style="fill: #d4dadf"/>
        <path d="M1038.44,401.2v28A61.31,61.31,0,0,0,1014.9,423V395.17A59.46,59.46,0,0,1,1038.44,401.2Z" style="fill: #d4dadf"/>
        <path d="M625.21,400.91v27.78c0-5.1-2.76-8.35-5.65-16.12a10,10,0,0,1-.64-3.45V381.38a10,10,0,0,0,.64,3.45C622.44,392.57,625.21,395.81,625.21,400.91Z" style="fill: #d4dadf"/>
        <path d="M1042.36,403.22v27.84c-2.33-1-3.37-1.61-4.62-2.2V401C1039,401.62,1040,402.22,1042.36,403.22Z" style="fill: #d4dadf"/>
        <path d="M695.31,404.8v27.89c0-.37-.49-.86-1.83-1.68-2-1.22-2.73-2.15-2.73-3.06V400.06c0,.9.78,1.83,2.73,3.06C694.82,403.93,695.31,404.43,695.31,404.8Z" style="fill: #d4dadf"/>
        <path d="M692.3,414.37V442.2a8.73,8.73,0,0,0-.47-2.69,7.26,7.26,0,0,1-.39-2.19V409.49a7.26,7.26,0,0,0,.39,2.19A8.73,8.73,0,0,1,692.3,414.37Z" style="fill: #d4dadf"/>
        <path d="M1011.31,402.85v28a3.74,3.74,0,0,1-1.86,3.28c-3,2-5.7,5.28-5.7,8.74V415c0-3.46,2.7-6.7,5.7-8.74A3.9,3.9,0,0,0,1011.31,402.85Z" style="fill: #d4dadf"/>
        <path d="M785,415V442.8a3.25,3.25,0,0,0-1.81-3.2,6.19,6.19,0,0,0-2.85-.6V411.17a6.19,6.19,0,0,1,2.85.6A3.25,3.25,0,0,1,785,415Z" style="fill: #d4dadf"/>
        <path d="M780.33,411.16V439c-5.69.54-4.72,3.07-6.37,5.63V416.8C775.58,414.24,774.67,411.69,780.33,411.16Z" style="fill: #d4dadf"/>
        <path d="M1123,417.69v27.85c0,.84-1.21,1.24-3.41,1.24-7.31,0-25.5-4.5-46-12.58-10.45-4.11-17.07-5.29-21.48-5.29a17.93,17.93,0,0,0-6.43,1.07,11.66,11.66,0,0,1-3.39,1.07V403.2a11.66,11.66,0,0,0,3.39-1.07,17.93,17.93,0,0,1,6.43-1.07c4.42,0,11,1.18,21.48,5.29,20.49,8.08,38.68,12.58,46,12.58C1121.83,418.93,1123,418.54,1123,417.69Z" style="fill: #d4dadf"/>
        <path d="M807.45,419.18V447c0-.59-.41-1.06-1.12-1.41-2.13-1.08-6.91-1.17-10.48-1.18H790c-2.29,0-4.27-.09-5.13-.52V416.12c.85.43,2.83.52,5.13.52h5.85c3.57,0,8.35.1,10.48,1.18C807,418.13,807.45,418.59,807.45,419.18Z" style="fill: #d4dadf"/>
        <path d="M675.32,417.54v27.83c0,1.33-1.87,2.25-5.31,2.25A37.06,37.06,0,0,1,660.3,446a29.26,29.26,0,0,0-7.92-1.24c-7.4,0-10.2,4-17.81,4.18a14.55,14.55,0,0,1-6.7-1.29c-3-1.51-4.36-4.27-4.36-7.89V411.94c0,3.63,1.4,6.39,4.36,7.89a14.55,14.55,0,0,0,6.7,1.29c7.6-.12,10.41-4.18,17.81-4.18a29.26,29.26,0,0,1,7.92,1.24,37.06,37.06,0,0,0,9.71,1.58C673.45,419.78,675.32,418.87,675.32,417.54Z" style="fill: #d4dadf"/>
        <path d="M762.79,449.58V421.69a2.31,2.31,0,0,1,.72-1.77c.81-.71,3.41-1.17,5.92-1.17,2.1,0,4.14.32,5,1.07v27.87c-.9-.75-2.94-1.07-5-1.07-2.52,0-5.11.46-5.92,1.17A2.31,2.31,0,0,0,762.79,449.58Z" style="fill: #d4dadf"/>
        <path d="M773.12,450.36V422.52a.92.92,0,0,0,.57.86v27.83A.92.92,0,0,1,773.12,450.36Z" style="fill: #d4dadf"/>
        <path d="M782.26,420v27.83c0,1.33-1.58,3.17-5.36,3.6a13.69,13.69,0,0,1-1.46.09,4.19,4.19,0,0,1-1.76-.28V423.38a4.19,4.19,0,0,0,1.76.28,13.69,13.69,0,0,0,1.46-.09C780.67,423.15,782.26,421.31,782.26,420Z" style="fill: #d4dadf"/>
        <path d="M649.19,452.13V424.3c0,1.28,2.46,3.77,6.17,5.66a27.83,27.83,0,0,0,2.65,1.15v27.83a27.83,27.83,0,0,1-2.65-1.15C651.67,455.9,649.19,453.44,649.19,452.13Z" style="fill: #d4dadf"/>
        <path d="M662.25,433.69v27.83c0-.45-.44-.9-1.55-1.47a25.22,25.22,0,0,0-2.69-1.12V431.11a25.22,25.22,0,0,1,2.69,1.12C661.84,432.8,662.25,433.26,662.25,433.69Z" style="fill: #d4dadf"/>
        <path d="M1027,434v27.83c0,.66-.53,1-1.54,1a10.16,10.16,0,0,1-3.71-1c-8.11-3.49-23.62-2.32-38.1-9.54-5.24-2.63-8.55-3.46-11-3.46a13.36,13.36,0,0,0-5.23,1.23,14.28,14.28,0,0,1-5.63,1.24,17.41,17.41,0,0,1-3.29-.34,103.74,103.74,0,0,0-18.69-1.94c-5.86,0-11.39.74-15.7,2.66-7.6,3.4-15.23,6.81-27.44,6.81q-3.11,0-6.64-.31c-2.52-.23-4.71-.34-6.55-.34-4.7,0-7.14.69-7.14,1.74V431.88c0-1,2.44-1.74,7.14-1.74,1.84,0,4,.11,6.55.34q3.54.32,6.64.31c12.21,0,19.84-3.41,27.44-6.81,4.3-1.92,9.83-2.66,15.7-2.66a103.74,103.74,0,0,1,18.69,1.94,17.41,17.41,0,0,0,3.29.34,14.28,14.28,0,0,0,5.63-1.24,13.36,13.36,0,0,1,5.23-1.23c2.48,0,5.8.83,11,3.46,14.47,7.23,30,6,38.1,9.54a10.16,10.16,0,0,0,3.71,1C1026.5,435.09,1027,434.69,1027,434Z" style="fill: #d4dadf"/>
        <path d="M776.79,435.52v27.83c0,1.44-4.36,2.84-5.9,2.84-2.31,0-4.2,2.34-4.32,5.21V443.54c.12-2.87,2-5.21,4.32-5.21C772.44,438.36,776.79,437,776.79,435.52Z" style="fill: #d4dadf"/>
        <path d="M827,445v27.83c0-3.08-5-6-9.19-8.09a9.48,9.48,0,0,0-4.22-1.25c-2.5,0-4.35,1.71-7.89,4.16-4,2.81-10.29,3.81-16.07,3.81a46.32,46.32,0,0,1-5-.27,14.59,14.59,0,0,1-4.46-1c-.67-.34-.9-.73-.9-1.15V441.25c0,.42.23.81.9,1.15a14.59,14.59,0,0,0,4.46,1,46.32,46.32,0,0,0,5,.27c5.78,0,12.12-1,16.07-3.83,3.54-2.45,5.39-4.16,7.89-4.16a9.48,9.48,0,0,1,4.22,1.25C822,439,827,441.92,827,445Z" style="fill: #d4dadf"/>
        <path d="M712.07,473.17V445.36c0-.32.22-.65.7-1a8.64,8.64,0,0,1,5.46-1.47c2.81,0,6.61.53,12.56.73h1.88a41.07,41.07,0,0,0,6.4-.49,29.27,29.27,0,0,1,4.39-.49,17.62,17.62,0,0,1,6.57,1.49c7.36,2.93,11.44,4.68,15.76,4.6v27.86c-4.32.08-8.41-1.69-15.76-4.63a17.62,17.62,0,0,0-6.57-1.49,29.27,29.27,0,0,0-4.39.49,41.07,41.07,0,0,1-6.4.49h-1.89c-6-.2-9.75-.73-12.56-.73a8.64,8.64,0,0,0-5.46,1.47C712.29,472.52,712.07,472.85,712.07,473.17Z" style="fill: #d4dadf"/>
        <path d="M769.81,449.92v27.83a1.08,1.08,0,0,0-.65-1,3.79,3.79,0,0,0-1.7-.3,13.34,13.34,0,0,0-1.85.15V448.75a13.34,13.34,0,0,1,1.85-.15,3.79,3.79,0,0,1,1.7.3A1.08,1.08,0,0,1,769.81,449.92Z" style="fill: #d4dadf"/>
        <path d="M750.06,449.6v27.83a1.12,1.12,0,0,1-.79,1c-.81.36-1.23.74-1.23,1.13V451.69c0-.39.42-.77,1.23-1.13A1.12,1.12,0,0,0,750.06,449.6Z" style="fill: #d4dadf"/>
        <path d="M778.83,448.09v27.83c0,1.79-3.18,3.59-6.21,4.81a6.83,6.83,0,0,1-2.34.6V453.5a6.83,6.83,0,0,0,2.34-.6C775.67,451.69,778.83,449.88,778.83,448.09Z" style="fill: #d4dadf"/>
        <path d="M769.34,480V452.17a1.29,1.29,0,0,0,.93,1.32v27.82A1.29,1.29,0,0,1,769.34,480Z" style="fill: #d4dadf"/>
        <path d="M649,482.09V454.26c0,1.32,1.09,2.58,3.21,3.62v27.81C650.11,484.69,649,483.46,649,482.09Z" style="fill: #d4dadf"/>
        <path d="M756.22,459v27.83c0,.56-.57.9-1.46.9A6.31,6.31,0,0,1,752,487a10.18,10.18,0,0,1-1.58-1,15.69,15.69,0,0,0-2.45-1.66c-1.78-.91-4.14-1.25-11.15-2a89.45,89.45,0,0,0-10.72-.85c-4,0-8.8.47-18.28,1.64s-12.11,2.5-12.11,4.8V460.08c0-2.29,2.59-3.69,12.07-4.84s14.25-1.64,18.28-1.64a89.44,89.44,0,0,1,10.72.85c7,.79,9.37,1.13,11.15,2a15.69,15.69,0,0,1,2.45,1.66,10.18,10.18,0,0,0,1.58,1,6.31,6.31,0,0,0,2.73.75C755.67,459.91,756.22,459.58,756.22,459Z" style="fill: #d4dadf"/>
        <path d="M939.5,441.58v27.83c0,3.92-6.22,8.45-10.59,15.16-3.45,5.34-7.94,7.38-13.74,7.38s-12.94-2-21.67-4.9c-14.83-4.84-27.52-7.73-43-7.73-2.78,0-5.64.09-8.62.28-4.87.33-6.83,1-6.83,1.76V453.54c0-.8,2-1.44,6.83-1.76,3-.19,5.85-.28,8.62-.28,15.45,0,28.14,2.88,43,7.73,8.73,2.85,15.86,4.9,21.67,4.9s10.28-2,13.74-7.38C933.29,450,939.5,445.48,939.5,441.58Z" style="fill: #d4dadf"/>
        <path d="M674.67,466.62v27.83a6.14,6.14,0,0,0-2-4.15,11.42,11.42,0,0,0-3.11-2.44A11.62,11.62,0,0,0,664,486.8h-3.59a26.86,26.86,0,0,1-8.39-1.21V457.81a26.86,26.86,0,0,0,8.39,1.21H664a11.62,11.62,0,0,1,5.51,1.06,11.42,11.42,0,0,1,3.11,2.44A6.14,6.14,0,0,1,674.67,466.62Z" style="fill: #d4dadf"/>
        <path d="M700.9,475.69V503.5c0,2.45-1.68,4.38-7.06,7.52-6.18,3.57-8.35,6-11.58,6-1.81,0-4-.76-7.34-2.48-5.06-2.6-10.48-4-13.22-5.43-1.12-.58-1.8-1.15-1.8-1.79V479.46c0,.64.67,1.22,1.8,1.79,2.74,1.38,8.16,2.83,13.22,5.43,3.38,1.73,5.53,2.48,7.34,2.48,3.24,0,5.41-2.4,11.58-6C699.22,480,700.9,478.1,700.9,475.69Z" style="fill: #d4dadf"/>
        <path d="M1010.55,526.9v27.79c0,2.33-.85,4.85-1.44,7.59a3.79,3.79,0,0,0-.09.79V535.28a3.8,3.8,0,0,1,.09-.79C1009.67,531.75,1010.55,529.23,1010.55,526.9Z" style="fill: #d6dce1"/>
        <path d="M1015.31,423V395.17a14.29,14.29,0,0,0-2.85.2c-1.91.32-2.61,1.37-2.21,3.07a22.34,22.34,0,0,1,1,4.41v21A12.38,12.38,0,0,1,1015.31,423Z" style="fill: #d4dadf"/>
        <path d="M702.78,521.69V493.87c0,5.39,8.35,7.23,12.87,17,5.41,11.86,2.45,20.94,15.39,27.58a48.69,48.69,0,0,0,8.2,3.21c22.51,6.81,38,5.38,51.63,9.07a34.87,34.87,0,0,0,9,1.16c10.84,0,21.28-4.69,26.82-10.6,6.36-6.76,11.33-9.46,23.38-9.46,1.4,0,2.89,0,4.49.11,6.94.32,10.39,1.26,12.93,2.56a29.18,29.18,0,0,1,3.64,2.27,36.18,36.18,0,0,0,4.57,2.75v27.82a36.11,36.11,0,0,1-4.57-2.74,29.18,29.18,0,0,0-3.64-2.27c-2.55-1.3-6-2.24-12.93-2.56-1.6-.07-3.09-.11-4.49-.11-12.06,0-17,2.7-23.38,9.46-5.54,5.91-16,10.6-26.82,10.6a34.87,34.87,0,0,1-9-1.16c-13.64-3.69-29.12-2.26-51.63-9.07a48.69,48.69,0,0,1-8.2-3.21c-12.94-6.59-10-15.71-15.37-27.59C711.12,528.93,702.78,527.09,702.78,521.69Z" style="fill: #d4dadf"/>
        <path d="M1043.67,576.55v27.8a17,17,0,0,1-.11,1.87c-.79,6.85-7.88,9.25-15,9.25a30.76,30.76,0,0,1-11.41-2.1c-8-3.44-27.39-10-50.44-12.7-11.55-1.33-18.3-3.15-23.23-5.66s-8.06-5.72-12.29-9.83a34.66,34.66,0,0,0-8.42-5.91c-7.16-3.64-15.44-5.26-23.37-7-11.36-2.53-12.43.12-21.9-4-.7-.3-1.58-.76-2.18-1V539.41c.59.29,1.48.74,2.18,1,9.47,4.12,10.54,1.46,21.9,4,7.94,1.75,16.22,3.37,23.37,7a34.66,34.66,0,0,1,8.42,5.91c4.24,4.11,7.34,7.32,12.29,9.83s11.64,4.36,23.19,5.65c23,2.66,42.43,9.26,50.44,12.7a30.76,30.76,0,0,0,11.41,2.1c7.13,0,14.22-2.4,15-9.25A17,17,0,0,0,1043.67,576.55Z" style="fill: #d4dadf"/>
        <path d="M1074.93,207.69a19.15,19.15,0,0,1,8.28,1.58c3.78,1.85,4.33,4.76,2,5.72-4,1.65-12.28-.84-20,4.12s7.17,3,3.59,11,.41,6.41-8.79,10.26-7.19,4.84-1.48,10.27,7.87,2.77,13.18,13.3c2.45,4.83,3.16,6.69,2,6.69a7.24,7.24,0,0,1-2.5-.9c-2.13-1-5.38-2.91-9.85-5.08l-4.88-2.38c-8.82-4.31-11.65-6.08-11.43-11.39.2-3.73.09-6.44-1.56-7.25a8.86,8.86,0,0,0-5.51,1.15c-6.9,3.48-9.44,7-9.73,13.75s-23.37,1.9-24,10.71c-.47,6-.52,12.93,4.36,15.34a9.51,9.51,0,0,0,4.23.86,23.24,23.24,0,0,0,6.66-1.16,18.82,18.82,0,0,1,5.54-.92,12.43,12.43,0,0,1,5.58,1.26c6.74,3.31,9.75,12.45,14,18,6.25,8,3.37,9.82,1,14.66-.89,1.74,0,2.78,1.78,3.66a43.14,43.14,0,0,0,4.49,1.69,42.3,42.3,0,0,1,5.52,2.15A18,18,0,0,1,1061,327c3.79,3.16,3.27,4.94.28,4.94-2.13,0-5.5-.9-9.46-2.86a29.09,29.09,0,0,0-12.74-3.17c-4.92,0-9.32,1.56-12.37,4.63-2.89,2.93-2.88,5.61-.81,6.63a4.87,4.87,0,0,0,2.15.43c2,0,4.82-.85,8.15-3,1.94-1.21,3.28-1.72,4.31-1.72,2.37.85,3.12,2.36,4.3,4a14.21,14.21,0,0,0,5.55,5,18.66,18.66,0,0,0,4.9,1.56c7.71,1.42,11.18,1.55,14.41,3.13,2.75,1.37,5.33,3.8,10.26,9,10.66,11.42-4,15.39-8.28,20.6s-10.25,4-8,10.17a3.9,3.9,0,0,0,2.11,2.09c6.44,3.19,24.89.69,35.18,3.33a13.25,13.25,0,0,1,2.71,1c5.79,2.87-2.27,7.31-11.08,7.31a23.77,23.77,0,0,1-4.45-.41,18.75,18.75,0,0,0-3.4-.38c-4.31,0-2.84,2.85,3,5.76a54.3,54.3,0,0,0,10.8,3.81c11.39,2.79,17.54,3.29,21.13,5.06a7.21,7.21,0,0,1,3.25,3c.73,1.29-.49,1.91-3.2,1.91-7.31,0-25.5-4.5-46-12.58-10.45-4.11-17.07-5.29-21.48-5.29a17.93,17.93,0,0,0-6.43,1.07,11.66,11.66,0,0,1-3.39,1.07c-2.33-1-3.37-1.61-4.62-2.2a56.4,56.4,0,0,0-22.59-5.84c-10.64,0,.2,7.18-5.65,11.11-5.53,3.76-10,11.6,1.49,17.35.91.45,1.91.88,3,1.3,1.79.69,3.4,1.4,4.8,2.1,8.24,4.11,9.92,8.1,6.69,8.1a10.16,10.16,0,0,1-3.71-1c-8.11-3.49-23.62-2.32-38.1-9.54-5.24-2.63-8.55-3.46-11-3.46a13.36,13.36,0,0,0-5.23,1.23,14.28,14.28,0,0,1-5.63,1.24,17.41,17.41,0,0,1-3.29-.34,103.74,103.74,0,0,0-18.69-1.94c-5.86,0-11.39.74-15.7,2.66-7.6,3.4-15.23,6.81-27.44,6.81q-3.11,0-6.64-.31c-2.52-.23-4.71-.34-6.55-.34-7.22,0-9.1,1.63-5,3.7a39,39,0,0,0,7.44,2.5c7.84,2,13.07,3.31,16.86,3.31a8.37,8.37,0,0,0,7.28-3.36c2.32-2.93,4.13-4.77,8-4.77,3,0,7.24,1.11,13.93,3.68a29.59,29.59,0,0,1,3,1.3c10.72,5.37.43,10.53-5.93,20.29-3.45,5.34-7.94,7.38-13.74,7.38s-12.94-2-21.67-4.9c-14.83-4.84-27.52-7.73-43-7.73-2.78,0-5.64.09-8.62.28-7.46.5-8.1,1.73-5.3,3.16,4.59,2.32,18.4,5.09,26.49,5.7,13,1,32.48,6.46,45.66,9.38,6.64,1.47,13.24,2.62,18.67,2.62s9.54-1.1,11.55-4.07,3.53-4.44,5.52-4.44a5.12,5.12,0,0,1,2.29.62c1.73.86,3.77,2.66,6.49,5.52,7.65,8.15,11.3,10.6,13.39,22.13,1.4,8.13,3.89,13.73,12.46,18.07a67.41,67.41,0,0,0,14.65,4.9,49.36,49.36,0,0,1,10.74,3.61c8.41,4.25,5.8,9.28,4.48,15.37-.77,3.63,3.83,6.31,9.23,9l1.91,1,2.57,1.27c5.11,2.58,9.87,5.43,10.72,9.27,1.9,9.2,11.21,12.66,10,23.48-.79,6.85-7.88,9.25-15,9.25a30.76,30.76,0,0,1-11.41-2.1c-8-3.44-27.39-10-50.44-12.7-11.55-1.33-18.3-3.15-23.23-5.66s-8.06-5.72-12.29-9.83a34.66,34.66,0,0,0-8.42-5.91c-7.16-3.64-15.44-5.26-23.37-7-11.36-2.53-12.43.12-21.9-4-.7-.3-1.31-.62-1.91-.9a35.26,35.26,0,0,1-4.49-2.75,29.18,29.18,0,0,0-3.64-2.27c-2.55-1.3-6-2.24-12.93-2.56-1.6-.07-3.09-.11-4.49-.11-12.06,0-17,2.7-23.38,9.46-5.54,5.91-16,10.6-26.82,10.6a34.87,34.87,0,0,1-9-1.16c-13.64-3.69-29.12-2.26-51.63-9.07a48.69,48.69,0,0,1-8.2-3.21c-12.94-6.63-10-15.71-15.39-27.58-6.39-13.81-20.44-11.77-7.7-26.33,10.28-11.77,29.34-16,40.94-16a30.33,30.33,0,0,1,6.44.58,54.11,54.11,0,0,0,11.78,1.26c6.74,0,13.11-1.24,15-4.23,3.17-4.77,7.64-7.09,25.46-9.88,10.67-1.68,14.35-4.82,18.31-8.77s-2.73-7.91-8-10.57a9.48,9.48,0,0,0-4.22-1.25c-2.5,0-4.35,1.71-7.89,4.16-4,2.79-10.29,3.83-16.07,3.83a46.32,46.32,0,0,1-5-.27,14.59,14.59,0,0,1-4.46-1c-1.5-.77-.77-1.76-.27-2.83a16.92,16.92,0,0,0,1.44-6.47c0-2.51,3.5-3.54,10.21-5s13.64-4.58,15.58-7.92c.63-1.08.22-1.84-.82-2.36-2.13-1.08-6.91-1.17-10.48-1.18H790c-2.29,0-4.27-.09-5.13-.52.32-2.14-.17-3.57-1.72-4.35a6.19,6.19,0,0,0-2.85-.6c-5.69.54-4.72,3.07-6.37,5.63.82,1.48,2.2,1.53,3.58,1.53,2.84,0,3.81,0,4.26.27,1.34,1,.22,4.13-4.84,4.7a13.69,13.69,0,0,1-1.46.09,4.19,4.19,0,0,1-1.76-.28c-1.16-.6-.34-2,.72-3.24-.9-.75-2.94-1.07-5-1.07-2.52,0-5.11.46-5.92,1.17-1.74,1.59-.28,5.29,3.68,8.4,2.82,2.2,2.5,3.59,4.44,4.57a13.36,13.36,0,0,0,3.82,1c4.33,1.75-2.47,4.13-4.48,4.13-2.31,0-4.2,2.34-4.32,5.21a1.2,1.2,0,0,0,.65,1.3c1.51.77,5.44-.28,9.51,1.32,4.77,2.37.13,5.31-4.19,7a6.83,6.83,0,0,1-2.34.6c-1.45-.54-.85-2-.56-3a1.2,1.2,0,0,0-.56-1.6,3.79,3.79,0,0,0-1.7-.3,13.34,13.34,0,0,0-1.85.15c-4.32.08-8.26-1.69-15.61-4.63a17.62,17.62,0,0,0-6.57-1.49,29.27,29.27,0,0,0-4.39.49,41.07,41.07,0,0,1-6.4.49h-1.89c-6-.2-9.75-.73-12.56-.73a8.64,8.64,0,0,0-5.46,1.47c-1.17.86-.78,1.61.52,2.26,2.53,1.28,8.44,2.22,12.62,3a27.88,27.88,0,0,0,4.73.36,52.68,52.68,0,0,0,14.61-2.19,5.93,5.93,0,0,1,1.89-.32,4,4,0,0,1,1.88.42c1.31.66,1.65,1.9.38,2.45-1.54.68-1.67,1.44-.18,2.2a14.2,14.2,0,0,0,3,1c4.09,1.84,3.89,4.1,4.11,5.28.13.67-.46,1.07-1.44,1.07a6.31,6.31,0,0,1-2.73-.75,10.18,10.18,0,0,1-1.58-1,15.69,15.69,0,0,0-2.45-1.66c-1.78-.91-4.14-1.25-11.15-2a89.45,89.45,0,0,0-10.72-.85c-4,0-8.8.47-18.28,1.64-17.34,2.11-11.62,5-9.17,12.79s4.68,9.51-4.92,15.11c-6.18,3.57-8.35,6-11.58,6-1.81,0-4-.76-7.34-2.48-5.06-2.6-10.48-4-13.22-5.43-2.34-1.2-2.72-2.38.83-4.22,7.6-4,15.9-8.27,10-14.53a11.42,11.42,0,0,0-3.11-2.44A11.62,11.62,0,0,0,664,459h-3.59a26.86,26.86,0,0,1-8.39-1.21c-8.25-4,3.36-10.53,5-16.91,1.64-5.93,8.28-6.35,3.76-8.65a25.22,25.22,0,0,0-2.69-1.12A27.83,27.83,0,0,1,655.4,430c-5.24-2.67-8-6.51-4.85-6.51,1.23,0,3.36.59,6.61,2.08,4.15,1.9,7.16,2.61,9.58,2.61,5,0,7.55-3,12.66-4.72,7.49-2.52,15-4.41,12.6-12s7.38-5.06,1.65-8.56-1.57-4.57,3-9.76c.92-1,.93-1.65.31-1.94a3.47,3.47,0,0,0-1.5-.25c-4.25,0-14.41,3.26-18.61,5.91a9.8,9.8,0,0,1-5.23,1.37,12.9,12.9,0,0,1-5.73-1.34c-3.54-1.8-5.86-5.31-3.93-10.06,1.21-3,.44-4.64-1.15-5.46a6.73,6.73,0,0,0-3-.6c-3.54,0-7.76,1.83-7.66,3.81.12,3.5-4.19,12.09,3.52,16a15.16,15.16,0,0,0,2.61,1,22.08,22.08,0,0,1,4.17,1.55c5.9,3,3.65,6.84,10.82,10.49,6.12,3.11,5.09,6.18-1.22,6.18a37.06,37.06,0,0,1-9.71-1.58,29.26,29.26,0,0,0-7.92-1.24c-7.4,0-10.2,4-17.81,4.18a14.55,14.55,0,0,1-6.7-1.29c-4.35-2.21-5.34-7.13-3.46-13.52,2.51-8.9-1-11.34-4.81-21.48s9.11-17.67,23.54-18.47,15.75-1.33,31.34-5.77a28.86,28.86,0,0,1,8-1.27A12.34,12.34,0,0,1,688,360.4c3.93,2,3.32,6.31-3.51,9.51-3.2,1.51-3.61,2.51-2.39,3.14s3.6.81,6.56.81c5.36,0,12.3-.8,15.7-1.92,7.34-2.4-2.54-10.46-9.6-16.48-1.89-1.59-1.37-2.15.41-2.15a63.35,63.35,0,0,1,9.63,1.52,65.94,65.94,0,0,0,9.19,1.5c1.69-2.51-8.11-8.62,3.21-11.4s19.18-6.59,22.9-11.9c3.24-4.69,17.42-3.45,14.86-4.72a39.74,39.74,0,0,1-6.33-2.4c-7-3.49-13.06-10.18-4.56-15.15a13,13,0,0,1,6.7-1.93,14.74,14.74,0,0,1,6.6,1.7c4.28,2.13,7.85,5.79,10.43,8a71.83,71.83,0,0,0,11.83,8.37,7.69,7.69,0,0,0,3,1c1.33-3.36-2.71-6.37,2.19-6.37a43.17,43.17,0,0,1,7.07.88,20.93,20.93,0,0,0,3.67.39c5.52,0,3.5-3.82-1.06-6.09a15.75,15.75,0,0,0-6.9-1.68,12.52,12.52,0,0,0-2.83.32,16.91,16.91,0,0,1-3.79.42,26.07,26.07,0,0,1-11.29-3,29.42,29.42,0,0,1-2.75-1.55c4.78.17,14.35-6.38,7.6-9.74-7.53-3.74,4.94-4.49,7.11-10.29s1.46-6.76,14.77-12.12,4-7.1,9.36-13.5c1.39-1.66,2.47-2.21,3.55-2.21a9.93,9.93,0,0,1,3.25.94,12.55,12.55,0,0,0,4.68.94,18.77,18.77,0,0,0,7.72-2,50,50,0,0,1,18.65-4.09,12.08,12.08,0,0,1,4.92.76c1.88.94,1.38,2.74-3.33,5.51-8,4.68-7.51,7.84-5.44,8.89a3.72,3.72,0,0,0,1.61.36,2.74,2.74,0,0,0,2.62-1.45c1.57-3.71,13.48-6.73,17.06-10,3.23-3,12.46-6.89,25.57-6.89q1.51,0,3.09.07,2,.09,3.91.09c12.7,0,22-3,30-8.5,8.78-5.94-1.26-5.46,16.18-12a33.89,33.89,0,0,1,11.81-2.3,27.19,27.19,0,0,1,6.77.9,21.17,21.17,0,0,0,4.65.91,4.66,4.66,0,0,0,3.28-1.3c4.8-4.19,26.16-9.3,35.76-9.3h1.44c.44,0,1.12.06,1.64.06,7.24,0,8.86-3.85,24.38-11.32,9.72-4.7,17.3-5.21,24.84-5.21h6.24a80.71,80.71,0,0,0,10-.52A35.11,35.11,0,0,1,1074.93,207.69Z" style="fill: url(#map-linear-gradient-3)"/>
    </g>
    <g>
        <path d="M1160.56,424V396.12a21.08,21.08,0,0,0,.85,4.77v27.8A21.08,21.08,0,0,1,1160.56,424Z" style="fill: #d4dadf"/>
        <path d="M1170.67,404.6v27.83a20.85,20.85,0,0,0-1.86-1,39.07,39.07,0,0,0-7.37-2.69V400.89a39.07,39.07,0,0,1,7.37,2.69A20.88,20.88,0,0,1,1170.67,404.6Z" style="fill: #d4dadf"/>
        <path d="M1171.2,407v27.83a5.22,5.22,0,0,0-.55-2.44V404.6A5.22,5.22,0,0,1,1171.2,407Z" style="fill: #d4dadf"/>
        <path d="M1179.58,404.69v27.83a5.05,5.05,0,0,1-.21,1.43,3.73,3.73,0,0,0-.13,1V407.16a3.73,3.73,0,0,1,.13-1A5,5,0,0,0,1179.58,404.69Z" style="fill: #d4dadf"/>
        <path d="M1179.49,409.83v27.86c0,1.21-.54,2.1-3.24,2.1h-1.18a8.59,8.59,0,0,1-2.91-.62,1.86,1.86,0,0,1-1.12-1.89V409.36a1.86,1.86,0,0,0,1.12,1.89,8.59,8.59,0,0,0,2.91.62h1.18C1178.95,411.92,1179.49,411,1179.49,409.83Z" style="fill: #d4dadf"/>
        <path d="M1161.49,394.35a1.7,1.7,0,0,1,.73.21c1.78.88,2.53,1.82,4.12,2.6a17.28,17.28,0,0,0,5.68,1.43,12.45,12.45,0,0,1,4.09,1.12c3.24,1.6,3.86,4.38,3.26,6.43-.71,2.52,2,5.78-3.12,5.78h-1.18a8.59,8.59,0,0,1-2.91-.62c-2.36-1.18,0-3.65-1.52-6.65a20.85,20.85,0,0,0-1.86-1,39.07,39.07,0,0,0-7.37-2.69C1161.32,400.54,1159.5,394.36,1161.49,394.35Z" style="fill: #e1e7eb"/>
    </g>
    <g>
        <path d="M1140.35,402.69v27.8c0-1.34-1.07-3-4.22-5.29-1.79-1.3-2.5-2.3-2.5-3V394.37c0,.74.71,1.74,2.5,3C1139.28,399.69,1140.35,401.37,1140.35,402.69Z" style="fill: #d4dadf"/>
        <path d="M1166.16,409v27.83c0,2.47-1.42,5.46-2.1,8.74a2.89,2.89,0,0,1-3.12,2.64h0c-4,0-10.83-4.09-17.16-4.2a14.53,14.53,0,0,1-6-1.17,4.08,4.08,0,0,1-2.62-3.73V411.29a4.08,4.08,0,0,0,2.62,3.73,14.53,14.53,0,0,0,6,1.17c6.33.11,13.21,4.2,17.16,4.2a2.89,2.89,0,0,0,3.15-2.6h0C1164.67,414.46,1166.16,411.48,1166.16,409Z" style="fill: #d4dadf"/>
        <path d="M1137.83,392.69a12.53,12.53,0,0,1,5,.93,1.82,1.82,0,0,1,1,.94c.49,1.64,2.3,3.73,6.17,5.63a41.58,41.58,0,0,0,9.28,3.12,16.54,16.54,0,0,1,3.74,1.25c5.62,2.77,2.2,7.57,1,13.25a2.89,2.89,0,0,1-3.12,2.64h0c-4,0-10.83-4.09-17.16-4.2a14.53,14.53,0,0,1-6-1.17c-3.15-1.55-3.1-4.35-1.72-6.63,2-3.25,8.6-4.79.13-11C1131.36,393.94,1134.29,392.69,1137.83,392.69Z" style="fill: url(#map-linear-gradient-4)"/>
    </g>
    <g>
        <path d="M1273.19,386.15V414c0,.74-1.06,1.39-3.41,1.48-6.1.27-14.06.7-19.39,4.89-2.7,2.12-4.79,2.94-7,2.94s-4.56-.81-7.75-2c-2.33-.85-6.17-1.17-10.34-1.17a94.86,94.86,0,0,0-18.52,1.81,19.32,19.32,0,0,1-4.88.61,11.07,11.07,0,0,1-4.61-.8,1.83,1.83,0,0,1-1.23-1.56V392.39a1.83,1.83,0,0,0,1.23,1.56,11.07,11.07,0,0,0,4.61.8,19.32,19.32,0,0,0,4.88-.61c3.21-.86,11.35-1.81,18.52-1.81,4.17,0,8,.32,10.34,1.17,3.19,1.16,5.54,2,7.75,2s4.32-.82,7-2.94c5.33-4.19,13.28-4.63,19.39-4.89C1272.13,387.54,1273.19,386.89,1273.19,386.15Z" style="fill: #d4dadf"/>
        <path d="M1242,378.09a13,13,0,0,1,5.5,1.25,4.36,4.36,0,0,1,2.53,2.42,2.09,2.09,0,0,0,1.25,1.35c1.54.75,4.34,1,7.58,1,2.23,0,4.68-.12,7.06-.27h1.16a11,11,0,0,1,4.73.88c2.2,1.08,1.87,2.78-2.05,2.94-6.1.27-14.06.7-19.39,4.89-2.7,2.12-4.79,2.94-7,2.94s-4.56-.81-7.75-2c-2.33-.85-6.17-1.17-10.34-1.17a94.86,94.86,0,0,0-18.52,1.81,19.32,19.32,0,0,1-4.88.61,11.07,11.07,0,0,1-4.61-.8c-1.28-.63-1.72-1.65-.57-3.07a4.77,4.77,0,0,1,3.94-2.07,15.26,15.26,0,0,1,2.68.35,17.26,17.26,0,0,0,3.1.34h.37c8.36-.29,4.25-5.61,12.75-6.64s13.69-.12,17.71-3.32A7.52,7.52,0,0,1,1242,378.09Z" style="fill: url(#map-linear-gradient-5)"/>
    </g>
    <g>
        <path d="M1395.67,447.46v27.83a4.81,4.81,0,0,1-1.33,3.21c-1.3,1.44-4.81,2-8.7,2-4.66,0-9.87-.85-12.51-2.15-.94-.46-1.55-1-1.67-1.54a7.9,7.9,0,0,1-.23-1.66V447.36a7.9,7.9,0,0,0,.23,1.66c.13.55.74,1.08,1.67,1.54,2.64,1.3,7.85,2.15,12.51,2.15,3.9,0,7.41-.6,8.7-2A4.81,4.81,0,0,0,1395.67,447.46Z" style="fill: #d4dadf"/>
        <path d="M1383.38,439.89a17.74,17.74,0,0,1,3.9.52,16.14,16.14,0,0,1,3.78,1.28c4.42,2.17,6,5.93,3.3,9-1.3,1.44-4.81,2-8.7,2-4.66,0-9.87-.85-12.51-2.15-.94-.46-1.55-1-1.67-1.54-.76-3.4.12-3.53,5.9-6.42C1379.29,441.69,1379.92,439.89,1383.38,439.89Z" style="fill: #e1e7eb"/>
    </g>
    <g>
        <path d="M1273.67,409.69v27.8c0-1.43-3.35-3.93-5.39-6.54a3.74,3.74,0,0,1-1-2.14V401a3.75,3.75,0,0,0,1,2.14C1270.33,405.75,1273.67,408.26,1273.67,409.69Z" style="fill: #d4dadf"/>
        <path d="M1241.67,417.4v27.83c0-2.65-7-6.4-7-8.57V408.84C1234.67,411,1241.67,414.75,1241.67,417.4Z" style="fill: #d4dadf"/>
        <path d="M1326.31,468.45V440.69q0-.51.57-.51a6.45,6.45,0,0,1,2.36.81c.76.37,1.65.86,2.66,1.46.64.37,1.2.68,1.71.94v27.8c-.51-.27-1.07-.57-1.71-.94a29.41,29.41,0,0,0-2.66-1.46,6.45,6.45,0,0,0-2.36-.81C1326.51,467.94,1326.31,468.1,1326.31,468.45Z" style="fill: #d4dadf"/>
        <path d="M1370.54,437.76v27.83c0,2.3-4.59,3.2-9.32,4.19-6.11,1.24-9.78,3.08-14.53,3.08a18.9,18.9,0,0,1-2.4-.15c-5.41-.7-6.73.38-10.69-1.55V443.32c4,1.93,5.28.85,10.69,1.55a18.9,18.9,0,0,0,2.4.15c4.75,0,8.42-1.84,14.53-3.08C1365.95,441,1370.54,440.05,1370.54,437.76Z" style="fill: #d4dadf"/>
        <path d="M1328.28,444.69v27.8c0,.6-.74.82-2,.82-1.73,0-4.45-.39-7.71-.78a90.63,90.63,0,0,0-10.9-.84,44.36,44.36,0,0,0-6.11.39c-8.28,1.14-10.48,2.33-10.48,4.87V449.21c0-2.54,2.2-3.73,10.48-4.87a44.36,44.36,0,0,1,6.11-.39,90.63,90.63,0,0,1,10.9.79c3.25.39,6,.78,7.71.78C1327.54,445.52,1328.28,445.3,1328.28,444.69Z" style="fill: #d4dadf"/>
        <path d="M1224,473.07V445.23c0,1.21.73,2.32,2.68,3.28a14.79,14.79,0,0,0,1.56.66c7.82,2.74,11,3.21,15.22,5.28,1.12.56,2.3,1.22,3.66,2.06a61.35,61.35,0,0,0,5.46,3.13,36.77,36.77,0,0,0,13.26,3.59,11.14,11.14,0,0,1,3.81,1.06,11,11,0,0,1,2.39,1.62v27.85a11,11,0,0,0-2.39-1.62,11.14,11.14,0,0,0-3.81-1.06,36.77,36.77,0,0,1-13.26-3.59,61.35,61.35,0,0,1-5.46-3.13c-1.37-.84-2.55-1.5-3.66-2.06-4.21-2.08-7.4-2.55-15.22-5.28a14.81,14.81,0,0,1-1.56-.66C1224.76,475.39,1224,474.28,1224,473.07Z" style="fill: #d4dadf"/>
        <path d="M1274,467.29v27.83a10,10,0,0,1-1.94-1.36V465.92A10,10,0,0,0,1274,467.29Z" style="fill: #d4dadf"/>
        <path d="M1293.11,458.69v27.8c0,5.3-6.45,4.44-13.3,7.81a9.64,9.64,0,0,1-4.1,1.24,3.71,3.71,0,0,1-1.72-.4V467.29a3.71,3.71,0,0,0,1.72.4,9.64,9.64,0,0,0,4.1-1.24C1286.67,463.07,1293.11,463.93,1293.11,458.69Z" style="fill: #d4dadf"/>
        <path d="M1272.13,399a49.13,49.13,0,0,1,16.1,3.33c6.13,2.72,9.92,1.6,25.26,4.24,11.52,2,25.46,5.61,33.35,9.49a16.1,16.1,0,0,1,5.63,3.91c4,5.2,5.61,7.09,14.11,13.15s1.72,7.35-5.36,8.84c-6.11,1.24-9.78,3.08-14.53,3.08a18.9,18.9,0,0,1-2.4-.15c-5.41-.7-6.73.38-10.69-1.55-.51-.27-1.07-.57-1.71-.94a29.41,29.41,0,0,0-2.66-1.46,6.45,6.45,0,0,0-2.36-.81c-1,0-.72,1.11,1,3.6,1,1.37.24,1.82-1.61,1.82s-4.45-.39-7.71-.78a90.63,90.63,0,0,0-10.9-.79,44.36,44.36,0,0,0-6.11.39c-13.64,1.88-10.77,3.89-8.77,11.88s-5.21,6.42-13,10.23a9.64,9.64,0,0,1-4.1,1.24,3.71,3.71,0,0,1-1.72-.4,10,10,0,0,1-1.94-1.36,11,11,0,0,0-2.39-1.62,11.14,11.14,0,0,0-3.81-1.06,36.77,36.77,0,0,1-13.24-3.56,61.35,61.35,0,0,1-5.46-3.13c-1.37-.84-2.55-1.5-3.66-2.06-4.21-2.08-7.4-2.55-15.22-5.28a14.79,14.79,0,0,1-1.56-.66c-7.14-3.52,2.05-9.07,3.75-14.09,1.79-5.26.11-5.84,1.52-11.56s8.65-2.14,9.66-5-8-7.27-6.83-9.47c.84-1.7,5.43-4.18,9.13-4.18a5.78,5.78,0,0,1,2.56.53,3.71,3.71,0,0,1,.41.24,32.63,32.63,0,0,0,3.4,2c3.32,1.64,8.12,3.12,16.78,3.82,1.17.09,2.16.14,3,.14,7.58,0,1.34-3.76-1.78-7.77C1265.88,400.05,1268.22,399,1272.13,399Z" style="fill: url(#map-linear-gradient-6)"/>
    </g>
    <g id="Tokyo" class="location-tooltip">
        <g class="ring-group">
            <ellipse class="ring" cx="1053.99" cy="326.81" rx="6.25" ry="3.94" style="fill: none;stroke: #40a1e9;stroke-miterlimit: 10;stroke-opacity: 0.80;stroke-width: 1px"/>
        </g>
        <ellipse cx="1053.99" cy="326.81" rx="6.25" ry="3.94" style="fill: #40a1e9;fill-opacity: 0.800000011920929;stroke: #40a1e9;stroke-miterlimit: 10;stroke-opacity: 0.33000001311302185;stroke-width: 10px"/>
        <path class="line" d="M1054.57,326.81H1053c-2.23,0-2.23-.2-2.23-2.43L1049,146.22a4.43,4.43,0,0,1,4.41-4.41h1.18a4.43,4.43,0,0,1,4.41,4.41l-2.12,178.15C1056.87,326.8,1057,326.81,1054.57,326.81Z" style="fill: #40a1e9;opacity: 0.5;isolation: isolate"/>
        <g class="closest-box">
            <path d="M1114,69V91c0,1.11-1.93,2-4.29,2H998.27c-2.37,0-4.29-.9-4.29-2V69c0-1.11,1.92-2,4.29-2h111.4C1112.06,67,1114,67.93,1114,69Z" style="fill: #f2f2f2"/>
            <text transform="translate(1009.25 81.1)" style="font-size: 10px;fill: #535353;font-family: 'Rubik', sans-serif;font-weight: 700;letter-spacing: 0.04em">CLOSEST TO YOU</text>
        </g>
        <path class="tooltip-box" d="M1019.51,118.69a33.62,33.62,0,0,1,27.47,25s1.68,5.47,7,5.68c4.47.18,7-5.67,7-5.68a33.67,33.67,0,0,1,27.51-25h21.18a4.16,4.16,0,0,0,4.29-4v-44a4.16,4.16,0,0,0-4.29-4H998.27a4.15,4.15,0,0,0-4.29,4v44a4.15,4.15,0,0,0,4.29,4Z" style="fill: #40a1e9"/>
        <text transform="translate(1030.41 90.33)" style="isolation: isolate;font-size: 16px;fill: #fff;font-family: 'Rubik', sans-serif;font-weight: 700">Tokyo</text>
        <text transform="translate(1024.49 109.53)" style="isolation: isolate;font-size: 16px;fill: #fff;font-family: 'Rubik', sans-serif;">JP, Asia</text>
    </g>
    <g id="Singapore" class="location-tooltip">
        <g class="ring-group">
            <ellipse class="ring" cx="1114.74" cy="415.64" rx="6.25" ry="3.94" style="fill: none;stroke: #40a1e9;stroke-miterlimit: 10;stroke-opacity: 0.80;stroke-width: 1px"/>
        </g>
        <ellipse cx="1114.74" cy="415.64" rx="6.25" ry="3.94" style="fill: #40a1e9;stroke: #40a1e9;stroke-miterlimit: 10;stroke-opacity: 0.33000001311302185;stroke-width: 10px"/>
        <path class="line" d="M1115.32,415.64h-1.52c-2.23,0-2.23-.17-2.23-2.15l-1.83-157.93a4.2,4.2,0,0,1,4.41-3.91h1.18a4.2,4.2,0,0,1,4.41,3.91l-2.07,157.91C1117.67,415.63,1117.75,415.64,1115.32,415.64Z" style="fill: #40a1e9;opacity: 0.5;isolation: isolate"/>
        <g class="closest-box">
            <path d="M1190.76,181.28v22c0,1.11-2.45,2-5.44,2H1044c-3,0-5.44-.9-5.44-2v-22c0-1.11,2.43-2,5.44-2h141.34C1188.31,179.28,1190.76,180.17,1190.76,181.28Z" style="fill: #f2f2f2"/>
            <text transform="translate(1070.02 193.34)" style="font-size: 10px;fill: #535353;font-family: 'Rubik', sans-serif;font-weight: 700;letter-spacing: 0.04em">CLOSEST TO YOU</text>
        </g>
        <path class="tooltip-box" d="M1080.28,230.54a33.62,33.62,0,0,1,27.47,25s1.68,5.47,7,5.68c4.47.18,7-5.67,7-5.68a33.67,33.67,0,0,1,27.51-25h36c3,0,5.43-1.79,5.43-4v-44c0-2.21-2.44-4-5.43-4H1044.19c-3,0-5.43,1.79-5.43,4v44c0,2.21,2.43,4,5.43,4Z" style="fill: #40a1e9"/>
        <text transform="translate(1073.52 202.15)" style="isolation: isolate;font-size: 16px;fill: #fff;font-family: 'Rubik', sans-serif;font-weight: 700">Singapore</text>
        <text transform="translate(1054.63 221.35)" style="isolation: isolate;font-size: 16px;fill: #fff;font-family: 'Rubik', sans-serif;">SG, Asia-Pacific</text>
    </g>
    <g id="Sydney" class="location-tooltip" transform="translate(628 65)">
        <g class="ring-group">
            <ellipse class="ring" cx="717.88" cy="360.36" rx="6.25" ry="3.94" style="fill: none;stroke: #40a1e9;stroke-miterlimit: 10;stroke-opacity: 0.80;stroke-width: 1px"/>
        </g>
        <ellipse cx="717.88" cy="360.36" rx="6.25" ry="3.94" style="fill: #40a1e9;stroke: #40a1e9;stroke-miterlimit: 10;stroke-opacity: 0.33000001311302185;stroke-width: 10px"/>
        <path class="line" d="M718.6,360.36h-1.52c-2.23,0-2.23-.15-2.23-1.9L713,218.82c0-1.9,2-3.46,4.41-3.46h1.18c2.43,0,4.41,1.56,4.41,3.46L720.9,358.45C720.9,360.35,721,360.36,718.6,360.36Z" style="fill: #40a1e9;opacity: 0.5;isolation: isolate"/>
        <g class="closest-box">
            <path d="M794.22,143v22c0,1.11-2.44,2-5.42,2H647.88c-3,0-5.42-.9-5.42-2V143c0-1.11,2.43-2,5.42-2H788.8C791.78,141,794.22,141.93,794.22,143Z" style="fill: #f2f2f2"/>
            <text transform="translate(672.7 155.1)" style="font-size: 10px;fill: #535353;font-family: 'Rubik', sans-serif;font-weight: 700;letter-spacing: 0.04em">CLOSEST TO YOU</text>
        </g>
        <path class="tooltip-box" d="M683.74,192.75a33.62,33.62,0,0,1,27.47,25s1.68,5.47,7,5.68c4.47.18,7-5.67,7-5.68a33.67,33.67,0,0,1,27.51-25h36c3,0,5.43-1.79,5.43-4v-44c0-2.21-2.44-4-5.43-4h-141c-3,0-5.43,1.79-5.43,4v44c0,2.21,2.43,4,5.43,4Z" style="fill: #40a1e9"/>
        <text transform="translate(690 162)" style="isolation: isolate;font-size: 16px;fill: #fff;font-family: 'Rubik', sans-serif;font-weight: 700">Sydney</text>
        <text transform="translate(666 182)" style="isolation: isolate;font-size: 16px;fill: #fff;font-family: 'Rubik', sans-serif;">NSW, Australia</text>
    </g>
    <g id="London" class="location-tooltip" transform="translate(-20 35)">
        <g class="ring-group">
            <ellipse class="ring" cx="675.32" cy="373.81" rx="6.25" ry="3.94" style="fill: none;stroke: #40a1e9;stroke-miterlimit: 10;stroke-opacity: 0.80;stroke-width: 1px"/>
        </g>
        <ellipse cx="675.32" cy="373.81" rx="6.25" ry="3.94" style="fill: #40a1e9;stroke: #40a1e9;stroke-miterlimit: 10;stroke-opacity: 0.33000001311302185;stroke-width: 10px"/>
        <path class="line" d="M675.9,373.81h-1.52c-2.23,0-2.23-.26-2.23-3.21l-1.83-235c0-3.2,2-5.82,4.41-5.82h1.18c2.43,0,4.41,2.62,4.41,5.82l-2.12,235C678.2,373.8,678.33,373.81,675.9,373.81Z" style="fill: #40a1e9;opacity: 0.5;isolation: isolate"/>
        <g class="closest-box">
            <path d="M751.67,54.7v22c0,1.11-2.44,2-5.43,2H605.09c-3,0-5.43-.9-5.43-2v-22c0-1.11,2.43-2,5.43-2H746.23C749.21,52.7,751.67,53.6,751.67,54.7Z" style="fill: #f2f2f2"/>
            <text transform="translate(630.92 66.76)" style="font-size: 10px;fill: #535353;font-family: 'Rubik', sans-serif;font-weight: 700;letter-spacing: 0.04em">CLOSEST TO YOU</text>
        </g>
        <path class="tooltip-box" d="M641.18,104.9a33.62,33.62,0,0,1,27.47,25s1.68,5.47,7,5.68c4.47.18,7-5.67,7-5.68a33.67,33.67,0,0,1,27.51-25h36c3,0,5.43-1.79,5.43-4v-44c0-2.21-2.44-4-5.43-4H605.09c-3,0-5.43,1.79-5.43,4v44c0,2.21,2.43,4,5.43,4Z" style="fill: #40a1e9"/>
        <text transform="translate(645.5 76.52)" style="isolation: isolate;font-size: 16px;fill: #fff;font-family: 'Rubik', sans-serif;font-weight: 700;">London</text>
        <text transform="translate(634.84 95.72)" style="isolation: isolate;font-size: 16px;fill: #fff;font-family: 'Rubik', sans-serif;">UK, Europe</text>
    </g>
    <g id="Amsterdam" class="location-tooltip" transform="translate(-30 60)">
        <g class="ring-group">
            <ellipse class="ring" cx="717.88" cy="360.36" rx="6.25" ry="3.94" style="fill: none;stroke: #40a1e9;stroke-miterlimit: 10;stroke-opacity: 0.80;stroke-width: 1px"/>
        </g>
        <ellipse cx="717.88" cy="360.36" rx="6.25" ry="3.94" style="fill: #40a1e9;stroke: #40a1e9;stroke-miterlimit: 10;stroke-opacity: 0.33000001311302185;stroke-width: 10px"/>
        <path class="line" d="M718.6,360.36h-1.52c-2.23,0-2.23-.15-2.23-1.9L713,218.82c0-1.9,2-3.46,4.41-3.46h1.18c2.43,0,4.41,1.56,4.41,3.46L720.9,358.45C720.9,360.35,721,360.36,718.6,360.36Z" style="fill: #40a1e9;opacity: 0.5;isolation: isolate"/>
        <g class="closest-box">
            <path d="M794.22,143v22c0,1.11-2.44,2-5.42,2H647.88c-3,0-5.42-.9-5.42-2V143c0-1.11,2.43-2,5.42-2H788.8C791.78,141,794.22,141.93,794.22,143Z" style="fill: #f2f2f2"/>
            <text transform="translate(672.7 155.1)" style="font-size: 10px;fill: #535353;font-family: 'Rubik', sans-serif;font-weight: 700;letter-spacing: 0.04em">CLOSEST TO YOU</text>
        </g>
        <path class="tooltip-box" d="M683.74,192.75a33.62,33.62,0,0,1,27.47,25s1.68,5.47,7,5.68c4.47.18,7-5.67,7-5.68a33.67,33.67,0,0,1,27.51-25h36c3,0,5.43-1.79,5.43-4v-44c0-2.21-2.44-4-5.43-4h-141c-3,0-5.43,1.79-5.43,4v44c0,2.21,2.43,4,5.43,4Z" style="fill: #40a1e9"/>
        <text transform="translate(671.14 164.37)" style="isolation: isolate;font-size: 16px;fill: #fff;font-family: 'Rubik', sans-serif;font-weight: 700">Amsterdam</text>
        <text transform="translate(677.76 183.57)" style="isolation: isolate;font-size: 16px;fill: #fff;font-family: 'Rubik', sans-serif;">NL, Europe</text>
    </g>
    <g id="Frankfurt" class="location-tooltip" transform="translate(-63 63)">
        <g class="ring-group">
            <ellipse class="ring" cx="774.56" cy="356.42" rx="6.25" ry="3.94" style="fill: none;stroke: #40a1e9;stroke-miterlimit: 10;stroke-opacity: 0.80;stroke-width: 1px"/>
        </g>
        <ellipse cx="774.56" cy="356.42" rx="6.25" ry="3.94" style="fill: #40a1e9;stroke: #40a1e9;stroke-miterlimit: 10;stroke-opacity: 0.33000001311302185;stroke-width: 10px"/>
        <path class="line" d="M775.29,356.16h-1.52c-2.23,0-2.23,0-2.23-.6l-1.87-44.3c0-.6,2-1.1,4.41-1.1h1.18c2.43,0,4.41.49,4.41,1.1l-2.12,44.3C777.58,356.16,777.67,356.16,775.29,356.16Z" style="fill: #40a1e9;opacity: 0.5;isolation: isolate"/>
        <g class="closest-box">
            <path d="M850.43,236v22c0,1.11-2.44,2-5.43,2H703.85c-3,0-5.43-.9-5.43-2V236c0-1.11,2.43-2,5.43-2H845C848,234,850.43,234.93,850.43,236Z" style="fill: #f2f2f2"/>
            <text transform="translate(727.41 248.1)" style="font-size: 10px;fill: #535353;font-family: 'Rubik', sans-serif;font-weight: 700;letter-spacing: 0.04em">CLOSEST TO YOU</text>
        </g>
        <path class="tooltip-box" d="M739.95,285.69a33.62,33.62,0,0,1,27.47,25s1.68,5.47,7,5.68c4.47.18,7-5.67,7-5.68a33.67,33.67,0,0,1,27.51-25h36c3,0,5.43-1.79,5.43-4v-44c0-2.21-2.44-4-5.43-4H703.85c-3,0-5.43,1.79-5.43,4v44c0,2.21,2.43,4,5.43,4Z" style="fill: #40a1e9"/>
        <text transform="translate(735.35 257.28)" style="isolation: isolate;font-size: 16px;fill: #fff;font-family: 'Rubik', sans-serif;font-weight: 700;">Frankfurt</text>
        <text transform="translate(735.78 276.48)" style="isolation: isolate;font-size: 16px;fill: #fff;font-family: 'Rubik', sans-serif;">DE, Europe</text>
    </g>
    <g id="Mumbai" class="location-tooltip" transform="translate(630 -188)">
        <g class="ring-group">
            <ellipse class="ring" cx="366.15" cy="613.27" rx="6.25" ry="3.94" style="fill: none;stroke: #40a1e9;stroke-miterlimit: 10;stroke-opacity: 0.80;stroke-width: 1px"/>
        </g>
        <ellipse cx="366.15" cy="613.27" rx="6.25" ry="3.94" style="fill: #40a1e9;stroke: #40a1e9;stroke-miterlimit: 10;stroke-opacity: 0.33000001311302185;stroke-width: 10px"/>
        <path class="line" d="M366.74,613.27h-1.52c-2.23,0-2.23-.11-2.23-1.31l-1.84-96.27c0-1.31,2-2.39,4.41-2.39h1.18c2.43,0,4.41,1.07,4.41,2.39L369,612C369,613.26,369.16,613.27,366.74,613.27Z" style="fill: #40a1e9;opacity: 0.5;isolation: isolate"/>
        <g class="closest-box">
            <path d="M426.33,442.21v22c0,1.11-1.93,2-4.29,2H310.62c-2.37,0-4.29-.9-4.29-2v-22c0-1.11,1.92-2,4.29-2H422C424.4,440.21,426.33,441.1,426.33,442.21Z" style="fill: #f2f2f2"/>
            <text transform="translate(321.57 454.27)" style="font-size: 10px;fill: #535353;font-family: 'Rubik', sans-serif;font-weight: 700;letter-spacing: 0.04em">CLOSEST TO YOU</text>
        </g>
        <path class="tooltip-box" d="M331.83,491.13a33.62,33.62,0,0,1,27.47,25s1.68,5.47,7,5.68c4.47.18,7-5.67,7-5.68a33.67,33.67,0,0,1,27.51-25H422a4.16,4.16,0,0,0,4.29-4v-44a4.16,4.16,0,0,0-4.29-4H310.59a4.15,4.15,0,0,0-4.29,4v44a4.15,4.15,0,0,0,4.29,4Z" style="fill: #40a1e9"/>
        <text transform="translate(335.5 462.74)" style="isolation: isolate;font-size: 16px;fill: #fff;font-family: 'Rubik', sans-serif;font-weight: 700">Mumbai</text>
        <text transform="translate(333.6 481.94)" style="isolation: isolate;font-size: 16px;fill: #fff;font-family: 'Rubik', sans-serif;">MH, India</text>
    </g>
  <!--  <g id="Chicago" class="location-tooltip">
        <g class="ring-group">
            <ellipse class="ring" cx="393.79" cy="561.57" rx="6.25" ry="3.94" style="fill: none;stroke: #40a1e9;stroke-miterlimit: 10;stroke-opacity: 0.80;stroke-width: 1px"/>
        </g>
        <ellipse cx="393.79" cy="561.57" rx="6.25" ry="3.94" style="fill: #40a1e9;stroke: #40a1e9;stroke-miterlimit: 10;stroke-opacity: 0.33000001311302185;stroke-width: 10px"/>
        <path class="line" d="M394.37,561.57h-1.52c-2.23,0-2.23-.29-2.23-3.59l-1.83-262.9c0-3.58,2-6.51,4.41-6.51h1.18c2.43,0,4.41,2.93,4.41,6.51L396.67,558C396.67,561.55,396.8,561.57,394.37,561.57Z" style="fill: #40a1e9;opacity: 0.5;isolation: isolate"/>
        <g class="closest-box">
            <path d="M464,232.2v22c0,1.11-2.25,2-5,2H329c-2.76,0-5-.9-5-2v-22c0-1.11,2.24-2,5-2H459C461.67,230.2,464,231.1,464,232.2Z" style="fill: #f2f2f2"/>
            <text transform="translate(349.21 244.27)" style="font-size: 10px;fill: #535353;font-family: Rubik;font-weight: 700;letter-spacing: 0.04em">CLOSEST TO YOU</text>
        </g>
        <path class="tooltip-box" d="M359.47,281.59a33.62,33.62,0,0,1,27.47,25s1.68,5.47,7,5.68c4.47.18,7-5.67,7-5.68a33.67,33.67,0,0,1,27.51-25h30.48c2.75,0,5-1.79,5-4v-44c0-2.21-2.25-4-5-4h-130c-2.76,0-5,1.79-5,4v44c0,2.21,2.24,4,5,4Z" style="fill: #40a1e9"/>
        <text transform="translate(361.08 253.2)" style="isolation: isolate;font-size: 16px;fill: #fff;font-family: 'Rubik', sans-serif;font-weight: 700;">Chicago</text>
        <text transform="translate(367.57 272.4)" style="isolation: isolate;font-size: 16px;fill: #fff;font-family: 'Rubik', sans-serif;">IL, USA</text>
    </g> -->
	
    <g id="Toronto" class="location-tooltip" transform="translate(-20 -116)">
        <g class="ring-group">
            <ellipse class="ring" cx="393.79" cy="561.57" rx="6.25" ry="3.94" style="fill: none;stroke: #40a1e9;stroke-miterlimit: 10;stroke-opacity: 0.80;stroke-width: 1px"/>
        </g>
        <ellipse cx="366.15" cy="613.27" rx="6.25" ry="3.94" style="fill: #40a1e9;stroke: #40a1e9;stroke-miterlimit: 10;stroke-opacity: 0.33000001311302185;stroke-width: 10px"/>
        <path class="line" d="M366.74,613.27h-1.52c-2.23,0-2.23-.11-2.23-1.31l-1.84-96.27c0-1.31,2-2.39,4.41-2.39h1.18c2.43,0,4.41,1.07,4.41,2.39L369,612C369,613.26,369.16,613.27,366.74,613.27Z" style="fill: #40a1e9;opacity: 0.5;isolation: isolate"/>
        <g class="closest-box">
            <path d="M426.33,442.21v22c0,1.11-1.93,2-4.29,2H310.62c-2.37,0-4.29-.9-4.29-2v-22c0-1.11,1.92-2,4.29-2H422C424.4,440.21,426.33,441.1,426.33,442.21Z" style="fill: #f2f2f2"/>
            <text transform="translate(321.57 454.27)" style="font-size: 10px;fill: #535353;font-family: 'Rubik', sans-serif;font-weight: 700;letter-spacing: 0.04em">CLOSEST TO YOU</text>
        </g>
        <path class="tooltip-box" d="M331.83,491.13a33.62,33.62,0,0,1,27.47,25s1.68,5.47,7,5.68c4.47.18,7-5.67,7-5.68a33.67,33.67,0,0,1,27.51-25H422a4.16,4.16,0,0,0,4.29-4v-44a4.16,4.16,0,0,0-4.29-4H310.59a4.15,4.15,0,0,0-4.29,4v44a4.15,4.15,0,0,0,4.29,4Z" style="fill: #40a1e9"/>
        <text transform="translate(334.81 462.74)" style="isolation: isolate;font-size: 16px;fill: #fff;font-family: 'Rubik', sans-serif;font-weight: 700">Toronto</text>
        <text transform="translate(324.6 481.94)" style="isolation: isolate;font-size: 16px;fill: #fff;font-family: 'Rubik', sans-serif;">ON, Canada</text>
    </g>
    <g id="Newark" class="location-tooltip">
        <g class="ring-group">
            <ellipse class="ring" cx="469.34" cy="525.06" rx="6.25" ry="3.94" style="fill: none;stroke: #40a1e9;stroke-miterlimit: 10;stroke-opacity: 0.80;stroke-width: 1px"/>
        </g>
        <ellipse cx="469.34" cy="525.06" rx="6.25" ry="3.94" style="fill: #40a1e9;stroke: #40a1e9;stroke-miterlimit: 10;stroke-opacity: 0.33000001311302185;stroke-width: 10px"/>
        <path class="line" d="M470.27,525.06h-1.52c-2.23,0-2.23-.09-2.23-1.06l-1.83-78c0-1.06,2-1.93,4.41-1.93h1.18c2.43,0,4.41.87,4.41,1.93l-2.12,78C472.57,525.05,472.67,525.06,470.27,525.06Z" style="fill: #40a1e9;opacity: 0.5;isolation: isolate"/>
        <g class="closest-box">
            <path d="M529.95,370.36v22c0,1.11-1.93,2-4.29,2H414.23c-2.37,0-4.29-.9-4.29-2v-22c0-1.11,1.92-2,4.29-2H525.67C528,368.36,529.95,369.25,529.95,370.36Z" style="fill: #f2f2f2"/>
            <text transform="translate(425.18 382.42)" style="font-size: 10px;fill: #535353;font-family: 'Rubik', sans-serif;font-weight: 700;letter-spacing: 0.04em">CLOSEST TO YOU</text>
        </g>
        <path class="tooltip-box" d="M435.37,420.13a33.62,33.62,0,0,1,27.47,25s1.68,5.47,7,5.68c4.47.18,7-5.67,7-5.68a33.67,33.67,0,0,1,27.51-25h21a4.16,4.16,0,0,0,4.29-4v-44a4.16,4.16,0,0,0-4.29-4H414a4.15,4.15,0,0,0-4.29,4v44a4.15,4.15,0,0,0,4.29,4Z" style="fill: #40a1e9"/>
        <text transform="translate(439.56 391.74)" style="isolation: isolate;font-size: 16px;fill: #fff;font-family: 'Rubik', sans-serif;font-weight: 700">Newark</text>
        <text transform="translate(439.69 410.94)" style="isolation: isolate;font-size: 16px;fill: #fff;font-family: 'Rubik', sans-serif;">NJ, USA</text>
    </g>
    <g id="Dallas" class="location-tooltip">
        <g class="ring-group">
            <ellipse class="ring" cx="366.15" cy="613.27" rx="6.25" ry="3.94" style="fill: none;stroke: #40a1e9;stroke-miterlimit: 10;stroke-opacity: 0.80;stroke-width: 1px"/>
        </g>
        <ellipse cx="366.15" cy="613.27" rx="6.25" ry="3.94" style="fill: #40a1e9;stroke: #40a1e9;stroke-miterlimit: 10;stroke-opacity: 0.33000001311302185;stroke-width: 10px"/>
        <path class="line" d="M366.74,613.27h-1.52c-2.23,0-2.23-.11-2.23-1.31l-1.84-96.27c0-1.31,2-2.39,4.41-2.39h1.18c2.43,0,4.41,1.07,4.41,2.39L369,612C369,613.26,369.16,613.27,366.74,613.27Z" style="fill: #40a1e9;opacity: 0.5;isolation: isolate"/>
        <g class="closest-box">
            <path d="M426.33,442.21v22c0,1.11-1.93,2-4.29,2H310.62c-2.37,0-4.29-.9-4.29-2v-22c0-1.11,1.92-2,4.29-2H422C424.4,440.21,426.33,441.1,426.33,442.21Z" style="fill: #f2f2f2"/>
            <text transform="translate(321.57 454.27)" style="font-size: 10px;fill: #535353;font-family: 'Rubik', sans-serif;font-weight: 700;letter-spacing: 0.04em">CLOSEST TO YOU</text>
        </g>
        <path class="tooltip-box" d="M331.83,491.13a33.62,33.62,0,0,1,27.47,25s1.68,5.47,7,5.68c4.47.18,7-5.67,7-5.68a33.67,33.67,0,0,1,27.51-25H422a4.16,4.16,0,0,0,4.29-4v-44a4.16,4.16,0,0,0-4.29-4H310.59a4.15,4.15,0,0,0-4.29,4v44a4.15,4.15,0,0,0,4.29,4Z" style="fill: #40a1e9"/>
        <text transform="translate(341.81 462.74)" style="isolation: isolate;font-size: 16px;fill: #fff;font-family: 'Rubik', sans-serif;font-weight: 700">Dallas</text>
        <text transform="translate(338.6 481.94)" style="isolation: isolate;font-size: 16px;fill: #fff;font-family: 'Rubik', sans-serif;">TX, USA</text>
    </g>
	
	<g id="Fremont" class="location-tooltip">
		<g class="ring-group">
			<ellipse class="ring" cx="321.4" cy="636.2" rx="6.2" ry="3.9" style="fill: none;stroke: #40a1e9;stroke-miterlimit: 10;stroke-opacity: 0.80;stroke-width: 1px"/>
		</g>
		<ellipse cx="321.4" cy="636.2" rx="6.2" ry="3.9" style="fill: #40a1e9;stroke: #40a1e9;stroke-miterlimit: 10;stroke-opacity: 0.33000001311302185;stroke-width: 10px"/>
		<path class="line" style="fill: #40a1e9;opacity: 0.5;isolation: isolate" d="M322,636.2h-1.5c-2.2,0-2.2-0.3-2.2-3.6l-1.8-46.1c0-3.6,2-6.5,4.4-6.5h1.2c2.4,0,4.4,2.9,4.4,6.5l-2.1,46.1C324.3,636.2,324.4,636.2,322,636.2z"/>
		<g class="closest-box">
			<path d="M391.6,515v22c0,1.1-2.2,2-5,2h-130c-2.8,0-5-0.9-5-2v-22c0-1.1,2.2-2,5-2h130C389.3,513,391.6,513.9,391.6,515z" style="fill: #f2f2f2"/>
			<text transform="matrix(1 0 0 1 276.815 527.028)" style="font-size: 10px;fill: #535353;font-family: 'Rubik', sans-serif;font-weight: 700;letter-spacing: 0.04em">CLOSEST TO YOU</text>
		</g>
		<path class="tooltip-box" d="M287.1,564.3c13.3,2.1,24.2,11.9,27.5,25c0,0,1.7,5.5,7,5.7c4.5,0.2,7-5.7,7-5.7c3.3-13.1,14.2-22.9,27.5-25h30.5c2.8,0,5-1.8,5-4v-44c0-2.2-2.2-4-5-4h-130c-2.8,0-5,1.8-5,4v44c0,2.2,2.2,4,5,4H287.1z" style="fill: #40a1e9"/>
		<text transform="matrix(1 0 0 1 288.685 535.958)" style="isolation: isolate;font-size: 16px;fill: #fff;font-family: 'Rubik', sans-serif;font-weight: 700;">Fremont</text>
		<text transform="matrix(1 0 0 1 295.175 555.158)" style="isolation: isolate;font-size: 16px;fill: #fff;font-family: 'Rubik', sans-serif;">CA, USA</text>
	</g>
</svg>
