<svg id="Layer_1" data-name="Layer 1" xmlns="http://www.w3.org/2000/svg" xmlns:xlink="http://www.w3.org/1999/xlink" viewBox="0 0 281 281"><defs><clipPath id="clip-path"><rect x="0.85938" y="0.08105" width="280" height="280" style="fill:none"/></clipPath></defs><g style="clip-path:url(#clip-path)"><path d="M86.4467,202.753h-20.19a59.99106,59.99106,0,1,1,0-119.98211h1.2041V76.8658a54.39594,54.39594,0,0,1,92.5562-38.765,40.90258,40.90258,0,0,1,52.415,44.6701h3.025a59.99106,59.99106,0,0,1,0,119.98211H196.626" style="fill:none;stroke:#52cead;stroke-linecap:round;stroke-linejoin:round;stroke-width:10px"/><path d="M140.857,147.812V124.987H124.026v-22.91m16.831,45.735a54.75618,54.75618,0,0,0-38.043,15.302m38.043-15.302A54.75615,54.75615,0,0,1,178.9,163.114m-76.086,0a54.941,54.941,0,1,0,76.086,0m-76.086,0L87.5117,147.812H66.7969M178.9,163.114l16.898-15.302h26.094" style="fill:none;stroke:#52cead;stroke-linecap:round;stroke-linejoin:round;stroke-width:10px"/><path d="M150.501,192.759l25.073-7.225-21.237,13.861a13.912,13.912,0,1,1-3.836-6.636Z" style="fill:#40a1e9;fill-rule:evenodd"/><path d="M175.574,185.534l2.733,4.187a4.99971,4.99971,0,0,0-4.117-8.991Zm-25.073,7.225-3.473,3.597a4.99773,4.99773,0,0,0,4.857,1.207Zm3.836,6.636-2.732-4.187a4.99927,4.99927,0,0,0-2.12,5.394ZM174.19,180.73l-25.074,7.224,2.769,9.609,25.074-7.224Zm-17.12,22.852,21.237-13.861-5.466-8.374-21.236,13.861Zm-7.585-2.98a8.93138,8.93138,0,0,1,.263,2.161h10a18.93272,18.93272,0,0,0-.559-4.576Zm.263,2.161a8.90512,8.90512,0,0,1-8.905,8.905v10a18.90493,18.90493,0,0,0,18.905-18.905Zm-8.905,8.905a8.90512,8.90512,0,0,1-8.905-8.905h-10a18.90493,18.90493,0,0,0,18.905,18.905Zm-8.905-8.905a8.90512,8.90512,0,0,1,8.905-8.905v-10a18.90493,18.90493,0,0,0-18.905,18.905Zm8.905-8.905a8.85739,8.85739,0,0,1,6.185,2.498l6.946-7.194a18.85918,18.85918,0,0,0-13.131-5.304Z" style="fill:#40a1e9"/><path d="M82.6445,202.752H101.783m99.257,0H180.204" style="fill:none;stroke:#52cead;stroke-linecap:round;stroke-linejoin:round;stroke-width:10px"/><path d="M85.1992,81.4378A41.73989,41.73989,0,0,1,126.939,39.6982" style="fill:none;stroke:#40a1e9;stroke-linecap:round;stroke-linejoin:round;stroke-width:10px"/><circle cx="62.8303" cy="147.093" r="11.799" style="fill:#40a1e9"/><circle cx="123.623" cy="97.9074" r="11.799" style="fill:#40a1e9"/><circle cx="224.756" cy="147.093" r="11.799" style="fill:#40a1e9"/></g></svg>