<svg id="Layer_1" data-name="Layer 1" xmlns="http://www.w3.org/2000/svg" xmlns:xlink="http://www.w3.org/1999/xlink" viewBox="0 0 281 281"><defs><clipPath id="clip-path"><rect x="0.85938" y="0.08105" width="280" height="280" style="fill:none"/></clipPath></defs><g style="clip-path:url(#clip-path)"><path d="M77.7921,157.728H20.8594a14,14,0,0,0-14,14v15.417a14,14,0,0,0,14,14H77.7921" style="fill:none;stroke:#40a1e9;stroke-linejoin:round;stroke-width:10px"/><path d="M101.765,107.179H20.8594a14,14,0,0,0-14,14v15.417a14,14,0,0,0,14,14H78.8655" style="fill:none;stroke:#40a1e9;stroke-linejoin:round;stroke-width:10px"/><path d="M108.921,100.047H20.8594a14.00009,14.00009,0,0,1-14-14.0001V70.6299a14,14,0,0,1,14-14H128.083a14,14,0,0,1,14,14v7.7085" style="fill:none;stroke:#40a1e9;stroke-linejoin:round;stroke-width:10px"/><rect x="6.85938" y="6.08105" width="135.22399" height="43.417" rx="14" style="fill:none;stroke:#40a1e9;stroke-linejoin:round;stroke-width:10px"/><circle cx="29.6544" cy="27.7891" r="6.72859" style="fill:#52cead"/><circle cx="29.6544" cy="78.338" r="6.72859" style="fill:#52cead"/><circle cx="29.6544" cy="128.88699" r="6.72859" style="fill:#52cead"/><circle cx="29.6544" cy="179.436" r="6.72859" style="fill:#52cead"/><path d="M158.542,75.374a100.54949,100.54949,0,1,0,33.539,0" style="fill:none;stroke:#52cead;stroke-linecap:round;stroke-linejoin:round;stroke-width:10px"/><circle cx="175.31" cy="174.53101" r="11.61099" style="fill:#52cead"/><path d="M175.312,90.3467V102.423m0,145.313v12.076" style="fill:none;stroke:#52cead;stroke-linecap:round;stroke-linejoin:round;stroke-width:10px"/><path d="M260.047,175.079H247.971m-145.314,0H90.5811" style="fill:none;stroke:#52cead;stroke-linecap:round;stroke-linejoin:round;stroke-width:10px"/><path d="M238.953,111.443l-9.069,9.07M120.748,229.648l-9.069,9.07" style="fill:none;stroke:#52cead;stroke-linecap:round;stroke-linejoin:round;stroke-width:5px"/><path d="M238.953,238.718l-9.069-9.07M120.748,120.513l-9.069-9.07" style="fill:none;stroke:#52cead;stroke-linecap:round;stroke-linejoin:round;stroke-width:5px"/><path d="M175.315,174.531l24.009-13.862" style="fill:none;stroke:#52cead;stroke-linecap:round;stroke-linejoin:round;stroke-width:10px"/><path d="M130.931,148.908l44.381,25.623" style="fill:none;stroke:#52cead;stroke-linecap:round;stroke-linejoin:round;stroke-width:10px"/><path d="M158.481,90.0192V43.6884H144.613l30.703-30.703,30.703,30.703H192.152V90.0192" style="fill:none;stroke:#52cead;stroke-linecap:round;stroke-linejoin:round;stroke-width:10px"/></g></svg>