<svg id="Layer_1" data-name="Layer 1" xmlns="http://www.w3.org/2000/svg" viewBox="0 0 280 281"><circle cx="140.005" cy="109.573" r="76.4971" style="fill:none;stroke:#52cead;stroke-linejoin:round;stroke-width:10px"/><path d="M224.518,90.8812a84.51681,84.51681,0,1,0-169.03361,0" style="fill:none;stroke:#40a1e9;stroke-linecap:round;stroke-linejoin:round;stroke-width:10px"/><path d="M55.4922,141.166a31.5918,31.5918,0,1,1,0-63.1836Z" style="fill:none;stroke:#40a1e9;stroke-linejoin:round;stroke-width:10px"/><path d="M224.513,141.166a31.5918,31.5918,0,1,0,0-63.1836Zm0,0H142.256m0,0v-.228a6.29411,6.29411,0,0,0-6.294-6.294h0a6.2941,6.2941,0,0,0-6.294,6.294v.457a6.2941,6.2941,0,0,0,6.294,6.294h0a6.2941,6.2941,0,0,0,6.294-6.294Z" style="fill:none;stroke:#40a1e9;stroke-linecap:round;stroke-linejoin:round;stroke-width:10px"/><path d="M6.89062,274.56,2.765,271.735a5.00011,5.00011,0,0,0,4.1256,7.825Zm266.21039,0v5a5.00033,5.00033,0,0,0,4.126-7.825Zm-266.21039,5H273.101v-10H6.89062Zm4.12558-2.175A156.02931,156.02931,0,0,1,139.996,209.319v-10A166.032,166.032,0,0,0,2.765,271.735ZM139.996,209.319a156.02877,156.02877,0,0,1,128.98,68.066l8.251-5.65a166.03227,166.03227,0,0,0-137.231-72.416Z" style="fill:#52cead"/></svg>