<svg xmlns="http://www.w3.org/2000/svg" xmlns:xlink="http://www.w3.org/1999/xlink" viewBox="0 0 200 264.89">
  <defs>
    <linearGradient id="480f5087-c730-4320-bb64-69dd1261f764" x1="-1194.61" y1="116.74" x2="-1142.59" y2="116.74" gradientTransform="translate(-1137.94 289.1) rotate(180)" gradientUnits="userSpaceOnUse">
      <stop offset="0" stop-color="#4d9ed7"/>
      <stop offset="0.27" stop-color="#54a6dc"/>
      <stop offset="0.66" stop-color="#66bbe9"/>
      <stop offset="1" stop-color="#67bce9"/>
    </linearGradient>
    <linearGradient id="b3ce3cb0-4a6c-4579-a689-8f082ebec746" x1="-1149.19" y1="105.64" x2="-1139.04" y2="105.64" xlink:href="#480f5087-c730-4320-bb64-69dd1261f764"/>
    <linearGradient id="c2947d77-8266-4ad6-b896-19b51718b6a0" x1="-1152.95" y1="83.33" x2="-1142.01" y2="83.33" xlink:href="#480f5087-c730-4320-bb64-69dd1261f764"/>
    <linearGradient id="ac2d7dfa-fff7-4379-9d7f-999f46daf6e7" x1="123.67" y1="76.77" x2="132.41" y2="76.77" gradientTransform="matrix(1, 0, 0, -1, -0.44, 289.1)" xlink:href="#480f5087-c730-4320-bb64-69dd1261f764"/>
    <linearGradient id="b7144e2e-9a0f-4869-98c5-3ed4fb02b10e" x1="-71.38" y1="109.02" x2="-48.28" y2="109.02" gradientTransform="translate(87.38 289.1) rotate(180)" gradientUnits="userSpaceOnUse">
      <stop offset="0" stop-color="#ebe9ec"/>
      <stop offset="1" stop-color="#99a7d8"/>
    </linearGradient>
    <linearGradient id="1a9a0976-f3c2-4817-b57f-163101fd7344" x1="-86.61" y1="94.9" x2="-48.92" y2="94.9" gradientTransform="translate(87.38 289.1) rotate(180)" gradientUnits="userSpaceOnUse">
      <stop offset="0" stop-color="#fff"/>
      <stop offset="1" stop-color="#99a7d8"/>
    </linearGradient>
    <linearGradient id="4cd0a223-b0f7-4abc-b481-e7331eb12471" x1="138.43" y1="103.94" x2="157.26" y2="103.94" gradientTransform="matrix(1, 0, 0, -1, -0.44, 289.1)" xlink:href="#480f5087-c730-4320-bb64-69dd1261f764"/>
    <linearGradient id="7088dd1d-aff2-4085-9f5a-7388ada791c5" x1="176.74" y1="91.69" x2="189.12" y2="91.69" gradientTransform="matrix(1, 0, 0, -1, 0, 289.1)" xlink:href="#480f5087-c730-4320-bb64-69dd1261f764"/>
    <linearGradient id="bebb9c1a-a2d1-47cf-9ed8-717683ae3009" x1="176.11" y1="96.93" x2="182.92" y2="96.93" gradientTransform="matrix(1, 0, 0, -1, 0, 289.1)" xlink:href="#480f5087-c730-4320-bb64-69dd1261f764"/>
  </defs>
  <title>antifragile</title>
  <g>
    <g id="c04f4087-e454-4054-822c-74d1ee3d6c32">
      <g>
        <g style="opacity: 0.5">
          <path id="d19e9f25-d132-4f9b-b9cf-b809abdfd602" d="M34.79,199.67l53.7-31a5.81,5.81,0,0,1,5.81,0l53.7,31a4.12,4.12,0,0,1,0,7.13l-53.7,31a5.81,5.81,0,0,1-5.81,0l-53.7-31c-2.28,0-4.12-1.29-4.12-3.56A3.41,3.41,0,0,1,34.79,199.67Z" transform="translate(-0.44)" style="fill: #fff;fill-opacity: 0"/>
          <path d="M35,199.68,88.53,168.8a5.79,5.79,0,0,1,5.79,0l53.48,30.88a4.09,4.09,0,0,1,0,7.1L94.31,237.66a5.79,5.79,0,0,1-5.79,0L35,206.78a4.09,4.09,0,0,1,0-7.1Z" transform="translate(-0.44)" style="fill: #fbfbfc;opacity: 0.019608000293374;isolation: isolate"/>
          <path d="M35.35,199.69l53.24-30.74a5.76,5.76,0,0,1,5.76,0l53.24,30.74a4,4,0,0,1,0,7.07L94.3,237.51a5.76,5.76,0,0,1-5.76,0L35.35,206.77a4,4,0,0,1,0-7.07Z" transform="translate(-0.44)" style="fill: #f8f8f9;opacity: 0.039216000586748;isolation: isolate"/>
          <path d="M35.55,199.71l53-30.59a5.73,5.73,0,0,1,5.73,0l53,30.59a4,4,0,0,1,0,7l-53,30.61a5.73,5.73,0,0,1-5.73,0l-53-30.59a4,4,0,0,1,0-7Z" transform="translate(-0.44)" style="fill: #f4f4f6;opacity: 0.058823999017477;isolation: isolate"/>
          <path d="M35.81,199.73l52.76-30.46a5.71,5.71,0,0,1,5.71,0L147,199.73a4,4,0,0,1,0,7L94.27,237.2a5.71,5.71,0,0,1-5.71,0L35.81,206.74a4,4,0,0,1,0-7Z" transform="translate(-0.44)" style="fill: #f1f1f3;opacity: 0.078431002795696;isolation: isolate"/>
          <path d="M36.08,199.75l52.52-30.31a5.68,5.68,0,0,1,5.68,0l52.5,30.31a4,4,0,0,1,0,7L94.26,237a5.68,5.68,0,0,1-5.68,0l-52.5-30.33a4,4,0,0,1,0-7Z" transform="translate(-0.44)" style="fill: #ededf0;opacity: 0.098039001226425;isolation: isolate"/>
          <path d="M36.33,199.76l52.26-30.18a5.65,5.65,0,0,1,5.65,0l52.26,30.18a4,4,0,0,1,0,6.94L94.25,236.88a5.65,5.65,0,0,1-5.65,0L36.33,206.7a4,4,0,0,1,0-6.94Z" transform="translate(-0.44)" style="fill: #e9e9ed;opacity: 0.117646999657154;isolation: isolate"/>
          <path d="M36.59,199.77l52-30a5.62,5.62,0,0,1,5.62,0l52,30a4,4,0,0,1,0,6.91l-52,30a5.62,5.62,0,0,1-5.62,0l-52-30a4,4,0,0,1,0-6.91Z" transform="translate(-0.44)" style="fill: #e6e6eb;opacity: 0.137254998087883;isolation: isolate"/>
          <path d="M36.84,199.79l51.78-29.9a5.6,5.6,0,0,1,5.6,0L146,199.79a4,4,0,0,1,0,6.87l-51.78,29.9a5.6,5.6,0,0,1-5.6,0L36.84,206.67a4,4,0,0,1,0-6.89Z" transform="translate(-0.44)" style="fill: #e2e2e8;opacity: 0.156863003969193;isolation: isolate"/>
          <path d="M37.1,199.81l51.54-29.75a5.57,5.57,0,0,1,5.57,0l51.54,29.75a3.95,3.95,0,0,1,0,6.85L94.21,236.41a5.57,5.57,0,0,1-5.57,0L37.1,206.65a3.95,3.95,0,0,1,0-6.83Z" transform="translate(-0.44)" style="fill: #dfdfe5;opacity: 0.176470994949341;isolation: isolate"/>
          <path d="M37.35,199.83l51.3-29.61a5.54,5.54,0,0,1,5.54,0l51.24,29.61a3.93,3.93,0,0,1,0,6.81L94.19,236.25a5.54,5.54,0,0,1-5.54,0l-51.3-29.61a3.93,3.93,0,0,1,0-6.81Z" transform="translate(-0.44)" style="fill: #dbdbe2;opacity: 0.19607800245285;isolation: isolate"/>
          <path d="M37.61,199.84l51-29.53a5.52,5.52,0,0,1,5.52,0l51,29.53a3.92,3.92,0,0,1,0,6.71l-51,29.53a5.52,5.52,0,0,1-5.52,0l-51-29.53a3.92,3.92,0,0,1,0-6.71Z" transform="translate(-0.44)" style="fill: #d8d8df;opacity: 0.215685993432999;isolation: isolate"/>
          <path d="M37.88,199.85l50.8-29.33a5.49,5.49,0,0,1,5.49,0L145,199.85a3.89,3.89,0,0,1,0,6.71l-50.8,29.37a5.49,5.49,0,0,1-5.49,0l-50.8-29.33a3.89,3.89,0,0,1,0-6.75Z" transform="translate(-0.44)" style="fill: #d4d4dc;opacity: 0.235293999314308;isolation: isolate"/>
          <path d="M38.13,199.87l50.56-29.19a5.46,5.46,0,0,1,5.46,0l50.56,29.19a3.88,3.88,0,0,1,0,6.71l-50.56,29.2a5.46,5.46,0,0,1-5.46,0L38.13,206.59a3.88,3.88,0,0,1,0-6.73Z" transform="translate(-0.44)" style="fill: #d0d0d9;opacity: 0.254902005195618;isolation: isolate"/>
          <path d="M38.39,199.89,88.7,170.84a5.44,5.44,0,0,1,5.44,0l50.32,29.05a3.85,3.85,0,0,1,0,6.71l-50.32,29a5.44,5.44,0,0,1-5.44,0L38.39,206.57a3.85,3.85,0,0,1,0-6.67Z" transform="translate(-0.44)" style="fill: #cdcdd6;opacity: 0.274509996175766;isolation: isolate"/>
          <path d="M38.64,199.91,88.72,171a5.37,5.37,0,0,1,5.37,0l50.07,28.9a3.84,3.84,0,0,1,0,6.71l-50.07,28.9a5.37,5.37,0,0,1-5.37,0l-50.07-28.9a3.84,3.84,0,0,1,0-6.71Z" transform="translate(-0.44)" style="fill: #c9c9d3;opacity: 0.294117987155914;isolation: isolate"/>
          <path d="M38.9,199.92l49.83-28.77a5.37,5.37,0,0,1,5.37,0l49.83,28.77a3.83,3.83,0,0,1,0,6.62L94.11,235.36a5.37,5.37,0,0,1-5.37,0L38.9,206.54a3.83,3.83,0,0,1,0-6.62Z" transform="translate(-0.44)" style="fill: #c6c6d0;opacity: 0.313724994659424;isolation: isolate"/>
          <path d="M39.17,199.93l49.58-28.62a5.37,5.37,0,0,1,5.37,0l49.58,28.62a3.8,3.8,0,0,1,0,6.58L94.1,235.15a5.37,5.37,0,0,1-5.37,0L39.17,206.53a3.8,3.8,0,0,1,0-6.59Z" transform="translate(-0.44)" style="fill: #c2c2cd;opacity: 0.333332985639572;isolation: isolate"/>
          <path d="M39.38,200l49.34-28.49a5.37,5.37,0,0,1,5.37,0L143.42,200a3.79,3.79,0,0,1,0,6.55L94.09,235a5.37,5.37,0,0,1-5.37,0L39.38,206.51a3.79,3.79,0,0,1,0-6.55Z" transform="translate(-0.44)" style="fill: #bebeca;opacity: 0.352941006422043;isolation: isolate"/>
          <path d="M39.68,200l49.09-28.34a5.37,5.37,0,0,1,5.37,0L143.23,200a3.76,3.76,0,0,1,0,6.52L94.07,234.84a5.37,5.37,0,0,1-5.37,0l-49-28.35a3.76,3.76,0,0,1,0-6.51Z" transform="translate(-0.44)" style="fill: #bbbbc7;opacity: 0.372548997402191;isolation: isolate"/>
          <path d="M39.93,200,88.78,171.8a5.28,5.28,0,0,1,5.28,0L142.91,200a3.75,3.75,0,0,1,0,6.48L94.06,234.66a5.28,5.28,0,0,1-5.28,0L39.93,206.47C39,205.19,40.66,202.38,39.93,200Z" transform="translate(-0.44)" style="fill: #b7b7c5;opacity: 0.39215698838234;isolation: isolate"/>
          <path d="M40.19,200,88.8,171.94a5.26,5.26,0,0,1,5.26,0L142.67,200a3.73,3.73,0,0,1,0,6.46L94.06,234.52a5.26,5.26,0,0,1-5.26,0L40.19,206.46a3.73,3.73,0,0,1,0-6.46Z" transform="translate(-0.44)" style="fill: #b4b4c2;opacity: 0.41176500916481;isolation: isolate"/>
          <path d="M40.44,200l48.33-27.92a5.24,5.24,0,0,1,5.24,0L142.33,200a3.71,3.71,0,0,1,0,6.42L94,234.35a5.24,5.24,0,0,1-5.24,0L40.44,206.43a3.71,3.71,0,0,1,0-6.42Z" transform="translate(-0.44)" style="fill: #b0b0bf;opacity: 0.431373000144959;isolation: isolate"/>
          <path d="M40.72,200l48.1-27.78a5.21,5.21,0,0,1,5.21,0L142.15,200a3.69,3.69,0,0,1,0,6.39L94,234.21a5.21,5.21,0,0,1-5.21,0L40.72,206.42a3.69,3.69,0,0,1,0-6.38Z" transform="translate(-0.44)" style="fill: #acacbc;opacity: 0.450980007648468;isolation: isolate"/>
          <path d="M41,200.05l47.87-27.64a5.18,5.18,0,0,1,5.18,0l47.87,27.64a3.66,3.66,0,0,1,0,6.36L94,234a5.18,5.18,0,0,1-5.18,0L41,206.4a3.66,3.66,0,0,1,0-6.35Z" transform="translate(-0.44)" style="fill: #a9a9b9;opacity: 0.470587998628616;isolation: isolate"/>
          <path d="M41.22,200.07l47.63-27.49a5.16,5.16,0,0,1,5.16,0l47.63,27.49a3.65,3.65,0,0,1,0,6.32L94,233.88a5.16,5.16,0,0,1-5.16,0L41.22,206.39a3.65,3.65,0,0,1,0-6.32Z" transform="translate(-0.44)" style="fill: #a5a5b6;opacity: 0.490195989608765;isolation: isolate"/>
          <path d="M41.47,200.08l47.39-27.36a5.13,5.13,0,0,1,5.13,0l47.42,27.36a3.64,3.64,0,0,1,0,6.3L94,233.74a5.13,5.13,0,0,1-5.13,0L41.5,206.38a3.64,3.64,0,0,1,0-6.3Z" transform="translate(-0.44)" style="fill: #a2a2b3;opacity: 0.509804010391235;isolation: isolate"/>
          <path d="M41.73,200.09l47.15-27.21a5.1,5.1,0,0,1,5.1,0l47.15,27.21a3.61,3.61,0,0,1,0,6.26L94,233.58a5.1,5.1,0,0,1-5.1,0L41.73,206.36a3.61,3.61,0,0,1,0-6.27Z" transform="translate(-0.44)" style="fill: #9e9eb0;opacity: 0.529411971569061;isolation: isolate"/>
          <path d="M42,200.12,88.88,173A5.07,5.07,0,0,1,94,173l46.89,27.08a3.6,3.6,0,0,1,0,6.23L94,233.41a5.07,5.07,0,0,1-5.07,0L42,206.34a3.6,3.6,0,0,1,0-6.22Z" transform="translate(-0.44)" style="fill: #9b9bad;opacity: 0.549019992351532;isolation: isolate"/>
          <path d="M42.24,200.13l46.65-26.93a5,5,0,0,1,5,0l46.65,26.93a3.57,3.57,0,0,1,0,6.19L94,233.27a5,5,0,0,1-5,0L42.24,206.32a3.57,3.57,0,0,1,0-6.19Z" transform="translate(-0.44)" style="fill: #9797aa;opacity: 0.568626999855042;isolation: isolate"/>
          <path d="M42.51,200.15,88.92,173.3a5,5,0,0,1,5,0l46.41,26.85a3.56,3.56,0,0,1,0,6.16L93.94,233.16a5,5,0,0,1-5,0L42.51,206.31C42,205.3,44.9,202.63,42.51,200.15Z" transform="translate(-0.44)" style="fill: #9393a7;opacity: 0.588235020637512;isolation: isolate"/>
          <path d="M42.76,200.16l46.17-26.65a5,5,0,0,1,5,0l46.14,26.65a3.54,3.54,0,0,1,0,6.14L93.92,232.94a5,5,0,0,1-5,0L42.76,206.3a3.54,3.54,0,0,1,0-6.14Z" transform="translate(-0.44)" style="fill: #9090a4;opacity: 0.607842981815338;isolation: isolate"/>
          <path d="M43,200.18l45.93-26.57a5,5,0,0,1,5,0l45.93,26.51a3.52,3.52,0,0,1,0,6.09L93.91,232.8a5,5,0,0,1-5,0L43,206.28a3.52,3.52,0,0,1,0-6.11Z" transform="translate(-0.44)" style="fill: #8c8ca2;opacity: 0.627451002597809;isolation: isolate"/>
          <path d="M43.27,200.2l45.64-26.37a4.94,4.94,0,0,1,4.94,0L139.5,200.2a3.5,3.5,0,0,1,0,6.07L93.9,232.68a4.94,4.94,0,0,1-4.94,0L43.31,206.31a3.5,3.5,0,0,1,0-6.11Z" transform="translate(-0.44)" style="fill: #89899f;opacity: 0.64705902338028;isolation: isolate"/>
          <path d="M43.53,200.22,89,174a4.91,4.91,0,0,1,4.91,0l45.43,26.23a3.48,3.48,0,0,1,0,6L93.88,232.48a4.91,4.91,0,0,1-4.91,0L43.53,206.24a3.48,3.48,0,0,1,0-6Z" transform="translate(-0.44)" style="fill: #85859c;opacity: 0.666666984558106;isolation: isolate"/>
          <path d="M43.8,200.23,89,174.14a4.89,4.89,0,0,1,4.89,0l45.19,26.08a3.46,3.46,0,0,1,0,6L93.87,232.31a4.89,4.89,0,0,1-4.89,0L43.8,206.23a3.46,3.46,0,0,1,0-6Z" transform="translate(-0.44)" style="fill: #818199;opacity: 0.686275005340576;isolation: isolate"/>
          <path d="M44.05,200.24l45-25.95a4.86,4.86,0,0,1,4.86,0l44.95,25.95a3.45,3.45,0,0,1,0,6l-45,25.95a4.86,4.86,0,0,1-4.86,0L44.05,206.22a3.45,3.45,0,0,1,0-6Z" transform="translate(-0.44)" style="fill: #7e7e96;opacity: 0.705882012844086;isolation: isolate"/>
          <path d="M44.31,200.26l44.74-25.8a4.83,4.83,0,0,1,4.83,0l44.7,25.8a3.42,3.42,0,0,1,0,5.93L93.84,232A4.83,4.83,0,0,1,89,232l-44.7-25.8c-2.87,0-5.19-.11-5.19-3S41.44,198,44.31,200.26Z" transform="translate(-0.44)" style="fill: #7a7a93;opacity: 0.725489974021912;isolation: isolate"/>
          <path d="M44.56,200.28l44.49-25.67a4.81,4.81,0,0,1,4.81,0l44.46,25.67a3.41,3.41,0,0,1,0,5.91L93.83,231.84a4.81,4.81,0,0,1-4.81,0L44.56,206.18a3.41,3.41,0,0,1,0-5.89Z" transform="translate(-0.44)" style="fill: #777790;opacity: 0.745097994804382;isolation: isolate"/>
          <path d="M44.82,200.3,89,174.79a4.78,4.78,0,0,1,4.78,0L138,200.3a3.38,3.38,0,0,1,0,5.87L93.8,231.67a4.78,4.78,0,0,1-4.78,0L44.82,206.16c-2.15,0-3.9-.78-3.9-2.93S42.66,199.33,44.82,200.3Z" transform="translate(-0.44)" style="fill: #73738d;opacity: 0.764706015586853;isolation: isolate"/>
          <path d="M45.07,200.31l44-25.36a4.75,4.75,0,0,1,4.75,0l44,25.39a3.37,3.37,0,0,1,0,5.84l-44,25.36a4.75,4.75,0,0,1-4.75,0l-44-25.39a3.37,3.37,0,0,1,0-5.84Z" transform="translate(-0.44)" style="fill: #6f6f8a;opacity: 0.784313976764679;isolation: isolate"/>
          <path d="M45.33,200.32l43.72-25.24a4.73,4.73,0,0,1,4.73,0l43.72,25.24a3.36,3.36,0,0,1,0,5.8L93.79,231.33a4.73,4.73,0,0,1-4.74,0L45.33,206.1a3.36,3.36,0,0,1,0-5.77Z" transform="translate(-0.44)" style="fill: #6c6c87;opacity: 0.80392199754715;isolation: isolate"/>
          <path d="M45.6,200.34l43.46-25.09a4.7,4.7,0,0,1,4.7,0l43.48,25.1a3.33,3.33,0,0,1,0,5.77l-43.48,25.1a4.7,4.7,0,0,1-4.7,0l-43.48-25.1a3.33,3.33,0,0,1,0-5.79Z" transform="translate(-0.44)" style="fill: #686884;opacity: 0.823529005050659;isolation: isolate"/>
          <path d="M45.85,200.36l43.2-25a4.67,4.67,0,0,1,4.67,0l43.24,25a3.32,3.32,0,0,1,0,5.75l-43.2,25a4.67,4.67,0,0,1-4.67,0l-43.24-25a3.32,3.32,0,0,1,0-5.73Z" transform="translate(-0.44)" style="fill: #656581;opacity: 0.84313702583313;isolation: isolate"/>
          <path d="M46.09,200.38l43-24.82a4.64,4.64,0,0,1,4.64,0l43,24.82a3.3,3.3,0,0,1,0,5.71l-43,24.82a4.64,4.64,0,0,1-4.64,0l-43-24.82a3.3,3.3,0,0,1,0-5.71Z" transform="translate(-0.44)" style="fill: #61617e;opacity: 0.862744987010956;isolation: isolate"/>
          <path d="M46.36,200.46l42.69-24.74a4.62,4.62,0,0,1,4.62,0l42.81,24.74a3.28,3.28,0,0,1,0,5.68L93.74,230.74a4.62,4.62,0,0,1-4.62,0L46.36,206.07a3.28,3.28,0,0,1,0-5.61Z" transform="translate(-0.44)" style="fill: #5e5e7c;opacity: 0.882353007793427;isolation: isolate"/>
          <path d="M46.62,200.46l42.5-24.54a4.59,4.59,0,0,1,4.59,0l42.52,24.54a3.26,3.26,0,0,1,0,5.64l-42.5,24.5a4.59,4.59,0,0,1-4.59,0L46.62,206.06a3.26,3.26,0,0,1,0-5.6Z" transform="translate(-0.44)" style="fill: #5a5a79;opacity: 0.901961028575897;isolation: isolate"/>
          <path d="M46.87,200.46,89.13,176a4.56,4.56,0,0,1,4.56,0L136,200.46a3.24,3.24,0,0,1,0,5.61L93.71,230.43a4.56,4.56,0,0,1-4.56,0L46.87,206a3.24,3.24,0,0,1,0-5.58Z" transform="translate(-0.44)" style="fill: #565676;opacity: 0.921568989753723;isolation: isolate"/>
          <path d="M47.14,200.46l42-24.26a4.54,4.54,0,0,1,4.54,0l42,24.26a3.22,3.22,0,0,1,0,5.58l-42,24.26a4.54,4.54,0,0,1-4.54,0L47.14,206a3.09,3.09,0,0,1-1.7-4.1A2.47,2.47,0,0,1,47.14,200.46Z" transform="translate(-0.44)" style="fill: #535373;opacity: 0.941175997257233;isolation: isolate"/>
          <path d="M47.43,200.46l41.78-24.16a4.51,4.51,0,0,1,4.51,0l41.78,24.16a3.21,3.21,0,0,1,0,5.54L93.72,230.17a4.51,4.51,0,0,1-4.51,0L47.43,206a3.21,3.21,0,0,1,0-5.54Z" transform="translate(-0.44)" style="fill: #4f4f70;opacity: 0.960784018039703;isolation: isolate"/>
          <path d="M47.65,200.46l41.52-24a4.5,4.5,0,0,1,4.5,0l41.52,24a3.18,3.18,0,0,1,0,5.52L93.67,230a4.5,4.5,0,0,1-4.5,0L47.65,206a3.18,3.18,0,0,1,0-5.53Z" transform="translate(-0.44)" style="fill: #4c4c6d;opacity: 0.980391979217529;isolation: isolate"/>
          <path id="51f4adf4-7484-48c8-88a6-9c2ae1be1fdd" data-name="a95a0407-64ea-4fc3-a9a7-d3f91cc38bba" d="M47.9,200.46l41.28-23.8a4.47,4.47,0,0,1,4.47,0l41.28,23.8a3.17,3.17,0,0,1,0,5.48L93.66,229.8a4.47,4.47,0,0,1-4.47,0L47.9,206a3.17,3.17,0,0,1,0-5.52Z" transform="translate(-0.44)" style="fill: #48486a"/>
        </g>
        <g style="opacity: 0.5">
          <path id="0a058c1e-3725-412c-8b2b-ce415cd52422" data-name="bda19abd-19de-4a54-a7de-f961183e3fee" d="M99.13,230.69l47.2-27.25a5.1,5.1,0,0,1,5.1,0l47.2,27.25a3.62,3.62,0,0,1,0,6.27l-47.2,27.25a5.1,5.1,0,0,1-5.1,0L99.13,237A3.69,3.69,0,0,1,98,231.9,5.1,5.1,0,0,1,99.13,230.69Z" transform="translate(-0.44)" style="fill: #fff;fill-opacity: 0"/>
          <path d="M99.36,230.7l47-27.13a5.09,5.09,0,0,1,5.09,0l47,27.13a3.6,3.6,0,0,1,0,6.24l-47,27.13a5.09,5.09,0,0,1-5.09,0l-47-27.13a3.6,3.6,0,0,1,0-6.24Z" transform="translate(-0.44)" style="fill: #fbfbfc;opacity: 0.019608000293374;isolation: isolate"/>
          <path d="M99.59,230.72l46.77-27a5.06,5.06,0,0,1,5.06,0l46.77,27a3.58,3.58,0,0,1,0,6.22l-46.77,27a5.06,5.06,0,0,1-5.06,0l-46.77-27a3.58,3.58,0,0,1,0-6.22Z" transform="translate(-0.44)" style="fill: #f8f8f9;opacity: 0.039216000586748;isolation: isolate"/>
          <path d="M99.79,230.73l46.56-26.85a5,5,0,0,1,5,0l46.56,26.85a3.57,3.57,0,0,1,0,6.19l-46.56,26.85a5,5,0,0,1-5,0L99.79,236.92a3.57,3.57,0,0,1,0-6.19Z" transform="translate(-0.44)" style="fill: #f4f4f6;opacity: 0.058823999017477;isolation: isolate"/>
          <path d="M100,230.74,146.37,204a5,5,0,0,1,5,0l46.41,26.76a3.56,3.56,0,0,1,0,6.15l-46.34,26.76a5,5,0,0,1-5,0L100,236.91a3.56,3.56,0,0,1,0-6.16Z" transform="translate(-0.44)" style="fill: #f1f1f3;opacity: 0.078431002795696;isolation: isolate"/>
          <path d="M100.26,230.76l46.14-26.63a5,5,0,0,1,5,0l46.14,26.63a3.53,3.53,0,0,1,0,6.12l-46.15,26.67a5,5,0,0,1-5,0l-46.13-26.66a3.53,3.53,0,0,1,0-6.14Z" transform="translate(-0.44)" style="fill: #ededf0;opacity: 0.098039001226425;isolation: isolate"/>
          <path d="M100.49,230.77l45.93-26.51a5,5,0,0,1,5,0l45.93,26.51a3.52,3.52,0,0,1,0,6.09l-45.93,26.51a5,5,0,0,1-5,0l-45.93-26.5a3.52,3.52,0,0,1,0-6.11Z" transform="translate(-0.44)" style="fill: #e9e9ed;opacity: 0.117646999657154;isolation: isolate"/>
          <path d="M100.72,230.78l45.64-26.39a4.94,4.94,0,0,1,4.94,0l45.64,26.39a3.5,3.5,0,0,1,0,6.07L151.3,263.24a4.94,4.94,0,0,1-4.94,0l-45.64-26.39c-1.94,0-3.5-1.1-3.5-3a3.5,3.5,0,0,1,3.5-3.5Z" transform="translate(-0.44)" style="fill: #e6e6eb;opacity: 0.137254998087883;isolation: isolate"/>
          <path d="M100.95,230.8l45.48-26.31a4.91,4.91,0,0,1,4.91,0l45.5,26.26a3.49,3.49,0,0,1,0,6L151.34,263a4.91,4.91,0,0,1-4.91,0l-45.48-26.2a3.49,3.49,0,0,1,0-6Z" transform="translate(-0.44)" style="fill: #e2e2e8;opacity: 0.156863003969193;isolation: isolate"/>
          <path d="M101.13,230.81l45.28-26.14a4.9,4.9,0,0,1,4.9,0l45.28,26.14a3.48,3.48,0,0,1,0,6L151.34,263a4.9,4.9,0,0,1-4.9,0l-45.31-26.15a3.48,3.48,0,0,1,0-6Z" transform="translate(-0.44)" style="fill: #dfdfe5;opacity: 0.176470994949341;isolation: isolate"/>
          <path d="M101.39,230.84l45.07-26a4.87,4.87,0,0,1,4.87,0l45.12,26a3.45,3.45,0,0,1,0,6l-45.07,26a4.87,4.87,0,0,1-4.87,0l-45.12-26a3.45,3.45,0,0,1,0-6Z" transform="translate(-0.44)" style="fill: #dbdbe2;opacity: 0.19607800245285;isolation: isolate"/>
          <path d="M101.62,230.85,146.47,205a4.85,4.85,0,0,1,4.85,0l44.85,25.9a3.44,3.44,0,0,1,0,6l-44.85,25.9a4.85,4.85,0,0,1-4.85,0L101.62,236.8a3.44,3.44,0,0,1,0-5.95Z" transform="translate(-0.44)" style="fill: #d8d8df;opacity: 0.215685993432999;isolation: isolate"/>
          <path d="M101.85,230.86l44.64-25.78a4.83,4.83,0,0,1,4.83,0L196,230.86a3.42,3.42,0,0,1,0,5.92l-44.64,25.78a4.83,4.83,0,0,1-4.83,0l-44.64-25.78c-1.89,0-3.42-1.07-3.42-3A2.83,2.83,0,0,1,101.85,230.86Z" transform="translate(-0.44)" style="fill: #d4d4dc;opacity: 0.235293999314308;isolation: isolate"/>
          <path d="M102.07,230.88l44.42-25.64a4.81,4.81,0,0,1,4.81,0l44.42,25.64a3.41,3.41,0,0,1,0,5.89L151.3,262.41a4.81,4.81,0,0,1-4.81,0l-44.42-25.64a3.41,3.41,0,0,1,0-5.89Z" transform="translate(-0.44)" style="fill: #d0d0d9;opacity: 0.254902005195618;isolation: isolate"/>
          <path d="M102.3,230.89l44.21-25.51a4.78,4.78,0,0,1,4.78,0l44.21,25.51a3.38,3.38,0,0,1,0,5.87l-44.21,25.51a4.78,4.78,0,0,1-4.78,0L102.3,236.7a3.38,3.38,0,0,1,0-5.81Z" transform="translate(-0.44)" style="fill: #cdcdd6;opacity: 0.274509996175766;isolation: isolate"/>
          <path d="M102.48,230.9l44-25.4a4.75,4.75,0,0,1,4.75,0l44,25.4a3.37,3.37,0,0,1,0,5.84l-44,25.4a4.75,4.75,0,0,1-4.75,0l-44-25.44a3.37,3.37,0,0,1,0-5.8Z" transform="translate(-0.44)" style="fill: #c9c9d3;opacity: 0.294117987155914;isolation: isolate"/>
          <path d="M102.74,230.92l43.78-25.28a4.74,4.74,0,0,1,4.74,0L195,230.92a3.36,3.36,0,0,1,0,5.81L151.26,262a4.74,4.74,0,0,1-4.74,0L102.74,236.7a3.36,3.36,0,0,1,0-5.79Z" transform="translate(-0.44)" style="fill: #c6c6d0;opacity: 0.313724994659424;isolation: isolate"/>
          <path d="M103,230.93l43.56-25.1a4.71,4.71,0,0,1,4.71,0L194.81,231a3.34,3.34,0,0,1,0,5.79L151.25,261.9a4.71,4.71,0,0,1-4.71,0L103,236.7a3.34,3.34,0,0,1,0-5.77Z" transform="translate(-0.44)" style="fill: #c2c2cd;opacity: 0.333332985639572;isolation: isolate"/>
          <path d="M103.2,230.94l43.35-25a4.69,4.69,0,0,1,4.69,0l43.35,25a3.33,3.33,0,0,1,0,5.76l-43.35,25a4.69,4.69,0,0,1-4.69,0l-43.35-25a3.33,3.33,0,0,1,0-5.76Z" transform="translate(-0.44)" style="fill: #bebeca;opacity: 0.352941006422043;isolation: isolate"/>
          <path d="M103.43,231l43.13-24.9a4.66,4.66,0,0,1,4.66,0L194.35,231a3.3,3.3,0,0,1,0,5.73l-43.13,24.9a4.66,4.66,0,0,1-4.66,0L103.43,236.7a3.3,3.3,0,0,1,0-5.75Z" transform="translate(-0.44)" style="fill: #bbbbc7;opacity: 0.372548997402191;isolation: isolate"/>
          <path d="M103.66,231l43-24.78a4.64,4.64,0,0,1,4.64,0l43,24.78a3.29,3.29,0,0,1,0,5.71l-43,24.78a4.64,4.64,0,0,1-4.64,0l-43-24.76a3.29,3.29,0,0,1,0-5.73Z" transform="translate(-0.44)" style="fill: #b7b7c5;opacity: 0.39215698838234;isolation: isolate"/>
          <path d="M103.82,231l42.7-24.66a4.62,4.62,0,0,1,4.62,0L193.84,231a3.28,3.28,0,0,1,0,5.67l-42.7,24.66a4.62,4.62,0,0,1-4.62,0l-42.7-24.61a3.28,3.28,0,0,1,0-5.72Z" transform="translate(-0.44)" style="fill: #b4b4c2;opacity: 0.41176500916481;isolation: isolate"/>
          <path d="M104.1,231l42.49-24.53a4.59,4.59,0,0,1,4.59,0L193.67,231a3.26,3.26,0,0,1,0,5.64l-42.49,24.53a4.59,4.59,0,0,1-4.59,0L104.1,236.7a3.26,3.26,0,0,1,0-5.71Z" transform="translate(-0.44)" style="fill: #b0b0bf;opacity: 0.431373000144959;isolation: isolate"/>
          <path d="M104.33,231l42.27-24.41a4.58,4.58,0,0,1,4.58,0L193.46,231a3.24,3.24,0,0,1,0,5.61L151.18,261a4.58,4.58,0,0,1-4.58,0l-42.27-24.41a3.24,3.24,0,0,1,0-5.61Z" transform="translate(-0.44)" style="fill: #acacbc;opacity: 0.450980007648468;isolation: isolate"/>
          <path d="M104.56,231l42.06-24.29a4.55,4.55,0,0,1,4.55,0L193.23,231a3.22,3.22,0,0,1,0,5.58l-42.06,24.26a4.55,4.55,0,0,1-4.55,0l-42.06-24.26a3.22,3.22,0,0,1,0-5.58Z" transform="translate(-0.44)" style="fill: #a9a9b9;opacity: 0.470587998628616;isolation: isolate"/>
          <path d="M104.79,231l41.84-24.16a4.52,4.52,0,0,1,4.52,0L193,231a3.21,3.21,0,0,1,0,5.56l-41.84,24.16a4.52,4.52,0,0,1-4.52,0L104.79,236.6c-1.77,0-3.21-1-3.21-2.78A2.66,2.66,0,0,1,104.79,231Z" transform="translate(-0.44)" style="fill: #a5a5b6;opacity: 0.490195989608765;isolation: isolate"/>
          <path d="M105,231.07l41.62-24a4.5,4.5,0,0,1,4.5,0l41.62,24a3.2,3.2,0,0,1,0,5.53l-41.62,24a4.5,4.5,0,0,1-4.5,0L105,236.6c-1.29-1.21-.94-3.67.27-5C105.33,231.59,105.38,231.55,105,231.07Z" transform="translate(-0.44)" style="fill: #a2a2b3;opacity: 0.509804010391235;isolation: isolate"/>
          <path d="M105.24,231.08l41.42-23.91a4.48,4.48,0,0,1,4.48,0l41.42,23.91a3.18,3.18,0,0,1,0,5.5l-41.42,23.91a4.48,4.48,0,0,1-4.48,0l-41.42-23.92a3.18,3.18,0,0,1,0-5.49Z" transform="translate(-0.44)" style="fill: #9e9eb0;opacity: 0.529411971569061;isolation: isolate"/>
          <path d="M105.46,231.09l41.2-23.79a4.46,4.46,0,0,1,4.46,0l41.2,23.79a3.15,3.15,0,0,1,0,5.48l-41.2,23.79a4.46,4.46,0,0,1-4.46,0l-41.2-23.8a3.15,3.15,0,0,1,0-5.46Z" transform="translate(-0.44)" style="fill: #9b9bad;opacity: 0.549019992351532;isolation: isolate"/>
          <path d="M105.68,231.11l41-23.67a4.43,4.43,0,0,1,4.43,0l41,23.67a3.14,3.14,0,0,1,0,5.44l-41,23.67a4.43,4.43,0,0,1-4.43,0l-41-23.67a3.14,3.14,0,0,1,0-5.44Z" transform="translate(-0.44)" style="fill: #9797aa;opacity: 0.568626999855042;isolation: isolate"/>
          <path d="M105.91,231.12l40.77-23.53a4.4,4.4,0,0,1,4.4,0l40.77,23.53a3.13,3.13,0,0,1,0,5.37L151.09,260a4.4,4.4,0,0,1-4.4,0l-40.77-23.49a3.13,3.13,0,0,1,0-5.41Z" transform="translate(-0.44)" style="fill: #9393a7;opacity: 0.588235020637512;isolation: isolate"/>
          <path d="M106.14,231.13l40.56-23.41a4.39,4.39,0,0,1,4.39,0l40.56,23.41a3.11,3.11,0,0,1,0,5.37l-40.56,23.43a4.39,4.39,0,0,1-4.39,0l-40.56-23.41a3.11,3.11,0,0,1,0-5.38Z" transform="translate(-0.44)" style="fill: #9090a4;opacity: 0.607842981815338;isolation: isolate"/>
          <path d="M106.37,231.15l40.34-23.29a4.36,4.36,0,0,1,4.36,0l40.34,23.29a3.09,3.09,0,0,1,0,5.37l-40.34,23.28a4.36,4.36,0,0,1-4.36,0L106.37,236.5a3.09,3.09,0,0,1,0-5.36Z" transform="translate(-0.44)" style="fill: #8c8ca2;opacity: 0.627451002597809;isolation: isolate"/>
          <path d="M106.6,231.16,146.78,208a4.34,4.34,0,0,1,4.34,0l40.13,23.17a3.07,3.07,0,0,1,0,5.37l-40.18,23.13a4.34,4.34,0,0,1-4.34,0L106.6,236.49a3.07,3.07,0,0,1,0-5.33Z" transform="translate(-0.44)" style="fill: #89899f;opacity: 0.64705902338028;isolation: isolate"/>
          <path d="M106.81,231.17l40-23.05a4.32,4.32,0,0,1,4.32,0L191,231.17a3.06,3.06,0,0,1,0,5.3l-40,23.05a4.32,4.32,0,0,1-4.32,0l-39.91-23.05a3.06,3.06,0,0,1,0-5.3Z" transform="translate(-0.44)" style="fill: #85859c;opacity: 0.666666984558106;isolation: isolate"/>
          <path d="M107,231.19l39.74-22.92a4.3,4.3,0,0,1,4.3,0l39.7,22.92a3,3,0,0,1,0,5.28l-39.7,22.92a4.3,4.3,0,0,1-4.3,0L107,236.46a3,3,0,0,1,0-5.28Z" transform="translate(-0.44)" style="fill: #818199;opacity: 0.686275005340576;isolation: isolate"/>
          <path d="M107.27,231.2l39.48-22.82a4.27,4.27,0,0,1,4.27,0L190.5,231.2a3,3,0,0,1,0,5.25L151,259.27a4.27,4.27,0,0,1-4.27,0l-39.48-22.82c-1.67,0-3-1-3-2.62A2.51,2.51,0,0,1,107.27,231.2Z" transform="translate(-0.44)" style="fill: #7e7e96;opacity: 0.705882012844086;isolation: isolate"/>
          <path d="M107.5,231.21l39.28-22.7a4.24,4.24,0,0,1,4.24,0l39.27,22.67a3,3,0,0,1,0,5.21L151,259.07a4.24,4.24,0,0,1-4.24,0L107.5,236.44a3,3,0,0,1,0-5.22Z" transform="translate(-0.44)" style="fill: #7a7a93;opacity: 0.725489974021912;isolation: isolate"/>
          <path d="M107.73,231.23l39.05-22.54a4.23,4.23,0,0,1,4.23,0l39.05,22.55a3,3,0,0,1,0,5.18L151,259a4.23,4.23,0,0,1-4.23,0l-39.05-22.55a3,3,0,0,1,0-5.2Z" transform="translate(-0.44)" style="fill: #777790;opacity: 0.745097994804382;isolation: isolate"/>
          <path d="M108,231.24l38.82-22.42a4.2,4.2,0,0,1,4.2,0l38.84,22.42a3,3,0,0,1,0,5.16L151,258.81a4.2,4.2,0,0,1-4.2,0l-38.84-22.42a3,3,0,0,1,0-5.16Z" transform="translate(-0.44)" style="fill: #73738d;opacity: 0.764706015586853;isolation: isolate"/>
          <path d="M108.17,231.25,146.78,209a4.18,4.18,0,0,1,4.18,0l38.62,22.3a3,3,0,0,1,0,5.13L151,258.68a4.18,4.18,0,0,1-4.18,0l-38.61-22.3a3,3,0,0,1,0-5.13Z" transform="translate(-0.44)" style="fill: #6f6f8a;opacity: 0.784313976764679;isolation: isolate"/>
          <path d="M108.4,231.33l38.38-22.24a4.15,4.15,0,0,1,4.15,0l38.46,22.24a2.94,2.94,0,0,1,0,5.1L151,258.61a4.15,4.15,0,0,1-4.15,0L108.4,236.37a2.94,2.94,0,0,1,0-5Z" transform="translate(-0.44)" style="fill: #6c6c87;opacity: 0.80392199754715;isolation: isolate"/>
          <path d="M108.62,231.33l38.15-22.1a4.13,4.13,0,0,1,4.13,0l38.25,22.1a2.93,2.93,0,0,1,0,5.07L151,258.47a4.13,4.13,0,0,1-4.13,0l-38.21-22.11a2.93,2.93,0,0,1,0-5Z" transform="translate(-0.44)" style="fill: #686884;opacity: 0.823529005050659;isolation: isolate"/>
          <path d="M108.85,231.33l37.92-22a4.11,4.11,0,0,1,4.11,0l38,22a2.91,2.91,0,0,1,0,5l-38,21.9a4.11,4.11,0,0,1-4.11,0l-38-21.94a2.91,2.91,0,0,1,0-5Z" transform="translate(-0.44)" style="fill: #656581;opacity: 0.84313702583313;isolation: isolate"/>
          <path d="M109.08,231.33l37.76-21.8a4,4,0,0,1,4,0l37.83,21.8a2.9,2.9,0,0,1,0,5l-37.76,21.83a4,4,0,0,1-4,0l-37.83-21.86a2.9,2.9,0,0,1,0-5Z" transform="translate(-0.44)" style="fill: #61617e;opacity: 0.862744987010956;isolation: isolate"/>
          <path d="M109.31,231.33l37.59-21.68a4,4,0,0,1,4,0l37.59,21.68a2.87,2.87,0,0,1,0,5L150.93,258a4,4,0,0,1-4,0l-37.59-21.68a2.87,2.87,0,0,1,0-5Z" transform="translate(-0.44)" style="fill: #5e5e7c;opacity: 0.882353007793427;isolation: isolate"/>
          <path d="M109.54,231.33l37.35-21.56a4,4,0,0,1,4,0l37.33,21.56a2.86,2.86,0,0,1,0,5L150.9,257.85a4,4,0,0,1-4,0L109.54,236.3a2.86,2.86,0,0,1,0-5Z" transform="translate(-0.44)" style="fill: #5a5a79;opacity: 0.901961028575897;isolation: isolate"/>
          <path d="M109.75,231.33l37.13-21.48a4,4,0,0,1,4,0L188,231.33a2.85,2.85,0,0,1,0,4.93l-37.13,21.48a4,4,0,0,1-4,0l-37.13-21.48a2.85,2.85,0,0,1,0-4.93Z" transform="translate(-0.44)" style="fill: #565676;opacity: 0.921568989753723;isolation: isolate"/>
          <path d="M110,231.33,146.9,210a4,4,0,0,1,4,0l36.88,21.3a2.83,2.83,0,0,1,0,4.9l-36.92,21.3a4,4,0,0,1-4,0l-36.92-21.3a2.83,2.83,0,0,1,0-4.9Z" transform="translate(-0.44)" style="fill: #535373;opacity: 0.941175997257233;isolation: isolate"/>
          <path d="M110.21,231.33l36.7-21.18a4,4,0,0,1,4,0l36.64,21.18a2.82,2.82,0,0,1,0,4.87l-36.7,21.18a4,4,0,0,1-4,0l-36.64-21.13a2.82,2.82,0,0,1,0-4.93Z" transform="translate(-0.44)" style="fill: #4f4f70;opacity: 0.960784018039703;isolation: isolate"/>
          <path d="M110.44,231.33l36.49-21.06a4,4,0,0,1,3.95,0l36.47,21.06a2.79,2.79,0,0,1,0,4.85L150.8,257.31a4,4,0,0,1-3.95,0l-36.42-21.06a2.79,2.79,0,0,1,0-4.91Z" transform="translate(-0.44)" style="fill: #4c4c6d;opacity: 0.980391979217529;isolation: isolate"/>
          <path id="f38fbed9-cec5-44dd-9a84-9c498950e8d3" data-name="99ef9537-6ed2-4e26-8483-53cb219e2624" d="M110.67,231.41l36.25-20.94a3.92,3.92,0,0,1,3.92,0l36.25,20.94a2.78,2.78,0,0,1,0,4.82l-36.25,20.94a3.92,3.92,0,0,1-3.92,0l-36.25-20.94a2.75,2.75,0,0,1-1.14-3.73A2.46,2.46,0,0,1,110.67,231.41Z" transform="translate(-0.44)" style="fill: #48486a"/>
        </g>
        <polygon id="cb92ad3b-f081-4f71-91cb-f6d4d13495d9" data-name="848487dc-651d-43e9-8930-fb791785db96" points="42.54 63.83 90.98 35.87 139.42 63.83 90.98 91.81 42.54 63.83" style="fill: #adb9e0"/>
        <polygon id="2b3817ac-7852-4967-b7e7-72bc2826a3da" data-name="d3b203b1-5f08-4668-ae8b-0e4a98338aeb" points="42.54 63.83 42.54 204.32 90.98 232.29 90.98 91.81 42.54 63.83" style="fill: #a3b0dc"/>
        <polygon id="f1c2b493-be72-49f4-bb5d-85365d977ea1" data-name="1b1a8cda-d45d-4645-a64c-2fd98bb75751" points="90.98 232.29 139.42 204.32 139.42 63.83 90.98 91.81 90.98 232.29" style="fill: #99a7d8"/>
        <g id="6ced8429-c58e-47f3-b08e-0177ceaf9789" data-name="cb84b8cb-37a0-43f9-b96e-e6165cc1e6ea">
          <polygon points="90.98 149.32 90.57 149.08 42.54 121.36 42.54 119.43 90.98 147.43 139.42 119.43 139.42 121.36 90.98 149.32" style="fill: #5c629e"/>
        </g>
        <g id="3b270335-eb51-4559-b03b-91b3a0c72773" data-name="160e43e0-6e1f-46e6-96b1-634d8e4c6972">
          <polygon points="90.98 177.11 42.54 149.32 42.54 147.36 90.98 175.22 139.42 147.19 139.42 149.13 90.98 177.11" style="fill: #5c629e"/>
        </g>
        <g id="30bf10a8-b03b-4bb8-b6bc-847be0db54b4" data-name="b77cacb1-5384-4548-88dc-e41c3a7b90d7">
          <polygon points="90.98 204.89 42.54 177.11 42.54 175.15 90.98 203.01 139.42 175.15 139.42 177.11 90.98 204.89" style="fill: #5c629e"/>
        </g>
        <polygon id="87ca7a7a-c751-4bcd-a522-afca464e6ef1" data-name="f5ff65ba-64cb-4503-88e4-f564fb810c48" points="94.03 123.35 103.09 118.19 103.09 121.65 94.03 126.8 94.03 123.35" style="fill: #5c629e"/>
        <polygon id="c5f97738-3aa4-4fba-970b-441c24565cb8" data-name="4673960a-58ee-47dc-b27d-e962f376c4c1" points="104.89 117.22 113.95 112.08 113.95 115.53 104.89 120.67 104.89 117.22" style="fill: #5c629e"/>
        <polygon id="24344bc1-9353-4368-a961-c2026fd04003" data-name="6bc8052e-fd79-4e34-9e57-4941ee7ba72c" points="94.03 151.52 103.09 146.38 103.09 149.83 94.03 154.97 94.03 151.52" style="fill: #5c629e"/>
        <polygon id="9f90b105-c21d-4a8a-85c2-78987db36b7a" data-name="61721816-1269-4b58-89c5-95ae68aeb231" points="104.89 145.4 113.95 140.26 113.95 143.71 104.89 148.85 104.89 145.4" style="fill: #5c629e"/>
        <polygon id="687a51fc-a2f2-4c28-b028-5b3f8c2f2762" data-name="bcf3d06a-5426-40b3-9bae-d8fe905215c7" points="94.03 179.7 103.09 174.56 103.09 178.01 94.03 183.15 94.03 179.7" style="fill: #5c629e"/>
        <polygon id="9d57928a-6a55-4993-b32e-0c81ef2308fd" data-name="7aba9a1e-d969-4161-a55d-55cad9698583" points="104.89 173.58 113.95 168.44 113.95 171.89 104.89 177.04 104.89 173.58" style="fill: #5c629e"/>
        <polygon id="0f487590-a4be-42f1-98bc-ad55a347b554" data-name="a23d85af-0ba3-4023-bb13-71a0a132eb42" points="94.03 207.88 103.09 202.74 103.09 206.19 94.03 211.34 94.03 207.88" style="fill: #5c629e"/>
        <polygon id="159af120-0963-4908-adfc-c8c29c6707ca" data-name="9d3edd53-af33-47e4-8a67-9e9ccda24988" points="104.89 201.76 113.95 196.62 113.95 200.08 104.89 205.22 104.89 201.76" style="fill: #5c629e"/>
        <path id="65ba0a6d-7ecf-4dad-ae08-0f17dfcd1043" data-name="3903d82c-9159-480d-aea2-b50d9974d3d7" d="M110.64,74.91c10.61-6.09,10.61-16.11,0-22.15s-27.92-6.09-38.46,0-10.55,16.11,0,22.15S100,81,110.64,74.91Z" transform="translate(-0.44)" style="fill: #99a7d8"/>
        <path d="M72.16,56c10.55-6.09,27.86-6.09,38.46,0,4.58,2.68,7.18,6,7.8,9.4.82-4.54-1.79-9.25-7.8-12.71-10.61-6.09-27.92-6.09-38.46,0-5.93,3.5-8.62,8.22-7.76,12.75C65,62,67.57,58.67,72.16,56Z" transform="translate(-0.44)" style="fill: #48486a"/>
        <path id="c9742719-1e4c-4c6d-b27b-bfaa923ee870" data-name="576df1a8-2498-44ff-a61f-713af71439bf" d="M51.7,111.12c-.78-.44-1.34-.08-1.34.82a3.13,3.13,0,0,0,1.34,2.44c.78.44,1.34.08,1.34-.82A3.13,3.13,0,0,0,51.7,111.12Z" transform="translate(-0.44)" style="fill: #5c629e"/>
        <path id="e06b9483-cc3f-445a-a710-e70c7ead0dc2" data-name="e297c77b-f080-4ec8-8573-570520d2ef2e" d="M57.28,114.75c-.78-.44-1.34-.08-1.34.82A3.13,3.13,0,0,0,57.28,118c.78.44,1.34.08,1.34-.82A3.13,3.13,0,0,0,57.28,114.75Z" transform="translate(-0.44)" style="fill: #5c629e"/>
        <g id="e7bb0d15-b34f-4507-b08d-58f5e3ef9867" data-name="4e7c0cb5-2c43-482f-a79a-bccda2b4cee9">
          <polygon points="90.98 120.73 90.57 120.49 42.54 92.75 42.54 90.83 90.98 118.83 139.42 90.83 139.42 92.75 90.98 120.73" style="fill: #5c629e"/>
        </g>
        <polygon id="35e806cf-1841-457f-b024-8c019f6b1e5a" data-name="0e6e8d89-0ba6-430e-8b81-4cc61134c2c8" points="94.03 94.74 103.09 89.6 103.09 93.05 94.03 98.2 94.03 94.74" style="fill: #5c629e"/>
        <polygon id="ad3fadce-9cdd-40aa-a736-168eb904b215" data-name="d38e3925-f8a8-458f-95e1-af120b32d7a0" points="104.89 88.62 113.95 83.47 113.95 86.94 104.89 92.08 104.89 88.62" style="fill: #5c629e"/>
        <path id="e9e44479-05ce-47c5-b5e4-75989ebc3c8d" data-name="a7d3e528-c9b5-4f47-9e2c-502ed54f8f6d" d="M51.7,82.51c-.78-.44-1.34-.08-1.34.82a3.13,3.13,0,0,0,1.34,2.44c.78.44,1.34.08,1.34-.82A3.13,3.13,0,0,0,51.7,82.51Z" transform="translate(-0.44)" style="fill: #5c629e"/>
        <path id="d9219220-3b03-4a46-8174-362ccda27def" data-name="808ce297-39b5-4702-adae-73aaf1d277f8" d="M57.28,86.15c-.78-.44-1.34-.08-1.34.82a3.13,3.13,0,0,0,1.34,2.44c.78.44,1.34.08,1.34-.82A3.13,3.13,0,0,0,57.28,86.15Z" transform="translate(-0.44)" style="fill: #5c629e"/>
        <path id="3873ab4b-985b-4cb4-96ce-76eee94efd1e" data-name="5de42684-debc-4611-bb94-e774020a8868" d="M51.7,139.58c-.78-.44-1.34-.08-1.34.82a3.13,3.13,0,0,0,1.34,2.44c.78.44,1.34.08,1.34-.82A3.13,3.13,0,0,0,51.7,139.58Z" transform="translate(-0.44)" style="fill: #5c629e"/>
        <path id="4579e948-f5ed-46c1-8f96-ab1b7703b8bc" data-name="9b52de8f-bcf5-4071-9689-8c165b304683" d="M57.28,143.21c-.78-.44-1.34-.08-1.34.82a3.13,3.13,0,0,0,1.34,2.44c.78.44,1.34.08,1.34-.82A3.13,3.13,0,0,0,57.28,143.21Z" transform="translate(-0.44)" style="fill: #5c629e"/>
        <path id="6c7c8fec-f422-4adf-968e-403b2ee1643b" data-name="c11000ed-a44b-40da-8ada-5dee9a2778cb" d="M51.7,167.65c-.78-.44-1.34-.08-1.34.82a3.13,3.13,0,0,0,1.34,2.44c.78.44,1.34.08,1.34-.82A3.13,3.13,0,0,0,51.7,167.65Z" transform="translate(-0.44)" style="fill: #5c629e"/>
        <path id="282089b1-298a-43ea-891e-d0eb6922d2dd" data-name="4be2bb9a-7004-49fe-9ae8-60afe2202e55" d="M57.28,171.29c-.78-.44-1.34-.08-1.34.82a3.13,3.13,0,0,0,1.34,2.44c.78.44,1.34.08,1.34-.82A3.13,3.13,0,0,0,57.28,171.29Z" transform="translate(-0.44)" style="fill: #5c629e"/>
        <path id="37e9f9e1-5ec6-49e3-8115-054dd816878a" data-name="4b1d737e-525f-433a-95ab-ed62a7640062" d="M51.7,195.7c-.78-.44-1.34-.08-1.34.82A3.13,3.13,0,0,0,51.7,199c.78.44,1.34.08,1.34-.82A3.13,3.13,0,0,0,51.7,195.7Z" transform="translate(-0.44)" style="fill: #5c629e"/>
        <path id="19317547-0bc8-48da-a067-60fe73bb57b9" data-name="db9576d1-26fc-4fb7-b576-d8a6cd246a6f" d="M57.28,199.34c-.78-.44-1.34-.08-1.34.82a3.13,3.13,0,0,0,1.34,2.44c.78.44,1.34.08,1.34-.82A3.13,3.13,0,0,0,57.28,199.34Z" transform="translate(-0.44)" style="fill: #5c629e"/>
        <g style="opacity: 0.3">
          <path id="dff07b2a-ed90-489b-814a-8952d6c00d56" data-name="8ac5dc17-fabd-48bb-9d68-49a6f1a378bf" d="M110.37,74.91c10.61-6.09,10.61-16.11,0-22.15s-27.92-6.09-38.46,0-10.55,16.11,0,22.15S99.79,81,110.37,74.91Z" transform="translate(-0.44)" style="fill: #99a7d8"/>
          <path d="M110.37,74c10.61-6.09,10.61-16.11,0-22.15s-27.92-6.09-38.46,0S61.36,67.93,71.91,74,99.79,80.05,110.37,74Z" transform="translate(-0.44)" style="fill: #99a7d8;opacity: 0.980392158031464;isolation: isolate"/>
          <path d="M110.37,73c10.61-6.09,10.61-16.11,0-22.15s-27.92-6.09-38.46,0S61.36,67,71.91,73,99.79,79.11,110.37,73Z" transform="translate(-0.44)" style="fill: #99a7d8;opacity: 0.960784316062927;isolation: isolate"/>
          <path d="M110.37,72.08C121,66,121,56,110.37,49.93s-27.92-6.09-38.46,0S61.36,66,71.91,72.08,99.79,78.17,110.37,72.08Z" transform="translate(-0.44)" style="fill: #99a7d8;opacity: 0.941176474094391;isolation: isolate"/>
          <path d="M110.37,71.12C121,65,121,55,110.37,49s-27.92-6.09-38.46,0-10.55,16.11,0,22.15S99.79,77.22,110.37,71.12Z" transform="translate(-0.44)" style="fill: #99a7d8;opacity: 0.921568632125855;isolation: isolate"/>
          <path d="M110.37,70.24c10.61-6.09,10.61-16.11,0-22.15s-27.92-6.09-38.46,0-10.55,16.11,0,22.15S99.79,76.28,110.37,70.24Z" transform="translate(-0.44)" style="fill: #99a7d8;opacity: 0.901960790157318;isolation: isolate"/>
          <path d="M110.37,69.24c10.61-6.09,10.61-16.11,0-22.15s-27.92-6.09-38.46,0-10.55,16.11,0,22.15S99.79,75.33,110.37,69.24Z" transform="translate(-0.44)" style="fill: #99a7d8;opacity: 0.882352948188782;isolation: isolate"/>
          <path d="M110.37,68.29c10.61-6.09,10.61-16.11,0-22.15s-27.92-6.09-38.46,0-10.55,16.11,0,22.15S99.79,74.39,110.37,68.29Z" transform="translate(-0.44)" style="fill: #99a7d8;opacity: 0.862745106220245;isolation: isolate"/>
          <path d="M110.37,67.35c10.61-6.09,10.61-16.11,0-22.15s-27.92-6.09-38.46,0-10.55,16.11,0,22.15S99.79,73.43,110.37,67.35Z" transform="translate(-0.44)" style="fill: #99a7d8;opacity: 0.843137264251709;isolation: isolate"/>
          <path d="M110.37,66.4c10.61-6.09,10.61-16.11,0-22.15s-27.92-6.09-38.46,0-10.55,16.11,0,22.15S99.79,72.49,110.37,66.4Z" transform="translate(-0.44)" style="fill: #99a7d8;opacity: 0.823529422283173;isolation: isolate"/>
          <path d="M110.37,65.46c10.61-6.09,10.61-16.11,0-22.15s-27.92-6.09-38.46,0-10.55,16.11,0,22.15S99.79,71.58,110.37,65.46Z" transform="translate(-0.44)" style="fill: #99a7d8;opacity: 0.803921580314636;isolation: isolate"/>
          <path d="M110.37,64.52c10.61-6.09,10.61-16.11,0-22.15s-27.92-6.09-38.46,0-10.55,16.11,0,22.15S99.79,70.6,110.37,64.52Z" transform="translate(-0.44)" style="fill: #99a7d8;opacity: 0.7843137383461;isolation: isolate"/>
          <path d="M110.37,63.53c10.61-6.09,10.61-16.11,0-22.15s-27.92-6.09-38.46,0-10.55,16.11,0,22.15S99.79,69.66,110.37,63.53Z" transform="translate(-0.44)" style="fill: #99a7d8;opacity: 0.764705896377564;isolation: isolate"/>
          <path d="M110.37,62.63c10.61-6.09,10.61-16.11,0-22.15s-27.92-6.09-38.46,0-10.55,16.11,0,22.15S99.79,68.71,110.37,62.63Z" transform="translate(-0.44)" style="fill: #99a7d8;opacity: 0.745098054409027;isolation: isolate"/>
          <path d="M110.37,61.67c10.61-6.09,10.61-16.11,0-22.15s-27.92-6.09-38.46,0-10.55,16.11,0,22.15S99.79,67.77,110.37,61.67Z" transform="translate(-0.44)" style="fill: #99a7d8;opacity: 0.725490212440491;isolation: isolate"/>
          <path d="M110.37,60.73c10.61-6.09,10.61-16.11,0-22.15s-27.92-6.09-38.46,0-10.55,16.11,0,22.15S99.79,66.81,110.37,60.73Z" transform="translate(-0.44)" style="fill: #99a7d8;opacity: 0.705882370471954;isolation: isolate"/>
          <path d="M110.37,59.78c10.61-6.09,10.61-16.11,0-22.15s-27.92-6.09-38.46,0-10.55,16.11,0,22.15S99.79,65.87,110.37,59.78Z" transform="translate(-0.44)" style="fill: #99a7d8;opacity: 0.686274528503418;isolation: isolate"/>
          <path d="M110.37,58.84c10.61-6.09,10.61-16.11,0-22.15s-27.92-6.09-38.46,0-10.55,16.11,0,22.15S99.79,64.87,110.37,58.84Z" transform="translate(-0.44)" style="fill: #99a7d8;opacity: 0.666666686534882;isolation: isolate"/>
          <path d="M110.37,57.9c10.61-6.09,10.61-16.11,0-22.15s-27.92-6.09-38.46,0-10.55,16.11,0,22.15S99.79,64,110.37,57.9Z" transform="translate(-0.44)" style="fill: #99a7d8;opacity: 0.647058844566345;isolation: isolate"/>
          <path d="M110.37,56.95c10.61-6.09,10.61-16.11,0-22.15s-27.92-6.09-38.46,0-10.55,16.11,0,22.15S99.79,63,110.37,56.95Z" transform="translate(-0.44)" style="fill: #99a7d8;opacity: 0.627451002597809;isolation: isolate"/>
          <path d="M110.37,56c10.61-6.09,10.61-16.11,0-22.15s-27.92-6.09-38.46,0S61.36,50,71.91,56,99.79,62.09,110.37,56Z" transform="translate(-0.44)" style="fill: #99a7d8;opacity: 0.607843160629273;isolation: isolate"/>
          <path d="M110.37,55.05C121,49,121,38.94,110.37,32.9s-27.92-6.09-38.46,0S61.36,49,71.91,55.05,99.79,61.15,110.37,55.05Z" transform="translate(-0.44)" style="fill: #99a7d8;opacity: 0.588235318660736;isolation: isolate"/>
          <path d="M110.37,54.13C121,48,121,38,110.37,32s-27.92-6.09-38.46,0-10.55,16.11,0,22.15S99.79,60.21,110.37,54.13Z" transform="translate(-0.44)" style="fill: #99a7d8;opacity: 0.5686274766922;isolation: isolate"/>
          <path d="M110.37,53.16C121,47.07,121,37.05,110.37,31s-27.92-6.09-38.46,0-10.55,16.11,0,22.15S99.79,59.26,110.37,53.16Z" transform="translate(-0.44)" style="fill: #99a7d8;opacity: 0.549019634723663;isolation: isolate"/>
          <path d="M110.37,52.22c10.61-6.09,10.61-16.11,0-22.15s-27.92-6.09-38.46,0-10.55,16.11,0,22.15S99.79,58.32,110.37,52.22Z" transform="translate(-0.44)" style="fill: #99a7d8;opacity: 0.529411792755127;isolation: isolate"/>
          <path d="M110.37,51.28c10.61-6.09,10.61-16.11,0-22.15s-27.92-6.09-38.46,0-10.55,16.11,0,22.15S99.79,57.36,110.37,51.28Z" transform="translate(-0.44)" style="fill: #99a7d8;opacity: 0.509803950786591;isolation: isolate"/>
          <path d="M110.37,50.33c10.61-6.09,10.61-16.11,0-22.15s-27.92-6.09-38.46,0-10.55,16.11,0,22.15S99.79,56.42,110.37,50.33Z" transform="translate(-0.44)" style="fill: #99a7d8;opacity: 0.490196079015732;isolation: isolate"/>
          <path d="M110.37,49.39c10.61-6.09,10.61-16.11,0-22.15s-27.92-6.09-38.46,0-10.55,16.11,0,22.15S99.79,55.47,110.37,49.39Z" transform="translate(-0.44)" style="fill: #99a7d8;opacity: 0.470588237047195;isolation: isolate"/>
          <path d="M110.37,48.44c10.61-6.09,10.61-16.11,0-22.15s-27.92-6.09-38.46,0-10.55,16.11,0,22.15S99.79,54.53,110.37,48.44Z" transform="translate(-0.44)" style="fill: #99a7d8;opacity: 0.450980395078659;isolation: isolate"/>
          <path d="M110.37,47.5c10.61-6.09,10.61-16.11,0-22.15s-27.92-6.09-38.46,0-10.55,16.11,0,22.15S99.79,53.59,110.37,47.5Z" transform="translate(-0.44)" style="fill: #99a7d8;opacity: 0.431372553110123;isolation: isolate"/>
          <path d="M110.37,46.54c10.61-6.09,10.61-16.11,0-22.15s-27.92-6.09-38.46,0-10.55,16.11,0,22.15S99.79,52.64,110.37,46.54Z" transform="translate(-0.44)" style="fill: #99a7d8;opacity: 0.411764711141586;isolation: isolate"/>
          <path d="M110.37,45.6c10.61-6.09,10.61-16.11,0-22.15s-27.92-6.09-38.46,0-10.55,16.11,0,22.15S99.79,51.7,110.37,45.6Z" transform="translate(-0.44)" style="fill: #99a7d8;opacity: 0.39215686917305;isolation: isolate"/>
          <path d="M110.37,44.66c10.61-6.09,10.61-16.11,0-22.15s-27.92-6.09-38.46,0-10.55,16.11,0,22.15S99.79,50.75,110.37,44.66Z" transform="translate(-0.44)" style="fill: #99a7d8;opacity: 0.372549027204514;isolation: isolate"/>
          <path d="M110.37,43.71c10.61-6.09,10.61-16.11,0-22.15s-27.92-6.09-38.46,0-10.55,16.11,0,22.15S99.79,49.81,110.37,43.71Z" transform="translate(-0.44)" style="fill: #99a7d8;opacity: 0.352941185235977;isolation: isolate"/>
          <path d="M110.37,42.77c10.61-6.09,10.61-16.11,0-22.15s-27.92-6.09-38.46,0-10.55,16.11,0,22.15S99.79,48.85,110.37,42.77Z" transform="translate(-0.44)" style="fill: #99a7d8;opacity: 0.333333343267441;isolation: isolate"/>
          <path d="M110.37,41.82c10.61-6.09,10.61-16.11,0-22.15s-27.92-6.09-38.46,0-10.55,16.11,0,22.15S99.79,47.91,110.37,41.82Z" transform="translate(-0.44)" style="fill: #99a7d8;opacity: 0.313725501298904;isolation: isolate"/>
          <path d="M110.37,40.88c10.61-6.09,10.61-16.11,0-22.15s-27.92-6.09-38.46,0-10.55,16.11,0,22.15S99.79,47,110.37,40.88Z" transform="translate(-0.44)" style="fill: #99a7d8;opacity: 0.294117659330368;isolation: isolate"/>
          <path d="M110.37,39.94c10.61-6.09,10.61-16.11,0-22.15s-27.92-6.09-38.46,0-10.55,16.11,0,22.15S99.79,46.07,110.37,39.94Z" transform="translate(-0.44)" style="fill: #99a7d8;opacity: 0.274509817361832;isolation: isolate"/>
          <path d="M110.37,39c10.61-6.09,10.61-16.11,0-22.15s-27.92-6.09-38.46,0S61.36,32.94,71.91,39,99.79,45.08,110.37,39Z" transform="translate(-0.44)" style="fill: #99a7d8;opacity: 0.254901975393295;isolation: isolate"/>
          <path d="M110.37,38c10.61-6.09,10.61-16.11,0-22.15s-27.92-6.09-38.46,0S61.36,32,71.91,38,99.79,44.13,110.37,38Z" transform="translate(-0.44)" style="fill: #99a7d8;opacity: 0.235294118523598;isolation: isolate"/>
          <path d="M110.37,37.09C121,31,121,21,110.37,14.94s-27.92-6.09-38.46,0-10.55,16.11,0,22.15S99.79,43.19,110.37,37.09Z" transform="translate(-0.44)" style="fill: #99a7d8;opacity: 0.215686276555061;isolation: isolate"/>
          <path d="M110.37,36.15C121,30.06,121,20,110.37,14S82.45,7.91,71.91,14s-10.55,16.11,0,22.15S99.79,42.25,110.37,36.15Z" transform="translate(-0.44)" style="fill: #99a7d8;opacity: 0.196078434586525;isolation: isolate"/>
          <path d="M110.37,35.2C121,29.1,121,19.09,110.37,13S82.45,7,71.91,13s-10.55,16.11,0,22.15S99.79,41.29,110.37,35.2Z" transform="translate(-0.44)" style="fill: #99a7d8;opacity: 0.176470592617989;isolation: isolate"/>
          <path d="M110.37,34.26c10.61-6.09,10.61-16.11,0-22.15S82.45,6,71.91,12.11s-10.55,16.11,0,22.15S99.79,40.35,110.37,34.26Z" transform="translate(-0.44)" style="fill: #99a7d8;opacity: 0.156862750649452;isolation: isolate"/>
          <path d="M110.37,33.32c10.61-6.09,10.61-16.11,0-22.15s-27.92-6.09-38.46,0-10.55,16.11,0,22.15S99.79,39.36,110.37,33.32Z" transform="translate(-0.44)" style="fill: #99a7d8;opacity: 0.137254908680916;isolation: isolate"/>
          <path d="M110.37,32.37c10.61-6.09,10.61-16.11,0-22.15s-27.92-6.09-38.46,0-10.55,16.11,0,22.15S99.79,38.46,110.37,32.37Z" transform="translate(-0.44)" style="fill: #99a7d8;opacity: 0.117647059261799;isolation: isolate"/>
          <path d="M110.37,31.43c10.61-6.09,10.61-16.11,0-22.15s-27.92-6.09-38.46,0-10.55,16.11,0,22.15S99.79,37.51,110.37,31.43Z" transform="translate(-0.44)" style="fill: #99a7d8;opacity: 0.098039217293262;isolation: isolate"/>
          <path d="M110.37,30.47c10.61-6.09,10.61-16.11,0-22.15s-27.92-6.09-38.46,0-10.55,16.11,0,22.15S99.79,36.57,110.37,30.47Z" transform="translate(-0.44)" style="fill: #99a7d8;opacity: 0.078431375324726;isolation: isolate"/>
          <path d="M110.37,29.53c10.61-6.09,10.61-16.11,0-22.15s-27.92-6.09-38.46,0-10.55,16.11,0,22.15S99.79,35.63,110.37,29.53Z" transform="translate(-0.44)" style="fill: #99a7d8;opacity: 0.058823529630899;isolation: isolate"/>
          <path d="M110.37,28.62c10.61-6.09,10.61-16.11,0-22.15S82.45.38,71.91,6.47s-10.55,16.11,0,22.15S99.79,34.68,110.37,28.62Z" transform="translate(-0.44)" style="fill: #99a7d8;opacity: 0.039215687662363;isolation: isolate"/>
          <path d="M110.37,27.64c10.61-6.09,10.61-16.11,0-22.15S82.45-.6,71.91,5.49s-10.55,16.11,0,22.15S99.79,33.74,110.37,27.64Z" transform="translate(-0.44)" style="fill: #99a7d8;opacity: 0.019607843831182;isolation: isolate"/>
          <path id="ee5bc78d-691d-4d5a-9a2a-b72699dc5442" data-name="39161bc3-8a81-4e70-b723-59093a56abff" d="M110.37,26.7c10.61-6.09,10.61-16.11,0-22.15s-27.92-6.09-38.46,0-10.55,16.11,0,22.15S99.79,32.78,110.37,26.7Z" transform="translate(-0.44)" style="fill: #99a7d8;fill-opacity: 0"/>
        </g>
      </g>
    </g>
    <g id="84e51810-2945-4181-a5cd-cb84e0f6ab11" data-name="a9725db3-ee4f-4171-affe-937b4ef40c5e">
      <g id="45bcde4f-f1ab-4e07-a5ed-3e7745d6349a" data-name="4bae9a21-e4db-44ab-838c-206f043301fa">
        <path id="185cb66d-2225-4064-a4ab-61926e9df10b" data-name="03eba63e-fdbf-48ae-addb-b009ba7b0a0e" d="M63.54,148.46l-23-13.34a.43.43,0,0,0-.64.38v28a1.34,1.34,0,0,0,.63,1.1l23,13.34a.43.43,0,0,0,.64-.38v-28A1.34,1.34,0,0,0,63.54,148.46Z" transform="translate(-0.44)" style="fill: #d3daed;opacity: 0.349999994039536;isolation: isolate"/>
        <path id="02d20d59-b87f-439a-a17d-c2228ad6735f" data-name="732308c9-1a1d-4512-abbf-df42b9bb185e" d="M58.31,152,24.14,132.15a.64.64,0,0,0-1,.55v41.62a1.89,1.89,0,0,0,.94,1.64L58.28,195.8a.64.64,0,0,0,1-.55V153.63A1.89,1.89,0,0,0,58.31,152Z" transform="translate(-0.44)" style="fill: #d3daed;opacity: 0.349999994039536;isolation: isolate"/>
        <path id="08f55b50-704f-45fc-ba38-8ea765106e5b" data-name="a3126537-ab91-49dc-ba57-c282bbe3bfe9" d="M53.8,153.86,7,126.69a.87.87,0,0,0-1.34.77v57.05A2.59,2.59,0,0,0,7,186.75l46.76,27.13a.87.87,0,0,0,1.34-.77v-57A2.59,2.59,0,0,0,53.8,153.86Z" transform="translate(-0.44)" style="fill: #d3daed;opacity: 0.349999994039536;isolation: isolate"/>
        <polygon id="6f103bf1-64a3-44eb-a947-92d8bdf2a00f" data-name="8e44044e-a495-4dba-83f0-91779f70eeb0" points="42.74 171.45 42.52 171.45 42.52 207.64 42.74 207.77 42.74 171.45" style="fill: #6d6d88"/>
        <polygon id="5498dedc-30b5-414d-9af1-74ff3401efbe" data-name="8af2704d-0c7d-4e25-84e6-c97ebc6670d7" points="13.14 190.58 13.35 190.71 13.35 159.31 13.14 159.31 13.14 190.58" style="fill: #6d6d88"/>
        <polygon id="7e8c7f78-440e-4287-8b94-f2eae9eb2baa" data-name="63879ada-138f-4e21-adf3-80e0fba655ae" points="22.02 195.73 22.24 195.87 22.24 163.59 22.02 163.59 22.02 195.73" style="fill: #6d6d88"/>
        <polygon id="c684258a-0d31-4a12-b39a-c5ff67ac1dc5" data-name="6f276ec2-5daa-48cc-addf-ad1059ac8a6d" points="32.51 201.83 32.72 201.96 32.72 159.31 32.51 159.31 32.51 201.83" style="fill: #6d6d88"/>
        <ellipse id="c06a92d0-bb7d-434a-ba8d-2d2dac5c3b28" data-name="ab520b8d-125e-4045-bcdb-ac62dd6f678c" cx="13.24" cy="159.31" rx="0.34" ry="0.44" style="fill: #6d6d88"/>
        <ellipse id="5ffddc93-8639-4ea9-982d-08921f3bba59" data-name="ae5428e5-d065-4d94-8c0e-f5393950e918" cx="22.13" cy="163.59" rx="0.34" ry="0.44" style="fill: #6d6d88"/>
        <ellipse id="a3e451ab-2e59-4d2c-ac8d-bddb3ffea0c4" data-name="8c741f0f-c987-4880-b8bc-80aadd040461" cx="32.61" cy="159.31" rx="0.34" ry="0.44" style="fill: #6d6d88"/>
        <ellipse id="e9394cbb-c5ca-4480-91b2-4301b1944775" data-name="befe33b6-d1df-4496-8413-cdd74b940dea" cx="42.63" cy="171.45" rx="0.34" ry="0.44" style="fill: #6d6d88"/>
        <path id="1c0bb558-dfbc-4b03-be28-10672d63c5c3" data-name="9499af46-5e53-4108-b291-3aa7c31b1d44" d="M5.68,161.53v-2a29.8,29.8,0,0,1,5.26,5.37L12,166c2.09,2.47,5.37,2.3,8.94,1.87,3.24-.39,6.91-.62,9.4,1.69a11.61,11.61,0,0,1,2.59,4.18c.21.47.42,1,.64,1.41.38.77,1.81,3.26,3.87,3.18a5.84,5.84,0,0,0,1.18-.23c.28-.07.56-.15.85-.19,2.68-.51,5.8.85,8.2,3.61a25.63,25.63,0,0,1,2.5,3.62c1.34,2.24,2.68,4.36,4.94,5.37L54.44,192c-2.78-1.17-4.26-3.61-5.69-6a24.49,24.49,0,0,0-2.31-3.37c-2-2.34-4.52-3.48-6.71-3.09l-.72.17a7.16,7.16,0,0,1-1.5.27c-2.07.09-4-1.44-5.37-4-.24-.48-.46-1-.67-1.48a10.27,10.27,0,0,0-2.2-3.64c-2-1.85-5.3-1.64-8.19-1.34s-7.52.91-10.35-2.43l-1-1.21A34.5,34.5,0,0,0,5.68,161.53Z" transform="translate(-0.44)" style="fill: #48486a;opacity: 0.300000011920929;isolation: isolate"/>
        <path id="99727055-f959-42fe-8f6e-d79738606a43" data-name="8126bb8f-c02d-429d-b768-af955b83961a" d="M53.89,214V156.91a2.59,2.59,0,0,0-1.34-2.24L5.82,127.49H5.7A.87.87,0,0,1,7,126.74l46.78,27.17a2.59,2.59,0,0,1,1.34,2.24v57.05A.87.87,0,0,1,54,214Z" transform="translate(-0.44)" style="fill: #d3daed"/>
        <g id="ef35943d-d773-4998-9c0f-a79cf11d2fa6" data-name="459c4a01-6ea1-4852-a1e8-ae1e14fe9b84">
          <path id="ea72f5a6-4d7b-4b24-b2ca-22d6e7a7715a" data-name="1c7d13ad-0de7-4b1f-8c7c-c2e3dcef1932" d="M56.05,189.19l.62.15v-1.62c-2.3-1-3.58-3.09-4.94-5.37a25.64,25.64,0,0,0-2.46-3.58c-2.39-2.77-5.46-4.11-8.2-3.61a3.56,3.56,0,0,0-.83.19,5.84,5.84,0,0,1-1.18.23c-2.05.08-3.49-2.42-3.87-3.18-.23-.46-.43-.94-.64-1.41A11.63,11.63,0,0,0,32,166.9c-2.54-2.31-6.22-2.08-9.4-1.69-3.52.43-6.83.6-8.94-1.87l-1.09-1.26a23.92,23.92,0,0,0-7.13-6.51l-.75-.19V157a22.69,22.69,0,0,1,6.71,6.12l1,1.21c2.83,3.33,7.36,2.79,10.35,2.43s6.15-.56,8.19,1.34a10.27,10.27,0,0,1,2.2,3.64c.21.5.44,1,.67,1.48,1.34,2.68,3.3,4.15,5.37,4a7.14,7.14,0,0,0,1.5-.27l.72-.17c2.17-.39,4.69.75,6.71,3.09a24.49,24.49,0,0,1,2.31,3.37C51.8,185.58,53.29,188,56.05,189.19Z" transform="translate(-0.44)" style="fill: url(#480f5087-c730-4320-bb64-69dd1261f764)"/>
        </g>
      </g>
      <g id="da5398f6-69d6-4cc2-a2ef-a658e5f1b178" data-name="499d5e3a-86eb-4a44-a30b-6117ff5dcecd">
        <g id="e5ce8e43-e6d4-43e4-a119-e77d9bd0d7a6" data-name="58137722-adf4-4384-a317-bccd03e488af">
          <path id="25e9fb54-778b-4c32-ad20-a81af4cf1587" data-name="4c47a136-dee9-4cb2-8030-e1bc98af7688" d="M7.4,209.18a1.52,1.52,0,0,0,1.34-2.24l-5-9.12a2.23,2.23,0,0,1,.7-2.91l6.5-4.44a1.52,1.52,0,0,0-1.7-2.5L2.74,192.4a5.25,5.25,0,0,0-1.65,6.87l5,9.12A1.52,1.52,0,0,0,7.4,209.18Z" transform="translate(-0.44)" style="fill: #ef9ea3"/>
        </g>
        <path id="824ca05e-47da-460f-8855-c81323214f30" data-name="04c87674-d276-4c5f-8a10-fe97b543c2b7" d="M25.77,177.27h0a.42.42,0,0,0,.54-.24h0l1.15-3a.42.42,0,0,0-.24-.54h0a.42.42,0,0,0-.54.24h0l-1.15,3a.42.42,0,0,0,.24.54Z" transform="translate(-0.44)" style="fill: #f2b1b5"/>
        <path id="20f67db2-e15c-4748-ab2d-81154371c99b" data-name="eed5ff9b-3710-4e65-867b-aabd18f908a1" d="M2.61,242.56,4,241.74l1.46-.85L8.72,239a1.13,1.13,0,0,0-.17-2h0a2.48,2.48,0,0,0-1.93.09l-2.55,1.24-3,1.11a.63.63,0,0,0-.4.62v.82a1.8,1.8,0,0,0,1.8,1.69Z" transform="translate(-0.44)" style="fill: #48486a"/>
        <path id="748c9aae-c255-4514-8f1d-5f88c821e83d" data-name="6d3cdc46-b398-4ab2-89e8-417db219a13d" d="M2.11,238.78l2-.5,1.5-.72a1.11,1.11,0,0,1,0,1.95L3.4,240.85H3.29a1.58,1.58,0,0,1-1.91-.24c-.38-.38-.7-.77-.58-.91l.89-.31A.63.63,0,0,1,2.11,238.78Z" transform="translate(-0.44)" style="fill: #f2b1b5"/>
        <path id="2c4cd102-0aee-4aee-ada8-bdf7312ef421" data-name="ff9b9397-6085-4184-b6a9-f0626d4107f2" d="M13.52,248.46l1.53-.9,1.58-.91,3.58-2.08a1.22,1.22,0,0,0-.19-2.2h0a2.68,2.68,0,0,0-2.11.11l-2.77,1.34-3.36,1.24a.68.68,0,0,0-.44.67v.9a2,2,0,0,0,1.95,1.84Z" transform="translate(-0.44)" style="fill: #48486a"/>
        <path id="118863bc-c7cf-4853-b03a-c0735ea070ba" data-name="835417a4-5bfc-4613-9900-4d3c598f796b" d="M13,244.37l2.19-.54L16.8,243a1.21,1.21,0,0,1,0,2.11l-2.43,1.34-.12.07a1.72,1.72,0,0,1-2.07-.26c-.42-.4-.75-.82-.63-1l1-.3A.68.68,0,0,1,13,244.37Z" transform="translate(-0.44)" style="fill: #f2b1b5"/>
        <g id="71a8736f-5c32-4817-b662-520afd2b0e91" data-name="28d15894-8c58-47a0-a484-0bd6f367728a">
          <path id="3d9c2449-a247-4538-87e0-fa4f0cf239e6" data-name="b8568188-826d-47b9-9b36-88d4b4e77a18" d="M2.15,241.25a1.89,1.89,0,0,0,1.7-1.07l6.52-13.6L8.5,211.4a1.89,1.89,0,0,0-2.11-1.65h0c-1,.12-2.9,1.07-2.78,2.11L6.49,226,1.21,238.54c-.46.94-.81,2.07.13,2.52A1.88,1.88,0,0,0,2.15,241.25Z" transform="translate(-0.44)" style="fill: #f2b1b5"/>
        </g>
        <g id="7c68d590-5a4b-413c-9aa2-ed4942617739" data-name="8d515c41-ac52-46d8-8ed0-df31b562a8b3">
          <path id="6106737f-7acc-4064-8259-8ca3e2ac17aa" data-name="1a80d680-1827-4e61-9da3-79c9887b2fa5" d="M13.44,246.84c1,0,1.52-.85,1.52-1.89V210.19a1.89,1.89,0,0,0-1.89-1.89h0c-1,0-3.5,1.42-3.5,2.47l1.62,17.69.36,16.49a1.89,1.89,0,0,0,1.89,1.89Z" transform="translate(-0.44)" style="fill: #f2b1b5"/>
        </g>
        <path id="70afcac4-9e4b-4e13-ae46-678fa9cc4d66" data-name="4bdb48eb-4b25-47f0-bb6d-f7b1db2ff59f" d="M3.78,185A2.89,2.89,0,0,1,8,182.43H8a2.68,2.68,0,0,1,.86.83c2.85,4.69,6.5,5.76,6.5,10.55l-1.11,8.62,1.34,8.4.46,14.65a5.26,5.26,0,0,1-3.15.75c-.11,0-1.34-.08-1.68-.13-3.24-.56-6.26-.78-7.48-3.2l-.47-6.14a36.31,36.31,0,0,1,1.34-12.43h0Z" transform="translate(-0.44)" style="fill: #48486a"/>
        <g id="0a3be5d5-d3fd-421e-99f1-fdce5f6ac074" data-name="5069d7aa-fe17-45ad-8ee9-357c9d8c69f4">
          <path id="712b66be-254d-40ae-a6f0-ce50e4a292f6" data-name="8efb20ac-360b-4077-8a98-191699abc45f" d="M10.36,192.23h.26l1.53-.26A20.2,20.2,0,0,0,27.2,180.43l1.26-2.75a1.52,1.52,0,1,0-2.68-1.26l-1.26,2.75A17.18,17.18,0,0,1,11.71,189l-1.53.26a1.52,1.52,0,0,0,.26,3Z" transform="translate(-0.44)" style="fill: #f2b1b5"/>
        </g>
        <g id="7c9d2aca-c52c-4672-a826-5efdafb4cde8" data-name="abcdbb49-2fbf-4a8a-91c6-c0656ed18030">
          <path id="36310ee3-d1db-45f2-bf6e-8ca6a0d906b5" data-name="33720e3f-fa6b-482f-83b0-302d34446c9e" d="M10.36,192.6h.31l1.53-.26a20.66,20.66,0,0,0,3.45-.89,1.89,1.89,0,0,0-1.26-3.56,16.92,16.92,0,0,1-2.82.72l-1.53.26a1.89,1.89,0,0,0,.31,3.76Z" transform="translate(-0.44)" style="fill: #48486a"/>
        </g>
        <path id="ddb91328-6a05-405e-9103-fe409a1a8122" data-name="7f197c4a-4eb3-4db3-9e9b-51867e92c678" d="M8.44,185.43h0a1.11,1.11,0,0,0,1.11-1.11h0v-5.17H7.32v5.2A1.11,1.11,0,0,0,8.44,185.43Z" transform="translate(-0.44)" style="fill: #f2b1b5"/>
        <path id="cbafc5dc-f38e-49a8-aa5f-e772e8ca5564" data-name="a4a1dad5-cc6c-41dc-a398-838b1ce03e30" d="M6.17,182.66l2.24.3a2.68,2.68,0,0,0,3-2.79q0-.13,0-.27l-1.15-5.28-5.53,1.19Z" transform="translate(-0.44)" style="fill: #f2b1b5"/>
        <path d="M1.79,188.66a3.25,3.25,0,0,0,.47-1.18c.08-.89-.64-1.65-.82-2.54-.27-1.34.64-2.5.59-3.79a11.45,11.45,0,0,1,0-4,6.27,6.27,0,0,1,.23-.64,5.53,5.53,0,0,1,4.48-3.1,8.43,8.43,0,0,1,2.46-.07,3.87,3.87,0,0,1,1.34.36,1.24,1.24,0,0,1,.48.4,1.6,1.6,0,0,1,.16.87c-.07.72-1,1-1.07,1.66,0,.35.19.72.21,1.07A2.68,2.68,0,0,1,10.1,179c-.36.79-1.11,1.46-1.07,2.32a8.52,8.52,0,0,0,.26,1.13c.2,1.34-1.22,2.39-.85,3.75.24.89,1.24,1.52,1.14,2.43,0,.36-.26.7-.32,1.06-.12.74.42,1.54.09,2.23-1.13,2.34-5,1.93-6.86.91a3,3,0,0,1-1.15-1A3.34,3.34,0,0,1,1.79,188.66Z" transform="translate(-0.44)" style="fill: url(#b3ce3cb0-4a6c-4579-a689-8f082ebec746)"/>
        <path id="ae86d072-7e20-4266-a773-3478acf7fdbb" data-name="be72a61b-4416-4080-b053-ec4fbccf03ae" d="M9.56,207.68a18.11,18.11,0,0,1-5.5-.83c.17-.83.38-1.65.62-2.47v-.51a15.68,15.68,0,0,0,9.87,0l.48,3A18.06,18.06,0,0,1,9.56,207.68Z" transform="translate(-0.44)" style="fill: url(#c2947d77-8266-4ad6-b896-19b51718b6a0)"/>
      </g>
    </g>
    <g id="c919b221-016f-47ad-afae-84ed728bd6c2" data-name="29bdef19-4ba3-49c7-b484-cecf8baccd2c">
      <g id="2039d035-f422-44fd-9a4b-fa60e1c7623b" data-name="c1742f9c-9eec-459a-abd5-2a29e3c24a80">
        <polygon id="090b7d22-d8aa-438b-8870-f654ed7dbdc5" data-name="e9d7e57f-20c1-4c52-88ee-ef896e9ee570" points="195.03 190.15 147.93 162.96 102.01 190.15 147.93 217.33 195.03 190.15" style="fill: #edeef2"/>
        <polygon id="98192240-f46b-4204-b48d-8fd2c906def0" data-name="0a462e76-ff6a-4ef2-ae05-0412e7296ccf" points="195.03 190.15 195.03 235.33 147.93 261.04 147.93 217.33 195.03 190.15" style="fill: #d3daed"/>
        <polygon id="de712478-522f-47e8-92ec-90fefe82af7c" data-name="4a4d98ec-689c-4313-8073-1cf97b0d6de3" points="102.01 190.15 102.01 233.86 147.93 261.04 147.93 217.33 102.01 190.15" style="fill: #d7deef"/>
        <polygon id="57f54cb6-b17a-4025-a74d-727ae5bd12f0" data-name="70879c44-6be3-4b62-bb4d-9f014a27b39b" points="134.66 214.84 134.66 217.98 143.4 223.08 143.4 219.94 134.66 214.84" style="fill: #99a7d8"/>
        <polygon id="9ca0bcd8-1ca6-4947-a3b9-f36406a0eaeb" data-name="1e92f80b-4cb2-4541-ad8a-459520881a06" points="123.23 208.22 123.23 211.37 131.97 216.46 131.97 213.32 123.23 208.22" style="fill: url(#ac2d7dfa-fff7-4379-9d7f-999f46daf6e7)"/>
      </g>
    </g>
    <g id="8079c54f-7ba0-4acf-9be5-7b6aa4ec1907" data-name="1a41bfe1-8544-440f-8b31-3a5703174d9c">
      <g>
        <path d="M159.75,184l14,8.05a.46.46,0,0,1,0,.79L151.93,205.6a1.8,1.8,0,0,1-1.8,0l-14-8.05a.46.46,0,0,1,0-.79L157.95,184A1.8,1.8,0,0,1,159.75,184Z" transform="translate(-0.44)" style="fill: #8f8fa4;opacity: 0.150000005960464;isolation: isolate"/>
        <path id="0a123aea-23be-40a7-af59-ecc39365c54b" data-name="0017a787-a017-4795-a04e-b242c26b25f5" d="M136.15,177.54l21.95-12.67a.44.44,0,0,1,.67.39V181.8a1,1,0,0,1-.48.83L136.33,195.3a.44.44,0,0,1-.67-.39V178.39A1,1,0,0,1,136.15,177.54Z" transform="translate(-0.44)" style="fill: url(#b7144e2e-9a0f-4869-98c5-3ed4fb02b10e)"/>
        <path id="c543f61d-5fdb-435b-8602-dd8221e2bd64" data-name="f897ac8c-0a50-4727-a175-73b53cbc8625" d="M136.43,177.73l21.95-12.67a.44.44,0,0,1,.67.39V182a1,1,0,0,1-.48.83l-21.95,12.67a.44.44,0,0,1-.67-.39V178.57A1,1,0,0,1,136.43,177.73Z" transform="translate(-0.44)" style="fill: #48486a"/>
        <polygon id="faf677c6-d7aa-4696-983e-5b976d519d67" data-name="29605043-3b62-4cbe-9ab2-e896487a70e2" points="136.8 178.78 157.46 166.79 157.46 181.92 136.8 193.91 136.8 178.78" style="fill: #d6dcef"/>
        <path id="3bec30f0-9726-4c34-874f-63ee07143f6d" data-name="f8bf8e29-8257-424f-a975-f3d16af930d9" d="M159.93,183.62,174,191.06s.08,1.1-.23,1.28l-21.48,12.43a1.79,1.79,0,0,1-1.77,0l-13.83-7.91c-.58-.35-.23-1.28-.23-1.28l21.76-11.93A1.79,1.79,0,0,1,159.93,183.62Z" transform="translate(-0.44)" style="fill: url(#1a9a0976-f3c2-4817-b57f-163101fd7344)"/>
        <path id="ce5d1b91-ef02-44ff-9a9e-f6651bdf3f44" data-name="fcca87d8-4bca-4865-93df-0d4f9a0141e0" d="M159.93,182.76l13.83,7.91a.44.44,0,0,1,0,.78l-21.48,12.43a1.79,1.79,0,0,1-1.77,0L136.68,196a.44.44,0,0,1,0-.78l21.48-12.43A1.79,1.79,0,0,1,159.93,182.76Z" transform="translate(-0.44)" style="fill: #f7f7f7"/>
        <path id="fe299349-ca22-4745-a751-cee54822b58e" data-name="8e22273e-3eab-4d86-9545-90190b5a47ec" d="M161.17,193l3.65,2.08a.12.12,0,0,1,0,.17l0,0-5.68,3.28a.47.47,0,0,1-.47,0L155,196.43a.12.12,0,0,1,0-.17l0,0L160.7,193A.47.47,0,0,1,161.17,193Z" transform="translate(-0.44)" style="fill: #e5e9f4"/>
        <path id="ff4520a5-c570-4b92-bdaf-895d0a4d1304" data-name="c4a49530-6289-4f32-a024-118dc945f9a1" d="M158.42,184l-1.19.68a.07.07,0,0,0,0,.09l0,0,.59.34a.15.15,0,0,0,.15,0l1.19-.68a.07.07,0,0,0,0-.09l0,0-.59-.34A.15.15,0,0,0,158.42,184Z" transform="translate(-0.44)" style="fill: #d3daed"/>
        <path id="67a53139-e35e-4bf4-b7fe-6eed83e37dfc" data-name="b0013f4f-b582-4fd7-aa0f-c66875b15c27" d="M156.67,185l-1.19.68a.07.07,0,0,0,0,.09l0,0,.59.34a.16.16,0,0,0,.15,0l1.19-.68a.07.07,0,0,0,0-.09l0,0-.59-.34A.15.15,0,0,0,156.67,185Z" transform="translate(-0.44)" style="fill: #d3daed"/>
        <path id="1bd55389-8247-4012-9109-a80a77d03f47" data-name="dac4c738-1c7d-49dc-8fd2-c5adb112174f" d="M154.91,186l-1.19.68a.07.07,0,0,0,0,.09l0,0,.59.34a.15.15,0,0,0,.15,0l1.19-.68a.07.07,0,0,0,0-.09l0,0-.59-.34A.15.15,0,0,0,154.91,186Z" transform="translate(-0.44)" style="fill: #d3daed"/>
        <path id="d659f0e1-82e2-45a9-9e16-5f00b721141d" data-name="de88ea77-0451-426a-8f9f-2d4f31703944" d="M153.11,187l-1.19.68a.07.07,0,0,0,0,.09l0,0,.59.34a.15.15,0,0,0,.15,0l1.19-.68a.07.07,0,0,0,0-.09l0,0-.59-.34A.15.15,0,0,0,153.11,187Z" transform="translate(-0.44)" style="fill: #d3daed"/>
        <path id="e82f4ae6-dac6-41ac-965e-365efbdf2ab5" data-name="7fe82e13-4d87-4aa5-bd1c-c7886338b367" d="M151.37,188l-1.19.68a.07.07,0,0,0,0,.09l0,0,.59.34a.15.15,0,0,0,.15,0l1.19-.68a.07.07,0,0,0,0-.09l0,0-.59-.34A.15.15,0,0,0,151.37,188Z" transform="translate(-0.44)" style="fill: #d3daed"/>
        <path id="1a4d8eae-ab74-4e71-83c9-0090250b1649" data-name="c05a896a-85cd-4677-a208-3bd1b8b75de7" d="M149.69,189l-1.19.68a.07.07,0,0,0,0,.09l0,0,.59.34a.15.15,0,0,0,.15,0l1.19-.68a.07.07,0,0,0,0-.09l0,0-.59-.34A.15.15,0,0,0,149.69,189Z" transform="translate(-0.44)" style="fill: #d3daed"/>
        <path id="00d23ec9-2625-4b2a-bcc1-890492d32e3d" data-name="afed6601-bc97-4ef9-9a26-e8e6a6d0b49e" d="M147.92,190l-1.19.68a.07.07,0,0,0,0,.09l0,0,.59.34a.15.15,0,0,0,.15,0l1.19-.68a.07.07,0,0,0,0-.09l0,0-.59-.34A.15.15,0,0,0,147.92,190Z" transform="translate(-0.44)" style="fill: #d3daed"/>
        <path id="9d5e6509-a33a-4b32-8cf0-948d06e5240d" data-name="8fb30444-5d21-4ff1-8e37-5917de232c27" d="M146.19,191.06l-1.19.68a.07.07,0,0,0,0,.09l0,0,.59.34a.15.15,0,0,0,.15,0l1.19-.68a.07.07,0,0,0,0-.09l0,0-.59-.34A.15.15,0,0,0,146.19,191.06Z" transform="translate(-0.44)" style="fill: #d3daed"/>
        <path id="3cfc8950-5c82-4dc3-88b2-31240377e3d8" data-name="a67e4dd1-3f15-48da-a662-89d0c9829db4" d="M144.47,192l-1.19.68a.07.07,0,0,0,0,.09l0,0,.59.34a.16.16,0,0,0,.15,0l1.19-.68a.07.07,0,0,0,0-.09l0,0-.59-.34A.15.15,0,0,0,144.47,192Z" transform="translate(-0.44)" style="fill: #d3daed"/>
        <path id="f44fc4b9-e46f-4020-abc4-82e7d5bff348" data-name="f53642da-663c-4e0d-af4f-6d7ee9821d4f" d="M142.67,193.09l-1.19.68a.07.07,0,0,0,0,.09l0,0,.59.34a.15.15,0,0,0,.15,0l1.19-.68a.07.07,0,0,0,0-.09l0,0-.59-.34A.15.15,0,0,0,142.67,193.09Z" transform="translate(-0.44)" style="fill: #d3daed"/>
        <path id="b2db016c-7755-48eb-aa91-cd34ee7435f3" data-name="daf436aa-7baf-46b5-8e25-6fbd34dce986" d="M140.92,194.07l-1.19.68a.07.07,0,0,0,0,.09l0,0,.59.34a.16.16,0,0,0,.15,0l1.19-.68a.07.07,0,0,0,0-.09l0,0-.59-.34A.15.15,0,0,0,140.92,194.07Z" transform="translate(-0.44)" style="fill: #d3daed"/>
        <g id="9ba99d03-db97-41d3-b670-82440e6047b0" data-name="c94b32eb-6b68-4b20-99af-720f15ab1b36">
          <path id="48d9927b-d8eb-436b-b7f1-593e6221bb10" data-name="2379f48e-d455-46f4-bf04-7ba92f462acf" d="M160.83,185.27l-.81-.47a.34.34,0,0,0-.34,0l-.79.46a.17.17,0,0,0,0,.24l0,0,.78.48a.34.34,0,0,0,.35,0l.81-.47a.17.17,0,0,0,.06-.23A.1.1,0,0,0,160.83,185.27Z" transform="translate(-0.44)" style="fill: #d3daed"/>
          <path id="5e0532db-9c97-4a4a-8644-c27dd34fd70e" data-name="3f13d25e-e7b9-4128-bb6a-2fb615c36ceb" d="M159,186.31l-.81-.47a.34.34,0,0,0-.34,0l-.79.46a.17.17,0,0,0,0,.24l0,0,.78.48a.34.34,0,0,0,.35,0l.81-.47a.17.17,0,0,0,.06-.23A.1.1,0,0,0,159,186.31Z" transform="translate(-0.44)" style="fill: #d3daed"/>
          <path id="f84b4f89-29d9-45e3-95d7-50f2de6c59cf" data-name="7cf4606a-69b9-4e94-b519-553bb13b8550" d="M157.28,187.3l-.81-.47a.34.34,0,0,0-.34,0l-.79.46a.17.17,0,0,0-.05.24l.05.05.78.48a.34.34,0,0,0,.35,0l.81-.47a.15.15,0,0,0,.16-.15A.14.14,0,0,0,157.28,187.3Z" transform="translate(-0.44)" style="fill: #d3daed"/>
          <path id="358279d7-1cb6-48c3-bce3-a8331e0e1089" data-name="da930b18-4fae-45c4-9cd0-b758f6cac94e" d="M155.41,188.37l-.81-.47a.34.34,0,0,0-.34,0l-.79.46a.17.17,0,0,0,0,.24l0,0,.78.48a.34.34,0,0,0,.35,0l.81-.47a.16.16,0,0,0,.1-.21A.1.1,0,0,0,155.41,188.37Z" transform="translate(-0.44)" style="fill: #d3daed"/>
          <path id="92638a9a-21c8-4dcc-b42e-7ac67cc2bcfd" data-name="bcee400e-07c4-437b-a0cf-11c0aa9f4d94" d="M153.76,189.29l-.81-.47a.34.34,0,0,0-.34,0l-.79.46a.17.17,0,0,0,0,.24l0,0,.78.48a.34.34,0,0,0,.35,0l.81-.47a.18.18,0,0,0,0-.25A0,0,0,0,1,153.76,189.29Z" transform="translate(-0.44)" style="fill: #d3daed"/>
          <path id="01af224c-ad78-40a7-afb9-2528b0b92a45" data-name="ea605045-9ed3-4e49-aba3-e740a00262b2" d="M152.15,190.32l-.81-.47a.34.34,0,0,0-.34,0l-.79.46a.17.17,0,0,0,0,.24l0,0,.78.48a.34.34,0,0,0,.35,0l.81-.47a.16.16,0,0,0,.1-.21A.1.1,0,0,0,152.15,190.32Z" transform="translate(-0.44)" style="fill: #d3daed"/>
          <path id="a7d8b010-5a76-4d5d-9bf6-9cd447d074c9" data-name="ef404752-82b5-4ea3-ad90-be25974b723a" d="M150.31,191.3l-.81-.47a.34.34,0,0,0-.34,0l-.79.46a.17.17,0,0,0,0,.24l0,0,.78.48a.34.34,0,0,0,.35,0l.81-.47a.18.18,0,0,0,0-.24Z" transform="translate(-0.44)" style="fill: #d3daed"/>
          <path id="cf700e3e-b169-487d-8d8a-9efd3615c7d0" data-name="d742087f-0e46-409f-9867-c8ebfa3dfea0" d="M148.56,192.28l-.81-.47a.34.34,0,0,0-.34,0l-.79.46a.17.17,0,0,0,0,.24l0,0,.78.48a.34.34,0,0,0,.35,0l.81-.47a.17.17,0,0,0,.06-.23A.1.1,0,0,0,148.56,192.28Z" transform="translate(-0.44)" style="fill: #d3daed"/>
          <path id="da7c347e-9325-4426-84fc-b8d520318432" data-name="fe983283-4a11-47f2-bb1d-ad2f9ec39229" d="M146.78,193.34l-.81-.47a.34.34,0,0,0-.34,0l-.79.46a.16.16,0,0,0,0,.28l.78.48a.34.34,0,0,0,.35,0l.81-.47a.19.19,0,0,0,0-.26S146.76,193.36,146.78,193.34Z" transform="translate(-0.44)" style="fill: #d3daed"/>
          <path id="443db5c3-ad9d-441a-be69-5ee7d27978f2" data-name="88d389a2-85d5-439f-835e-6fe9bf18e940" d="M145,194.44l-.81-.47a.34.34,0,0,0-.34,0l-.79.46a.17.17,0,0,0,0,.24l0,0,.78.48a.34.34,0,0,0,.35,0l.81-.47a.15.15,0,0,0,.16-.14.16.16,0,0,0-.16-.16Z" transform="translate(-0.44)" style="fill: #d3daed"/>
          <path id="65fc26e0-79ab-4c9d-9831-6e177fa71c8e" data-name="2a1c6f3f-c7e1-4954-bbad-89d87b87981f" d="M143.27,195.36l-.81-.47a.34.34,0,0,0-.34,0l-.79.46a.17.17,0,0,0,0,.24l0,0,.78.48a.34.34,0,0,0,.35,0l.81-.47a.18.18,0,0,0,0-.25A0,0,0,0,1,143.27,195.36Z" transform="translate(-0.44)" style="fill: #d3daed"/>
        </g>
        <g id="d5c706cd-bc21-471a-aa2b-bf49bd053bb0" data-name="5f2382f5-d22c-49fb-ab42-6fbacf45e6cb">
          <path id="7e6cc041-92ac-4096-aa38-2f585a00c01c" data-name="60cf64f5-4352-4b77-b0da-85489df6f764" d="M162.63,186.25l-.81-.47a.34.34,0,0,0-.34,0l-.79.46a.17.17,0,0,0,0,.24l0,0,.78.48a.34.34,0,0,0,.35,0l.81-.47a.17.17,0,0,0,.06-.23A.1.1,0,0,0,162.63,186.25Z" transform="translate(-0.44)" style="fill: #d3daed"/>
          <path id="8032f712-26c1-4ad0-ad72-91e1a3a20e51" data-name="0e627d42-93d0-43ed-a4e7-402cfca1058a" d="M160.83,187.29l-.81-.47a.34.34,0,0,0-.34,0l-.79.46a.17.17,0,0,0,0,.24l0,0,.78.48a.34.34,0,0,0,.35,0l.81-.47a.15.15,0,0,0,.09-.2A.13.13,0,0,0,160.83,187.29Z" transform="translate(-0.44)" style="fill: #d3daed"/>
          <path id="57a0ef66-b4f5-4afa-bdcc-f5ee795dd9bb" data-name="7e122c9f-c7d0-431f-b377-586c45f5d575" d="M159.07,188.28l-.81-.47a.34.34,0,0,0-.34,0l-.79.46a.17.17,0,0,0,0,.24l0,0,.78.48a.34.34,0,0,0,.35,0l.81-.47a.16.16,0,0,0,.1-.21A.1.1,0,0,0,159.07,188.28Z" transform="translate(-0.44)" style="fill: #d3daed"/>
          <path id="c546a158-f61f-458f-a781-79d2c9f9f3db" data-name="fe8555b0-2ebd-4f8a-9697-6fe98011ad68" d="M157.21,189.29l-.81-.47a.34.34,0,0,0-.34,0l-.79.46a.17.17,0,0,0,0,.24l0,0,.78.48a.34.34,0,0,0,.35,0l.81-.47a.18.18,0,0,0,0-.25A0,0,0,0,1,157.21,189.29Z" transform="translate(-0.44)" style="fill: #d3daed"/>
          <path id="2a0a65ff-0050-44d3-8336-321a4e406715" data-name="1dc7cbd6-2777-43ae-864b-4031645e1ef1" d="M155.56,190.25l-.81-.47a.34.34,0,0,0-.34,0l-.79.46a.17.17,0,0,0,0,.24l0,0,.78.48a.34.34,0,0,0,.35,0l.81-.47a.17.17,0,0,0,.06-.23A.1.1,0,0,0,155.56,190.25Z" transform="translate(-0.44)" style="fill: #d3daed"/>
          <path id="528878dd-8a38-45f5-86d4-8690799b2d27" data-name="35458aa2-f97a-4531-ae6c-4f2e98b4b059" d="M153.89,191.29l-.81-.47a.34.34,0,0,0-.34,0l-.79.46a.17.17,0,0,0,0,.24l0,0,.78.48a.34.34,0,0,0,.35,0l.81-.47a.18.18,0,0,0,0-.24Z" transform="translate(-0.44)" style="fill: #d3daed"/>
          <path id="5d906b5d-e7e1-418e-a58a-f474dd1d5cee" data-name="76b63068-2a84-4576-bc55-526a675ed096" d="M152.15,192.27l-.81-.47a.34.34,0,0,0-.34,0l-.79.46a.17.17,0,0,0,0,.24l0,0,.78.48a.34.34,0,0,0,.35,0l.81-.47a.18.18,0,0,0,0-.24Z" transform="translate(-0.44)" style="fill: #d3daed"/>
          <path id="4549a446-bfde-4f2c-b870-387bcd5ee77a" data-name="5134c527-03f6-4c86-81e9-0bf685a4edb0" d="M150.36,193.26l-.81-.47a.34.34,0,0,0-.34,0l-.79.46a.17.17,0,0,0,0,.24l0,0,.78.48a.34.34,0,0,0,.35,0l.81-.47a.15.15,0,0,0,.09-.2A.13.13,0,0,0,150.36,193.26Z" transform="translate(-0.44)" style="fill: #d3daed"/>
          <path id="53ba3c2a-7626-42d7-b825-4b6f3d3388c0" data-name="a29e4718-2397-4d2d-abf5-0aa8176bb360" d="M148.64,194.32l-.81-.47a.34.34,0,0,0-.34,0l-.79.46a.17.17,0,0,0,0,.24l0,0,.78.48a.34.34,0,0,0,.35,0l.81-.47a.17.17,0,0,0,0-.24A.15.15,0,0,1,148.64,194.32Z" transform="translate(-0.44)" style="fill: #d3daed"/>
          <path id="40f42f7e-4667-4411-b1df-8c6aebe5e3da" data-name="804f6eba-39aa-4eee-a2c6-d60dfe84061b" d="M146.78,195.42,146,195a.34.34,0,0,0-.34,0l-.79.46a.17.17,0,0,0,0,.24l0,0,.78.48a.34.34,0,0,0,.35,0l.81-.47a.18.18,0,0,0,0-.24Z" transform="translate(-0.44)" style="fill: #d3daed"/>
          <path id="00346fea-438e-4199-aa33-173d41f04bd8" data-name="3c5faa58-bf5e-4fdd-94f7-5090be5f2cd6" d="M145.07,196.34l-.81-.47a.34.34,0,0,0-.34,0l-.79.46a.17.17,0,0,0,0,.24l0,0,.78.48a.34.34,0,0,0,.35,0l.81-.47a.17.17,0,0,0,.06-.23A.1.1,0,0,0,145.07,196.34Z" transform="translate(-0.44)" style="fill: #d3daed"/>
        </g>
        <g id="f5a85d64-0946-49d2-b67b-ac7d3176772e" data-name="f07b7080-21df-4307-98c4-cf27969be144">
          <path id="122583f2-63b0-44ad-9580-b88524513178" data-name="61bd1c58-2aeb-44f0-8099-94c0e9f838c3" d="M164.43,187.23l-.81-.47a.34.34,0,0,0-.34,0l-.79.46a.17.17,0,0,0,0,.24l0,0,.78.48a.34.34,0,0,0,.35,0l.81-.47a.18.18,0,0,0,0-.25A0,0,0,0,1,164.43,187.23Z" transform="translate(-0.44)" style="fill: #d3daed"/>
          <path id="b58a30f8-606f-4990-a44c-3834cd80e347" data-name="0b0033b7-d74d-439a-b7f0-9d7c4d099d38" d="M162.63,188.27l-.81-.47a.34.34,0,0,0-.34,0l-.79.46a.17.17,0,0,0,0,.24l0,0,.78.48a.34.34,0,0,0,.35,0l.81-.47a.16.16,0,0,0,.1-.21A.1.1,0,0,0,162.63,188.27Z" transform="translate(-0.44)" style="fill: #d3daed"/>
          <path id="9a356173-2c14-45fe-a2d7-247e4d86d614" data-name="c46dae2e-e2b1-4bdc-8e06-53ab00d6656a" d="M160.87,189.26l-.81-.47a.34.34,0,0,0-.34,0l-.79.46a.17.17,0,0,0,0,.24l0,0,.78.48a.34.34,0,0,0,.35,0l.81-.47c.1,0,.17,0,.17-.14A.13.13,0,0,0,160.87,189.26Z" transform="translate(-0.44)" style="fill: #d3daed"/>
          <path id="5eb0727d-f45b-4005-8f80-18f70fadeaf5" data-name="ff3d4a5b-6cec-4630-803e-95539d7a7334" d="M159,190.27l-.81-.47a.34.34,0,0,0-.34,0l-.79.46a.17.17,0,0,0-.05.24l.05.05.78.48a.34.34,0,0,0,.35,0l.81-.47a.2.2,0,0,0,0-.27S159,190.29,159,190.27Z" transform="translate(-0.44)" style="fill: #d3daed"/>
          <path id="8a30e5a6-2a9d-473b-bdad-57f0cfac4603" data-name="ba50323a-982f-4a76-8d93-88cb47025b91" d="M157.36,191.23l-.81-.47a.34.34,0,0,0-.34,0l-.79.46a.17.17,0,0,0,0,.24l0,0,.78.48a.34.34,0,0,0,.35,0l.81-.47a.17.17,0,0,0,.06-.23A.1.1,0,0,0,157.36,191.23Z" transform="translate(-0.44)" style="fill: #d3daed"/>
          <path id="7ed26901-47c7-45ec-9faf-d75666665801" data-name="fcd537d5-2066-4243-9668-caa4e8ecc61a" d="M155.69,192.27l-.81-.47a.34.34,0,0,0-.34,0l-.79.46a.17.17,0,0,0,0,.24l0,0,.78.48a.34.34,0,0,0,.35,0l.81-.47a.16.16,0,0,0,.06-.22Z" transform="translate(-0.44)" style="fill: #d3daed"/>
          <path id="be879ba1-0f7d-44c1-9307-6281d044e959" data-name="f584ad61-8826-4c7c-9abe-61cbcb73ed4a" d="M153.91,193.25l-.81-.47a.34.34,0,0,0-.34,0l-.79.46a.16.16,0,0,0,0,.28l.78.48a.34.34,0,0,0,.35,0l.81-.47A.27.27,0,0,0,153.91,193.25Z" transform="translate(-0.44)" style="fill: #d3daed"/>
          <path id="f7361c27-8438-49b7-b1c6-29e96c39e9ec" data-name="98834e55-0024-493b-a0a5-3e6b33ce05ca" d="M152.15,194.24l-.81-.47a.34.34,0,0,0-.34,0l-.79.46a.17.17,0,0,0,0,.24l0,0,.78.48a.34.34,0,0,0,.35,0l.81-.47a.18.18,0,0,0,0-.24Z" transform="translate(-0.44)" style="fill: #d3daed"/>
          <path id="535241f7-4b73-4871-9674-9243a49833bc" data-name="b1768106-e629-4f75-998a-932ef2849fd5" d="M150.44,195.3l-.81-.47a.34.34,0,0,0-.34,0l-.79.46a.17.17,0,0,0,0,.24l0,0,.78.48a.34.34,0,0,0,.35,0l.81-.47a.18.18,0,0,0,0-.25A0,0,0,0,1,150.44,195.3Z" transform="translate(-0.44)" style="fill: #d3daed"/>
          <path id="b1e83230-5767-49e8-a5a2-5a8b5fb7e8d9" data-name="9564dac1-964a-47ed-ad25-217ab9b03ed1" d="M148.56,196.43l-.81-.47a.34.34,0,0,0-.34,0l-.79.46a.17.17,0,0,0,0,.24l0,0,.78.48a.34.34,0,0,0,.35,0l.81-.47a.16.16,0,0,0,.06-.22Z" transform="translate(-0.44)" style="fill: #d3daed"/>
          <path id="eb233b13-7560-4a48-ae1d-79f8a13732e8" data-name="3261f5be-0d9e-4591-82b0-a63bbe941fb0" d="M146.87,197.32l-.81-.47a.34.34,0,0,0-.34,0l-.79.46a.16.16,0,0,0,0,.28l.78.48a.34.34,0,0,0,.35,0l.81-.47a.17.17,0,0,0,.06-.23A.1.1,0,0,0,146.87,197.32Z" transform="translate(-0.44)" style="fill: #d3daed"/>
        </g>
        <g id="76752f00-3e93-4823-af77-36b60c44dae8" data-name="fc92d862-c665-484a-bcf9-31741e2eb705">
          <path id="d4705a19-0337-44a9-9029-5011e403fbbd" data-name="72169e06-26da-438a-88d3-7d6e36741d16" d="M166.23,188.21l-.81-.47a.34.34,0,0,0-.34,0l-.79.46a.17.17,0,0,0,0,.24l0,0,.78.48a.34.34,0,0,0,.35,0l.81-.47a.16.16,0,0,0,.1-.21A.1.1,0,0,0,166.23,188.21Z" transform="translate(-0.44)" style="fill: #d3daed"/>
          <path id="53acb995-e18f-435e-9cb9-d326a346e28d" data-name="f2efa75e-6d14-4a06-a50c-5934d9937c0a" d="M164.43,189.25l-.81-.47a.34.34,0,0,0-.34,0l-.79.46a.17.17,0,0,0,0,.24l0,0,.78.48a.34.34,0,0,0,.35,0l.81-.47a.17.17,0,0,0,.06-.23A.1.1,0,0,0,164.43,189.25Z" transform="translate(-0.44)" style="fill: #d3daed"/>
          <path id="3ea107c2-c1d7-4877-bf2c-ea4694e2e2be" data-name="f981eba7-6924-4b0e-8d32-914ae63d2a66" d="M162.67,190.23l-.81-.47a.34.34,0,0,0-.34,0l-.79.46a.17.17,0,0,0,0,.24l0,0,.78.48a.34.34,0,0,0,.35,0l.81-.47a.18.18,0,0,0,0-.25A0,0,0,0,1,162.67,190.23Z" transform="translate(-0.44)" style="fill: #d3daed"/>
          <path id="332fc25e-980a-4901-9b19-a904b15bef40" data-name="71f30192-a4d2-42a1-827e-672a6b88910a" d="M160.81,191.25l-.81-.47a.34.34,0,0,0-.34,0l-.79.46a.17.17,0,0,0,0,.24l0,0,.78.48a.34.34,0,0,0,.35,0l.81-.47a.16.16,0,0,0,.1-.21A.1.1,0,0,0,160.81,191.25Z" transform="translate(-0.44)" style="fill: #d3daed"/>
          <path id="fc06fe8e-47a5-4db8-8362-4b8491b2e94d" data-name="79602d75-32dd-4cd5-8de1-c04209d84ce9" d="M159,192.32l-.81-.47a.34.34,0,0,0-.34,0l-4.11,2.38a.17.17,0,0,0,0,.24l0,0,.78.48a.34.34,0,0,0,.35,0l4.12-2.38a.17.17,0,0,0,.06-.22A.25.25,0,0,0,159,192.32Z" transform="translate(-0.44)" style="fill: #d3daed"/>
          <path id="4b8be2ff-8cb2-4a40-9ac7-74946502a03e" data-name="ed843e2f-40f2-4a90-af32-c698e15344a1" d="M154,195.22l-.81-.47a.34.34,0,0,0-.34,0l-.79.46a.16.16,0,0,0,0,.28l.78.48a.34.34,0,0,0,.35,0l.81-.47a.19.19,0,0,0,0-.26S153.95,195.24,154,195.22Z" transform="translate(-0.44)" style="fill: #d3daed"/>
          <path id="608677fd-b65f-4697-97a2-2c17f4246c2e" data-name="ba4d6d08-2e07-4257-90e0-54787f94ebd3" d="M152.24,196.27l-.81-.47a.34.34,0,0,0-.34,0l-.79.46a.17.17,0,0,0,0,.24l0,0,.78.48a.34.34,0,0,0,.35,0l.81-.47a.18.18,0,0,0,0-.24Z" transform="translate(-0.44)" style="fill: #d3daed"/>
          <path id="43cf5494-3c62-471f-8f5a-b36219167dce" data-name="054791f1-6e7d-4576-acbc-1f4d6ffb0969" d="M150.36,197.38l-.81-.47a.34.34,0,0,0-.34,0l-.79.46a.17.17,0,0,0,0,.24l0,0,.78.48a.34.34,0,0,0,.35,0l.81-.47a.18.18,0,0,0,0-.25A0,0,0,0,1,150.36,197.38Z" transform="translate(-0.44)" style="fill: #d3daed"/>
          <path id="13bea95c-bb47-441d-8335-2af52ac9b4fb" data-name="54946c33-dd64-4364-a76e-ada61c286bc5" d="M148.67,198.3l-.81-.47a.34.34,0,0,0-.34,0l-.79.46a.17.17,0,0,0,0,.24l0,0,.78.48a.34.34,0,0,0,.35,0l.81-.47a.18.18,0,0,0,0-.24Z" transform="translate(-0.44)" style="fill: #d3daed"/>
        </g>
      </g>
      <g>
        <path id="7210f3b0-af07-4fa7-86ab-cab7b6829d3e" data-name="4e5127f8-48cb-447d-812b-662a61d4b3b9" d="M157.89,167.26c0-.19-.13-.27-.31-.17l-20.14,11.65a.67.67,0,0,0-.31.52V194c0,.19.13.27.31.17l20.14-11.65a.67.67,0,0,0,.31-.52Z" transform="translate(-0.44)" style="fill: #fff"/>
        <polygon id="209abdf7-e355-406a-a8c9-7b036559499e" data-name="964de05c-6ce6-40b0-8f5d-1b987331e3ad" points="142 177.07 138.36 179.17 138.36 180.41 142 178.31 142 177.07" style="fill: #edf0f8"/>
        <polygon id="b32b037a-69d2-402e-90bd-a915c833fb61" data-name="141d0a63-1898-45b7-9de8-9a01cbb7a4d7" points="151.11 173.74 138.36 181.21 138.36 181.94 151.11 174.48 151.11 173.74" style="fill: #edf0f8"/>
        <polygon points="137.99 192.39 137.99 189.49 140.23 186.29 141.41 187.15 143.78 182.44 144.64 183.96 145.91 183.96 147.95 180.95 149.13 180.21 151.6 180.21 153.16 177.93 154.94 178.74 156.82 178.66 156.82 181.62 137.99 192.39" style="fill: url(#4cd0a223-b0f7-4abc-b481-e7331eb12471)"/>
      </g>
      <g id="b86530c5-0e92-4410-9b7f-f980939759c8" data-name="23e65d63-a492-481b-88f5-3463dd6098a4">
        <path id="645e1677-6043-40cf-b37a-9e7c0111ab7a" data-name="da323557-010c-4dc4-9971-bcce56fa3b11" d="M171.16,193.18h0a.56.56,0,0,1-.27.75h0l-2.15,1a.56.56,0,0,1-.75-.27h0a.56.56,0,0,1,.27-.75h0l2.15-1a.56.56,0,0,1,.75.27Z" transform="translate(-0.44)" style="fill: #f2b1b5"/>
        <g id="93f8cb9b-4395-4da3-81db-9b92189e4ded" data-name="f39e90a8-4452-47b7-be6e-2e5684c400ab">
          <path id="0d60c941-0066-4149-9641-66c1a8f67a28" data-name="d0c6400b-ae7f-406e-bde8-6c5a887889fb" d="M173.14,194.43l-1.07-.13-3.93-.66a1.7,1.7,0,0,1,.56-3.36l3.93.66c4.78.81,7,1.81,9.32-2.47a1.7,1.7,0,0,1,3.09,1.44l-.08.16C182.15,195.32,179,195,173.14,194.43Z" transform="translate(-0.44)" style="fill: #f2b1b5"/>
        </g>
        <path id="47c33232-6e72-4665-9e1d-cafe71449759" data-name="28ad72cc-01df-4b34-8a1a-0c18f622b0d5" d="M177.72,244l.86-.26a4.78,4.78,0,0,1,4.11.71l.9-.67.91,2.11,4.43-.38-1,3.93a.72.72,0,0,1-.5.52l-1.81.54a4.42,4.42,0,0,1-4.3-1l-4-3.84a1,1,0,0,1,.39-1.62Z" transform="translate(-0.44)" style="fill: #48486a"/>
        <path id="f55d8a31-7954-4cb2-9eea-1b2953aa6379" data-name="72d745e6-a4d7-4f96-b88d-eecc782f06e6" d="M177.72,244l.86-.26a4.78,4.78,0,0,1,4.11.71l.9-.67.91,2.11,4.43-.38-.5,2a2.68,2.68,0,0,1-1.8,1.88l-.78.23a4.42,4.42,0,0,1-4.3-1l-4-3.84a.42.42,0,0,1,.2-.81Z" transform="translate(-0.44)" style="fill: #fff"/>
        <path id="8f4271a2-97d9-4b97-8e79-a5923de3d95f" data-name="0982c695-0577-47ce-87db-75c36f736e7b" d="M184,245.47a1.22,1.22,0,0,1,.55-2.26,4.48,4.48,0,0,1,3.91,1,1.22,1.22,0,0,1-.55,2.26A4.48,4.48,0,0,1,184,245.47Z" transform="translate(-0.44)" style="fill: #48486a"/>
        <g id="31761633-44e5-4bb4-898a-c87c3475e56a" data-name="ab3ca8e5-76d8-4aa2-8f49-00843d39fb94">
          <path id="0bc4dfc8-95c5-4db3-9bfd-983e13c8c7d9" data-name="c9587f41-0cff-429e-aca5-f0199831b377" d="M186.38,245.6a1.46,1.46,0,0,0,1.46-1.46v-5.62a1.46,1.46,0,0,0-2.93,0h0v5.63A1.46,1.46,0,0,0,186.38,245.6Z" transform="translate(-0.44)" style="fill: #f2b1b5"/>
        </g>
        <g id="e2b39d4f-855a-4005-9649-fbfdddb138e4" data-name="21839b15-bda6-4fd5-ba2a-5acb8979e238">
          <path id="356a9734-8a34-4d93-8274-ace973a70d61" data-name="16d5e957-91a8-4ca0-9f96-bf75cf51e610" d="M186.38,243.86h.11c1.26,0,2.24.52,2.19-.74l-.62-14.61.62-22a2.3,2.3,0,0,0-2.23-2.36h0c-1.26,0-3,1-3,2.23v22.31l.63,14.69C184.14,244.56,185.16,243.86,186.38,243.86Z" transform="translate(-0.44)" style="fill: #48486a"/>
        </g>
        <path id="262ba905-b3ed-459d-be82-119cb42aaec1" data-name="fcf8e344-3f6a-42a7-a143-fe25745e2e3a" d="M171.6,249.6l.78-.44a4.78,4.78,0,0,1,4.16-.3l.71-.86,1.34,1.84,4.2-1.42v4a.72.72,0,0,1-.36.63l-1.64,1a4.42,4.42,0,0,1-4.42,0l-4.83-2.77a1,1,0,0,1,.05-1.66Z" transform="translate(-0.44)" style="fill: #48486a"/>
        <path id="03b20878-1df0-455b-a45c-0baee790acd8" data-name="e1bed7d5-c645-49cb-9947-eca852cdedf4" d="M171.6,249.6l.78-.44a4.78,4.78,0,0,1,4.16-.3l.71-.86,1.34,1.84,4.2-1.42v2.09a2.68,2.68,0,0,1-1.34,2.26l-.7.4a4.42,4.42,0,0,1-4.42,0l-4.83-2.77a.42.42,0,0,1,0-.82Z" transform="translate(-0.44)" style="fill: #fff"/>
        <path id="91305e9f-15ed-40f3-bd4d-d3f28fa3970a" data-name="0cf058e4-f14e-4683-9716-c1c3870bda12" d="M178,249.56a1.22,1.22,0,0,1,0-2.32,4.48,4.48,0,0,1,4,0,1.22,1.22,0,0,1,0,2.32A4.48,4.48,0,0,1,178,249.56Z" transform="translate(-0.44)" style="fill: #48486a"/>
        <g id="2af82371-6017-4580-9766-02b125b391ab" data-name="25711e4d-c5fd-4afa-a829-34304fb52c4a">
          <path id="b061105d-3433-476d-a69d-0c942c9f1c41" data-name="f5771b7e-0b6f-476c-bcdb-7a6846da2c21" d="M180,249.32a1.46,1.46,0,0,0,1.46-1.46v-5.62a1.46,1.46,0,0,0-2.93,0h0v5.63A1.46,1.46,0,0,0,180,249.32Z" transform="translate(-0.44)" style="fill: #f2b1b5"/>
        </g>
        <g id="7ce8e275-0f30-4600-a670-42b6ed7abfdd" data-name="d795fc60-005c-4e66-9dac-387db1a1d6ab">
          <path id="1ccf581d-9dde-405b-a7a4-d0dca186adb9" data-name="589a3d69-1f7a-4ed1-b228-5b727754d624" d="M180,248.1h.19c1.26-.11,2.2,0,2.09-1.24l-1.24-16.75,5-21.69c.08-1.26-4.64-.38-5.91-.46a2.3,2.3,0,0,0-2.43,2.15l-1.26,20.06,1.26,17.09C177.83,248.44,178.84,248.1,180,248.1Z" transform="translate(-0.44)" style="fill: #48486a"/>
        </g>
        <path id="bd528833-63ed-42a2-9355-e66647147ba0" data-name="23bac0c5-003a-4a4c-9f94-0f17a8a3a194" d="M184.89,181.66l-3,1.72a10.32,10.32,0,0,0-5.17,8.94v20.51c2.93,2,10.74-.81,12.36-4l-.47-4.5a31.22,31.22,0,0,1-.27-5.37l.55-14.87a2.68,2.68,0,0,0-4-2.4Z" transform="translate(-0.44)" style="fill: url(#7088dd1d-aff2-4085-9f5a-7388ada791c5)"/>
        <path id="8e02dd2f-fec4-45d2-b7ec-48f2e460bb1b" data-name="48456666-14af-472d-9a02-a910e13e8202" d="M163.49,199h0a.56.56,0,0,1-.8,0h0l-1.13-1.09a.56.56,0,0,1,0-.8h0a.56.56,0,0,1,.8,0h0l1.13,1.09a.56.56,0,0,1,0,.8Z" transform="translate(-0.44)" style="fill: #f2b1b5"/>
        <path id="5e4fe3c4-33c8-4ee3-be22-30a606b0be54" data-name="9f99d6ad-fca0-44ee-a3c2-5e93cc66bbf6" d="M181.18,188.05c-1.06-.3-1.6.9-1.89,2l-1.34,2.32a11,11,0,0,1-1.19,2.68V201a14.94,14.94,0,0,0,5-7.63l.81-2.9A2,2,0,0,0,181.18,188.05Z" transform="translate(-0.44)" style="fill: #231f20;opacity: 0.300000011920929;isolation: isolate"/>
        <path id="37748e71-a442-4936-83b5-bc98ca1583bf" data-name="52bd9ffd-5389-4a41-9618-12d9977429fd" d="M183.45,185.82h0a1.26,1.26,0,0,1-1.26-1.26h0v-5.84h2.52v5.84a1.26,1.26,0,0,1-1.26,1.26Z" transform="translate(-0.44)" style="fill: #f2b1b5"/>
        <path id="b49147f0-6fbb-4d82-971a-d0970c733691" data-name="acc684c9-4347-4f03-afca-b0f60c8740a1" d="M178.81,171.67h7.64v10.9H182.7a3.89,3.89,0,0,1-3.89-3.89v-7Z" transform="translate(-0.44)" style="fill: #f2b1b5"/>
        <path id="cf207ad7-490d-4a88-8c91-b5dc7e20c316" data-name="f448dc38-07b8-4459-9bbb-9b21f8b3e05b" d="M188.93,177.29v-.85a20.26,20.26,0,0,0,0-3.32,4.26,4.26,0,0,0-2.16-3.36,5.84,5.84,0,0,0-2.46-.34h-5.09a3.91,3.91,0,0,0-2.2.46c-1.19.81-.6,2.36.11,3.28a4.2,4.2,0,0,0,1.45,1.24c.55.27,1.49,0,1.84.6.5.77-.44,3.22.63,3.53.83.23.72-.63.85-1.11a.77.77,0,0,1,.62-.62c.39,0,.64.42.72.79a7.52,7.52,0,0,1-.17,2.31,2.43,2.43,0,0,0,.56,2.16,2.27,2.27,0,0,0,.72.4c.77.28,2.17.62,2.89,0a3.93,3.93,0,0,0,1.76-2.91A18.44,18.44,0,0,0,188.93,177.29Z" transform="translate(-0.44)" style="fill: #4d5068"/>
        <g id="79029d88-f75e-4480-a73b-bcebaed6c485" data-name="cb8110a6-2036-482f-b862-d77280f82012">
          <path id="10cf7b2a-e7fa-4a30-a0ea-232e19add014" data-name="510877be-a915-4064-a106-9253dbba06cb" d="M167.8,202h-1.09l-6.15-.31a1.7,1.7,0,0,1,.17-3.4l6.19.31a11.28,11.28,0,0,0,11.26-6.89l1.17-2.78a1.71,1.71,0,1,1,3.14,1.34h0L181.33,193A14.66,14.66,0,0,1,167.8,202Z" transform="translate(-0.44)" style="fill: #f2b1b5"/>
        </g>
        <path id="805848a5-cac4-4f14-8134-21c099a57751" data-name="e28d9efd-39a6-4861-adbf-7f5436a40fbc" d="M176.11,194.48a11,11,0,0,0,1.81-2.94l1.17-2.78a2,2,0,1,1,3.71,1.41l0,.12-1.17,2.78a15,15,0,0,1-2.3,3.8Z" transform="translate(-0.44)" style="fill: url(#bebb9c1a-a2d1-47cf-9ed8-717683ae3009)"/>
        <path d="M182.22,180.67a2.68,2.68,0,0,1-.63-.94,1.83,1.83,0,0,1,0-.7l.09-.59a1.34,1.34,0,0,0,0-.6.82.82,0,0,0-.46-.47,1.75,1.75,0,0,0-.66-.12.08.08,0,0,0-.09.09,3.4,3.4,0,0,1,0,.9c-.09.34-.71.82-1,.4l-.08-.15a.63.63,0,0,0-.5-.24.27.27,0,0,0-.2,0,.2.2,0,0,0,0,.17.82.82,0,0,0,0,.19,3.07,3.07,0,0,1,.15,1.13,2.82,2.82,0,0,0,1.49,2.08,1.75,1.75,0,0,0,1.79.09.79.79,0,0,0,.27-.26A1,1,0,0,0,182.22,180.67Z" transform="translate(-0.44)" style="fill: #4d5068"/>
      </g>
    </g>
  </g>
</svg>
