<svg xmlns="http://www.w3.org/2000/svg" xmlns:xlink="http://www.w3.org/1999/xlink" viewBox="0 0 200 224.32">
  <defs>
    <linearGradient id="cef90ea7-0266-4736-8bbe-fa7cf2878713" x1="140.08" y1="223.81" x2="140.08" y2="37.31" gradientUnits="userSpaceOnUse">
      <stop offset="0" stop-color="#9aa7d5"/>
      <stop offset="1" stop-color="#fff"/>
    </linearGradient>
    <linearGradient id="96218ba1-2bc7-4cd7-b5e2-74e12c609f49" x1="177.51" y1="119.48" x2="102.35" y2="-10.7" gradientUnits="userSpaceOnUse">
      <stop offset="0.62" stop-color="#4d9ed7"/>
      <stop offset="1" stop-color="#54addf"/>
    </linearGradient>
    <linearGradient id="acb2a3eb-1b48-46fe-a7cf-6b201c16df74" x1="61.91" y1="63.78" x2="181.75" y2="63.78" gradientUnits="userSpaceOnUse">
      <stop offset="0.01" stop-color="#4d9ed7"/>
      <stop offset="0.75" stop-color="#54addf"/>
    </linearGradient>
    <linearGradient id="3a016668-c6e6-4a99-9994-a65b5ef24ee7" x1="107.22" y1="127.81" x2="122.86" y2="127.81" xlink:href="#acb2a3eb-1b48-46fe-a7cf-6b201c16df74"/>
    <linearGradient id="a6326533-65ae-4fd3-8411-765624be73e2" y1="146.72" x2="68.45" y2="146.72" gradientUnits="userSpaceOnUse">
      <stop offset="0" stop-color="#49496c"/>
      <stop offset="1" stop-color="#5d639e"/>
    </linearGradient>
    <linearGradient id="52fba63e-09d4-4336-ba9b-1a0bd6979786" x1="5.29" y1="151.14" x2="48.27" y2="151.14" gradientUnits="userSpaceOnUse">
      <stop offset="0" stop-color="#ebe9eb"/>
      <stop offset="1" stop-color="#9aa7d5"/>
    </linearGradient>
    <linearGradient id="04fcdb46-1261-452f-a4b4-9a377f4ea1e9" x1="4.2" y1="151.14" x2="44.07" y2="151.14" gradientUnits="userSpaceOnUse">
      <stop offset="0" stop-color="#eff0f8"/>
      <stop offset="1" stop-color="#d4d9ec"/>
    </linearGradient>
  </defs>
  <title>backup</title>
  <g>
    <g>
      <path d="M104.67,106.92c0,26.07,15.85,56.36,35.41,67.65s35.41-.69,35.41-26.77-15.85-56.36-35.41-67.65S104.67,80.85,104.67,106.92Zm9.82,5.67c0-18.84,11.46-27.5,25.59-19.34s25.59,30,25.59,48.89-11.46,27.5-25.59,19.34S114.49,131.43,114.49,112.59Z" style="fill: #6c7b82"/>
      <polygon points="139.05 125.39 139.05 100.91 141.11 102.1 141.11 129.34 140.08 128.74 139.05 128.15 125.47 120.31 125.47 117.56 139.05 125.39"/>
    </g>
    <path d="M80.16,37.31V137.67c0,5.81,3.57,12.62,7.92,15.14l83.65,48.29L179,223.81l18.17-10.48h0c1.75-.93,2.87-3.21,2.87-6.46V106.5Z" style="fill: url(#cef90ea7-0266-4736-8bbe-fa7cf2878713)"/>
    <path d="M181.75,217.39c0,5.81-3.57,8.51-7.92,6l-104-60c-4.36-2.52-7.92-9.33-7.92-15.14V47.84L181.75,117Z" style="fill: #f7f7f7"/>
    <path d="M192.08,61l-104-60C86-.25,84.14-.27,82.72.65h0L64.63,11.08l15.53,14V37.31l37.21,21.48L181.75,117,200,106.5V76.12C200,70.31,196.43,63.5,192.08,61Z" style="fill: url(#96218ba1-2bc7-4cd7-b5e2-74e12c609f49)"/>
    <path d="M69.83,11.47l104,60c4.36,2.52,7.92,9.33,7.92,15.14V117L61.91,47.84V17.46C61.91,11.65,65.47,9,69.83,11.47Z" style="fill: url(#acb2a3eb-1b48-46fe-a7cf-6b201c16df74)"/>
    <g>
      <path d="M86.42,117.45c0,26.07,15.85,56.36,35.41,67.65s35.41-.69,35.41-26.77S141.38,102,121.83,90.69,86.42,91.38,86.42,117.45Zm9.82,5.67c0-18.84,11.46-27.5,25.59-19.34s25.59,30,25.59,48.89S136,180.17,121.83,172,96.24,142,96.24,123.12Z" style="fill: #49486b"/>
      <polygon points="118.93 136.51 118.57 111.36 122.86 114.79 122.86 144.25 121.83 143.66 120.8 143.06 107.22 135.22 107.22 130.24 118.93 136.51" style="fill: url(#3a016668-c6e6-4a99-9994-a65b5ef24ee7)"/>
    </g>
  </g>
  <g>
    <path id="8c5f3236-9a00-45cf-aa7f-c344f7f5e464" d="M4.79,91.58,3,92.81v60.59c0,6.35,4.5,14.14,10,17.32L64.9,200.9l4.1-2a4.46,4.46,0,0,0,2.5-4V137c0-6.35-4.52-14.11-10-17.25L11.51,91.24A6.26,6.26,0,0,0,4.79,91.58Z" style="fill: #49486b"/>
    <path id="40df4908-c2e3-47f7-92f0-c87aef028971" d="M10,93.5C4.52,90.36,0,93,0,99.34v55.28c0,6.35,4.5,14.14,10,17.32l48.45,28c5.5,3.18,10,.58,10-5.77V138.2c0-6.35-4.52-14.11-10-17.25Z" style="fill: url(#a6326533-65ae-4fd3-8411-765624be73e2)"/>
    <g id="bacad83d-92bc-4386-a058-7d7765852074">
      <path id="a5015e1f-622c-4f83-8a62-ec8b3e073463" d="M52.9,149,56,147.33c.64-.33.69-1.51.11-2.63l-3.64-7.09c-.58-1.13-1.56-1.77-2.2-1.44l-2.47,1.27c-.41.21-1-.08-1.49-.68q-.44-.54-.9-1.06a3.1,3.1,0,0,1-.81-2l.17-4a3.64,3.64,0,0,0-1.48-2.88l-5.41-3.56c-.86-.56-1.59-.19-1.63.84l-.17,4c0,.63-.37,1-.87.9l-1-.15a2.18,2.18,0,0,1-1.41-1.26l-2.25-4.4c-.58-1.13-1.56-1.77-2.2-1.45l-4,2.06c-.64.33-.69,1.5-.11,2.63l2.23,4.35a2.17,2.17,0,0,1,.17,1.92q-.24.43-.45.89c-.22.49-.71.61-1.26.25l-3.33-2.17c-.86-.56-1.59-.18-1.63.85L19.71,139a3.64,3.64,0,0,0,1.48,2.88l3.35,2.19a3,3,0,0,1,1.16,1.75c.12.5.26,1,.38,1.49.19.72.05,1.32-.34,1.52l-2.49,1.29c-.64.33-.68,1.51-.11,2.63l3.64,7.09c.58,1.13,1.56,1.77,2.2,1.44L31.45,160c.41-.21,1,.07,1.49.67q.44.54.9,1.06a3.1,3.1,0,0,1,.81,2l-.16,4A3.64,3.64,0,0,0,36,170.63l5.41,3.55c.86.56,1.59.19,1.63-.84l.16-4c0-.63.37-1,.87-.9l1,.15a2.18,2.18,0,0,1,1.41,1.25l2.26,4.4c.58,1.13,1.56,1.77,2.2,1.44l4-2.07c.64-.33.69-1.51.11-2.63l-2.23-4.35a2.17,2.17,0,0,1-.17-1.93q.23-.41.43-.85c.22-.49.71-.61,1.26-.25l3.32,2.18c.86.56,1.59.19,1.63-.84l.27-6.48a3.64,3.64,0,0,0-1.48-2.88l-3.35-2.2a3,3,0,0,1-1.15-1.75C53.31,150.43,52.92,149,52.9,149Zm-19.79.82c-2.54-6.61-.67-12,3.79-11.49,3.39.42,7.38,4.44,9.28,9.37,2.54,6.61.67,12-3.79,11.49C39,158.71,35,154.7,33.1,149.77Z" style="fill: #49486b"/>
      <path id="3b3cd00a-d67a-4eb8-8edb-046ca166e9d8" d="M46.79,158l-3.35-2.2a3,3,0,0,1-1.15-1.75c-.29-1.19-.67-2.59-.69-2.67l3.15-1.62c.64-.33.69-1.51.11-2.63L41.22,140a2.91,2.91,0,0,0-1.47-1.46h0a.93.93,0,0,0-.66,0H35.55v1.07a2.65,2.65,0,0,1-.48-.46q-.44-.54-.9-1.06a3.1,3.1,0,0,1-.81-2l.17-4A3.64,3.64,0,0,0,32,129.25l-5.41-3.56a1.42,1.42,0,0,0-.7-.25H21.62l-.1,4.59,3.32.18v.33c0,.63-.37,1-.87.9l-1-.15A2.18,2.18,0,0,1,21.52,130l-2.25-4.4a2.55,2.55,0,0,0-1.77-1.52H13.29v2l-.25.13c-.64.33-.69,1.5-.11,2.63l2.23,4.35a2.17,2.17,0,0,1,.17,1.92q-.24.43-.45.89c-.22.49-.71.61-1.26.25l-3.32-2.17a1.33,1.33,0,0,0-.81-.25H5.29v5H8.51l-.1,2.6a3.64,3.64,0,0,0,1.48,2.88l3.35,2.19a3,3,0,0,1,1.16,1.75c.12.5.26,1,.38,1.49.19.72.05,1.32-.34,1.52l-2.49,1.29c-.64.33-.69,1.51-.11,2.63l8.31,7.26c.41-.21,1,.07,1.49.67q.44.54.9,1.06a3.1,3.1,0,0,1,.81,2l-.16,4a3.64,3.64,0,0,0,1.48,2.88l2.16,1.41v2.37h3.81a.92.92,0,0,0,.37,0h0c.39-.1.66-.47.68-1.07l.16-4c0-.63.37-1,.87-.9l1,.15a2.18,2.18,0,0,1,1.41,1.25l1.19,2.33H34.66v3.6h4.61a.79.79,0,0,0,.37-.08l4-2.07c.64-.33.69-1.51.11-2.63l-2.23-4.35a2.18,2.18,0,0,1-.17-1.93q.23-.41.43-.85c.22-.49.71-.61,1.26-.25h0v2.43H47a.92.92,0,0,0,.28,0h0c.42-.07.71-.45.74-1.09l.27-6.48A3.64,3.64,0,0,0,46.79,158Zm-15.71,3.56c-3.39-.42-7.38-4.44-9.28-9.37-2.54-6.61-.67-12,3.79-11.49,3.39.42,7.38,4.44,9.28,9.37C37.42,156.7,35.55,162.13,31.08,161.57Z" style="fill: url(#52fba63e-09d4-4336-ba9b-1a0bd6979786)"/>
      <path id="cfefda75-3aaf-4e07-9428-a6faa027bba9" d="M37.39,151.39l3.15-1.62c.64-.33.69-1.51.11-2.63L37,140c-.58-1.13-1.56-1.77-2.2-1.44l-2.47,1.27c-.41.21-1-.08-1.49-.68q-.44-.54-.9-1.06a3.1,3.1,0,0,1-.81-2l.17-4a3.64,3.64,0,0,0-1.48-2.88l-5.41-3.56c-.86-.56-1.59-.19-1.63.84l-.17,4c0,.63-.37,1-.87.9l-1-.15A2.19,2.19,0,0,1,17.31,130l-2.25-4.4c-.58-1.13-1.56-1.77-2.2-1.45l-4,2.06c-.64.33-.69,1.5-.11,2.63L11,133.22a2.17,2.17,0,0,1,.17,1.92q-.24.43-.45.89c-.22.49-.71.61-1.26.25l-3.33-2.17c-.86-.56-1.59-.18-1.63.85l-.26,6.48a3.64,3.64,0,0,0,1.48,2.88L9,146.51a3,3,0,0,1,1.16,1.75c.12.5.26,1,.38,1.49.19.72.05,1.32-.34,1.52l-2.49,1.29c-.64.33-.68,1.51-.11,2.63l3.64,7.09c.58,1.13,1.56,1.77,2.2,1.44l2.46-1.28c.41-.21,1,.07,1.49.67q.44.54.9,1.06a3.1,3.1,0,0,1,.81,2l-.16,4a3.64,3.64,0,0,0,1.48,2.88l5.41,3.55c.86.56,1.59.19,1.63-.84l.16-4c0-.63.37-1,.87-.9l1,.15A2.18,2.18,0,0,1,31,172.27l2.26,4.4c.58,1.13,1.56,1.77,2.2,1.44l4-2.07c.64-.33.69-1.51.11-2.63l-2.23-4.35a2.18,2.18,0,0,1-.17-1.93q.23-.41.42-.85c.22-.49.71-.61,1.26-.25l3.32,2.18c.86.56,1.59.19,1.63-.84l.27-6.48A3.64,3.64,0,0,0,42.59,158l-3.35-2.2a3,3,0,0,1-1.15-1.75C37.8,152.87,37.42,151.47,37.39,151.39Zm-19.79.82c-2.54-6.62-.67-12,3.79-11.49,3.39.42,7.38,4.44,9.28,9.37,2.54,6.61.67,12-3.79,11.49C23.48,161.15,19.49,157.13,17.6,152.21Z" style="fill: url(#04fcdb46-1261-452f-a4b4-9a377f4ea1e9)"/>
    </g>
  </g>
</svg>
