<svg xmlns="http://www.w3.org/2000/svg" xmlns:xlink="http://www.w3.org/1999/xlink" viewBox="0 0 150 297.91">
  <defs>
    <linearGradient id="c55f3c9a-dff1-44a8-8aef-7af851e1b4a6" x1="67.91" y1="9.46" x2="86.96" y2="9.46" gradientUnits="userSpaceOnUse">
      <stop offset="0.15" stop-color="#4d9ed7"/>
      <stop offset="1" stop-color="#54addf"/>
    </linearGradient>
    <linearGradient id="e92f2fb7-46ee-4176-8267-1170766266ee" x1="109.76" y1="59.02" x2="121.86" y2="2.13" xlink:href="#c55f3c9a-dff1-44a8-8aef-7af851e1b4a6"/>
    <linearGradient id="f500c00b-bd77-4e52-ab4a-8841c80cc2c7" x1="65" y1="35.34" x2="141.79" y2="35.34" gradientUnits="userSpaceOnUse">
      <stop offset="0" stop-color="#4d9ed7"/>
      <stop offset="0.27" stop-color="#54a6dc"/>
      <stop offset="0.66" stop-color="#66bbe9"/>
      <stop offset="1" stop-color="#67bce9"/>
    </linearGradient>
  </defs>
  <title>cloud-server</title>
  <g>
    <g>
      <path d="M77.18,12.57l-.34-.29-.61-.45-.3-.22c-.31-.21-.62-.41-.93-.59l-.63-.34-.18-.09-.47-.22-.17-.07-.44-.17-.11,0-.54-.17-.08,0a8,8,0,0,0-.83-.18h0c-.23,0-.45-.05-.67-.07h-.81l-.45.05-.14,0-.5.11h0l-.45.16-.13.05-.37.18-.12.06,8.21-4.77.05,0,.06,0,.37-.18.07,0,.06,0,.45-.16h0L77.7,5h.14l.45-.05h.81c.22,0,.44,0,.67.07h0a8,8,0,0,1,.83.18h.08l.54.17.11,0,.44.17.06,0,.11,0,.47.22.18.09.63.34c.31.18.62.38.93.59l.3.22.61.45.34.28.54.46.35.33.27.26.41.42h0L78.75,14c-.22-.23-.45-.45-.68-.67L77.72,13Z" style="fill: url(#c55f3c9a-dff1-44a8-8aef-7af851e1b4a6)"/>
      <path d="M95.65,10.17l-.32-.33L95,9.52q-.37-.36-.75-.7l-.13-.12c-.3-.26-.6-.51-.9-.75L93,7.76l-.71-.52L92,7.05c-.32-.21-.64-.42-1-.6s-.52-.29-.78-.42L90,5.92l-.58-.27-.2-.09-.54-.21-.14-.05-.66-.2L87.52,5l-.18,0-.55-.1c-.28,0-.55-.07-.82-.08H85.8c-.24,0-.48,0-.71,0H85l-.55.06-.17,0c-.21,0-.41.08-.61.14h0c-.19.06-.37.12-.55.19l-.16.07-.45.22-.15.08L90.52.82l.07,0,.08,0,.45-.22.08,0,.07,0c.18-.07.36-.14.55-.19h0c.2-.06.4-.1.61-.14l.07,0h.1L93.19,0h.12c.23,0,.47,0,.71,0h.16c.27,0,.54,0,.82.08h0l.55.1.18,0,.35.08h0l.66.2.14.05.54.21.07,0,.13.06.58.27.22.11c.26.13.52.27.78.42s.64.39,1,.6l.27.19.71.52.25.19c.31.24.61.49.9.75l.14.12.46.42,5.72-3.32.07,0,.08,0,.49-.24.09,0,.08,0c.19-.08.39-.15.6-.21h0c.21-.06.44-.11.66-.15l.08,0h.1l.59-.07h.13c.25,0,.5,0,.76,0h.17c.28,0,.57,0,.86.09h0l.1,0,.5.09.22.05.35.09h0l.7.22.12,0,.6.23.06,0,.13.06.66.3.23.11c.28.14.56.29.85.45s.8.49,1.2.76l.39.28c.26.19.52.37.78.57l.45.37.68.58.46.43.43.4.25.26.24.25c.32.33.64.68.95,1h0q.54.62,1,1.27h0q.45.58.88,1.19l0,.06.21.31c.17.25.35.5.51.76l.13.21.25.42.3.49.23.42.23.42.15.27c.14.27.28.54.41.82l.12.24,0,.06q.27.57.52,1.14l.06.14.16.38c.09.22.18.44.27.66l.12.33.18.51.14.4c.05.16.1.33.15.49s.12.39.18.58l.08.27c0,.18.08.35.13.53s.13.49.18.74c0,.08,0,.16.06.24.07.34.14.68.19,1l0,.16c0,.24.08.47.11.71s.05.45.08.68l.15,0,.63.19.22.07c.3.1.61.22.91.34h0l.69.31L134,24q.52.26,1.05.57c.4.23.79.48,1.18.74l.2.13q.56.38,1.11.8l.21.16c.37.29.74.59,1.1.91l.09.08q.52.46,1,1l.1.09.06.06q.39.39.77.79l0,0,.71.78.07.07.08.1q.57.65,1.1,1.34l0,0,.08.11q.43.56.83,1.13l.08.11,0,.05q.39.56.76,1.13l.07.11.1.17q.3.47.58,1l.09.15,0,.06q.32.55.62,1.12l.05.09.1.19q.23.45.46.9l.1.19.05.11c.18.38.36.77.53,1.15l0,0,.05.13q.22.52.43,1.05l.07.17.05.14c.16.42.31.83.45,1.25v0l0,.07c.14.43.27.86.4,1.29l0,.16,0,.09q.21.75.37,1.5l0,.13,0,.19c0,.2.08.39.11.59l.07.41c0,.2.06.4.09.6s0,.19,0,.29v.07q.08.65.13,1.29c0,.09,0,.18,0,.27,0,.44,0,.87,0,1.3,0,4.73-1.68,8.06-4.38,9.63l-8.21,4.77c2.69-1.57,4.36-4.9,4.38-9.63,0-.43,0-.87,0-1.3,0-.09,0-.18,0-.27q0-.64-.13-1.29c0-.12,0-.24-.05-.36s-.06-.4-.09-.6l-.07-.41c0-.2-.07-.39-.11-.59l-.07-.33q-.16-.75-.37-1.5l-.07-.25c-.12-.43-.25-.86-.4-1.3l0-.09c-.14-.42-.29-.83-.45-1.25l-.12-.31q-.21-.53-.43-1.05l-.07-.16c-.17-.39-.35-.77-.53-1.15l-.15-.3q-.22-.45-.46-.9l-.14-.28q-.3-.56-.62-1.12l-.12-.21q-.28-.48-.58-1L136.5,39q-.37-.57-.76-1.13l-.12-.17q-.41-.58-.83-1.13l-.11-.15q-.54-.69-1.1-1.34l-.15-.17-.7-.78,0,0-.77-.79-.16-.16q-.5-.49-1-1l-.1-.09c-.36-.32-.73-.62-1.09-.91l-.21-.17q-.55-.42-1.11-.8l-.2-.13c-.39-.26-.78-.51-1.18-.74s-.71-.39-1.05-.57l-.35-.16-.69-.31q-.48-.2-.94-.36l-.22-.07c-.26-.08-.52-.17-.78-.23,0-.46-.11-.92-.18-1.39l0-.16c-.07-.41-.16-.83-.25-1.25-.05-.24-.12-.49-.18-.73s-.14-.53-.21-.8-.12-.38-.18-.58-.19-.6-.29-.89l-.18-.51q-.18-.5-.39-1l-.16-.38q-.29-.67-.61-1.34l-.12-.24q-.27-.55-.56-1.08l-.23-.42q-.26-.46-.53-.91l-.25-.42c-.21-.33-.42-.65-.64-1l-.21-.31q-.45-.64-.93-1.26t-1-1.27c-.31-.36-.63-.7-1-1l-.24-.25c-.22-.23-.45-.44-.68-.66l-.46-.43-.68-.58-.45-.37c-.26-.2-.52-.39-.78-.57L111,7.58c-.39-.27-.79-.52-1.2-.76s-.57-.31-.85-.45l-.23-.11L108,6l-.2-.09-.6-.23-.12,0-.7-.22L106,5.3l-.22-.05-.5-.09-.1,0h0c-.29,0-.58-.07-.86-.09h-.84l0,0,.32.33.36.38.31.35.13.14.41.49-8.21,4.77-.54-.63L96,10.56Z" style="fill: url(#e92f2fb7-46ee-4176-8267-1170766266ee)"/>
    </g>
    <path d="M109.79,6.83c-6.38-3.68-11.71-1.53-12.92,4.7A22.14,22.14,0,0,0,91,6.45c-6.76-3.9-12.26-.77-12.29,7,0,.19,0,.39,0,.59A17,17,0,0,0,75,11c-5.51-3.18-10-.63-10,5.7s4.43,14,9.94,17.21l51.79,29.9c8.29,4.79,15,.94,15.06-8.58s-6.67-21.13-15-25.91a16.17,16.17,0,0,0-4-1.69C122,19.72,116.51,10.71,109.79,6.83Z" style="fill: url(#f500c00b-bd77-4e52-ab4a-8841c80cc2c7)"/>
  </g>
  <g style="opacity: 0.5">
    <path id="47ff7e78-f669-48f7-93a7-a2c11619157a" d="M2.37,253l61.93-35.76a6.7,6.7,0,0,1,6.7,0L132.93,253a4.75,4.75,0,0,1,0,8.22L71,297a6.7,6.7,0,0,1-6.7,0L2.37,261.26A4.75,4.75,0,0,1,2.37,253Z" style="fill: #fff;opacity: 0"/>
    <path d="M2.67,253.05l61.65-35.59a6.67,6.67,0,0,1,6.67,0l61.65,35.59a4.73,4.73,0,0,1,0,8.19L71,296.83a6.67,6.67,0,0,1-6.67,0L2.67,261.24A4.73,4.73,0,0,1,2.67,253.05Z" style="fill: #fbfbfc;opacity: 0.019608"/>
    <path d="M3,253.07l61.37-35.43a6.64,6.64,0,0,1,6.64,0l61.37,35.43a4.7,4.7,0,0,1,0,8.15L71,296.65a6.64,6.64,0,0,1-6.64,0L3,261.22A4.7,4.7,0,0,1,3,253.07Z" style="fill: #f8f8f9;opacity: 0.039216"/>
    <path d="M3.26,253.09l61.09-35.27a6.61,6.61,0,0,1,6.61,0L132,253.09a4.68,4.68,0,0,1,0,8.11L71,296.47a6.61,6.61,0,0,1-6.61,0L3.26,261.2A4.68,4.68,0,0,1,3.26,253.09Z" style="fill: #f4f4f6;opacity: 0.058823999999999994"/>
    <path d="M3.56,253.11,64.37,218a6.58,6.58,0,0,1,6.58,0l60.81,35.11a4.66,4.66,0,0,1,0,8.07L70.94,296.29a6.58,6.58,0,0,1-6.58,0L3.56,261.18A4.66,4.66,0,0,1,3.56,253.11Z" style="fill: #f1f1f3;opacity: 0.078431"/>
    <path d="M3.86,253.13l60.52-34.94a6.54,6.54,0,0,1,6.54,0l60.52,34.94a4.64,4.64,0,0,1,0,8L70.93,296.11a6.54,6.54,0,0,1-6.54,0L3.86,261.17A4.64,4.64,0,0,1,3.86,253.13Z" style="fill: #ededf0;opacity: 0.098039"/>
    <path d="M4.15,253.15,64.4,218.37a6.51,6.51,0,0,1,6.51,0l60.24,34.78a4.62,4.62,0,0,1,0,8L70.91,295.93a6.51,6.51,0,0,1-6.51,0L4.15,261.15A4.62,4.62,0,0,1,4.15,253.15Z" style="fill: #eaeaee;opacity: 0.117647"/>
    <path d="M4.45,253.17l60-34.62a6.48,6.48,0,0,1,6.48,0l60,34.62a4.6,4.6,0,0,1,0,8l-60,34.62a6.48,6.48,0,0,1-6.48,0l-60-34.62A4.6,4.6,0,0,1,4.45,253.17Z" style="fill: #e6e6eb;opacity: 0.137255"/>
    <path d="M4.75,253.18l59.68-34.46a6.45,6.45,0,0,1,6.45,0l59.68,34.46a4.58,4.58,0,0,1,0,7.92L70.88,295.57a6.45,6.45,0,0,1-6.45,0L4.75,261.11A4.58,4.58,0,0,1,4.75,253.18Z" style="fill: #e2e2e8;opacity: 0.156863"/>
    <path d="M5,253.2l59.4-34.29a6.42,6.42,0,0,1,6.42,0l59.4,34.29a4.55,4.55,0,0,1,0,7.89l-59.4,34.29a6.42,6.42,0,0,1-6.42,0L5,261.09A4.55,4.55,0,0,1,5,253.2Z" style="fill: #dfdfe5;opacity: 0.176471"/>
    <path d="M5.34,253.22l59.12-34.13a6.39,6.39,0,0,1,6.39,0L130,253.22a4.53,4.53,0,0,1,0,7.85L70.85,295.2a6.39,6.39,0,0,1-6.39,0L5.34,261.07A4.53,4.53,0,0,1,5.34,253.22Z" style="fill: #dbdbe2;opacity: 0.196078"/>
    <path d="M5.64,253.24l58.84-34a6.36,6.36,0,0,1,6.36,0l58.84,34a4.51,4.51,0,0,1,0,7.81L70.84,295a6.36,6.36,0,0,1-6.36,0l-58.84-34A4.51,4.51,0,0,1,5.64,253.24Z" style="fill: #d8d8df;opacity: 0.215686"/>
    <path d="M5.93,253.26l58.56-33.81a6.33,6.33,0,0,1,6.33,0l58.56,33.81a4.49,4.49,0,0,1,0,7.78L70.82,294.84a6.33,6.33,0,0,1-6.33,0L5.93,261A4.49,4.49,0,0,1,5.93,253.26Z" style="fill: #d4d4dc;opacity: 0.235294"/>
    <path d="M6.23,253.28,64.5,219.63a6.3,6.3,0,0,1,6.3,0l58.27,33.64a4.47,4.47,0,0,1,0,7.74L70.81,294.66a6.3,6.3,0,0,1-6.3,0L6.23,261A4.47,4.47,0,0,1,6.23,253.28Z" style="fill: #d1d0d9;opacity: 0.25490199999999996"/>
    <path d="M6.53,253.3l58-33.48a6.27,6.27,0,0,1,6.27,0l58,33.48a4.45,4.45,0,0,1,0,7.7l-58,33.48a6.27,6.27,0,0,1-6.27,0L6.53,261A4.45,4.45,0,0,1,6.53,253.3Z" style="fill: #cdcdd6;opacity: 0.27451000000000003"/>
    <path d="M6.82,253.32,64.53,220a6.24,6.24,0,0,1,6.24,0l57.71,33.32a4.42,4.42,0,0,1,0,7.66L70.77,294.3a6.24,6.24,0,0,1-6.24,0L6.82,261A4.42,4.42,0,0,1,6.82,253.32Z" style="fill: #c9c9d3;opacity: 0.294118"/>
    <path d="M7.12,253.33l57.43-33.16a6.21,6.21,0,0,1,6.21,0l57.43,33.16a4.4,4.4,0,0,1,0,7.63L70.76,294.12a6.21,6.21,0,0,1-6.21,0L7.12,261A4.4,4.4,0,0,1,7.12,253.33Z" style="fill: #c6c6d0;opacity: 0.313725"/>
    <path d="M7.42,253.35l57.15-33a6.18,6.18,0,0,1,6.18,0l57.15,33a4.38,4.38,0,0,1,0,7.59l-57.15,33a6.18,6.18,0,0,1-6.18,0l-57.15-33A4.38,4.38,0,0,1,7.42,253.35Z" style="fill: #c2c2ce;opacity: 0.333333"/>
    <path d="M7.71,253.37l56.87-32.83a6.15,6.15,0,0,1,6.15,0l56.87,32.83a4.36,4.36,0,0,1,0,7.55L70.73,293.75a6.15,6.15,0,0,1-6.15,0L7.71,260.92A4.36,4.36,0,0,1,7.71,253.37Z" style="fill: #bfbfcb;opacity: 0.352941"/>
    <path d="M8,253.39l56.59-32.67a6.12,6.12,0,0,1,6.12,0l56.59,32.67a4.34,4.34,0,0,1,0,7.51L70.71,293.57a6.12,6.12,0,0,1-6.12,0L8,260.9A4.34,4.34,0,0,1,8,253.39Z" style="fill: #bbbbc8;opacity: 0.37254899999999996"/>
    <path d="M8.31,253.41l56.3-32.51a6.09,6.09,0,0,1,6.09,0L127,253.41a4.32,4.32,0,0,1,0,7.48L70.7,293.39a6.09,6.09,0,0,1-6.09,0L8.31,260.89A4.32,4.32,0,0,1,8.31,253.41Z" style="fill: #b7b7c5;opacity: 0.392157"/>
    <path d="M8.6,253.43l56-32.35a6.06,6.06,0,0,1,6.06,0l56,32.35a4.3,4.3,0,0,1,0,7.44l-56,32.35a6.06,6.06,0,0,1-6.06,0l-56-32.35A4.3,4.3,0,0,1,8.6,253.43Z" style="fill: #b4b4c2;opacity: 0.411765"/>
    <path d="M8.9,253.45l55.74-32.18a6,6,0,0,1,6,0l55.74,32.18a4.27,4.27,0,0,1,0,7.4L70.67,293a6,6,0,0,1-6,0L8.9,260.85A4.27,4.27,0,0,1,8.9,253.45Z" style="fill: #b0b0bf;opacity: 0.431373"/>
    <path d="M9.2,253.46l55.46-32a6,6,0,0,1,6,0l55.46,32a4.25,4.25,0,0,1,0,7.36l-55.46,32a6,6,0,0,1-6,0l-55.46-32A4.25,4.25,0,0,1,9.2,253.46Z" style="fill: #adadbc;opacity: 0.45098000000000005"/>
    <path d="M9.49,253.48l55.18-31.86a6,6,0,0,1,6,0l55.18,31.86a4.23,4.23,0,0,1,0,7.33L70.64,292.67a6,6,0,0,1-6,0L9.49,260.81A4.23,4.23,0,0,1,9.49,253.48Z" style="fill: #a9a9b9;opacity: 0.470588"/>
    <path d="M9.79,253.5l54.9-31.7a5.94,5.94,0,0,1,5.94,0l54.9,31.7a4.21,4.21,0,0,1,0,7.29l-54.9,31.7a5.94,5.94,0,0,1-5.94,0l-54.9-31.7A4.21,4.21,0,0,1,9.79,253.5Z" style="fill: #a6a6b6;opacity: 0.49019599999999997"/>
    <path d="M10.08,253.52,64.7,222a5.91,5.91,0,0,1,5.91,0l54.62,31.53a4.19,4.19,0,0,1,0,7.25L70.61,292.31a5.91,5.91,0,0,1-5.91,0L10.08,260.77A4.19,4.19,0,0,1,10.08,253.52Z" style="fill: #a2a2b3;opacity: 0.5098039999999999"/>
    <path d="M10.38,253.54l54.34-31.37a5.88,5.88,0,0,1,5.88,0l54.34,31.37a4.17,4.17,0,0,1,0,7.21L70.59,292.12a5.88,5.88,0,0,1-5.88,0L10.38,260.75A4.17,4.17,0,0,1,10.38,253.54Z" style="fill: #9e9eb0;opacity: 0.529412"/>
    <path d="M10.68,253.56l54.05-31.21a5.84,5.84,0,0,1,5.85,0l54.05,31.21a4.14,4.14,0,0,1,0,7.18L70.58,291.94a5.85,5.85,0,0,1-5.85,0L10.68,260.74A4.14,4.14,0,0,1,10.68,253.56Z" style="fill: #9b9bae;opacity: 0.5490200000000001"/>
    <path d="M11,253.58l53.77-31a5.81,5.81,0,0,1,5.81,0l53.77,31a4.12,4.12,0,0,1,0,7.14l-53.77,31a5.81,5.81,0,0,1-5.81,0L11,260.72A4.12,4.12,0,0,1,11,253.58Z" style="fill: #9797ab;opacity: 0.568627"/>
    <path d="M11.27,253.6l53.49-30.88a5.78,5.78,0,0,1,5.78,0L124,253.6a4.1,4.1,0,0,1,0,7.1L70.55,291.58a5.78,5.78,0,0,1-5.78,0L11.27,260.7A4.1,4.1,0,0,1,11.27,253.6Z" style="fill: #9494a8;opacity: 0.588235"/>
    <path d="M11.57,253.61l53.21-30.72a5.75,5.75,0,0,1,5.75,0l53.21,30.72a4.08,4.08,0,0,1,0,7.07L70.53,291.4a5.75,5.75,0,0,1-5.75,0L11.57,260.68A4.08,4.08,0,0,1,11.57,253.61Z" style="fill: #9090a5;opacity: 0.607843"/>
    <path d="M11.86,253.63l52.93-30.56a5.72,5.72,0,0,1,5.72,0l52.93,30.56a4.06,4.06,0,0,1,0,7L70.52,291.22a5.72,5.72,0,0,1-5.72,0L11.86,260.66A4.06,4.06,0,0,1,11.86,253.63Z" style="fill: #8d8ca2;opacity: 0.627451"/>
    <path d="M12.16,253.65l52.65-30.4a5.69,5.69,0,0,1,5.69,0l52.65,30.4a4,4,0,0,1,0,7L70.5,291a5.69,5.69,0,0,1-5.69,0l-52.65-30.4A4,4,0,0,1,12.16,253.65Z" style="fill: #89899f;opacity: 0.6470589999999999"/>
    <path d="M12.46,253.67l52.37-30.23a5.66,5.66,0,0,1,5.66,0l52.37,30.23a4,4,0,0,1,0,7L70.49,290.86a5.66,5.66,0,0,1-5.66,0L12.46,260.62A4,4,0,0,1,12.46,253.67Z" style="fill: #85859c;opacity: 0.666667"/>
    <path d="M12.75,253.69l52.08-30.07a5.63,5.63,0,0,1,5.63,0l52.08,30.07a4,4,0,0,1,0,6.92L70.47,290.68a5.63,5.63,0,0,1-5.63,0L12.75,260.6A4,4,0,0,1,12.75,253.69Z" style="fill: #828299;opacity: 0.686275"/>
    <path d="M13.05,253.71l51.8-29.91a5.6,5.6,0,0,1,5.6,0l51.8,29.91a4,4,0,0,1,0,6.88l-51.8,29.91a5.6,5.6,0,0,1-5.6,0l-51.8-29.91A4,4,0,0,1,13.05,253.71Z" style="fill: #7e7e96;opacity: 0.705882"/>
    <path d="M13.35,253.73,64.87,224a5.57,5.57,0,0,1,5.57,0L122,253.73a4,4,0,0,1,0,6.84L70.44,290.31a5.57,5.57,0,0,1-5.57,0L13.35,260.57A4,4,0,0,1,13.35,253.73Z" style="fill: #7b7b93;opacity: 0.7254900000000001"/>
    <path d="M13.64,253.74l51.24-29.58a5.54,5.54,0,0,1,5.54,0l51.24,29.58a3.93,3.93,0,0,1,0,6.8L70.42,290.13a5.54,5.54,0,0,1-5.54,0L13.64,260.55A3.93,3.93,0,0,1,13.64,253.74Z" style="fill: #777790;opacity: 0.7450979999999999"/>
    <path d="M13.94,253.76l51-29.42a5.51,5.51,0,0,1,5.51,0l51,29.42a3.91,3.91,0,0,1,0,6.77L70.41,290a5.51,5.51,0,0,1-5.51,0l-51-29.42A3.91,3.91,0,0,1,13.94,253.76Z" style="fill: #74738e;opacity: 0.764706"/>
    <path d="M14.24,253.78l50.68-29.26a5.48,5.48,0,0,1,5.48,0l50.68,29.26a3.89,3.89,0,0,1,0,6.73L70.39,289.77a5.48,5.48,0,0,1-5.48,0L14.24,260.51A3.89,3.89,0,0,1,14.24,253.78Z" style="fill: #70708b;opacity: 0.784314"/>
    <path d="M14.53,253.8l50.4-29.1a5.45,5.45,0,0,1,5.45,0l50.4,29.1a3.86,3.86,0,0,1,0,6.69l-50.4,29.1a5.45,5.45,0,0,1-5.45,0l-50.4-29.1A3.86,3.86,0,0,1,14.53,253.8Z" style="fill: #6c6c88;opacity: 0.8039219999999999"/>
    <path d="M14.83,253.82l50.11-28.93a5.42,5.42,0,0,1,5.42,0l50.11,28.93a3.84,3.84,0,0,1,0,6.65L70.36,289.41a5.42,5.42,0,0,1-5.42,0L14.83,260.47A3.84,3.84,0,0,1,14.83,253.82Z" style="fill: #696985;opacity: 0.823529"/>
    <path d="M15.13,253.84,65,225.07a5.39,5.39,0,0,1,5.39,0l49.83,28.77a3.82,3.82,0,0,1,0,6.62L70.35,289.23a5.39,5.39,0,0,1-5.39,0L15.13,260.46A3.82,3.82,0,0,1,15.13,253.84Z" style="fill: #656582;opacity: 0.8431369999999999"/>
    <path d="M15.42,253.86,65,225.25a5.36,5.36,0,0,1,5.36,0l49.55,28.61a3.8,3.8,0,0,1,0,6.58L70.33,289A5.36,5.36,0,0,1,65,289L15.42,260.44A3.8,3.8,0,0,1,15.42,253.86Z" style="fill: #62627f;opacity: 0.862745"/>
    <path d="M15.72,253.88,65,225.43a5.33,5.33,0,0,1,5.33,0l49.27,28.45a3.78,3.78,0,0,1,0,6.54L70.32,288.86a5.33,5.33,0,0,1-5.33,0L15.72,260.42A3.78,3.78,0,0,1,15.72,253.88Z" style="fill: #5e5e7c;opacity: 0.8823529999999999"/>
    <path d="M16,253.89l49-28.28a5.3,5.3,0,0,1,5.3,0l49,28.28a3.76,3.76,0,0,1,0,6.51l-49,28.28a5.3,5.3,0,0,1-5.3,0L16,260.4A3.76,3.76,0,0,1,16,253.89Z" style="fill: #5a5a79;opacity: 0.901961"/>
    <path d="M16.31,253.91,65,225.79a5.27,5.27,0,0,1,5.27,0L119,253.91a3.73,3.73,0,0,1,0,6.47L70.29,288.5a5.27,5.27,0,0,1-5.27,0L16.31,260.38A3.73,3.73,0,0,1,16.31,253.91Z" style="fill: #575776;opacity: 0.921569"/>
    <path d="M16.61,253.93,65,226a5.24,5.24,0,0,1,5.24,0l48.43,28a3.71,3.71,0,0,1,0,6.43l-48.43,28a5.24,5.24,0,0,1-5.24,0l-48.43-28A3.71,3.71,0,0,1,16.61,253.93Z" style="fill: #535373;opacity: 0.941176"/>
    <path d="M16.91,254l48.15-27.8a5.21,5.21,0,0,1,5.21,0L118.4,254a3.69,3.69,0,0,1,0,6.39l-48.15,27.8a5.21,5.21,0,0,1-5.21,0l-48.15-27.8A3.69,3.69,0,0,1,16.91,254Z" style="fill: #505070;opacity: 0.960784"/>
    <path d="M17.2,254l47.86-27.63a5.18,5.18,0,0,1,5.18,0L118.11,254a3.67,3.67,0,0,1,0,6.36L70.24,288a5.18,5.18,0,0,1-5.18,0L17.2,260.32A3.67,3.67,0,0,1,17.2,254Z" style="fill: #4c4c6e;opacity: 0.9803919999999999"/>
    <path id="44a15e7d-51b1-4413-9db8-43eb0dab5e67" d="M17.5,254l47.58-27.47a5.15,5.15,0,0,1,5.15,0L117.81,254a3.65,3.65,0,0,1,0,6.32L70.23,287.78a5.15,5.15,0,0,1-5.15,0L17.5,260.31A3.65,3.65,0,0,1,17.5,254Z" style="fill: #49486b"/>
  </g>
  <polygon id="f0a32884-5587-4c01-8db4-9e0fd6dca4ea" points="9.53 88.33 67.98 54.58 126.42 88.33 67.98 122.07 9.53 88.33" style="fill: #dce1f0"/>
  <polygon id="3244ffdf-d4dc-4873-b811-54a17ab53397" points="9.53 88.33 9.53 257.81 67.98 291.56 67.98 122.07 9.53 88.33" style="fill: #d8deee"/>
  <polygon id="3b9ccc6d-2a0d-4fb8-bb8a-098133933cc5" points="67.98 291.56 126.42 257.81 126.42 88.33 67.98 122.07 67.98 291.56" style="fill: #d4daed"/>
  <g id="3f9df6f2-84b6-4e59-9783-e81ddc8ea054">
    <polygon points="67.98 191.46 67.48 191.18 9.53 157.72 9.53 155.4 67.98 189.19 126.42 155.4 126.42 157.72 67.98 191.46" style="fill: #9aa7d5"/>
    <polygon points="67.98 224.98 9.53 191.46 9.53 189.1 67.97 222.71 126.42 188.89 126.42 191.24 67.98 224.98" style="fill: #9aa7d5"/>
    <polygon points="67.98 258.5 9.53 224.98 9.53 222.62 67.98 256.23 126.42 222.62 126.42 224.98 67.98 258.5" style="fill: #9aa7d5"/>
    <polygon points="67.98 156.95 67.48 156.67 9.53 123.21 9.53 120.89 67.98 154.68 126.42 120.89 126.42 123.21 67.98 156.95" style="fill: #9aa7d5"/>
  </g>
  <polygon id="5f69c7de-15ec-4254-a420-2bb43fa02965" points="71.66 160.11 82.59 153.91 82.59 158.08 71.66 164.28 71.66 160.11" style="fill: #9aa7d5"/>
  <polygon id="3218f32a-d41d-474a-8444-c0f492ce09d9" points="84.75 152.73 95.69 146.52 95.69 150.7 84.75 156.9 84.75 152.73" style="fill: #9aa7d5"/>
  <polygon id="16cf5308-e06e-479d-920e-bd41778fbc50" points="71.66 194.11 82.59 187.91 82.59 192.08 71.66 198.28 71.66 194.11" style="fill: #9aa7d5"/>
  <polygon id="9350ed12-c48d-406c-91cb-b593b35e3407" points="84.75 186.73 95.69 180.52 95.69 184.69 84.75 190.9 84.75 186.73" style="fill: #9aa7d5"/>
  <polygon id="25de2217-99b2-4632-878c-9b192c2929d5" points="71.66 228.11 82.59 221.9 82.59 226.08 71.66 232.28 71.66 228.11" style="fill: #9aa7d5"/>
  <polygon id="aa40099d-7629-4e6a-9e07-fcd80702fe8b" points="84.75 220.73 95.69 214.52 95.69 218.69 84.75 224.9 84.75 220.73" style="fill: #9aa7d5"/>
  <polygon id="efe32c49-6808-4f01-9e5a-1f09b9cd5fea" points="71.66 261.76 82.59 255.56 82.59 259.73 71.66 265.94 71.66 261.76" style="fill: #9aa7d5"/>
  <polygon id="619cb39a-97bb-425e-854d-ea4afbe6bc86" points="84.75 254.38 95.69 248.17 95.69 252.34 84.75 258.55 84.75 254.38" style="fill: #9aa7d5"/>
  <path id="c0b86062-2231-4656-94d2-5306c3cea7ad" d="M20.05,145.36c-.93-.54-1.7-.1-1.7,1a3.77,3.77,0,0,0,1.7,2.94c.94.54,1.7.1,1.7-1A3.78,3.78,0,0,0,20.05,145.36Z" style="fill: #9aa7d5"/>
  <path id="3f284c5b-da76-4c64-808d-66b11a98a141" d="M26.78,149.75c-.93-.54-1.7-.1-1.7,1a3.77,3.77,0,0,0,1.7,2.94c.94.54,1.7.1,1.7-1A3.78,3.78,0,0,0,26.78,149.75Z" style="fill: #9aa7d5"/>
  <polygon id="f5b16c8b-5fc2-4659-b672-4ab58a114b8a" points="71.66 125.61 82.59 119.4 82.59 123.57 71.66 129.78 71.66 125.61" style="fill: #9aa7d5"/>
  <polygon id="333ca978-55a3-44fe-b0a8-cf22f7922ed0" points="84.75 118.22 95.69 112.02 95.69 116.19 84.75 122.39 84.75 118.22" style="fill: #9aa7d5"/>
  <path id="3fa8aea0-ae5e-46ae-a550-627c50c9704e" d="M20.05,110.85c-.93-.54-1.7-.1-1.7,1a3.77,3.77,0,0,0,1.7,2.94c.94.54,1.7.1,1.7-1A3.78,3.78,0,0,0,20.05,110.85Z" style="fill: #9aa7d5"/>
  <path id="4c0b093b-1fb7-4acb-860e-7260207789b4" d="M26.78,115.24c-.93-.54-1.7-.1-1.7,1a3.77,3.77,0,0,0,1.7,2.94c.94.54,1.7.1,1.7-1A3.78,3.78,0,0,0,26.78,115.24Z" style="fill: #9aa7d5"/>
  <path id="6d24cf1d-424a-4a4c-b10a-358719a7229a" d="M20.05,179.71c-.93-.54-1.7-.1-1.7,1a3.77,3.77,0,0,0,1.7,2.94c.94.54,1.7.1,1.7-1A3.78,3.78,0,0,0,20.05,179.71Z" style="fill: #9aa7d5"/>
  <path id="233e22d7-0149-45b3-b242-ed2980399cb9" d="M26.78,184.1c-.93-.54-1.7-.1-1.7,1a3.77,3.77,0,0,0,1.7,2.94c.94.54,1.7.1,1.7-1A3.78,3.78,0,0,0,26.78,184.1Z" style="fill: #9aa7d5"/>
  <path id="95dc9ff9-8d89-43c3-9d50-8676d583db88" d="M20.05,213.56c-.93-.54-1.7-.1-1.7,1a3.77,3.77,0,0,0,1.7,2.94c.94.54,1.7.1,1.7-1A3.78,3.78,0,0,0,20.05,213.56Z" style="fill: #9aa7d5"/>
  <path id="9cd8d53a-4f74-4ed7-ab60-88bad3f5b7e4" d="M26.78,218c-.93-.54-1.7-.1-1.7,1a3.77,3.77,0,0,0,1.7,2.94c.94.54,1.7.1,1.7-1A3.78,3.78,0,0,0,26.78,218Z" style="fill: #9aa7d5"/>
  <path id="d1958cf5-c66e-41d7-a41e-872dca5579b9" d="M20.05,247.42c-.93-.54-1.7-.1-1.7,1a3.77,3.77,0,0,0,1.7,2.94c.94.54,1.7.1,1.7-1A3.78,3.78,0,0,0,20.05,247.42Z" style="fill: #9aa7d5"/>
  <path id="7560e53f-d897-436f-b2be-8a5314dcdda0" d="M26.78,251.81c-.93-.54-1.7-.1-1.7,1a3.77,3.77,0,0,0,1.7,2.94c.94.54,1.7.1,1.7-1A3.78,3.78,0,0,0,26.78,251.81Z" style="fill: #9aa7d5"/>
  <g>
    <path id="1351db00-d8d7-4504-91a5-4a82e24b7974" d="M91,100.9c12.61-7.24,12.61-19.09,0-26.33s-33.19-7.24-45.73,0-12.54,19.09,0,26.33S78.36,108.14,91,100.9Z" style="fill: #d4daed"/>
    <path d="M45.24,78.46c12.54-7.24,33.12-7.24,45.73,0,5.45,3.13,8.54,7.12,9.28,11.22,1-5.4-2.12-11-9.28-15.11-12.61-7.24-33.19-7.24-45.73,0C38.12,78.69,35,84.28,36,89.68,36.75,85.58,39.83,81.59,45.24,78.46Z" style="fill: #49486b"/>
    <g style="opacity: 0.55">
      <path id="30e235c0-03ee-4a2e-bf71-464fc46d28bc" d="M91,100.9c12.61-7.24,12.61-19.09,0-26.33s-33.19-7.24-45.73,0-12.54,19.09,0,26.33S78.36,108.14,91,100.9Z" style="fill: #9aa7d5"/>
      <path d="M91,99.77c12.61-7.24,12.61-19.09,0-26.33s-33.19-7.24-45.73,0-12.54,19.09,0,26.33S78.35,107,91,99.77Z" style="fill: #9aa7d5;opacity: 0.9803921561688189"/>
      <path d="M91,98.65c12.61-7.24,12.61-19.09,0-26.33s-33.19-7.24-45.73,0-12.54,19.09,0,26.33S78.34,105.89,91,98.65Z" style="fill: #9aa7d5;opacity: 0.9607843130598875"/>
      <path d="M90.95,97.52c12.61-7.24,12.61-19.09,0-26.33S57.76,64,45.22,71.2s-12.54,19.09,0,26.33S78.34,104.76,90.95,97.52Z" style="fill: #9aa7d5;opacity: 0.9411764699509562"/>
      <path d="M90.94,96.4c12.61-7.24,12.61-19.09,0-26.33s-33.19-7.24-45.73,0-12.54,19.09,0,26.33S78.33,103.64,90.94,96.4Z" style="fill: #9aa7d5;opacity: 0.9215686268420249"/>
      <path d="M90.94,95.27c12.61-7.24,12.61-19.09,0-26.33s-33.19-7.24-45.73,0S32.67,88,45.21,95.27,78.33,102.51,90.94,95.27Z" style="fill: #9aa7d5;opacity: 0.9019607837330935"/>
      <path d="M90.93,94.14c12.61-7.24,12.61-19.09,0-26.33s-33.19-7.24-45.73,0-12.54,19.09,0,26.33S78.32,101.38,90.93,94.14Z" style="fill: #9aa7d5;opacity: 0.8823529406241621"/>
      <path d="M90.92,93c12.61-7.24,12.61-19.09,0-26.33s-33.19-7.24-45.73,0S32.66,85.78,45.2,93,78.31,100.26,90.92,93Z" style="fill: #9aa7d5;opacity: 0.8627450975152308"/>
      <path d="M90.92,91.89c12.61-7.24,12.61-19.09,0-26.33s-33.19-7.24-45.73,0-12.54,19.09,0,26.33S78.31,99.13,90.92,91.89Z" style="fill: #9aa7d5;opacity: 0.8431372544062994"/>
      <path d="M90.91,90.77c12.61-7.24,12.61-19.09,0-26.33s-33.19-7.24-45.73,0-12.54,19.09,0,26.33S78.3,98,90.91,90.77Z" style="fill: #9aa7d5;opacity: 0.823529411297368"/>
      <path d="M90.91,89.64c12.61-7.24,12.61-19.09,0-26.33s-33.19-7.24-45.73,0-12.54,19.09,0,26.33S78.3,96.88,90.91,89.64Z" style="fill: #9aa7d5;opacity: 0.8039215681884366"/>
      <path d="M90.9,88.51c12.61-7.24,12.61-19.09,0-26.33s-33.19-7.24-45.73,0-12.54,19.09,0,26.33S78.29,95.75,90.9,88.51Z" style="fill: #9aa7d5;opacity: 0.7843137250795053"/>
      <path d="M90.89,87.39c12.61-7.24,12.61-19.09,0-26.33s-33.19-7.24-45.73,0-12.54,19.09,0,26.33S78.28,94.63,90.89,87.39Z" style="fill: #9aa7d5;opacity: 0.7647058819705739"/>
      <path d="M90.89,86.26c12.61-7.24,12.61-19.09,0-26.33s-33.19-7.24-45.73,0S32.62,79,45.16,86.26,78.28,93.5,90.89,86.26Z" style="fill: #9aa7d5;opacity: 0.7450980388616425"/>
      <path d="M90.88,85.13c12.61-7.24,12.61-19.09,0-26.33s-33.19-7.24-45.73,0-12.54,19.09,0,26.33S78.27,92.37,90.88,85.13Z" style="fill: #9aa7d5;opacity: 0.7254901957527111"/>
      <path d="M90.88,84c12.61-7.24,12.61-19.09,0-26.33s-33.19-7.24-45.73,0S32.61,76.77,45.15,84,78.26,91.25,90.88,84Z" style="fill: #9aa7d5;opacity: 0.7058823526437797"/>
      <path d="M90.87,82.88c12.61-7.24,12.61-19.09,0-26.33s-33.19-7.24-45.73,0-12.54,19.09,0,26.33S78.26,90.12,90.87,82.88Z" style="fill: #9aa7d5;opacity: 0.6862745095348484"/>
      <path d="M90.86,81.76c12.61-7.24,12.61-19.09,0-26.33s-33.19-7.24-45.73,0-12.54,19.09,0,26.33S78.25,89,90.86,81.76Z" style="fill: #9aa7d5;opacity: 0.666666666425917"/>
      <path d="M90.86,80.63c12.61-7.24,12.61-19.09,0-26.33s-33.19-7.24-45.73,0-12.54,19.09,0,26.33S78.25,87.87,90.86,80.63Z" style="fill: #9aa7d5;opacity: 0.6470588233169856"/>
      <path d="M90.85,79.5c12.61-7.24,12.61-19.09,0-26.33s-33.19-7.24-45.73,0-12.54,19.09,0,26.33S78.24,86.74,90.85,79.5Z" style="fill: #9aa7d5;opacity: 0.6274509802080542"/>
      <path d="M90.84,78.38c12.61-7.24,12.61-19.09,0-26.33s-33.19-7.24-45.73,0-12.54,19.09,0,26.33S78.23,85.62,90.84,78.38Z" style="fill: #9aa7d5;opacity: 0.6078431370991229"/>
      <path d="M90.84,77.25c12.61-7.24,12.61-19.09,0-26.33s-33.19-7.24-45.73,0S32.57,70,45.11,77.25,78.23,84.49,90.84,77.25Z" style="fill: #9aa7d5;opacity: 0.5882352939901915"/>
      <path d="M90.83,76.12c12.61-7.24,12.61-19.09,0-26.33s-33.19-7.24-45.73,0-12.54,19.09,0,26.33S78.22,83.36,90.83,76.12Z" style="fill: #9aa7d5;opacity: 0.5686274508812601"/>
      <path d="M90.83,75c12.61-7.24,12.61-19.09,0-26.33s-33.19-7.24-45.73,0S32.56,67.76,45.1,75,78.22,82.24,90.83,75Z" style="fill: #9aa7d5;opacity: 0.5490196077723287"/>
      <path d="M90.82,73.87c12.61-7.24,12.61-19.09,0-26.33s-33.19-7.24-45.73,0-12.54,19.09,0,26.33S78.21,81.11,90.82,73.87Z" style="fill: #9aa7d5;opacity: 0.5294117646633973"/>
      <path d="M90.81,72.75c12.61-7.24,12.61-19.09,0-26.33s-33.19-7.24-45.73,0-12.54,19.09,0,26.33S78.2,80,90.81,72.75Z" style="fill: #9aa7d5;opacity: 0.509803921554466"/>
      <path d="M90.81,71.62c12.61-7.24,12.61-19.09,0-26.33s-33.19-7.24-45.73,0-12.54,19.09,0,26.33S78.2,78.86,90.81,71.62Z" style="fill: #9aa7d5;opacity: 0.4901960784455346"/>
      <path d="M90.8,70.49c12.61-7.24,12.61-19.09,0-26.33s-33.19-7.24-45.73,0-12.54,19.09,0,26.33S78.19,77.73,90.8,70.49Z" style="fill: #9aa7d5;opacity: 0.4705882353366032"/>
      <path d="M90.8,69.37c12.61-7.24,12.61-19.09,0-26.33S57.61,35.8,45.07,43s-12.54,19.09,0,26.33S78.18,76.61,90.8,69.37Z" style="fill: #9aa7d5;opacity: 0.45098039222767183"/>
      <path d="M90.79,68.24c12.61-7.24,12.61-19.09,0-26.33s-33.19-7.24-45.73,0S32.52,61,45.06,68.24,78.18,75.48,90.79,68.24Z" style="fill: #9aa7d5;opacity: 0.43137254911874046"/>
      <path d="M90.78,67.11c12.61-7.24,12.61-19.09,0-26.33s-33.19-7.24-45.73,0-12.54,19.09,0,26.33S78.17,74.35,90.78,67.11Z" style="fill: #9aa7d5;opacity: 0.4117647060098091"/>
      <path d="M90.78,66c12.61-7.24,12.61-19.09,0-26.33s-33.19-7.24-45.73,0S32.51,58.75,45,66,78.17,73.23,90.78,66Z" style="fill: #9aa7d5;opacity: 0.3921568629008777"/>
      <path d="M90.77,64.86c12.61-7.24,12.61-19.09,0-26.33S57.58,31.3,45,38.54,32.5,57.62,45,64.86,78.16,72.1,90.77,64.86Z" style="fill: #9aa7d5;opacity: 0.3725490197919463"/>
      <path d="M90.77,63.74c12.61-7.24,12.61-19.09,0-26.33s-33.19-7.24-45.73,0S32.5,56.5,45,63.74,78.15,71,90.77,63.74Z" style="fill: #9aa7d5;opacity: 0.35294117668301495"/>
      <path d="M90.76,62.61c12.61-7.24,12.61-19.09,0-26.33S57.57,29,45,36.28,32.49,55.37,45,62.61,78.15,69.85,90.76,62.61Z" style="fill: #9aa7d5;opacity: 0.33333333357408357"/>
      <path d="M90.75,61.48c12.61-7.24,12.61-19.09,0-26.33s-33.19-7.24-45.73,0S32.48,54.24,45,61.48,78.14,68.72,90.75,61.48Z" style="fill: #9aa7d5;opacity: 0.3137254904651522"/>
      <path d="M90.75,60.36c12.61-7.24,12.61-19.09,0-26.33S57.56,26.79,45,34,32.48,53.12,45,60.36,78.14,67.6,90.75,60.36Z" style="fill: #9aa7d5;opacity: 0.2941176473562208"/>
      <path d="M90.74,59.23c12.61-7.24,12.61-19.09,0-26.33S57.55,25.66,45,32.9,32.47,52,45,59.23,78.13,66.47,90.74,59.23Z" style="fill: #9aa7d5;opacity: 0.27450980424728944"/>
      <path d="M90.73,58.11c12.61-7.24,12.61-19.09,0-26.33s-33.19-7.24-45.73,0S32.47,50.87,45,58.11,78.12,65.35,90.73,58.11Z" style="fill: #9aa7d5;opacity: 0.25490196113835806"/>
      <path d="M90.73,57c12.61-7.24,12.61-19.09,0-26.33s-33.19-7.24-45.73,0S32.46,49.74,45,57,78.12,64.22,90.73,57Z" style="fill: #9aa7d5;opacity: 0.23529411802942668"/>
      <path d="M90.72,55.85c12.61-7.24,12.61-19.09,0-26.33s-33.19-7.24-45.73,0S32.45,48.61,45,55.85,78.11,63.09,90.72,55.85Z" style="fill: #9aa7d5;opacity: 0.2156862749204953"/>
      <path d="M90.72,54.73c12.61-7.24,12.61-19.09,0-26.33S57.53,21.16,45,28.4,32.45,47.49,45,54.73,78.11,62,90.72,54.73Z" style="fill: #9aa7d5;opacity: 0.19607843181156392"/>
      <path d="M90.71,53.6c12.61-7.24,12.61-19.09,0-26.33S57.52,20,45,27.27,32.44,46.36,45,53.6,78.1,60.84,90.71,53.6Z" style="fill: #9aa7d5;opacity: 0.17647058870263255"/>
      <path d="M90.7,52.47c12.61-7.24,12.61-19.09,0-26.33s-33.19-7.24-45.73,0S32.44,45.23,45,52.47,78.09,59.71,90.7,52.47Z" style="fill: #9aa7d5;opacity: 0.15686274559370117"/>
      <path d="M90.7,51.35c12.61-7.24,12.61-19.09,0-26.33S57.51,17.78,45,25,32.43,44.11,45,51.35,78.09,58.59,90.7,51.35Z" style="fill: #9aa7d5;opacity: 0.1372549024847698"/>
      <path d="M90.69,50.22c12.61-7.24,12.61-19.09,0-26.33S57.5,16.65,45,23.89,32.42,43,45,50.22,78.08,57.46,90.69,50.22Z" style="fill: #9aa7d5;opacity: 0.11764705937583841"/>
      <path d="M90.69,49.1c12.61-7.24,12.61-19.09,0-26.33S57.5,15.53,45,22.77,32.42,41.86,45,49.1,78.07,56.34,90.69,49.1Z" style="fill: #9aa7d5;opacity: 0.09803921626690704"/>
      <path d="M90.68,48c12.61-7.24,12.61-19.09,0-26.33S57.49,14.4,45,21.64,32.41,40.73,45,48,78.07,55.21,90.68,48Z" style="fill: #9aa7d5;opacity: 0.07843137315797566"/>
      <path d="M90.67,46.84c12.61-7.24,12.61-19.09,0-26.33s-33.19-7.24-45.73,0-12.54,19.09,0,26.33S78.06,54.08,90.67,46.84Z" style="fill: #9aa7d5;opacity: 0.05882353004904428"/>
      <path d="M90.67,45.72c12.61-7.24,12.61-19.09,0-26.33s-33.19-7.24-45.73,0-12.54,19.09,0,26.33S78.06,53,90.67,45.72Z" style="fill: #9aa7d5;opacity: 0.039215686940112904"/>
      <path d="M90.66,44.59c12.61-7.24,12.61-19.09,0-26.33s-33.19-7.24-45.73,0-12.54,19.09,0,26.33S78.05,51.83,90.66,44.59Z" style="fill: #9aa7d5;opacity: 0.019607843831181526"/>
      <path id="c2699e7d-835c-45d6-a320-fa25c2b2dda3" d="M90.66,43.46c12.61-7.24,12.61-19.09,0-26.33s-33.19-7.24-45.73,0-12.54,19.09,0,26.33S78,50.7,90.66,43.46Z" style="fill: #9aa7d5;opacity: 0"/>
    </g>
  </g>
</svg>
