<svg id="e3dff74e-4e90-4aad-b613-68e0f8bb10f3" data-name="Layer 5" xmlns="http://www.w3.org/2000/svg" xmlns:xlink="http://www.w3.org/1999/xlink" viewBox="0 0 200 228.84">
  <defs>
    <linearGradient id="6332f238-2f11-4d51-968d-8cc45230ccb7" x1="-34.93" y1="132.95" x2="72.12" y2="132.95" gradientTransform="translate(90.56 222) rotate(180)" gradientUnits="userSpaceOnUse">
      <stop offset="0" stop-color="#ebe9eb"/>
      <stop offset="1" stop-color="#9aa7d5"/>
    </linearGradient>
    <linearGradient id="78614a71-bb32-4a75-9232-19365d0024d4" x1="-105.48" y1="67.66" x2="69.19" y2="67.66" gradientTransform="translate(90.56 222) rotate(180)" gradientUnits="userSpaceOnUse">
      <stop offset="0" stop-color="#fff"/>
      <stop offset="1" stop-color="#9aa7d5"/>
    </linearGradient>
    <linearGradient id="56f615fe-fd74-4f17-a55f-9bdcc45a12bf" x1="-78.75" y1="21.87" x2="-78.75" y2="31.41" gradientTransform="translate(90.56 222) rotate(180)" gradientUnits="userSpaceOnUse">
      <stop offset="0.15" stop-color="#4ea0d8"/>
      <stop offset="1" stop-color="#7bbbe6"/>
    </linearGradient>
    <linearGradient id="f40a673f-44f8-44e6-ad5e-3f90fcf7bec1" x1="-74.37" y1="27.87" x2="-65.64" y2="42.98" gradientTransform="translate(90.56 222) rotate(180)" gradientUnits="userSpaceOnUse">
      <stop offset="0.15" stop-color="#4ea0d8"/>
      <stop offset="1" stop-color="#68bdea"/>
    </linearGradient>
    <linearGradient id="12a68d09-0c2a-40ed-b2ee-addd428700cf" x1="-26.67" y1="162.2" x2="13.06" y2="162.2" gradientTransform="translate(90.56 222) rotate(180)" gradientUnits="userSpaceOnUse">
      <stop offset="0" stop-color="#d4daed"/>
      <stop offset="1" stop-color="#9aa7d5"/>
    </linearGradient>
    <linearGradient id="0bc9ebaa-6da9-45b0-8b1c-9c6daec105c4" x1="7.89" y1="146.07" x2="2.12" y2="163.25" xlink:href="#f40a673f-44f8-44e6-ad5e-3f90fcf7bec1"/>
    <linearGradient id="7ff1bffa-0145-4958-8ba4-fa2982e1c7d5" x1="20.97" y1="105.89" x2="60.36" y2="105.89" gradientTransform="translate(90.56 222) rotate(180)" gradientUnits="userSpaceOnUse">
      <stop offset="0" stop-color="#49486b"/>
      <stop offset="0.2" stop-color="#4e4f78"/>
      <stop offset="0.71" stop-color="#595d94"/>
      <stop offset="1" stop-color="#5d629e"/>
    </linearGradient>
    <linearGradient id="50746c4d-4ae1-414a-be3c-805e77b22a5b" x1="40.18" y1="105.14" x2="56.5" y2="105.14" xlink:href="#f40a673f-44f8-44e6-ad5e-3f90fcf7bec1"/>
    <linearGradient id="d8949e81-bae8-48cd-9aad-fbf4d1136345" x1="242.14" y1="209.57" x2="261.37" y2="209.57" gradientTransform="matrix(1, 0, 0, -1, -78.36, 222)" gradientUnits="userSpaceOnUse">
      <stop offset="0" stop-color="#9aa7d5"/>
      <stop offset="0.28" stop-color="#aeb8de"/>
      <stop offset="0.73" stop-color="#cad0ea"/>
      <stop offset="1" stop-color="#d4d9ee"/>
    </linearGradient>
    <linearGradient id="c89f56c0-08c3-44fe-a4d1-1f3205e92522" x1="-66.27" y1="110.65" x2="-58.72" y2="110.65" xlink:href="#56f615fe-fd74-4f17-a55f-9bdcc45a12bf"/>
    <linearGradient id="60311e2e-5ea1-4e31-839e-31272a90ed92" x1="-62.49" y1="106.62" x2="-50.71" y2="106.62" xlink:href="#56f615fe-fd74-4f17-a55f-9bdcc45a12bf"/>
    <linearGradient id="32ed99de-a726-4ff6-bc49-96cf79c45b3c" x1="-55.2" y1="117.3" x2="-38.86" y2="117.3" xlink:href="#56f615fe-fd74-4f17-a55f-9bdcc45a12bf"/>
    <linearGradient id="9eb65549-3d1d-4cc4-859c-28ab7281d57d" x1="30.2" y1="46" x2="47.73" y2="46" gradientTransform="matrix(1, 0, 0, -1, 0, 222)" gradientUnits="userSpaceOnUse">
      <stop offset="0.15" stop-color="#4e9dd5"/>
      <stop offset="1" stop-color="#68bbe8"/>
    </linearGradient>
    <linearGradient id="8329d2d8-4a61-4951-8382-94e5576aec95" x1="94.53" y1="176.57" x2="144.61" y2="176.57" gradientTransform="translate(144.61 222) rotate(180)" gradientUnits="userSpaceOnUse">
      <stop offset="0" stop-color="#d2d9eb"/>
      <stop offset="0.55" stop-color="#afbbdf"/>
      <stop offset="1" stop-color="#99a6d4"/>
    </linearGradient>
    <linearGradient id="1252164b-19d2-410d-b271-ec124e2ae08c" x1="101.17" y1="183.37" x2="110.9" y2="183.37" gradientTransform="translate(144.61 222) rotate(180)" xlink:href="#9eb65549-3d1d-4cc4-859c-28ab7281d57d"/>
    <linearGradient id="2f048b7b-fa46-4db1-846e-9cc3693668a1" x1="113.52" y1="176.2" x2="123.25" y2="176.2" gradientTransform="translate(144.61 222) rotate(180)" xlink:href="#9eb65549-3d1d-4cc4-859c-28ab7281d57d"/>
    <linearGradient id="cafab511-e601-4842-a509-d45aa67f09a6" x1="125.86" y1="169.02" x2="135.58" y2="169.02" gradientTransform="translate(144.61 222) rotate(180)" xlink:href="#9eb65549-3d1d-4cc4-859c-28ab7281d57d"/>
  </defs>
  <title>integrity</title>
  <g>
    <g>
      <g>
        <path id="eb512685-bdfd-40b7-956d-06b5d0fe1e45" data-name="6938218e-e4bf-4285-8403-49ac6ecaf42c" d="M131.57,106.79l67.34,38.49a2.18,2.18,0,0,1,0,3.79L94.08,209.57a8.68,8.68,0,0,1-8.65,0L18.08,171.08a2.18,2.18,0,0,1,0-3.79l104.8-60.49A8.68,8.68,0,0,1,131.57,106.79Z" style="fill: #fff;fill-opacity: 0"/>
        <path d="M131.5,106.85l67.11,38.37a2.17,2.17,0,0,1,0,3.78L94.09,209.34a8.66,8.66,0,0,1-8.63,0L18.34,171a2.18,2.18,0,0,1,0-3.78l104.54-60.33A8.66,8.66,0,0,1,131.5,106.85Z" style="fill: #f5f4f6;opacity: 0.024390000849962;isolation: isolate"/>
        <path d="M131.43,106.91l66.93,38.26a2.17,2.17,0,0,1,0,3.77L94.19,209.09a8.63,8.63,0,0,1-8.6,0L18.65,170.83a2.17,2.17,0,0,1,0-3.77l104.17-60.16A8.63,8.63,0,0,1,131.43,106.91Z" style="fill: #eeecef;opacity: 0.048780001699924;isolation: isolate"/>
        <path d="M131.36,107l66.73,38.14a2.16,2.16,0,0,1,0,3.76l-103.89,60a8.6,8.6,0,0,1-8.57,0L18.9,170.7a2.16,2.16,0,0,1,0-3.76l103.88-60A8.6,8.6,0,0,1,131.36,107Z" style="fill: #e7e6ea;opacity: 0.073170997202396;isolation: isolate"/>
        <path d="M131.29,107,197.8,145.1a2.15,2.15,0,0,1,0,3.75L94.25,208.57a8.58,8.58,0,0,1-8.55,0L19.18,170.51a2.16,2.16,0,0,1,0-3.75L122.74,107A8.58,8.58,0,0,1,131.29,107Z" style="fill: #e2dfe5;opacity: 0.097561001777649;isolation: isolate"/>
        <path d="M131.22,107.1,197.53,145a2.15,2.15,0,0,1,0,3.74L94.29,208.34a8.55,8.55,0,0,1-8.52,0L19.45,170.43a2.15,2.15,0,0,1,0-3.74l103.25-59.58A8.55,8.55,0,0,1,131.22,107.1Z" style="fill: #dcd9e0;opacity: 0.121950998902321;isolation: isolate"/>
        <path d="M131.15,107.16l66.11,37.79a2.14,2.14,0,0,1,0,3.72L94.34,208.09a8.53,8.53,0,0,1-8.49,0L19.74,170.3a2.14,2.14,0,0,1,0-3.72l102.92-59.41A8.53,8.53,0,0,1,131.15,107.16Z" style="fill: #d6d3db;opacity: 0.146340996026993;isolation: isolate"/>
        <path d="M131.08,107.22,197,144.89a2.14,2.14,0,0,1,0,3.71L94.4,207.84a8.5,8.5,0,0,1-8.47,0L20,170.17a2.14,2.14,0,0,1,0-3.71l102.6-59.23A8.5,8.5,0,0,1,131.08,107.22Z" style="fill: #d1ced7;opacity: 0.170732006430626;isolation: isolate"/>
        <path d="M131,107.29l65.7,37.55a2.13,2.13,0,0,1,0,3.7L94.42,207.63a8.47,8.47,0,0,1-8.44,0l-65.7-37.55a2.13,2.13,0,0,1,0-3.7l102.28-59.1A8.47,8.47,0,0,1,131,107.29Z" style="fill: #cbc8d2;opacity: 0.195122003555298;isolation: isolate"/>
        <path d="M130.89,107.35l65.54,37.44a2.12,2.12,0,0,1,0,3.69l-102,58.87a8.45,8.45,0,0,1-8.41,0l-65.5-37.44a2.12,2.12,0,0,1,0-3.69l102-58.81A8.45,8.45,0,0,1,130.89,107.35Z" style="fill: #c6c3ce;opacity: 0.21951200067997;isolation: isolate"/>
        <path d="M130.89,107.41l65.26,37.32a2.12,2.12,0,0,1,0,3.68L94.51,207.09a8.42,8.42,0,0,1-8.39,0L20.83,169.77a2.12,2.12,0,0,1,0-3.68l101.64-58.68A8.42,8.42,0,0,1,130.89,107.41Z" style="fill: #c1beca;opacity: 0.243901997804642;isolation: isolate"/>
        <path d="M130.79,107.47l65.1,37.2a2.11,2.11,0,0,1,0,3.67L94.57,206.84a8.39,8.39,0,0,1-8.36,0l-65.1-37.2a2.11,2.11,0,0,1,0-3.67l101.33-58.48A8.39,8.39,0,0,1,130.79,107.47Z" style="fill: #bcb9c6;opacity: 0.268292993307114;isolation: isolate"/>
        <path d="M130.72,107.53l64.87,37.06a2.1,2.1,0,0,1,0,3.66l-101,58.32a8.37,8.37,0,0,1-8.34,0L21.38,169.51a2.1,2.1,0,0,1,0-3.66l101-58.3A8.37,8.37,0,0,1,130.72,107.53Z" style="fill: #b8b4c2;opacity: 0.292683005332947;isolation: isolate"/>
        <path d="M130.65,107.6l64.67,37a2.1,2.1,0,0,1,0,3.64L94.64,206.3a8.34,8.34,0,0,1-8.31,0l-64.67-37a2.1,2.1,0,0,1,0-3.64l100.69-58.08A8.34,8.34,0,0,1,130.65,107.6Z" style="fill: #b3afbe;opacity: 0.317072987556458;isolation: isolate"/>
        <path d="M130.58,107.66l64.47,36.81a2.09,2.09,0,0,1,0,3.63L94.69,206a8.31,8.31,0,0,1-8.28,0L21.94,169.2a2.09,2.09,0,0,1,0-3.63L122.3,107.68A8.31,8.31,0,0,1,130.58,107.66Z" style="fill: #aeaaba;opacity: 0.341462999582291;isolation: isolate"/>
        <path d="M130.51,107.72l64.26,36.75a2.08,2.08,0,0,1,0,3.62L94.72,205.85a8.29,8.29,0,0,1-8.26,0L22.19,169.11a2.08,2.08,0,0,1,0-3.62l100.07-57.75A8.29,8.29,0,0,1,130.51,107.72Z" style="fill: #aaa5b6;opacity: 0.365853995084763;isolation: isolate"/>
        <path d="M130.44,107.78l64.1,36.62a2.08,2.08,0,0,1,0,3.61L94.78,205.56a8.26,8.26,0,0,1-8.23,0l-64.1-36.62a2.08,2.08,0,0,1,0-3.61l99.77-57.54A8.26,8.26,0,0,1,130.44,107.78Z" style="fill: #a5a0b2;opacity: 0.390244007110596;isolation: isolate"/>
        <path d="M130.37,107.85l63.85,36.5a2.07,2.07,0,0,1,0,3.6L94.84,205.33a8.24,8.24,0,0,1-8.2,0L22.72,168.86a2.07,2.07,0,0,1,0-3.6l99.45-57.4A8.23,8.23,0,0,1,130.37,107.85Z" style="fill: #a19caf;opacity: 0.414633989334106;isolation: isolate"/>
        <path d="M130.3,107.91,194,144.29a2.06,2.06,0,0,1,0,3.59L94.84,205.08a8.21,8.21,0,0,1-8.18,0L23,168.7a2.06,2.06,0,0,1,0-3.59l99.12-57.18A8.21,8.21,0,0,1,130.3,107.91Z" style="fill: #9d97ab;opacity: 0.43902400135994;isolation: isolate"/>
        <path d="M130.23,108l63.44,36.27a2.06,2.06,0,0,1,0,3.57l-98.78,57a8.18,8.18,0,0,1-8.15,0L23.3,168.57a2.06,2.06,0,0,1,0-3.57l98.78-57A8.18,8.18,0,0,1,130.23,108Z" style="fill: #9893a8;opacity: 0.463414996862412;isolation: isolate"/>
        <path d="M130.16,108l63.24,36.16a2,2,0,0,1,0,3.56L94.95,204.56a8.16,8.16,0,0,1-8.13,0L23.57,168.42a2,2,0,0,1,0-3.56L122,108A8.16,8.16,0,0,1,130.16,108Z" style="fill: #948fa4;opacity: 0.487805008888245;isolation: isolate"/>
        <path d="M130.09,108.1l63,36.06a2,2,0,0,1,0,3.55L95,204.36a8.13,8.13,0,0,1-8.1,0l-63-36.06a2,2,0,0,1,0-3.55L122,108.1A8.13,8.13,0,0,1,130.09,108.1Z" style="fill: #908aa1;opacity: 0.512194991111755;isolation: isolate"/>
        <path d="M130,108.16l62.83,35.92a2,2,0,0,1,0,3.54L95,204.09a8.1,8.1,0,0,1-8.07,0L24.12,168.17a2,2,0,0,1,0-3.54L122,108.17A8.1,8.1,0,0,1,130,108.16Z" style="fill: #8c869d;opacity: 0.536584973335266;isolation: isolate"/>
        <path d="M130,108.22,192.58,144a2,2,0,0,1,0,3.53L95.08,203.83a8.08,8.08,0,0,1-8,0L24.44,168a2,2,0,0,1,0-3.53l97.44-56.27A8.08,8.08,0,0,1,130,108.22Z" style="fill: #88829a;opacity: 0.560976028442383;isolation: isolate"/>
        <path d="M129.89,108.28,192.3,144a2,2,0,0,1,0,3.52L95.15,203.57a8,8,0,0,1-8,0L24.72,167.92a2,2,0,0,1,0-3.52l97.16-56.09A8,8,0,0,1,129.89,108.28Z" style="fill: #847f97;opacity: 0.585366010665894;isolation: isolate"/>
        <path d="M129.81,108.34,192,143.91a2,2,0,0,1,0,3.51L95.13,203.34a8,8,0,0,1-8,0L24.89,167.77a2,2,0,0,1,0-3.51l96.93-55.86A8,8,0,0,1,129.81,108.34Z" style="fill: #817b94;opacity: 0.609755992889404;isolation: isolate"/>
        <path d="M129.74,108.41l62,35.45a2,2,0,0,1,0,3.49L95.21,203.08a8,8,0,0,1-8,0l-62-35.45a2,2,0,0,1,0-3.49l96.59-55.74A8,8,0,0,1,129.74,108.41Z" style="fill: #7d7791;opacity: 0.634145975112915;isolation: isolate"/>
        <path d="M129.67,108.47l61.81,35.33a2,2,0,0,1,0,3.48L95.26,202.83a8,8,0,0,1-7.94,0L25.51,167.5a2,2,0,0,1,0-3.48l96.22-55.54A8,8,0,0,1,129.67,108.47Z" style="fill: #79748e;opacity: 0.658536970615387;isolation: isolate"/>
        <path d="M129.6,108.53l61.6,35.22a2,2,0,0,1,0,3.47L95.3,202.56a8,8,0,0,1-7.92,0l-61.6-35.22a2,2,0,0,1,0-3.47l95.91-55.33A7.94,7.94,0,0,1,129.6,108.53Z" style="fill: #76708b;opacity: 0.682927012443543;isolation: isolate"/>
        <path d="M129.53,108.59l61.4,35.06a2,2,0,0,1,0,3.46L95.34,202.29a7.92,7.92,0,0,1-7.89,0L26,167.23a2,2,0,0,1,0-3.46l95.59-55.17A7.92,7.92,0,0,1,129.53,108.59Z" style="fill: #726d88;opacity: 0.707316994667053;isolation: isolate"/>
        <path d="M129.46,108.66l61.19,35a2,2,0,0,1,0,3.45l-95.27,55a7.89,7.89,0,0,1-7.86,0l-61.19-35a2,2,0,0,1,0-3.45l95.27-55A7.89,7.89,0,0,1,129.46,108.66Z" style="fill: #6f6986;opacity: 0.731706976890564;isolation: isolate"/>
        <path d="M129.39,108.72l61,34.86a2,2,0,0,1,0,3.44l-95,54.82a7.87,7.87,0,0,1-7.84,0L26.6,167a2,2,0,0,1,0-3.44l95-54.79A7.87,7.87,0,0,1,129.39,108.72Z" style="fill: #6b6683;opacity: 0.756097972393036;isolation: isolate"/>
        <path d="M129.32,108.78l60.78,34.75a2,2,0,0,1,0,3.42L95.48,201.56a7.84,7.84,0,0,1-7.81,0L26.89,166.81a2,2,0,0,1,0-3.43l94.62-54.59A7.84,7.84,0,0,1,129.32,108.78Z" style="fill: #686380;opacity: 0.780488014221191;isolation: isolate"/>
        <path d="M129.25,108.84l60.58,34.63a2,2,0,0,1,0,3.41L95.52,201.33a7.81,7.81,0,0,1-7.78,0L27.16,166.7a2,2,0,0,1,0-3.41l94.31-54.44A7.81,7.81,0,0,1,129.25,108.84Z" style="fill: #64607e;opacity: 0.804877996444702;isolation: isolate"/>
        <path d="M129.18,108.91l60.38,34.56a2,2,0,0,1,0,3.4l-94,54.27a7.79,7.79,0,0,1-7.76,0L27.43,166.61a2,2,0,0,1,0-3.4l94-54.3A7.79,7.79,0,0,1,129.18,108.91Z" style="fill: #615d7b;opacity: 0.829267978668213;isolation: isolate"/>
        <path d="M129.11,109l60.17,34.4a2,2,0,0,1,0,3.39L95.6,200.84a7.76,7.76,0,0,1-7.73,0L27.73,166.5a2,2,0,0,1,0-3.39L121.41,109A7.76,7.76,0,0,1,129.11,109Z" style="fill: #5d5a79;opacity: 0.853658974170685;isolation: isolate"/>
        <path d="M129,109,189,143.3a1.94,1.94,0,0,1,0,3.38L95.65,200.56a7.73,7.73,0,0,1-7.7,0L28,166.28a1.94,1.94,0,0,1,0-3.38L121.34,109A7.73,7.73,0,0,1,129,109Z" style="fill: #5a5776;opacity: 0.87804901599884;isolation: isolate"/>
        <path d="M129,109.09l59.76,34.15a1.94,1.94,0,0,1,0,3.37l-93,53.72a7.71,7.71,0,0,1-7.68,0L28.25,166.17a1.94,1.94,0,0,1,0-3.37l93-53.7A7.71,7.71,0,0,1,129,109.09Z" style="fill: #565474;opacity: 0.902438998222351;isolation: isolate"/>
        <path d="M128.89,109.15l59.56,34.05a1.93,1.93,0,0,1,0,3.36L95.73,200.1a7.68,7.68,0,0,1-7.65,0L28.52,166a1.93,1.93,0,0,1,0-3.36l92.73-53.52A7.68,7.68,0,0,1,128.89,109.15Z" style="fill: #535172;opacity: 0.926828980445862;isolation: isolate"/>
        <path d="M128.83,109.22l59.35,33.92a1.92,1.92,0,0,1,0,3.34l-92.4,53.35a7.66,7.66,0,0,1-7.63,0L28.8,165.9a1.92,1.92,0,0,1,0-3.34l92.4-53.34A7.65,7.65,0,0,1,128.83,109.22Z" style="fill: #4f4e6f;opacity: 0.951219975948334;isolation: isolate"/>
        <path d="M128.76,109.28l59.1,33.8a1.92,1.92,0,0,1,0,3.33l-92,53.15a7.63,7.63,0,0,1-7.6,0l-59.1-33.8a1.92,1.92,0,0,1,0-3.33l92-53.13A7.63,7.63,0,0,1,128.76,109.28Z" style="fill: #4c4b6d;opacity: 0.975610017776489;isolation: isolate"/>
        <path id="5d8de3c8-c05a-4c5f-97f6-122cac552419" data-name="5d9dd387-20dc-44e9-8f45-7e48570996cb" d="M128.69,109.34,187.63,143a1.91,1.91,0,0,1,0,3.32l-91.79,53a7.6,7.6,0,0,1-7.57,0L29.33,165.64a1.91,1.91,0,0,1,0-3.32l91.79-53A7.6,7.6,0,0,1,128.69,109.34Z" style="fill: #49486b"/>
      </g>
      <path id="0843f2db-b48e-41ac-be50-dbedd2b6fa60" data-name="d47f5d6a-dd58-4968-978c-1fb9cce1455c" d="M20.72,77.26,122.39,18.54a2.06,2.06,0,0,1,3.09,1.78V97a4.48,4.48,0,0,1-2.24,3.88L21.54,159.56a2.06,2.06,0,0,1-3.09-1.78V81.13A4.48,4.48,0,0,1,20.72,77.26Z" style="fill: url(#6332f238-2f11-4d51-968d-8cc45230ccb7)"/>
      <path id="eed4b489-d152-414e-a821-fa0541459490" data-name="4de72727-c73c-4c13-9ab4-6b860e94cdca" d="M22,78.14l101.7-58.72a2.06,2.06,0,0,1,3.09,1.78V97.85a4.48,4.48,0,0,1-2.24,3.88L22.86,160.49a2.06,2.06,0,0,1-3.09-1.78V82A4.48,4.48,0,0,1,22,78.14Z" style="fill: #49486b"/>
      <polygon id="937e6064-e4af-4f2a-b889-9658a16c68fa" data-name="0a73c501-bf36-40bf-bd5d-dade2cd89c41" points="25.8 82.98 121.5 27.41 121.5 97.52 25.8 153.09 25.8 82.98" style="fill: #fff"/>
      <path id="04f9dc7c-ac70-4b8c-a8a5-5583bd60da84" data-name="6fdbfef3-328f-4570-bc47-3c2f41e0eac2" d="M130.89,105.4,196,139.77s.36,5.09-1,5.89L95.22,203.27a8.27,8.27,0,0,1-8.23,0l-64.1-36.64c-2.65-1.64-1-5.9-1-5.9L122.69,105.4A8.27,8.27,0,0,1,130.89,105.4Z" style="fill: url(#78614a71-bb32-4a75-9232-19365d0024d4)"/>
      <path id="035cc810-4337-4812-93f3-75ba58b38203" data-name="b318fceb-16b4-4bde-9351-2680e419910d" d="M130.89,101.48,195,138.11a2.08,2.08,0,0,1,0,3.61L95.22,199.32a8.26,8.26,0,0,1-8.23,0l-64.1-36.64a2.08,2.08,0,0,1,0-3.61l99.81-57.58A8.27,8.27,0,0,1,130.89,101.48Z" style="fill: #f7f7f7"/>
      <path id="7de96211-b0cf-4f0e-97ef-c9308f590683" data-name="88515588-7b42-4051-afe0-c0b099956a9a" d="M136.6,148.91l16.89,9.66a.55.55,0,0,1,0,1l-26.3,15.18a2.18,2.18,0,0,1-2.17,0L108.13,165a.55.55,0,0,1,0-1l26.3-15.18A2.18,2.18,0,0,1,136.6,148.91Z" style="fill: #e3e7f3"/>
      <path id="9011cbc7-c849-4b85-ba92-1237f5a8a84a" data-name="f923c070-2520-4f3d-a506-b99c34e9c7c6" d="M123.88,107.08l-5.52,3.19a.33.33,0,0,0,0,.57l2.71,1.58a.71.71,0,0,0,.71,0l5.52-3.19a.33.33,0,0,0,0-.57l-2.74-1.57A.71.71,0,0,0,123.88,107.08Z" style="fill: #d4daed"/>
      <path id="38fb8ff4-ebd9-4d75-ae68-fdb0e03bca4a" data-name="790fe116-1452-4799-b1b0-3bc5f9e6f293" d="M115.77,111.89l-5.52,3.19a.33.33,0,0,0,0,.57l2.74,1.57a.71.71,0,0,0,.71,0l5.52-3.19a.33.33,0,0,0,0-.57l-2.74-1.57A.71.71,0,0,0,115.77,111.89Z" style="fill: #d4daed"/>
      <path id="2feef79c-3310-4ebf-8b6e-0112949aa9e9" data-name="4e39341d-8112-44d1-b12b-c9bb852f63f4" d="M107.65,116.42l-5.52,3.19a.33.33,0,0,0,0,.57l2.72,1.61a.71.71,0,0,0,.71,0l5.52-3.19a.33.33,0,0,0,0-.57l-2.72-1.61A.71.71,0,0,0,107.65,116.42Z" style="fill: #d4daed"/>
      <path id="5423e84d-3b18-4abb-b56a-3c65410d6813" data-name="b1b94c0d-3147-4a75-98f2-519350cc3d22" d="M99.28,121.17l-5.52,3.19a.33.33,0,0,0,0,.57l2.74,1.57a.71.71,0,0,0,.71,0l5.52-3.19a.33.33,0,0,0,0-.57L100,121.17A.71.71,0,0,0,99.28,121.17Z" style="fill: #d4daed"/>
      <path id="b07d86a5-dc1d-4a50-b5a0-3576ff16448c" data-name="705d8ede-54e8-4ec5-801a-2d72a4857548" d="M91.24,125.65l-5.52,3.19a.33.33,0,0,0,0,.57L88.47,131a.71.71,0,0,0,.71,0l5.52-3.19a.33.33,0,0,0,0-.57L92,125.65A.71.71,0,0,0,91.24,125.65Z" style="fill: #d4daed"/>
      <path id="b31e0467-125b-449a-8e03-6d4591dfc0a8" data-name="d9070a91-6de2-4eee-ac43-0db78b13a82e" d="M83.43,130.44l-5.52,3.19a.33.33,0,0,0,0,.57l2.74,1.57a.71.71,0,0,0,.71,0l5.52-3.19a.33.33,0,0,0,0-.57l-2.74-1.57A.71.71,0,0,0,83.43,130.44Z" style="fill: #d4daed"/>
      <path id="41b4ea99-281d-480c-bf4f-9430c03918a0" data-name="a3b40b26-4536-41bb-bf8b-c123a13781da" d="M75.26,135l-5.52,3.19a.33.33,0,0,0,0,.57l2.74,1.57a.71.71,0,0,0,.71,0l5.52-3.19a.33.33,0,0,0,0-.57L76,135A.71.71,0,0,0,75.26,135Z" style="fill: #d4daed"/>
      <path id="36bc7675-ce32-4ed7-b21f-e5c4d1401ae9" data-name="8a453893-066b-4509-bf5e-1abf4572511d" d="M67.19,139.78,61.67,143a.33.33,0,0,0,0,.57l2.74,1.57a.71.71,0,0,0,.71,0l5.52-3.19a.33.33,0,0,0,0-.57l-2.74-1.57A.71.71,0,0,0,67.19,139.78Z" style="fill: #d4daed"/>
      <path id="8f2f1d2b-7c4c-4d43-8e53-be05483f738a" data-name="0bb235d1-c00d-4409-9a68-0d3fb0a093f0" d="M59.27,144.47l-5.52,3.19a.33.33,0,0,0,0,.57l2.74,1.57a.71.71,0,0,0,.71,0l5.52-3.19a.33.33,0,0,0,0-.57L60,144.47A.71.71,0,0,0,59.27,144.47Z" style="fill: #d4daed"/>
      <path id="0da8d8d4-074f-4048-8367-023ff1644e1f" data-name="23687aba-b9e2-4caf-aa25-57c84ed09568" d="M50.92,149.26l-5.52,3.19a.33.33,0,0,0,0,.57l2.74,1.57a.71.71,0,0,0,.71,0l5.52-3.19a.33.33,0,0,0,0-.57l-2.74-1.57A.71.71,0,0,0,50.92,149.26Z" style="fill: #d4daed"/>
      <path id="73a2a80a-b71f-4158-8335-9d53c5737451" data-name="2a2fb988-1d4d-4aab-9776-13f7682f5b0b" d="M42.8,153.81,37.28,157a.33.33,0,0,0,0,.57L40,159.14a.71.71,0,0,0,.71,0L46.26,156a.33.33,0,0,0,0-.57l-2.74-1.57A.71.71,0,0,0,42.8,153.81Z" style="fill: #d4daed"/>
      <g id="cb66284d-fe0c-46c5-9dcc-c28fe8dbd2ab" data-name="c52b1289-20fe-41e2-8d86-e03f5608e1cd">
        <path id="7d11843e-8b26-4806-987d-d2ea7fe80ecd" data-name="ea7ace32-572c-4d45-8196-d0aec93f31ce" d="M135.09,113.08l-3.74-2.19a1.56,1.56,0,0,0-1.57,0L126.13,113a.78.78,0,0,0,0,1.33l3.64,2.23a1.56,1.56,0,0,0,1.6,0l3.72-2.14a.78.78,0,0,0,0-1.34Z" style="fill: #d4daed"/>
        <path id="ebc04984-0c3c-4ef2-ac87-5d2ce2f39cee" data-name="3042997c-a52a-42f9-a074-407318f94de1" d="M126.71,117.9,123,115.71a1.56,1.56,0,0,0-1.57,0l-3.66,2.11a.78.78,0,0,0,0,1.33l3.63,2.27a1.56,1.56,0,0,0,1.6,0l3.75-2.16a.78.78,0,0,0,0-1.36Z" style="fill: #d4daed"/>
        <path id="2bea541f-63cd-4ec0-99e5-ec310592d0a2" data-name="86289bff-51ce-4d0c-aad9-c389019680ea" d="M118.59,122.43l-3.72-2.16a1.56,1.56,0,0,0-1.57,0l-3.66,2.11a.78.78,0,0,0,0,1.34l3.64,2.23a1.56,1.56,0,0,0,1.6,0l3.75-2.16a.78.78,0,0,0,0-1.36Z" style="fill: #d4daed"/>
        <path id="c32775e4-e20b-4c1d-bdd4-137a02de74c1" data-name="ab108e06-4430-4abe-a953-71c13b21fa92" d="M109.93,127.18,106.2,125a1.56,1.56,0,0,0-1.57,0L101,127.1a.78.78,0,0,0,0,1.33l3.64,2.23a1.56,1.56,0,0,0,1.6,0l3.75-2.15a.78.78,0,0,0,0-1.33Z" style="fill: #d4daed"/>
        <path id="0f216867-31e1-4fd5-bbd7-3e7159d230da" data-name="5d43479b-92f6-44e7-abda-ec69202f4aa7" d="M102.31,131.66l-3.74-2.19a1.56,1.56,0,0,0-1.57,0l-3.66,2.11a.78.78,0,0,0,0,1.33L97,135.14a1.56,1.56,0,0,0,1.6,0l3.75-2.15a.78.78,0,0,0,0-1.33Z" style="fill: #d4daed"/>
        <path id="ef241515-9281-422c-b27a-18406f48e184" data-name="1d683bbd-0730-42ec-b835-468daa884672" d="M94.57,136.45l-3.74-2.19a1.56,1.56,0,0,0-1.57,0l-3.66,2.11a.78.78,0,0,0,0,1.33l3.64,2.23a1.56,1.56,0,0,0,1.6,0l3.75-2.15a.78.78,0,0,0,0-1.33Z" style="fill: #d4daed"/>
        <path id="c6c961b0-7662-4f89-8030-dee4f9e8b963" data-name="629ee6d2-e2d1-4ac4-873c-86db0faae62d" d="M86.29,141l-3.74-2.19a1.56,1.56,0,0,0-1.57,0l-3.66,2.11a.78.78,0,0,0,0,1.33l3.61,2.23a1.56,1.56,0,0,0,1.6,0l3.75-2.15a.78.78,0,0,0,0-1.33Z" style="fill: #d4daed"/>
        <path id="eff9ec44-5308-4918-9472-c730ee06f43e" data-name="e40e861c-be57-405f-99b4-e39508a6a587" d="M78.19,145.58l-3.74-2.19a1.56,1.56,0,0,0-1.57,0l-3.66,2.11a.78.78,0,0,0,0,1.33l3.58,2.22a1.56,1.56,0,0,0,1.6,0l3.75-2.15a.78.78,0,0,0,0-1.32Z" style="fill: #d4daed"/>
        <path id="4c70ac63-9f98-4b68-8671-6ca08d263055" data-name="4595c235-9da5-427b-a491-a1e76aed7a1a" d="M70.23,150.48l-3.74-2.19a1.56,1.56,0,0,0-1.57,0l-3.66,2.11a.78.78,0,0,0,0,1.33L64.9,154a1.56,1.56,0,0,0,1.6,0l3.75-2.15a.78.78,0,0,0,0-1.33Z" style="fill: #d4daed"/>
        <path id="40154a9a-68e0-4bb0-98e9-278ce9a45a91" data-name="18494c66-97e5-482e-9954-9c764e960e8d" d="M61.55,155.56l-3.78-2.18a1.56,1.56,0,0,0-1.57,0l-3.66,2.11a.78.78,0,0,0,0,1.33l3.64,2.23a1.56,1.56,0,0,0,1.6,0l3.75-2.15a.78.78,0,0,0,0-1.34Z" style="fill: #d4daed"/>
        <path id="393a4c53-bb4b-48be-8916-99553612e2ed" data-name="a3de5006-d195-4f55-9d50-1c41ec1b257c" d="M53.71,159.82,50,157.63a1.56,1.56,0,0,0-1.57,0l-3.66,2.11a.78.78,0,0,0,0,1.33l3.64,2.23a1.56,1.56,0,0,0,1.6,0l3.75-2.15a.78.78,0,0,0,0-1.33Z" style="fill: #d4daed"/>
      </g>
      <g id="d608722f-943f-4515-84ce-3deaf033875b" data-name="0bc67246-1b06-46a6-837a-00e38c0a2f6d">
        <path id="afa839d6-ff22-4a02-930e-87448514ed96" data-name="a440d293-cda5-4103-ac68-133d33d0203e" d="M143.43,117.61l-3.75-2.19a1.56,1.56,0,0,0-1.57,0l-3.66,2.11a.78.78,0,0,0,0,1.33l3.64,2.23a1.56,1.56,0,0,0,1.6,0l3.75-2.15a.78.78,0,0,0,0-1.33Z" style="fill: #d4daed"/>
        <path id="6ca8b0e8-7234-4382-90a3-594a9501eadf" data-name="659cc447-492b-4459-bf06-41c15e515b76" d="M135.05,122.43l-3.75-2.19a1.56,1.56,0,0,0-1.57,0l-3.66,2.11a.78.78,0,0,0,0,1.33l3.64,2.23a1.56,1.56,0,0,0,1.6,0l3.75-2.15a.78.78,0,0,0,0-1.33Z" style="fill: #d4daed"/>
        <path id="f17d676c-03ce-4093-a1c3-beba2dd3410b" data-name="1a25bc8d-ec37-421d-9066-5001c966bf38" d="M126.89,127l-3.75-2.19a1.56,1.56,0,0,0-1.57,0l-3.66,2.11a.78.78,0,0,0,0,1.33l3.65,2.19a1.56,1.56,0,0,0,1.6,0l3.73-2.1a.78.78,0,0,0,0-1.34Z" style="fill: #d4daed"/>
        <path id="f1b332f5-c643-48ce-b5f6-323d5291442a" data-name="51aaac95-cd42-41ac-8f2d-98fbc7f9e3d7" d="M118.26,131.71l-3.74-2.19a1.56,1.56,0,0,0-1.57,0l-3.66,2.11a.78.78,0,0,0,0,1.33l3.57,2.23a1.56,1.56,0,0,0,1.6,0l3.75-2.16a.78.78,0,0,0,.05-1.32Z" style="fill: #d4daed"/>
        <path id="7d26c1f0-fda5-49b4-94dd-2583f168655e" data-name="f8ee718a-39f8-4de2-ad4a-8189336f2c12" d="M110.64,136.18,106.86,134a1.56,1.56,0,0,0-1.57,0l-3.66,2.11a.78.78,0,0,0,0,1.33l3.64,2.23a1.56,1.56,0,0,0,1.6,0l3.75-2.15a.78.78,0,0,0,0-1.34Z" style="fill: #d4daed"/>
        <path id="e2cfffbe-343d-4a11-a6a5-fe6e9dd20052" data-name="731434d0-cdda-4909-92de-fd75a90bac33" d="M102.85,141l-3.74-2.19a1.56,1.56,0,0,0-1.57,0l-3.66,2.11a.78.78,0,0,0,0,1.33l3.67,2.23a1.56,1.56,0,0,0,1.6,0l3.7-2.14a.78.78,0,0,0,0-1.34Z" style="fill: #d4daed"/>
        <path id="f136e748-4877-429c-9a9e-a3708c22db47" data-name="886aa033-2d9d-47dc-a575-896d3ea6b4a3" d="M94.63,145.47l-3.74-2.19a1.56,1.56,0,0,0-1.57,0l-3.66,2.11a.78.78,0,0,0,0,1.33L89.3,149a1.56,1.56,0,0,0,1.6,0l3.75-2.15a.78.78,0,0,0,0-1.33Z" style="fill: #d4daed"/>
        <path id="135ca5fe-c248-4d63-935e-41949b882cf4" data-name="94e8960e-00e6-429e-95a2-ec9ce109abc6" d="M86.52,150.11l-3.74-2.19a1.56,1.56,0,0,0-1.57,0L77.56,150a.78.78,0,0,0,0,1.33l3.64,2.23a1.56,1.56,0,0,0,1.6,0l3.73-2.11a.78.78,0,0,0,0-1.37Z" style="fill: #d4daed"/>
        <path id="db2c74ef-8ddd-4458-b548-83c63b785a97" data-name="f03baaea-500c-4b4f-aeee-9b3f9aa5b587" d="M78.56,155l-3.74-2.19a1.56,1.56,0,0,0-1.57,0l-3.66,2.11a.78.78,0,0,0,0,1.33l3.62,2.24a1.56,1.56,0,0,0,1.6,0l3.75-2.15a.78.78,0,0,0,0-1.34Z" style="fill: #d4daed"/>
        <path id="da44b117-dd88-454f-8952-f8e3ba3dad58" data-name="1611491e-74af-4172-8ae3-2f8c7fc0424b" d="M69.89,160.1l-3.74-2.19a1.56,1.56,0,0,0-1.57,0L60.92,160a.78.78,0,0,0,0,1.33l3.64,2.23a1.56,1.56,0,0,0,1.6,0l3.73-2.09a.78.78,0,0,0,0-1.39Z" style="fill: #d4daed"/>
        <path id="b3aef0b0-b6dc-4152-b2bd-d80fa5420c3d" data-name="aea159e6-0823-4721-a6cf-f480b1d0e79f" d="M62,164.36l-3.74-2.19a1.56,1.56,0,0,0-1.57,0l-3.66,2.11a.78.78,0,0,0,0,1.33l3.64,2.23a1.56,1.56,0,0,0,1.6,0l3.75-2.15a.78.78,0,0,0,0-1.33Z" style="fill: #d4daed"/>
      </g>
      <g id="28ac37e7-bdbe-4dad-bd60-dec8250dbf62" data-name="14c58470-69af-4608-b39a-e83b8e61d846">
        <path id="a4a680d6-c2d2-4046-abb9-09b1a812e1a8" data-name="f2249e5a-b56b-4059-ac68-1fbac277e426" d="M151.76,122.14,148,119.95a1.56,1.56,0,0,0-1.57,0l-3.66,2.11a.78.78,0,0,0,0,1.34l3.64,2.23a1.56,1.56,0,0,0,1.6,0l3.75-2.15a.78.78,0,0,0,0-1.34Z" style="fill: #d4daed"/>
        <path id="51574327-6976-408c-bcc1-68a5c8f69902" data-name="ef4ee210-7e67-487f-8953-9aba276f419d" d="M143.38,127l-3.74-2.19a1.56,1.56,0,0,0-1.57,0l-3.66,2.11a.78.78,0,0,0,0,1.33l3.61,2.22a1.56,1.56,0,0,0,1.6,0l3.75-2.15a.78.78,0,0,0,0-1.32Z" style="fill: #d4daed"/>
        <path id="cd8c1980-fb8e-407d-b803-fb1ddcd49813" data-name="4d2fe945-7fb1-45c9-bd10-8dd322da68b6" d="M135.25,131.53l-3.74-2.19a1.56,1.56,0,0,0-1.57,0l-3.66,2.11a.78.78,0,0,0,0,1.34l3.61,2.22a1.56,1.56,0,0,0,1.6,0l3.75-2.15a.78.78,0,0,0,0-1.33Z" style="fill: #d4daed"/>
        <path id="f12c053a-0c73-46fe-bba7-ef8df9877fc6" data-name="2a4cea5a-f0b8-4e28-ae21-bc75d9eef5f3" d="M126.6,136.24,122.88,134a1.56,1.56,0,0,0-1.57,0l-3.66,2.11a.78.78,0,0,0,0,1.34l3.64,2.23a1.56,1.56,0,0,0,1.6,0l3.75-2.15a.78.78,0,0,0,0-1.34Z" style="fill: #d4daed"/>
        <path id="8e33cf65-b8de-4d8e-8ee3-868c92b7bf91" data-name="d7f71cf2-b897-4eab-9b2a-06134d097bf4" d="M119,140.72l-3.74-2.19a1.56,1.56,0,0,0-1.57,0L110,140.64a.78.78,0,0,0,0,1.33l3.64,2.23a1.56,1.56,0,0,0,1.6,0l3.73-2.14a.78.78,0,0,0,0-1.34Z" style="fill: #d4daed"/>
        <path id="1b773f61-0428-4091-9c02-d2fa7523e27d" data-name="22ad8c16-a97f-45dd-b36a-f14df881a02a" d="M111.23,145.47l-3.74-2.19a1.56,1.56,0,0,0-1.57,0l-3.66,2.19a.78.78,0,0,0,0,1.34l3.59,2.18a1.56,1.56,0,0,0,1.6,0l3.75-2.16a.78.78,0,0,0,0-1.36Z" style="fill: #d4daed"/>
        <path id="4331dfaa-72ae-4ea9-b6e1-d13bc77c2fca" data-name="11493f4f-a83e-4b37-ac03-00bb2371affa" d="M103,150l-3.74-2.19a1.56,1.56,0,0,0-1.57,0L94,150a.78.78,0,0,0,0,1.33l3.62,2.18a1.56,1.56,0,0,0,1.6,0l3.75-2.16a.79.79,0,0,0,.17-1.09A.94.94,0,0,0,103,150Z" style="fill: #d4daed"/>
        <path id="7069aaca-46c4-4ec2-8dc1-22ad499f5a44" data-name="4dcf63ed-6f3c-41fd-b3d2-dff869cbf114" d="M94.84,154.64l-3.74-2.19a1.56,1.56,0,0,0-1.57,0l-3.66,2.11a.78.78,0,0,0,0,1.33l3.64,2.23a1.56,1.56,0,0,0,1.6,0L94.84,156a.78.78,0,0,0,0-1.34Z" style="fill: #d4daed"/>
        <path id="7c1d88d0-5fc5-4bf2-ada3-bff28c09c5c3" data-name="61c50095-f50f-4f16-bf1e-917eec2e5a64" d="M86.89,159.49l-3.74-2.19a1.56,1.56,0,0,0-1.57,0l-3.66,2.11a.78.78,0,0,0,0,1.33L81.57,163a1.56,1.56,0,0,0,1.6,0l3.75-2.15a.78.78,0,0,0,0-1.33Z" style="fill: #d4daed"/>
        <path id="437feeeb-8900-4826-87a7-7e5f35e14dfc" data-name="5bf47a49-6b5e-4126-8ba0-9105bc745731" d="M78.22,164.63l-3.74-2.19a1.56,1.56,0,0,0-1.57,0l-3.66,2.11a.78.78,0,0,0,0,1.33l3.64,2.23a1.56,1.56,0,0,0,1.6,0L78.24,166a.78.78,0,0,0,0-1.33Z" style="fill: #d4daed"/>
        <path id="b987d12e-8394-4799-9208-ad61307291b2" data-name="8be98622-5815-4c1a-a3a4-c3441f612dcf" d="M70.38,168.89l-3.74-2.19a1.56,1.56,0,0,0-1.57,0l-3.66,2.11a.78.78,0,0,0,0,1.34L65,172.38a1.56,1.56,0,0,0,1.6,0l3.75-2.15a.78.78,0,0,0,0-1.34Z" style="fill: #d4daed"/>
      </g>
      <g id="1ff0aff5-dab8-4b4e-935f-3a43e46e1690" data-name="8340c08f-662d-4ce9-be61-00ad3621a7e8">
        <path id="315cc6ca-a3cb-4aea-9a51-a5d29930f47d" data-name="30073e9a-bc68-4c67-b8de-c60df58a8c8e" d="M160.09,126.68l-3.74-2.19a1.56,1.56,0,0,0-1.57,0l-3.66,2.11a.78.78,0,0,0,0,1.33l3.64,2.23a1.56,1.56,0,0,0,1.6,0l3.75-2.15a.78.78,0,0,0,0-1.33Z" style="fill: #d4daed"/>
        <path id="1bf098a7-8a16-4803-a837-07988854c0cf" data-name="7bd2389d-c8a7-4e33-89ad-3f1baf44e60c" d="M151.72,131.5,148,129.3a1.56,1.56,0,0,0-1.57,0l-3.66,2.14a.78.78,0,0,0,0,1.33l3.64,2.23a1.56,1.56,0,0,0,1.6,0l3.75-2.15a.78.78,0,0,0,0-1.36Z" style="fill: #d4daed"/>
        <path id="b3292542-e01d-46c7-ac86-d408fb3fa8ed" data-name="96ba2a31-5815-490e-bc06-7a8eb1cc983a" d="M143.59,136.06l-3.74-2.19a1.56,1.56,0,0,0-1.57,0L134.62,136a.78.78,0,0,0,0,1.33l3.64,2.23a1.56,1.56,0,0,0,1.6,0l3.73-2.09a.78.78,0,0,0,0-1.39Z" style="fill: #d4daed"/>
        <path id="52f86bbe-262f-4fda-bb3a-5c01a94a5840" data-name="6bee749f-ef61-4330-95c5-584493fa322d" d="M134.9,140.77l-3.74-2.19a1.56,1.56,0,0,0-1.57,0l-3.66,2.11a.78.78,0,0,0,0,1.33l3.64,2.23a1.56,1.56,0,0,0,1.6,0l3.73-2.13a.78.78,0,0,0,0-1.35Z" style="fill: #d4daed"/>
        <path id="e0bb4cac-acea-47ee-8461-4786a8911c6b" data-name="84d431f3-1ae7-4296-b328-cdcd02582d64" d="M126.6,145.75l-3.72-2.19a1.56,1.56,0,0,0-1.57,0l-19,11a.78.78,0,0,0,0,1.33l3.58,2.2a1.56,1.56,0,0,0,1.6,0l19.11-11a.78.78,0,0,0,0-1.34Z" style="fill: #d4daed"/>
        <path id="516f566c-b9ce-487f-b0e4-15404334da82" data-name="fdc1c795-fb07-4380-a2b7-be5391e5854b" d="M103.2,159.17,99.46,157a1.56,1.56,0,0,0-1.57,0l-3.66,2.11a.78.78,0,0,0,0,1.33l3.61,2.23a1.56,1.56,0,0,0,1.6,0l3.75-2.16a.78.78,0,0,0,0-1.32Z" style="fill: #d4daed"/>
        <path id="d0cca5b2-6a26-4033-b661-e321d40850e0" data-name="0f55b883-4537-4542-8a39-b03bc238bf05" d="M95.24,164.06l-3.74-2.19a1.56,1.56,0,0,0-1.57,0L86.27,164a.78.78,0,0,0,0,1.34l3.61,2.18a1.56,1.56,0,0,0,1.6,0l3.75-2.15a.78.78,0,0,0,0-1.29Z" style="fill: #d4daed"/>
        <path id="d4a563c5-4697-40e2-a8c2-eddc9027cf04" data-name="780521f7-7f65-4ead-a50a-5e1a01f42b6b" d="M86.56,169.17,82.83,167a1.56,1.56,0,0,0-1.57,0l-3.66,2.11a.78.78,0,0,0,0,1.34l3.64,2.23a1.56,1.56,0,0,0,1.6,0l3.72-2.15a.78.78,0,0,0,0-1.34Z" style="fill: #d4daed"/>
        <path id="54588aff-2e3b-45a7-845c-15434797920a" data-name="5df28a04-4a97-40f5-8f72-6b58a06b0538" d="M78.71,173.42,75,171.23a1.56,1.56,0,0,0-1.57,0l-3.66,2.11a.78.78,0,0,0,0,1.33l3.64,2.23a1.56,1.56,0,0,0,1.6,0l3.75-2.15a.78.78,0,0,0,0-1.33Z" style="fill: #d4daed"/>
      </g>
    </g>
    <g>
      <polygon id="9a1bb63c-1e50-4c24-bd91-ff940abcb204" data-name="024eb34c-aa00-4420-96a1-7a0cb1e4bc28" points="53.08 73.67 29.84 87.08 29.84 92.98 53.08 79.57 53.08 73.67" style="fill: #e3e7f3"/>
      <polygon id="032a4d47-8dcd-48a4-b62d-f395e43ebddc" data-name="4c2399d2-a6c7-465f-90de-37a13f774ec2" points="73.42 72.03 29.84 97.28 29.84 101.07 73.42 75.83 73.42 72.03" style="fill: #e3e7f3"/>
      <polygon id="3c0381d6-c09f-45fa-9c4f-f7c519dcc1c1" data-name="2b28b8e5-ef11-4b43-82a9-75bcae00d60a" points="73.42 79 29.84 104.25 29.84 108.04 73.42 82.79 73.42 79" style="fill: #e3e7f3"/>
      <polygon id="6c053cf4-acdb-4350-889b-f498948eeb50" data-name="7065594c-ae67-4709-8f92-4f07187710e3" points="117.24 77.76 73.67 103.01 73.67 106.81 117.24 81.56 117.24 77.76" style="fill: #e3e7f3"/>
      <polygon id="56797d30-10f8-4a3d-b8f0-9709b93348e3" data-name="4e041a18-350d-4837-9cbf-aed3cbb242cf" points="117.24 70.6 73.67 95.85 73.67 99.64 117.24 74.38 117.24 70.6" style="fill: #e3e7f3"/>
      <polygon id="bbfe662c-29cf-4ed2-b00c-3042bc0cf0ed" data-name="dc571cb8-7535-488d-9247-9d5d3a21777e" points="117.24 84.73 73.67 109.98 73.67 113.78 117.24 88.53 117.24 84.73" style="fill: #e3e7f3"/>
    </g>
    <g>
      <g style="opacity: 0.790000021457672">
        <path id="2424ae9c-4e49-45c2-a5a6-c0f336964e37" data-name="9a8b8595-2e6d-47d9-802e-f25aaeaeecbb" d="M179.82,195.84a1,1,0,0,0,0-1.87L162.1,183.73a3.6,3.6,0,0,0-3.25,0L141.12,194a1,1,0,0,0,0,1.87l17.73,10.24a3.6,3.6,0,0,0,3.25,0Z" style="fill: #fff;fill-opacity: 0"/>
        <path d="M179.66,195.83a1,1,0,0,0,0-1.85l-17.58-10.15a3.57,3.57,0,0,0-3.22,0L141.29,194a1,1,0,0,0,0,1.85L158.87,206a3.57,3.57,0,0,0,3.22,0Z" style="fill: #f5f4f6;opacity: 0.024390000849962;isolation: isolate"/>
        <path d="M179.5,195.82a1,1,0,0,0,0-1.84l-17.43-10a3.54,3.54,0,0,0-3.19,0l-17.43,10a1,1,0,0,0,0,1.84l17.43,10a3.54,3.54,0,0,0,3.19,0Z" style="fill: #eeecef;opacity: 0.048780001699924;isolation: isolate"/>
        <path d="M179.34,195.81a1,1,0,0,0,0-1.82l-17.28-10a3.51,3.51,0,0,0-3.16,0l-17.28,10a1,1,0,0,0,0,1.82l17.31,10a3.51,3.51,0,0,0,3.16,0Z" style="fill: #e7e6ea;opacity: 0.073170997202396;isolation: isolate"/>
        <path d="M179.17,195.8a1,1,0,0,0,0-1.8L162,184.11a3.48,3.48,0,0,0-3.14,0L141.78,194a1,1,0,0,0,0,1.8l17.16,9.9a3.48,3.48,0,0,0,3.14,0Z" style="fill: #e2dfe5;opacity: 0.097561001777649;isolation: isolate"/>
        <path d="M179,195.8a1,1,0,0,0,0-1.79l-17-9.81a3.45,3.45,0,0,0-3.1,0l-17,9.81a1,1,0,0,0,0,1.79l17.13,9.77a3.45,3.45,0,0,0,3.1,0Z" style="fill: #dcd9e0;opacity: 0.121950998902321;isolation: isolate"/>
        <path d="M178.85,195.79a.94.94,0,0,0,0-1.77L162,184.3a3.42,3.42,0,0,0-3.07,0L142.1,194a.94.94,0,0,0,0,1.77l16.84,9.72a3.42,3.42,0,0,0,3.07,0Z" style="fill: #d6d3db;opacity: 0.146340996026993;isolation: isolate"/>
        <path d="M178.68,195.78a.93.93,0,0,0,0-1.76L162,184.38a3.39,3.39,0,0,0-3,0L142.3,194a.93.93,0,0,0,0,1.76l16.64,9.64a3.39,3.39,0,0,0,3,0Z" style="fill: #d1ced7;opacity: 0.170732006430626;isolation: isolate"/>
        <path d="M178.52,195.77a.92.92,0,0,0,0-1.74l-16.58-9.5a3.36,3.36,0,0,0-3,0l-16.54,9.55a.92.92,0,0,0,0,1.74l16.54,9.5a3.36,3.36,0,0,0,3,0Z" style="fill: #cbc8d2;opacity: 0.195122003555298;isolation: isolate"/>
        <path d="M178.36,195.77a.91.91,0,0,0,0-1.73l-16.42-9.51a3.33,3.33,0,0,0-3,0L142.55,194a.91.91,0,0,0,0,1.73l16.39,9.51a3.33,3.33,0,0,0,3,0Z" style="fill: #c6c3ce;opacity: 0.21951200067997;isolation: isolate"/>
        <path d="M178.19,195.76a.9.9,0,0,0,0-1.71l-16.25-9.38a3.3,3.3,0,0,0-3,0L142.7,194a.9.9,0,0,0,0,1.71l16.24,9.38a3.3,3.3,0,0,0,3,0Z" style="fill: #c1beca;opacity: 0.243901997804642;isolation: isolate"/>
        <path d="M178,195.75a.9.9,0,0,0,0-1.69l-16.09-9.29a3.27,3.27,0,0,0-2.93,0l-16.1,9.29a.9.9,0,0,0,0,1.69L159,205a3.27,3.27,0,0,0,2.93,0Z" style="fill: #bcb9c6;opacity: 0.268292993307114;isolation: isolate"/>
        <path d="M177.87,195.74a.89.89,0,0,0,0-1.68l-15.93-9.19a3.24,3.24,0,0,0-2.91,0l-15.94,9.2a.89.89,0,0,0,0,1.68L159,205a3.23,3.23,0,0,0,2.91,0Z" style="fill: #b8b4c2;opacity: 0.292683005332947;isolation: isolate"/>
        <path d="M177.71,195.73a.88.88,0,0,0,0-1.66L161.94,185a3.2,3.2,0,0,0-2.88,0l-15.79,9.11a.88.88,0,0,0,0,1.66l15.79,9.11a3.21,3.21,0,0,0,2.88,0Z" style="fill: #b3afbe;opacity: 0.317072987556458;isolation: isolate"/>
        <path d="M177.54,195.73a.87.87,0,0,0,0-1.65l-15.64-9a3.17,3.17,0,0,0-2.85,0l-15.64,9a.87.87,0,0,0,0,1.65l15.64,9a3.17,3.17,0,0,0,2.85,0Z" style="fill: #aeaaba;opacity: 0.341462999582291;isolation: isolate"/>
        <path d="M177.38,195.72a.86.86,0,0,0,0-1.63l-15.48-8.94a3.14,3.14,0,0,0-2.83,0l-15.48,8.94a.86.86,0,0,0,0,1.63l15.48,8.94a3.14,3.14,0,0,0,2.83,0Z" style="fill: #aaa5b6;opacity: 0.365853995084763;isolation: isolate"/>
        <path d="M177.22,195.71a.85.85,0,0,0,0-1.62l-15.33-8.85a3.11,3.11,0,0,0-2.8,0l-15.33,8.85a.85.85,0,0,0,0,1.62l15.33,8.85a3.11,3.11,0,0,0,2.8,0Z" style="fill: #a5a0b2;opacity: 0.390244007110596;isolation: isolate"/>
        <path d="M177,195.7a.85.85,0,0,0,0-1.6l-15.18-8.76a3.07,3.07,0,0,0-2.77,0l-15.17,8.76a.85.85,0,0,0,0,1.6l15.18,8.76a3.07,3.07,0,0,0,2.77,0Z" style="fill: #a19caf;opacity: 0.414633989334106;isolation: isolate"/>
        <path d="M176.89,195.69a.84.84,0,0,0,0-1.58l-15-8.68a3,3,0,0,0-2.74,0l-15,8.68a.84.84,0,0,0,0,1.58l15,8.68a3,3,0,0,0,2.74,0Z" style="fill: #9d97ab;opacity: 0.43902400135994;isolation: isolate"/>
        <path d="M176.73,195.69a.83.83,0,0,0,0-1.57l-14.89-8.58a3,3,0,0,0-2.72,0l-14.88,8.59a.83.83,0,0,0,0,1.57l14.88,8.59a3,3,0,0,0,2.72,0Z" style="fill: #9893a8;opacity: 0.463414996862412;isolation: isolate"/>
        <path d="M176.56,195.68a.82.82,0,0,0,0-1.55l-14.73-8.51a3,3,0,0,0-2.69,0l-14.73,8.51a.82.82,0,0,0,0,1.55l14.73,8.51a3,3,0,0,0,2.69,0Z" style="fill: #948fa4;opacity: 0.487805008888245;isolation: isolate"/>
        <path d="M176.4,195.67a.81.81,0,0,0,0-1.54l-14.58-8.42a3,3,0,0,0-2.66,0l-14.58,8.42a.81.81,0,0,0,0,1.54l14.57,8.42a3,3,0,0,0,2.66,0Z" style="fill: #908aa1;opacity: 0.512194991111755;isolation: isolate"/>
        <path d="M176.24,195.66a.8.8,0,0,0,0-1.52l-14.44-8.33a2.92,2.92,0,0,0-2.63,0l-14.44,8.33a.8.8,0,0,0,0,1.52L159.16,204a2.92,2.92,0,0,0,2.63,0Z" style="fill: #8c869d;opacity: 0.536584973335266;isolation: isolate"/>
        <path d="M176.08,195.66a.8.8,0,0,0,0-1.51l-14.29-8.25a2.89,2.89,0,0,0-2.61,0l-14.25,8.25a.8.8,0,0,0,0,1.51l14.29,8.25a2.89,2.89,0,0,0,2.61,0Z" style="fill: #88829a;opacity: 0.560976028442383;isolation: isolate"/>
        <path d="M175.91,195.65a.79.79,0,0,0,0-1.49L161.76,186a2.86,2.86,0,0,0-2.58,0L145,194.16a.79.79,0,0,0,0,1.49l14.14,8.16a2.86,2.86,0,0,0,2.58,0Z" style="fill: #847f97;opacity: 0.585366010665894;isolation: isolate"/>
        <path d="M175.75,195.64a.78.78,0,0,0,0-1.47l-14-8.07a2.83,2.83,0,0,0-2.55,0l-14,8.07a.78.78,0,0,0,0,1.47l14,8.07a2.83,2.83,0,0,0,2.55,0Z" style="fill: #817b94;opacity: 0.609755992889404;isolation: isolate"/>
        <path d="M175.59,195.63a.77.77,0,0,0,0-1.46l-13.84-8a2.8,2.8,0,0,0-2.53,0l-13.84,8a.77.77,0,0,0,0,1.46l13.84,8a2.8,2.8,0,0,0,2.53,0Z" style="fill: #7d7791;opacity: 0.634145975112915;isolation: isolate"/>
        <path d="M175.42,195.62a.76.76,0,0,0,0-1.44l-13.69-7.9a2.77,2.77,0,0,0-2.5,0l-13.69,7.9a.76.76,0,0,0,0,1.44l13.7,7.94a2.77,2.77,0,0,0,2.5,0Z" style="fill: #79748e;opacity: 0.658536970615387;isolation: isolate"/>
        <path d="M175.26,195.62a.75.75,0,0,0,0-1.43l-13.54-7.82a2.74,2.74,0,0,0-2.47,0l-13.54,7.82a.75.75,0,0,0,0,1.43l13.54,7.81a2.74,2.74,0,0,0,2.47,0Z" style="fill: #76708b;opacity: 0.682927012443543;isolation: isolate"/>
        <path d="M175.1,195.61a.75.75,0,0,0,0-1.41l-13.39-7.73a2.71,2.71,0,0,0-2.44,0l-13.39,7.73a.75.75,0,0,0,0,1.41l13.39,7.73a2.71,2.71,0,0,0,2.44,0Z" style="fill: #726d88;opacity: 0.707316994667053;isolation: isolate"/>
        <path d="M175,195.6a.74.74,0,0,0,0-1.39l-13.28-7.67a2.68,2.68,0,0,0-2.42,0L146,194.18a.74.74,0,0,0,0,1.39l13.24,7.64a2.68,2.68,0,0,0,2.42,0Z" style="fill: #6f6986;opacity: 0.731706976890564;isolation: isolate"/>
        <path d="M174.77,195.55a.73.73,0,0,0,0-1.38l-13.09-7.56a2.65,2.65,0,0,0-2.39,0l-13.09,7.56a.73.73,0,0,0,0,1.38l13.09,7.56a2.65,2.65,0,0,0,2.39,0Z" style="fill: #6b6683;opacity: 0.756097972393036;isolation: isolate"/>
        <path d="M174.61,195.55a.72.72,0,0,0,0-1.36l-12.94-7.47a2.62,2.62,0,0,0-2.36,0l-12.94,7.47a.72.72,0,0,0,0,1.36L159.3,203a2.62,2.62,0,0,0,2.36,0Z" style="fill: #686380;opacity: 0.780488014221191;isolation: isolate"/>
        <path d="M174.44,195.55a.71.71,0,0,0,0-1.35l-12.8-7.36a2.59,2.59,0,0,0-2.33,0l-12.79,7.38a.71.71,0,0,0,0,1.35L159.31,203a2.59,2.59,0,0,0,2.33,0Z" style="fill: #64607e;opacity: 0.804877996444702;isolation: isolate"/>
        <path d="M174.27,195.55a.7.7,0,0,0,0-1.33l-12.64-7.3a2.56,2.56,0,0,0-2.31,0l-12.64,7.3a.7.7,0,0,0,0,1.33l12.64,7.3a2.56,2.56,0,0,0,2.31,0Z" style="fill: #615d7b;opacity: 0.829267978668213;isolation: isolate"/>
        <path d="M174.11,195.55a.7.7,0,0,0,0-1.32L161.62,187a2.53,2.53,0,0,0-2.28,0l-12.49,7.21a.7.7,0,0,0,0,1.32l12.49,7.21a2.53,2.53,0,0,0,2.28,0Z" style="fill: #5d5a79;opacity: 0.853658974170685;isolation: isolate"/>
        <path d="M174,195.55a.69.69,0,0,0,0-1.3l-12.34-7.13a2.5,2.5,0,0,0-2.25,0L147,194.25a.69.69,0,0,0,0,1.3l12.34,7.13a2.5,2.5,0,0,0,2.25,0Z" style="fill: #5a5776;opacity: 0.87804901599884;isolation: isolate"/>
        <path d="M173.78,195.55a.68.68,0,0,0,0-1.28l-12.2-7a2.47,2.47,0,0,0-2.23,0l-12.2,7a.68.68,0,0,0,0,1.28l12.2,7a2.47,2.47,0,0,0,2.23,0Z" style="fill: #565474;opacity: 0.902438998222351;isolation: isolate"/>
        <path d="M173.62,195.55a.67.67,0,0,0,0-1.27l-12-7a2.44,2.44,0,0,0-2.2,0l-12,7a.67.67,0,0,0,0,1.27l12,7a2.44,2.44,0,0,0,2.2,0Z" style="fill: #535172;opacity: 0.926828980445862;isolation: isolate"/>
        <path d="M173.46,195.55a.66.66,0,0,0,0-1.25l-11.9-6.87a2.41,2.41,0,0,0-2.17,0l-11.9,6.87a.66.66,0,0,0,0,1.25l11.9,6.87a2.41,2.41,0,0,0,2.17,0Z" style="fill: #4f4e6f;opacity: 0.951219975948334;isolation: isolate"/>
        <path d="M173.29,195.55a.65.65,0,0,0,0-1.24l-11.74-6.77a2.38,2.38,0,0,0-2.14,0l-11.75,6.78a.65.65,0,0,0,0,1.24l11.75,6.78a2.38,2.38,0,0,0,2.14,0Z" style="fill: #4c4b6d;opacity: 0.975610017776489;isolation: isolate"/>
        <path id="e4a082f5-6ae0-4bb4-a718-d65de14d9050" data-name="02a7dfb0-0bd9-4eaf-90ae-325559f3c490" d="M173.13,195.55a.65.65,0,0,0,0-1.22l-11.6-6.69a2.35,2.35,0,0,0-2.12,0l-11.6,6.69a.65.65,0,0,0,0,1.22l11.6,6.69a2.35,2.35,0,0,0,2.12,0Z" style="fill: #49486b"/>
      </g>
      <g id="f075e0ec-8378-4082-ab71-b99ba21ec97f" data-name="e99c890b-dc88-4ad4-9c9e-8e9162721fd9">
        <polygon id="05e59b3b-d492-423b-b5d0-42dbf983c376" data-name="f609ae50-83b8-4cda-a4e9-5bab348217bb" points="178 186.58 160.62 176.55 143.25 186.58 160.62 196.61 178 186.58" style="fill: #ebeef6"/>
        <polygon id="f8877ae2-7622-4a0f-94c1-23f02d1abc59" data-name="8fbed409-db35-4841-9e88-c8877e1d7452" points="178 186.58 178 194.11 160.62 204.13 160.62 196.61 178 186.58" style="fill: #e3e7f3"/>
        <polygon id="7d6712fa-a068-4588-b06e-0403ec863f09" data-name="a549895c-2b7b-4f7e-8139-92794a8fc84b" points="177.19 188.39 177.19 190.28 172.81 192.8 172.81 190.91 177.19 188.39" style="fill: #fff"/>
        <polygon id="055ec72b-d407-4e7e-826e-2fa8474d83e0" data-name="d1b80068-cbd0-43d9-8708-8cbe83c694eb" points="160.62 204.13 143.25 194.11 143.25 186.58 160.62 196.61 160.62 204.13" style="fill: #dbe0f0"/>
        <polygon id="90d84351-8a1d-40e8-ae6a-3581c8d9a271" data-name="231b2773-29f7-42ff-a7b2-2f0976928893" points="171.05 198.12 171.05 190.59 167.57 192.6 167.57 200.13 171.05 198.12" style="fill: url(#56f615fe-fd74-4f17-a55f-9bdcc45a12bf)"/>
        <polygon id="a473a967-edd4-40d3-b69d-e02b65bc5983" data-name="8f3bfe13-484a-45f3-b3eb-951af639c127" points="171.05 190.59 153.67 180.6 150.08 182.56 167.57 192.6 171.05 190.59" style="fill: url(#f40a673f-44f8-44e6-ad5e-3f90fcf7bec1)"/>
      </g>
    </g>
    <g>
      <g style="opacity: 0.790000021457672">
        <path id="a3a85e5c-ec21-48e2-8c30-e7259ec60925" data-name="d4e6bb03-54cd-487f-b29b-cfa993eafe19" d="M150.52,218.21a1,1,0,0,0,0-1.87L132.79,206.1a3.6,3.6,0,0,0-3.25,0l-17.68,10.25a1,1,0,0,0,0,1.87l17.73,10.24a3.6,3.6,0,0,0,3.25,0Z" style="fill: #fff;fill-opacity: 0"/>
        <path d="M150.36,218.21a1,1,0,0,0,0-1.85l-17.58-10.15a3.57,3.57,0,0,0-3.22,0L112,216.35a1,1,0,0,0,0,1.85l17.58,10.15a3.57,3.57,0,0,0,3.22,0Z" style="fill: #f5f4f6;opacity: 0.024390000849962;isolation: isolate"/>
        <path d="M150.2,218.2a1,1,0,0,0,0-1.84l-17.43-10a3.54,3.54,0,0,0-3.19,0l-17.43,10a1,1,0,0,0,0,1.84l17.43,10a3.54,3.54,0,0,0,3.19,0Z" style="fill: #eeecef;opacity: 0.048780001699924;isolation: isolate"/>
        <path d="M150,218.19a1,1,0,0,0,0-1.82l-17.28-10a3.51,3.51,0,0,0-3.16,0l-17.28,10a1,1,0,0,0,0,1.82l17.28,10a3.51,3.51,0,0,0,3.16,0Z" style="fill: #e7e6ea;opacity: 0.073170997202396;isolation: isolate"/>
        <path d="M149.87,218.18a1,1,0,0,0,0-1.8l-17.13-9.89a3.48,3.48,0,0,0-3.14,0l-17.13,9.89a1,1,0,0,0,0,1.8l17.13,9.89a3.48,3.48,0,0,0,3.14,0Z" style="fill: #e2dfe5;opacity: 0.097561001777649;isolation: isolate"/>
        <path d="M149.71,218.17a1,1,0,0,0,0-1.79l-17-9.81a3.45,3.45,0,0,0-3.1,0l-17,9.81a1,1,0,0,0,0,1.79l17,9.81a3.45,3.45,0,0,0,3.1,0Z" style="fill: #dcd9e0;opacity: 0.121950998902321;isolation: isolate"/>
        <path d="M149.53,218.17a.94.94,0,0,0,0-1.77l-16.84-9.72a3.42,3.42,0,0,0-3.07,0l-16.84,9.72a.94.94,0,0,0,0,1.77l16.84,9.72a3.42,3.42,0,0,0,3.07,0Z" style="fill: #d6d3db;opacity: 0.146340996026993;isolation: isolate"/>
        <path d="M149.37,218.16a.93.93,0,0,0,0-1.76l-16.68-9.63a3.39,3.39,0,0,0-3,0L113,216.4a.93.93,0,0,0,0,1.76l16.69,9.64a3.39,3.39,0,0,0,3,0Z" style="fill: #d1ced7;opacity: 0.170732006430626;isolation: isolate"/>
        <path d="M149.21,218.15a.92.92,0,0,0,0-1.74l-16.54-9.55a3.36,3.36,0,0,0-3,0l-16.54,9.55a.92.92,0,0,0,0,1.74l16.54,9.55a3.36,3.36,0,0,0,3,0Z" style="fill: #cbc8d2;opacity: 0.195122003555298;isolation: isolate"/>
        <path d="M149.05,218.14a.91.91,0,0,0,0-1.73l-16.39-9.46a3.33,3.33,0,0,0-3,0l-16.39,9.46a.91.91,0,0,0,0,1.73l16.4,9.47a3.33,3.33,0,0,0,3,0Z" style="fill: #c6c3ce;opacity: 0.21951200067997;isolation: isolate"/>
        <path d="M148.92,218.14a.9.9,0,0,0,0-1.71L132.69,207a3.3,3.3,0,0,0-3,0l-16.24,9.38a.9.9,0,0,0,0,1.71l16.24,9.37a3.3,3.3,0,0,0,3,0Z" style="fill: #c1beca;opacity: 0.243901997804642;isolation: isolate"/>
        <path d="M148.72,218.13a.9.9,0,0,0,0-1.69l-16.09-9.28a3.27,3.27,0,0,0-2.93,0l-16.09,9.28a.9.9,0,0,0,0,1.69l16.09,9.28a3.27,3.27,0,0,0,2.93,0Z" style="fill: #bcb9c6;opacity: 0.268292993307114;isolation: isolate"/>
        <path d="M148.56,218.12a.89.89,0,0,0,0-1.68l-15.94-9.2a3.24,3.24,0,0,0-2.91,0l-15.94,9.2a.89.89,0,0,0,0,1.68l15.94,9.2a3.24,3.24,0,0,0,2.91,0Z" style="fill: #b8b4c2;opacity: 0.292683005332947;isolation: isolate"/>
        <path d="M148.39,218.11a.88.88,0,0,0,0-1.66l-15.79-9.11a3.2,3.2,0,0,0-2.88,0l-15.79,9.11a.88.88,0,0,0,0,1.66l15.79,9.11a3.2,3.2,0,0,0,2.88,0Z" style="fill: #b3afbe;opacity: 0.317072987556458;isolation: isolate"/>
        <path d="M148.23,218.1a.87.87,0,0,0,0-1.65l-15.64-9a3.17,3.17,0,0,0-2.85,0l-15.64,9a.87.87,0,0,0,0,1.65l15.64,9a3.17,3.17,0,0,0,2.85,0Z" style="fill: #aeaaba;opacity: 0.341462999582291;isolation: isolate"/>
        <path d="M148.07,218.1a.86.86,0,0,0,0-1.63l-15.48-8.94a3.14,3.14,0,0,0-2.83,0l-15.48,8.94a.86.86,0,0,0,0,1.63L129.75,227a3.14,3.14,0,0,0,2.83,0Z" style="fill: #aaa5b6;opacity: 0.365853995084763;isolation: isolate"/>
        <path d="M147.92,218.09a.85.85,0,0,0,0-1.62l-15.35-8.89a3.11,3.11,0,0,0-2.8,0l-15.33,8.85a.85.85,0,0,0,0,1.62l15.33,8.85a3.11,3.11,0,0,0,2.8,0Z" style="fill: #a5a0b2;opacity: 0.390244007110596;isolation: isolate"/>
        <path d="M147.74,218.08a.85.85,0,0,0,0-1.6l-15.18-8.76a3.07,3.07,0,0,0-2.77,0l-15.18,8.76a.85.85,0,0,0,0,1.6l15.18,8.76a3.07,3.07,0,0,0,2.77,0Z" style="fill: #a19caf;opacity: 0.414633989334106;isolation: isolate"/>
        <path d="M147.58,218.07a.84.84,0,0,0,0-1.58l-15-8.68a3,3,0,0,0-2.74,0l-15,8.68a.84.84,0,0,0,0,1.58l15,8.68a3,3,0,0,0,2.74,0Z" style="fill: #9d97ab;opacity: 0.43902400135994;isolation: isolate"/>
        <path d="M147.42,218.06a.83.83,0,0,0,0-1.57l-14.88-8.59a3,3,0,0,0-2.72,0l-14.88,8.59a.83.83,0,0,0,0,1.57l14.88,8.59a3,3,0,0,0,2.72,0Z" style="fill: #9893a8;opacity: 0.463414996862412;isolation: isolate"/>
        <path d="M147.25,218.06a.82.82,0,0,0,0-1.55L132.52,208a3,3,0,0,0-2.69,0l-14.73,8.51a.82.82,0,0,0,0,1.55l14.73,8.54a3,3,0,0,0,2.69,0Z" style="fill: #948fa4;opacity: 0.487805008888245;isolation: isolate"/>
        <path d="M147.09,218a.81.81,0,0,0,0-1.54l-14.58-8.42a3,3,0,0,0-2.66,0l-14.58,8.42a.81.81,0,0,0,0,1.54l14.58,8.42a3,3,0,0,0,2.66,0Z" style="fill: #908aa1;opacity: 0.512194991111755;isolation: isolate"/>
        <path d="M146.92,218a.8.8,0,0,0,0-1.52l-14.44-8.33a2.92,2.92,0,0,0-2.63,0l-14.44,8.33a.8.8,0,0,0,0,1.52l14.49,8.33a2.92,2.92,0,0,0,2.63,0Z" style="fill: #8c869d;opacity: 0.536584973335266;isolation: isolate"/>
        <path d="M146.76,218a.8.8,0,0,0,0-1.51l-14.29-8.25a2.89,2.89,0,0,0-2.61,0l-14.29,8.25a.8.8,0,0,0,0,1.51l14.33,8.25a2.89,2.89,0,0,0,2.61,0Z" style="fill: #88829a;opacity: 0.560976028442383;isolation: isolate"/>
        <path d="M146.6,218a.79.79,0,0,0,0-1.49l-14.14-8.16a2.86,2.86,0,0,0-2.58,0l-14.14,8.16a.79.79,0,0,0,0,1.49l14.16,8.17a2.86,2.86,0,0,0,2.58,0Z" style="fill: #847f97;opacity: 0.585366010665894;isolation: isolate"/>
        <path d="M146.44,218a.78.78,0,0,0,0-1.47l-14-8.07a2.83,2.83,0,0,0-2.55,0l-14,8.11a.78.78,0,0,0,0,1.47l14,8.07a2.83,2.83,0,0,0,2.55,0Z" style="fill: #817b94;opacity: 0.609755992889404;isolation: isolate"/>
        <path d="M146.27,218a.77.77,0,0,0,0-1.46l-13.84-8a2.8,2.8,0,0,0-2.53,0l-13.84,8a.77.77,0,0,0,0,1.46l13.84,8a2.8,2.8,0,0,0,2.53,0Z" style="fill: #7d7791;opacity: 0.634145975112915;isolation: isolate"/>
        <path d="M146.11,218a.76.76,0,0,0,0-1.44l-13.69-7.9a2.77,2.77,0,0,0-2.5,0l-13.68,7.93a.76.76,0,0,0,0,1.44l13.66,7.87a2.77,2.77,0,0,0,2.5,0Z" style="fill: #79748e;opacity: 0.658536970615387;isolation: isolate"/>
        <path d="M145.92,218a.75.75,0,0,0,0-1.4l-13.54-7.82a2.74,2.74,0,0,0-2.47,0l-13.51,7.82a.75.75,0,0,0,0,1.43l13.5,7.79a2.74,2.74,0,0,0,2.47,0Z" style="fill: #76708b;opacity: 0.682927012443543;isolation: isolate"/>
        <path d="M145.79,218a.75.75,0,0,0,0-1.41l-13.39-7.73a2.71,2.71,0,0,0-2.44,0l-13.4,7.74a.75.75,0,0,0,0,1.41l13.39,7.73a2.71,2.71,0,0,0,2.44,0Z" style="fill: #726d88;opacity: 0.707316994667053;isolation: isolate"/>
        <path d="M145.62,218a.74.74,0,0,0,0-1.4l-13.24-7.64a2.68,2.68,0,0,0-2.42,0l-13.24,7.65a.74.74,0,0,0,0,1.4L130,225.6a2.68,2.68,0,0,0,2.42,0Z" style="fill: #6f6986;opacity: 0.731706976890564;isolation: isolate"/>
        <path d="M145.46,218a.73.73,0,0,0,0-1.38L132.37,209a2.65,2.65,0,0,0-2.39,0l-13.1,7.56a.73.73,0,0,0,0,1.38L130,225.53a2.65,2.65,0,0,0,2.39,0Z" style="fill: #6b6683;opacity: 0.756097972393036;isolation: isolate"/>
        <path d="M145.3,218a.72.72,0,0,0,0-1.36l-12.94-7.47a2.62,2.62,0,0,0-2.36,0l-13,7.46a.72.72,0,0,0,0,1.36L130,225.42a2.62,2.62,0,0,0,2.36,0Z" style="fill: #686380;opacity: 0.780488014221191;isolation: isolate"/>
        <path d="M145.13,217.94a.71.71,0,0,0,0-1.35l-12.79-7.38a2.59,2.59,0,0,0-2.33,0l-12.8,7.37a.71.71,0,0,0,0,1.35L130,225.32a2.59,2.59,0,0,0,2.33,0Z" style="fill: #64607e;opacity: 0.804877996444702;isolation: isolate"/>
        <path d="M145,217.94a.7.7,0,0,0,0-1.33l-12.64-7.3a2.56,2.56,0,0,0-2.31,0l-12.64,7.27a.7.7,0,0,0,0,1.33l12.64,7.3a2.56,2.56,0,0,0,2.31,0Z" style="fill: #615d7b;opacity: 0.829267978668213;isolation: isolate"/>
        <path d="M144.81,217.93a.7.7,0,0,0,0-1.32l-12.49-7.21a2.53,2.53,0,0,0-2.28,0l-12.5,7.18a.7.7,0,0,0,0,1.32L130,225.12a2.53,2.53,0,0,0,2.28,0Z" style="fill: #5d5a79;opacity: 0.853658974170685;isolation: isolate"/>
        <path d="M144.64,217.92a.69.69,0,0,0,0-1.3l-12.34-7.13a2.5,2.5,0,0,0-2.25,0l-12.35,7.09a.69.69,0,0,0,0,1.3L130,225a2.5,2.5,0,0,0,2.25,0Z" style="fill: #5a5776;opacity: 0.87804901599884;isolation: isolate"/>
        <path d="M144.48,217.91a.68.68,0,0,0,0-1.28l-12.2-7a2.47,2.47,0,0,0-2.23,0l-12.17,7a.68.68,0,0,0,0,1.28l12.2,7a2.47,2.47,0,0,0,2.23,0Z" style="fill: #565474;opacity: 0.902438998222351;isolation: isolate"/>
        <path d="M144.32,217.9a.67.67,0,0,0,0-1.27l-12-7a2.44,2.44,0,0,0-2.2,0l-12,7a.67.67,0,0,0,0,1.27l12,7a2.44,2.44,0,0,0,2.2,0Z" style="fill: #535172;opacity: 0.926828980445862;isolation: isolate"/>
        <path d="M144.16,217.9a.66.66,0,0,0,0-1.25l-11.9-6.87a2.41,2.41,0,0,0-2.17,0l-11.9,6.87a.66.66,0,0,0,0,1.25l11.9,6.87a2.41,2.41,0,0,0,2.17,0Z" style="fill: #4f4e6f;opacity: 0.951219975948334;isolation: isolate"/>
        <path d="M144,217.89a.65.65,0,0,0,0-1.24l-11.75-6.78a2.38,2.38,0,0,0-2.14,0l-11.75,6.78a.65.65,0,0,0,0,1.24l11.75,6.78a2.38,2.38,0,0,0,2.14,0Z" style="fill: #4c4b6d;opacity: 0.975610017776489;isolation: isolate"/>
        <path id="2c94f950-138c-49ff-9349-54adbbbdf66a" data-name="880220bd-a18c-4351-bcb8-31d0ee5f3b0a" d="M143.83,217.88a.65.65,0,0,0,0-1.22L132.23,210a2.35,2.35,0,0,0-2.12,0l-11.6,6.69a.65.65,0,0,0,0,1.22l11.61,6.71a2.35,2.35,0,0,0,2.12,0Z" style="fill: #49486b"/>
      </g>
      <polygon id="11539f4f-db1f-4f8d-966f-f7e051c34506" data-name="210e1165-be1e-4d77-9b6a-8dc98aa020d6" points="147.47 198.53 131.41 189.26 115.35 198.53 131.41 207.81 147.47 198.53" style="fill: #ebeef6"/>
      <polygon id="b2ed58f1-38ca-43a1-adac-29bb534b46d6" data-name="4ddb1751-4693-4332-afd8-29e61caf8a3a" points="147.47 198.53 147.47 217.07 131.41 226.35 131.41 207.81 147.47 198.53" style="fill: #e3e7f3"/>
      <polygon id="96f869f5-3474-4f58-b1c8-5b6d482ee31d" data-name="4fe2568e-b2ca-4ad4-b8f6-fd02ee6e1ab4" points="131.41 226.35 115.35 217.07 115.35 198.53 131.41 207.81 131.41 226.35" style="fill: #dbe0f0"/>
      <polygon id="a3595c54-0377-4174-9e5a-e12febed9a09" data-name="228e1888-3a83-403c-ae90-48c8124b804a" points="141.04 220.78 141.04 202.24 137.84 204.09 137.84 222.64 141.04 220.78" style="fill: #555373"/>
      <polygon id="6b5d1974-44d2-4152-bde3-34aa9be7b288" data-name="b2496736-bd13-4393-9d8e-433d35887136" points="141.04 202.24 124.97 193 121.66 194.81 137.84 204.09 141.04 202.24" style="fill: #65617e"/>
      <polygon id="46b4f6ad-f10a-4245-bb44-589c65356a45" data-name="c99e3cbc-881c-4e7f-936b-f127c16dcc29" points="140.9 194.74 124.98 204.09 121.8 202.18 137.65 192.82 140.9 194.74" style="fill: #65617e"/>
      <polygon id="08dde795-5c42-40bc-a9c6-7e481b8d6d74" data-name="29098f1c-a32f-4338-97d0-5434d18123de" points="124.98 204.09 124.98 222.64 121.8 220.8 121.8 202.18 124.98 204.09" style="fill: #49486b"/>
      <path id="deb157bf-c370-42f2-bb03-b102402a9eea" data-name="1b618db3-4f46-4fcd-80cc-10a474bde0c7" d="M122.88,198.24h0a6.8,6.8,0,0,1,4.28-.94l2.94.32,2.43,1.23-6.61,3.59-3-1.42a1.6,1.6,0,0,1,0-2.77Z" style="fill: #49486b"/>
      <path id="f5e30563-e0ee-462d-b232-95b1c4d0f068" data-name="a913d4af-0d0c-40b3-9939-e4ba2e582acd" d="M131.25,194.89a6.8,6.8,0,0,1,2.88-3.3,1.58,1.58,0,0,1,1.44-.08h.05l.12.06,2.46,1.26-5.67,6-2.43-1.23Z" style="fill: #49486b"/>
      <path id="39a12672-730e-4a7e-8cbf-6eb93f4a21d9" data-name="6a9dcd9c-ee3f-4094-b2eb-bf0ed33ee4f8" d="M132.55,198.85l5.62-3.25a1.6,1.6,0,0,0,.8-1.39h0a1.6,1.6,0,0,0-2.41-1.39h0a6.8,6.8,0,0,0-2.88,3.3Z" style="fill: #feea74"/>
      <path id="98842ea5-d575-45fc-aa45-74b172679969" data-name="4aa42ebb-d3b1-42b5-a9dd-3ec8969f7226" d="M132.55,198.85l5.62-3.25a1.6,1.6,0,0,0,.8-1.39h0a1.6,1.6,0,0,0-2.41-1.39h0a6.8,6.8,0,0,0-2.88,3.3Z" style="fill: #65617e"/>
      <path id="0f771e55-0198-48a0-93f1-86199f273619" data-name="0857d962-ff12-4d92-835b-8973ef702204" d="M138.06,195.43a1.39,1.39,0,0,0-.7-2.59,1.37,1.37,0,0,0-.69.19,6.62,6.62,0,0,0-2.76,3.19l-.89,2.14Z" style="fill: #373750"/>
      <path id="0aa8bb81-f084-44dd-8a4f-5f24da30d862" data-name="705857b2-e9c8-42bc-8cd7-84258b48610c" d="M132.55,198.85,127,202.22a1.6,1.6,0,0,1-1.6,0h0a1.6,1.6,0,0,1-.06-2.78h0a6.8,6.8,0,0,1,4.28-.94Z" style="fill: #65617e"/>
      <path id="bb666f17-6483-4612-bcdb-767511c79f14" data-name="97315c06-1602-4ffb-8a4b-3f2f41d32dcb" d="M126.16,202.24a1.39,1.39,0,0,0,.72-.2l5-3-2.31-.25a6.58,6.58,0,0,0-4.14.91,1.39,1.39,0,0,0,.72,2.57Z" style="fill: #373750"/>
    </g>
    <g id="d0568737-67f9-4d99-b771-1cf00d923591" data-name="ed3645cf-0025-4707-bf3b-36d13702b0df">
      <path id="86cdfa8d-7d42-4de0-a773-cee5a268f6a0" data-name="6811f752-fb84-4655-9731-13eaffcdcec9" d="M79.44,58.62a4.35,4.35,0,0,0-2,3.4V80.73c0,1.24.88,1.75,2,1.13l36.34-21a4.28,4.28,0,0,0,1.93-3.4l-.24-18.55c0-1.24-.91-1.75-2-1.13Z" style="fill: #f7f8fc"/>
      <path d="M79.44,58.62l36.06-20.8c.74-.43,1.39-.31,1.73.2a1.44,1.44,0,0,0-1.27.18L79.9,59a4.35,4.35,0,0,0-2,3.4V81.11a1.67,1.67,0,0,0,.25.93,1.29,1.29,0,0,1-.7-1.31V62A4.35,4.35,0,0,1,79.44,58.62Z" style="fill: url(#12a68d09-0c2a-40ed-b2ee-addd428700cf)"/>
      <g id="3a686771-f4a5-4d98-bfd6-9ad06e1f6447" data-name="1b5f3e18-fc7a-4f4c-ba0f-03a18ca18db8">
        <path id="efdeffe4-3658-4651-b5ea-60ebd8768f13" data-name="91b58693-39c2-4291-a012-0cfc3ba3fdb4" d="M85.59,59.66a14.29,14.29,0,0,0-6.44,11.16c0,4.1,2.9,5.83,6.44,3.87S92,67.67,92,63.53,89.14,57.62,85.59,59.66Z" style="fill: url(#0bc9ebaa-6da9-45b0-8b1c-9c6daec105c4)"/>
        <path id="b42c9419-f9e0-47a2-939a-ffb834ad4380" data-name="10f8ea20-fe75-45a6-bc09-533c661e74f8" d="M84.09,70.44a1.43,1.43,0,0,0,2.33,1.35,5,5,0,0,0,2.24-4Z" style="fill: #fff"/>
        <path id="a5284bba-52db-4628-948a-232d8c231636" data-name="81506b0c-054f-4bc1-9f77-0a4906d6b0f5" d="M88.53,63.25a1.58,1.58,0,0,0-.71,1.23c0,.45.32.64.71.43a1.55,1.55,0,0,0,.71-1.23C89.24,63.21,88.92,63,88.53,63.25Z" style="fill: #49486b"/>
        <path id="d3a32c13-b083-430b-b860-7b84b6be857b" data-name="b6d2f60a-e5dc-41dc-89b3-2cfcfa51c796" d="M83.88,66a1.58,1.58,0,0,0-.71,1.23c0,.45.32.64.71.43a1.55,1.55,0,0,0,.71-1.23C84.59,66,84.27,65.78,83.88,66Z" style="fill: #49486b"/>
      </g>
      <polygon id="09ed5975-5089-496f-89d4-2ebbe1434f7b" data-name="b60b3713-6044-453f-8842-983b1b4b7937" points="94.14 55.67 94.15 57.41 115.31 45.14 115.31 43.37 94.14 55.67" style="fill: #e3e7f3"/>
      <polygon id="7b9a0b75-f14f-48d1-b731-5373452fadd1" data-name="ac19abf3-ccce-4444-bad0-afdc4387bc5d" points="94.14 59.86 94.15 61.58 115.31 49.32 115.31 47.55 94.14 59.86" style="fill: #e3e7f3"/>
      <polygon id="4b17e6b7-4b90-43a7-80e8-aae8a5144dbb" data-name="0e0e8815-678a-4e9e-811c-28cbebc49c71" points="94.14 64.04 94.15 65.77 115.31 53.51 115.31 51.74 94.14 64.04" style="fill: #e3e7f3"/>
      <polygon id="db160ace-c883-4faf-8431-17007fb7712d" data-name="0001d999-3cd5-40b4-8b3e-ec0da4f5df6f" points="103.99 62.55 103.99 64.29 115.31 57.77 115.31 55.99 103.99 62.55" style="fill: #e3e7f3"/>
    </g>
    <g id="0e9790ec-29a9-4e2b-88cf-26a3d95f4d05" data-name="82a3b9c3-f0d3-40ba-a76a-dad60004cda4">
      <path id="750bda2a-3d63-4e3c-977f-3d35e400a965" data-name="8304babd-57bf-4ba9-bca1-2ab903cecd4d" d="M70.2,96.07v18.18A3.16,3.16,0,0,1,68.61,117L32.89,137.88a1.78,1.78,0,0,1-2.69-1.53V117.89a3.16,3.16,0,0,1,1.54-2.73L67.47,94.53a1.78,1.78,0,0,1,2.72,1.54Z" style="fill: #49486b"/>
      <path d="M31.74,115.16,67.47,94.53a1.76,1.76,0,0,1,2.06.21,1.74,1.74,0,0,0-1.59.08l-35.69,20.6a3.16,3.16,0,0,0-1.58,2.73v18.44a1.74,1.74,0,0,0,.61,1.33,1.76,1.76,0,0,1-1.08-1.62V117.89A3.16,3.16,0,0,1,31.74,115.16Z" style="fill: url(#7ff1bffa-0145-4958-8ba4-fa2982e1c7d5)"/>
      <polygon id="bb4723ff-35dc-454c-855e-0f9fa52fbf13" data-name="61bc8e4a-a032-4a5c-886e-4397397ddb63" points="50.38 108.95 34.06 118.46 34.06 124.77 50.38 115.26 50.38 108.95" style="fill: url(#50746c4d-4ae1-414a-be3c-805e77b22a5b)"/>
      <polygon id="7591bd04-bd5e-4ad0-96f0-d32a27f03374" data-name="bdd57975-dc6b-4006-873c-bf129b77b196" points="67.49 107.38 34.06 127.01 34.06 129.42 67.49 109.78 67.49 107.38" style="fill: #e3e7f3"/>
      <polygon id="c67a715f-d0c5-49f9-bf59-dbbd8fb11c52" data-name="22c5cb10-e5c3-484b-9a27-c20089323d3c" points="55.48 119.39 34.06 132.02 34.06 134.43 55.48 121.79 55.48 119.39" style="fill: #e3e7f3"/>
    </g>
    <g>
      <g id="434c0e28-7b75-4ef8-86f7-e66d75c54f45" data-name="c1beffbf-4cb9-4487-b7d1-704fc5e6e04d">
        <rect x="173.01" y="12.43" width="0.65" height="87.66" style="fill: #49486b"/>
      </g>
      <g>
        <path id="e89717bf-5167-4a51-9e26-55d6fdbbf18b" data-name="6392e3a0-5481-44c1-9d17-b447c721180d" d="M173,80.34c-5.28-3-9.6-.54-9.6,5.57a21.37,21.37,0,0,0,9.63,16.67c5.3,3.06,9.62.55,9.6-5.57A21.42,21.42,0,0,0,173,80.34Z" style="fill: #5d629e"/>
        <path id="e724d7b5-8dd5-495b-8c3b-50d5b6f7a271" data-name="04943d0c-d5a4-49e8-8bb2-bc572b71c354" d="M172.25,80.34c-5.28-3-9.6-.54-9.6,5.57a21.37,21.37,0,0,0,9.63,16.67c5.3,3.06,9.62.55,9.6-5.57A21.42,21.42,0,0,0,172.25,80.34Z" style="fill: #49486b"/>
        <path id="252167a2-8998-49d5-a0ac-e76bd95ab775" data-name="9ca187d4-e597-4bc6-b8ad-b78d0c45f1db" d="M176.57,93.8a1.35,1.35,0,0,0-.65-.93l-.2-.1c.36.18.64-.08.55-.59a1.35,1.35,0,0,0-.65-.93l-1.45-.72-1.29-.64a2.05,2.05,0,0,1,.11-.59v-.23h0a5.92,5.92,0,0,0,.08-1.06v-1a1.24,1.24,0,0,0-.26-.6.86.86,0,0,0-.28-.23c-.26-.13-.47,0-.51.31a4.24,4.24,0,0,1-.31,1.53L171,89h0l-.52-.26v-.68a.21.21,0,0,0-.1-.16L168.44,87l.16,4.27v2.1l1.89.93h.1v-.59l.33.16h.1l.1.08a1.08,1.08,0,0,1,.15.2l.62,1.06a1.06,1.06,0,0,0,.42.42l2.58,1.27a.37.37,0,0,0,.6-.31,1.3,1.3,0,0,0-.62-1.17l.59.29a.37.37,0,0,0,.6-.31,1.3,1.3,0,0,0-.62-1.17l.62.31C176.38,94.57,176.66,94.31,176.57,93.8Z" style="fill: #fff"/>
      </g>
      <g>
        <path id="568fd8fd-7d8c-4487-9996-63a855e9b591" data-name="c20e1305-72fe-4983-b7a0-d1b949daa4c4" d="M173.38,1.3c-5.28-3-9.6-.54-9.6,5.57a21.37,21.37,0,0,0,9.63,16.67c5.3,3.06,9.62.55,9.6-5.57A21.42,21.42,0,0,0,173.38,1.3Z" style="fill: url(#d8949e81-bae8-48cd-9aad-fbf4d1136345)"/>
        <path id="ae7a17b0-8742-4203-ab35-eacee8a12a4a" data-name="85f21a6f-79ce-4b73-9105-4c10926622a0" d="M172.61,1.3c-5.28-3-9.6-.54-9.6,5.57a21.37,21.37,0,0,0,9.63,16.67c5.3,3.06,9.62.55,9.6-5.57A21.42,21.42,0,0,0,172.61,1.3Z" style="fill: #f7f7f7"/>
        <path id="22b691ab-58be-4ac2-95ec-395c3deb538c" data-name="83c037e8-f149-4b21-ab44-000f30c81677" d="M174.86,7.64l-5.54-3.26a.4.4,0,0,0-.65.37V16a1.43,1.43,0,0,0,.65,1.12l5.54,3.26a.4.4,0,0,0,.65-.37V8.76A1.43,1.43,0,0,0,174.86,7.64Zm0,11.41L169,15.49V6.22l5.95,3.44Z" style="fill: #49486b"/>
      </g>
      <g>
        <path id="37cc4473-2855-4c13-81df-37647547be10" data-name="5562267e-95dc-4a01-9039-8095ee1a8301" d="M173,36.07c-5.28-3-9.6-.54-9.6,5.57a21.37,21.37,0,0,0,9.63,16.67c5.3,3.06,9.62.55,9.6-5.57A21.42,21.42,0,0,0,173,36.07Z" style="fill: #fec111"/>
        <path id="528adbe3-32fb-4b19-bae1-067c1f0c0a7a" data-name="ad64eb7c-a047-4848-8543-04256c21a28f" d="M172.25,36.07c-5.28-3-9.6-.54-9.6,5.57a21.37,21.37,0,0,0,9.63,16.67c5.3,3.06,9.62.55,9.6-5.57A21.42,21.42,0,0,0,172.25,36.07Z" style="fill: #fdd900"/>
        <g id="f9a094db-9aee-4f4c-9302-cb01b89b95b3" data-name="6087fd95-6da1-44c1-ad8e-0a7145053363">
          <g id="f1376348-9103-47c8-83ca-7b56962946be" data-name="9493f783-b51b-4acb-8848-6241bb3e0d2a">
            <path id="62d5ab07-7b76-4743-92be-9084127a7db9" data-name="4e364886-22ad-4d26-a144-b87577e35b45" d="M173,52.3a1.63,1.63,0,0,1-.81-.21l-1.63-.91.49-.85,1.63.91a.65.65,0,0,0,1-.55V49.45a.52.52,0,0,0-.26-.46l-2-1.17a2,2,0,0,1-1-1.73V44.66a1.34,1.34,0,0,1,2-1.16l2,1.16-.49.85-2-1.16a.36.36,0,0,0-.55.31v1.43a1,1,0,0,0,.51.88l2,1.17a1.5,1.5,0,0,1,.75,1.3v1.24A1.63,1.63,0,0,1,173,52.32Z" style="fill: #fff"/>
          </g>
          <g id="499150fa-ce0d-4906-8271-64770e14f7f2" data-name="9fe06907-f5bc-4d29-bd1a-583227caff89">
            <rect id="ec85b97d-707f-4e49-8e61-97114d642e56" data-name="d13b84e0-cfb3-4769-976b-6a9e60c1a326" x="172.06" y="42.46" width="0.98" height="1.4" style="fill: #fff"/>
          </g>
          <g id="c4e64b72-a85b-41f2-870d-bb9e430cf666" data-name="4f92a4fc-7798-4078-b642-e00ebc068974">
            <rect id="4987e345-117c-4ec6-9f9b-9c79053a6fbf" data-name="a20d5037-eaff-497f-955c-12cff39b0f2d" x="172.06" y="51.7" width="0.98" height="1.4" style="fill: #fff"/>
          </g>
        </g>
      </g>
    </g>
    <g id="beae1a05-a8d5-4c14-8662-733f4fb65bd3" data-name="7c99d726-fa1f-458d-a334-44f56d159629">
      <path id="40bdede8-9f04-49f0-8a5b-0d3a0412c148" data-name="c7d70644-ee6d-48e3-bb48-9e0019d0b4ed" d="M152.56,147.85v2.24a1.55,1.55,0,0,1-.77,1.34l-.3.22a4.36,4.36,0,0,1-4.27.06l-4-2.14a.67.67,0,0,1,0-1.18h0a4.56,4.56,0,0,1,2.45-1,8.67,8.67,0,0,0,1.14.12l1.83.25Z" style="fill: #9aa7d5"/>
      <path id="35b37619-1cc0-4f6f-a331-134d10b0ac4d" data-name="5558e8e1-2227-421d-bbfa-0841c0db17ba" d="M143.26,149.06l4,2.14a4.36,4.36,0,0,0,4.27-.06l.3-.22a1.55,1.55,0,0,0,.77-1.34v.51a1.55,1.55,0,0,1-.77,1.34l-.3.22a4.36,4.36,0,0,1-4.27.06l-4-2.14a.67.67,0,0,1-.3-.85A.66.66,0,0,0,143.26,149.06Z" style="fill: #373750"/>
      <g id="c1273458-8661-419c-82ba-56377e528f9b" data-name="83779671-a518-47b4-85f4-f5b989665f3e">
        <path id="0a46eb93-6721-4316-b14d-0c4fbfdd18a3" data-name="9b790aae-1b2a-49fc-869c-0fbdbf612f47" d="M146.18,148.84l-.46-.23.55-1.14a4.59,4.59,0,0,0,.55,0Z" style="fill: #fff"/>
        <polygon id="93100d99-2bd2-4c14-94f5-c7d39e80ab4f" data-name="879e2eb3-69f9-48db-b17d-a5c04dfc1488" points="147.12 149.07 146.66 148.84 147.27 147.6 147.81 147.67 147.12 149.07" style="fill: #fff"/>
      </g>
      <path id="adc58d8c-bfd7-46a1-9583-9e5a7d546e4a" data-name="6ba4473b-3b4a-4054-90a1-adb7d7d1f23a" d="M146.15,152.36v2.24a1.55,1.55,0,0,1-.77,1.34l-.3.22a4.36,4.36,0,0,1-4.27.06l-4-2.14a.67.67,0,0,1,0-1.18h0a4.56,4.56,0,0,1,2.45-1,8.61,8.61,0,0,0,1.14.12l1.83.25Z" style="fill: #9aa7d5"/>
      <path id="9d5d2e1a-3db4-4d40-852a-bd3075134565" data-name="ddbc0d4d-cb7d-46cb-9ddb-2b32920d4a6f" d="M136.84,153.57l4,2.14a4.36,4.36,0,0,0,4.27-.06l.3-.22a1.55,1.55,0,0,0,.77-1.34v.51a1.55,1.55,0,0,1-.77,1.34l-.3.22a4.36,4.36,0,0,1-4.27.06l-4-2.14a.67.67,0,0,1-.3-.85A.66.66,0,0,0,136.84,153.57Z" style="fill: #373750"/>
      <g id="c34747e3-d623-40fe-8612-d70f495d05aa" data-name="038243c3-4f1e-4d51-922c-346287a9dd22">
        <path id="2285817d-92f7-4214-9c47-3a03f12f6636" data-name="acaa8cd3-2c7b-4d84-8fda-d899ecaad6dc" d="M151.21,119.87a1.21,1.21,0,0,0,.84-.34l2.28-2.2a8.15,8.15,0,0,0-.54-12.22l-2.52-2a1.22,1.22,0,0,0-1.53,1.89l2.52,2a5.73,5.73,0,0,1,.38,8.57l-2.27,2.2a1.21,1.21,0,0,0,.84,2.09Z" style="fill: url(#c89f56c0-08c3-44fe-a4d1-1f3205e92522)"/>
      </g>
      <g id="5a16f350-fbad-45e8-af48-55fb860854e3" data-name="ad563b90-2ab2-42bc-80cf-3c7b060399c3">
        <g id="3a31fdca-de93-4c46-9361-0c200458abd7" data-name="b27a46a3-bfe8-41f6-b111-8f6e45e2e6cb">
          <path id="d2de0ab1-628c-4c6d-be80-4e2f63ce466b" data-name="fd0400c5-4844-4923-944c-7895042645c0" d="M150.64,150.25a2,2,0,0,0,1.91-2.1v0l-.67-13.47.89-14.65a2.13,2.13,0,0,0-2.13-2.13c-1.17,0-3.47,1-3.47,2.13l1.33,28.14a2.13,2.13,0,0,0,2.14,2.12Z" style="fill: #49486b"/>
        </g>
      </g>
      <g id="ebd4b91e-b2b5-407a-88fb-6f081c374323" data-name="9a18eaed-b4aa-4620-9031-478ef29abe2a">
        <g id="563ba0a3-215e-41a4-9a89-104c900d5e39" data-name="6d7be645-60f6-4980-9f3d-60660a48d703">
          <path id="25911f07-762f-4c07-9e9f-78f38c25397b" data-name="823ee120-6bff-4a6d-afc1-448941f639f6" d="M144,154.8a2.13,2.13,0,0,0,2.13-2.13h0l-.27-14.4,1.61-13.73c0-1.17-2.29-2.13-3.47-2.13a2.13,2.13,0,0,0-2.1,2.14v28.14A2.13,2.13,0,0,0,144,154.8Z" style="fill: #49486b"/>
        </g>
      </g>
      <g id="031dbac2-b832-437f-b0d9-809b93069d40" data-name="745d3892-eefe-47df-8290-7a7e0b3b4ad5">
        <path id="b1a91cfd-b705-4c1a-9f12-0a14624665ad" data-name="66a8e1ee-48be-469c-a198-7e56d408b009" d="M152.1,117.57l.91,6.77a2.39,2.39,0,0,1-1.2,2.07l-5.56,3.12a2.23,2.23,0,0,1-3.34-1.92V113.86c0-.85-1.78-.27-1-.69l7.79-4.5C151.16,107.81,152.1,115.85,152.1,117.57Z" style="fill: #49486b"/>
      </g>
      <g style="opacity: 0.300000011920929">
        <path d="M150.37,117.77a1.22,1.22,0,0,0,1.69,1.75h0l1.34-1.3a7.09,7.09,0,0,0-.07-.79c-.08-.83-.1-1.66-.13-2.49a5.71,5.71,0,0,1-.55.63Z" style="fill: #231f20"/>
      </g>
      <g id="b644d7b6-2527-49b6-bfba-6ac1b4028a6f" data-name="a3f262fc-dfa2-424c-adac-b2afe0194ca3">
        <path id="239890e3-e420-400d-847e-09badd5dceb2" data-name="e21a6e9c-7291-486e-b8a9-bd90bfe364f4" d="M152.84,106.7l-.42,6.56c.14,1.39.09,2.79.23,4.19a62.65,62.65,0,0,1,.36,6.74c-.1.5-1.48,1.6-3.33,2.55-.17.09-.34-4.19-.52-4.11s-.33,4.52-.49,4.6c-2.34,1-5.13,1.72-7,.81l.22-8-.39-5c-.24-3.43-.9-8,2.46-10.1l.44-.25,3.59-2a2.73,2.73,0,0,1,2.73,0h0A4.28,4.28,0,0,1,152.84,106.7Z" style="fill: url(#60311e2e-5ea1-4e31-839e-31272a90ed92)"/>
      </g>
      <g id="362e99c3-55ff-4772-a658-8a35838cc90a" data-name="adfd9798-cd01-4c33-8ddb-2bf08373dd4c">
        <g id="54a1f8d5-a529-4b4f-b43c-fed0ce806fa3" data-name="8c112f54-5adf-4d5d-a2bc-62b1a959f50f">
          <path id="7d1f0dce-82be-4443-919a-1d392e62f433" data-name="0d0cfabc-8b63-4e98-a31d-3895a62ce74e" d="M147.36,104.94a1.21,1.21,0,0,0,1.21-1.21V98.94a1.22,1.22,0,0,0-2.43,0v4.79a1.21,1.21,0,0,0,1.21,1.21Z" style="fill: #f2b0b3"/>
        </g>
      </g>
      <g id="79544407-234f-4509-b7b1-ea7b534e8471" data-name="0f874047-80d5-42fc-b3b7-cae9ab8b6cd8">
        <path id="22828e7e-5df7-4788-8447-cb016b970c1f" data-name="5d2c88ab-4eeb-443f-90e0-78e8ca2ec9cb" d="M146.15,103.49h2.31v-8.1h-6v4.21C142.46,100.48,143.77,103.49,146.15,103.49Z" style="fill: #f2b0b3"/>
      </g>
      <path id="6059eb9a-da08-432c-a16d-5f9bef7d148e" data-name="2dace31d-7ee6-4eaa-ab2a-0cf70b987033" d="M142.91,95.39v4.21a3.9,3.9,0,0,0,3.9,3.9h-.44a3.9,3.9,0,0,1-3.9-3.9V95.39Z" style="fill: #f5c3c3"/>
      <g id="123c1985-cae9-4541-a6ec-c60ead544ca2" data-name="48ddf5aa-f7e9-429a-b165-8c7bbdf4e531">
        <path d="M141.09,93.78a1.25,1.25,0,0,1,1.62-.71l.06,0c.32.16.55.25.86.06a1.35,1.35,0,0,1,1.09-.34c.23,0,.53.23.74.23.46,0,.76-.37,1.29-.21a1.55,1.55,0,0,0,.89.09,1.65,1.65,0,0,1,.86.07c.54.22.51.63.82,1s.64.1,1,.4a.9.9,0,0,1,.2,1c-.07.16-.19.32-.13.48s.17.17.25.26c.31.31.06.84-.18,1.21a.43.43,0,0,0-.09.24.56.56,0,0,0,.16.29,1.11,1.11,0,0,1-.14,1.45c-.19.16-.45.29-.49.54a1,1,0,0,0,.07.4,1.21,1.21,0,0,1-.6,1.34c-.55.28,0,1.27-.89,1.35-.66.06-1.27-.76-1.41-1.32,0,.08-.43-.15-.46-.19a1.52,1.52,0,0,1-.2-.55,4.12,4.12,0,0,1-.22-1.09,7,7,0,0,0-.13-1.7,2.58,2.58,0,0,1-.86-.12c-.65-.25-.38-.68-.63-1.13-.12-.22-.4-.27-.54-.49a1.35,1.35,0,0,1-.07-.84,3.25,3.25,0,0,1-1.87,0c-.46-.2-1.1-.53-1.11-1.08A1.49,1.49,0,0,1,141.09,93.78Z" style="fill: #373750"/>
      </g>
      <path id="f4e0583e-d069-4320-8421-ec08cd63c075" data-name="6b8e1fee-07e5-4ee7-9b97-4090dc983356" d="M140.91,94.47c0,.55.66.88,1.11,1.08a2.19,2.19,0,0,0,1,.12,1.74,1.74,0,0,1-.53-.12c-.46-.2-1.1-.53-1.11-1.08a1.49,1.49,0,0,1,.16-.68,1.43,1.43,0,0,1,.91-.78,1.29,1.29,0,0,0-1.43.78A1.49,1.49,0,0,0,140.91,94.47Z" style="fill: #ef9ea3;opacity: 0.200000002980232;isolation: isolate"/>
      <g id="bfee7d6a-45f0-4dc3-a3ef-81aba39724f4" data-name="df295c95-d50a-435d-9fd6-3405f84beef6">
        <circle id="f5b7e8ee-b181-4903-8491-9472a252ac96" data-name="1a35f204-f606-446f-8b0c-e37b173d9a87" cx="145.56" cy="98.84" r="0.88" style="fill: #f2b0b3"/>
      </g>
      <g id="2f357ee0-2b8c-4a86-aca2-3c968993b779" data-name="4f88f30e-8a00-45b3-b507-cb74f86ada4d">
        <path id="349111a5-b654-448a-9f3e-ef0686aa7621" data-name="9020157b-c16c-4434-be8d-e25c92c1bb59" d="M139.77,153.35l-.46-.23.55-1.11a4.57,4.57,0,0,0,.55,0Z" style="fill: #fff"/>
        <polygon id="58dab548-4883-4c7f-98f0-f2384fb3d236" data-name="ded547e1-b3e4-4a07-9598-0569d2b56a04" points="140.7 153.57 140.24 153.35 140.86 152.1 141.39 152.18 140.7 153.57" style="fill: #fff"/>
      </g>
      <path d="M144.43,110.34h0l-6.11-.2a5.93,5.93,0,0,1-5-3L128.79,99a1.21,1.21,0,0,1,2.1-1.2l4.52,8.17a3.5,3.5,0,0,0,2.93,1.79l6.11.2a1.21,1.21,0,0,1,0,2.42Z" style="fill: #f2b0b3"/>
      <path d="M144.43,110.48h0l-6.11-.2a6.07,6.07,0,0,1-5.09-3.12l-3.59-6.53a1.34,1.34,0,0,1,2.25-1.31l3.59,6.54a3.37,3.37,0,0,0,2.82,1.72l6.11.2a1.35,1.35,0,1,1,0,2.69Z" style="fill: url(#32ed99de-a726-4ff6-bc49-96cf79c45b3c)"/>
      <path d="M131,98.47h0a.24.24,0,0,1-.33-.09h0l-1.49-2.59a.24.24,0,0,1,.09-.33h0a.24.24,0,0,1,.33.09h0l1.49,2.59a.24.24,0,0,1-.09.33Z" style="fill: #f2b0b3"/>
    </g>
    <g>
      <path id="6ca249dc-3e7a-4181-bc42-46492249c5ed" data-name="a8ecd62a-2d04-428b-8266-be8a3bb14b2a" d="M47.49,201.06l-2,.36a12.7,12.7,0,0,0-3.13-2.47c-6.78-4-17.87-4-24.65,0a12.7,12.7,0,0,0-3.08,2.47l-2-.36v2.12h0c0,2.59,1.68,5.19,5.08,7.15,6.78,4,17.87,4,24.65,0,3.4-2,5.1-4.56,5.08-7.15h0Z" style="fill: #e1e4f0"/>
      <path id="8f9f8183-0ce1-40c3-93ae-afc1f3cf286a" data-name="ffc4ba73-a239-4d9a-a7aa-db1d28e4335c" d="M17.76,193.77c6.78-4,17.87-4,24.65,0s6.78,10.32,0,14.24-17.87,4-24.65,0S11,197.68,17.76,193.77Z" style="fill: #fff"/>
      <path id="13e60727-8692-42eb-82dc-d4645e09ad4c" data-name="2ecb0252-7184-4299-b270-669ce55d55ca" d="M19.45,194.74c5.85-3.38,15.42-3.38,21.27,0s5.85,8.9,0,12.28-15.42,3.38-21.27,0S13.59,198.12,19.45,194.74Z" style="fill: #d3d8ea"/>
      <path id="59c36081-ce8d-43d1-b062-c33541e40f66" data-name="047b2089-2d5e-4f5e-a2d3-b2d9b1fa4ff0" d="M21.16,195.85c4.94-2.77,12.92-2.77,17.79,0s4.94,7.31,0,10.07-12.92,2.77-17.79,0S16.25,198.62,21.16,195.85Z" style="fill: #fff"/>
      <path id="8faa0ed4-f9eb-411a-96db-edb0f5a07245" data-name="52188bcd-ab90-4e33-a4fd-322818182094" d="M22.8,196.77a16.44,16.44,0,0,1,14.54,0c4,2.26,4,5.93,0,8.22a16.44,16.44,0,0,1-14.54,0C18.79,202.73,18.79,199,22.8,196.77Z" style="fill: #d3d8ea"/>
      <path id="66d5615b-c18c-4e14-a217-f60ef9c1e5b9" data-name="e21fd48e-44ff-4d35-b911-95a5155d79e2" d="M24.4,198a13.69,13.69,0,0,1,11.18,0c3.07,1.59,3.07,4.19,0,5.78a13.69,13.69,0,0,1-11.18,0C21.33,202.19,21.33,199.58,24.4,198Z" style="fill: #fff"/>
      <path id="796390d5-4f11-4a2b-81b9-7688d45cf8b8" data-name="3bb1e2a7-e75b-46db-826f-44c12eae45b6" d="M26.57,199.11a8.37,8.37,0,0,1,6.83,0c1.88,1,1.88,2.56,0,3.54a8.37,8.37,0,0,1-6.83,0C24.7,201.68,24.7,200.09,26.57,199.11Z" style="fill: #d3d8ea"/>
      <g id="2705eef3-248a-4735-a956-c834eeedbee9" data-name="0813d519-d0b0-477d-abff-b12af250bdbe">
        <path d="M30.05,201.32a.8.8,0,0,1-.8-.8V164.2a.8.8,0,0,1,1.59,0v36.31a.8.8,0,0,1-.79.81Z" style="fill: #5d6873"/>
      </g>
      <path id="ace44495-a19c-402f-b072-6ac4a6c7f25c" data-name="98e63e01-6d19-44b1-bb63-1a3af2f0424f" d="M30.2,167.5C39,172,47.73,175.6,47.73,175.6c-3.23,6.75-17.53,8.9-17.53,8.9Z" style="fill: url(#9eb65549-3d1d-4cc4-859c-28ab7281d57d)"/>
    </g>
    <g>
      <g>
        <path d="M1.88,43.3,44.74,18.69a2.19,2.19,0,0,1,2.5.22l2.2,1.86L50.08,44a3.77,3.77,0,0,1-1.87,3.27l-19.37,11L18.94,64,4.71,72.46H2a2,2,0,0,1-2-2V46.56A3.77,3.77,0,0,1,1.88,43.3Z" style="fill: url(#8329d2d8-4a61-4951-8382-94e5576aec95)"/>
        <path id="99d4b37f-55ea-45ea-8d2e-eb54e024b632" data-name="8d427e7c-cfcb-4ca2-98e7-42b9a0cd81c3" d="M50.07,22.28V44a3.77,3.77,0,0,1-1.86,3.27L21.43,62.83l-2,7.4a1.78,1.78,0,0,1-2.53,1.09l-5.35-2.73-6,3.54A2.13,2.13,0,0,1,2.35,70.3v-22a3.77,3.77,0,0,1,1.88-3.27L46.87,20.44a2.13,2.13,0,0,1,3.19,1.84Z" style="fill: #edeff8"/>
      </g>
      <g>
        <path id="9bf318ef-36a5-4b84-ae32-63c2c850a51c" data-name="b5bc5d2c-1d13-44c3-b252-745ba3d92b4c" d="M38.89,32.69,40,35.26l3.21-1.75a.14.14,0,0,1,.19.19l-2.11,4L42,41.09a.23.23,0,0,1-.18.27h0L39.1,41.1l-2.83,3.45a.14.14,0,0,1-.24-.11l.4-3.79L33.8,39.18a.12.12,0,0,1,0-.17l0,0,3.41-2,1.52-4.3a.1.1,0,0,1,.14,0Z" style="fill: url(#1252164b-19d2-410d-b271-ec124e2ae08c)"/>
        <path id="516162be-5778-4bbd-a7dd-551741660a3b" data-name="0c6b3d7d-d1ba-432a-9142-bb7ab7527673" d="M26.55,39.88l1.16,2.57,3.21-1.75a.14.14,0,0,1,.19.19l-2.11,4,.64,3.39a.23.23,0,0,1-.18.27h0l-2.66-.26-2.83,3.45a.14.14,0,0,1-.24-.11l.4-3.79-2.63-1.48a.12.12,0,0,1,0-.17l0,0,3.41-2,1.49-4.3a.1.1,0,0,1,.19,0Z" style="fill: url(#2f048b7b-fa46-4db1-846e-9cc3693668a1)"/>
        <path id="59a6206f-d900-4e06-b024-76bcbc5c8090" data-name="e5e7624f-7f4e-4f1b-a2a8-af4b164929fe" d="M14.21,47.07l1.16,2.57,3.21-1.75a.14.14,0,0,1,.19.19l-2.14,4,.64,3.39a.23.23,0,0,1-.18.27h0l-2.66-.26-2.82,3.48a.14.14,0,0,1-.24-.11l.4-3.79L9.1,53.55a.12.12,0,0,1,0-.17l0,0,3.39-1.95L14,47.08a.1.1,0,0,1,.19,0Z" style="fill: url(#cafab511-e601-4842-a509-d45aa67f09a6)"/>
      </g>
    </g>
  </g>
</svg>
