<svg xmlns="http://www.w3.org/2000/svg" xmlns:xlink="http://www.w3.org/1999/xlink" data-name="custom-server" viewBox="0 0 89.774 150"><defs><linearGradient id="f" x1="77.776" x2="77.776" y1="-632.885" y2="-533.072" gradientTransform="matrix(1 0 0 -1 0 -506.386)" gradientUnits="userSpaceOnUse"><stop offset="0" stop-color="#eff0f8"/><stop offset="1" stop-color="#e0e0e0"/></linearGradient><linearGradient id="a" x1="-336.546" x2="-338.916" y1="-550.971" y2="-550.971" gradientTransform="matrix(1 0 0 -1 396.21 -506.386)" gradientUnits="userSpaceOnUse"><stop offset="0" stop-color="#c0c6ce"/><stop offset=".07" stop-color="#c6cbd2"/><stop offset=".41" stop-color="#dee0e2"/><stop offset=".73" stop-color="#ececec"/><stop offset="1" stop-color="#f1f0ef"/></linearGradient><linearGradient id="b" x1="-339.206" x2="-337.235" y1="-551.214" y2="-551.214" gradientTransform="matrix(1 0 0 -1 396.21 -506.386)" gradientUnits="userSpaceOnUse"><stop offset="0" stop-color="#b8bec6"/><stop offset=".76" stop-color="#bdc3cb"/><stop offset="1" stop-color="#c0c6ce"/></linearGradient><linearGradient id="g" x1="-336.183" x2="-338.553" y1="-627.511" y2="-627.511" xlink:href="#a"/><linearGradient id="h" x1="-338.844" x2="-336.885" y1="-627.761" y2="-627.761" xlink:href="#b"/><linearGradient id="i" x1="20.405" x2="56.683" y1="90.213" y2="90.213" gradientTransform="matrix(1 0 0 -1 0 147.11)" gradientUnits="userSpaceOnUse"><stop offset="0" stop-color="#4e9dd5"/><stop offset=".02" stop-color="#4e9ed5"/><stop offset=".48" stop-color="#53a8da"/><stop offset="1" stop-color="#54acdc"/></linearGradient><linearGradient id="j" x1="22.017" x2="83.811" y1="-527.962" y2="-527.962" gradientTransform="matrix(1 0 0 -1 0 -506.386)" gradientUnits="userSpaceOnUse"><stop offset="0" stop-color="#eff0f8"/><stop offset="1" stop-color="#e2e2e2"/></linearGradient><linearGradient id="k" x1="63.035" x2="86.967" y1="-538.997" y2="-538.997" gradientTransform="matrix(1 0 0 -1 0 -506.386)" gradientUnits="userSpaceOnUse"><stop offset="0" stop-color="#e9e8e9"/><stop offset="1" stop-color="#c7c7c7"/></linearGradient><linearGradient id="l" x1="77.77" x2="77.77" y1="-600.863" y2="-561.683" gradientTransform="matrix(1 0 0 -1 0 -506.386)" gradientUnits="userSpaceOnUse"><stop offset="0" stop-color="#b8bfc7"/><stop offset="1" stop-color="#c0c7cf"/></linearGradient><linearGradient id="m" x1="67.703" x2="99.991" y1="-599.696" y2="-599.696" gradientTransform="matrix(1 0 0 -1 0 -506.386)" gradientUnits="userSpaceOnUse"><stop offset="0" stop-color="#9aa6d4"/><stop offset="1" stop-color="#e9e8e9"/></linearGradient><clipPath id="n" transform="translate(-16.878 .097)"><path fill="none" d="M85.661 82.941V57.764L67.691 68.14v25.177l17.97-10.376z"/></clipPath><linearGradient id="c" x1="66.337" x2="98.503" y1="-591.407" y2="-591.407" gradientTransform="matrix(1 0 0 -1 0 -506.386)" gradientUnits="userSpaceOnUse"><stop offset="0" stop-color="#c0bff6"/><stop offset=".29" stop-color="#c5c4f7"/><stop offset=".64" stop-color="#d3d2f9"/><stop offset="1" stop-color="#e9e9fd"/></linearGradient><linearGradient id="o" x1="64.215" x2="72.438" y1="-589.059" y2="-589.059" xlink:href="#c"/><linearGradient id="e" x1="71.742" x2="73.725" y1="61.967" y2="61.967" gradientTransform="matrix(1 0 0 -1 0 147.11)" gradientUnits="userSpaceOnUse"><stop offset=".15" stop-color="#4e9dd5"/><stop offset="1" stop-color="#68bbe8"/></linearGradient><linearGradient id="d" x1="-926.71" x2="-918.765" y1="-517.291" y2="-517.291" gradientTransform="matrix(1 0 0 -1 961.89 -506.386)" gradientUnits="userSpaceOnUse"><stop offset="0" stop-color="#7f8f9e"/><stop offset=".18" stop-color="#8493a2"/><stop offset=".4" stop-color="#92a0ad"/><stop offset=".64" stop-color="#aab5bf"/><stop offset=".88" stop-color="#cbd1d7"/><stop offset="1" stop-color="#dee2e6"/></linearGradient><linearGradient id="p" x1="-924.654" x2="-916.697" y1="-518.482" y2="-518.482" xlink:href="#d"/><linearGradient id="q" x1="-922.586" x2="-914.629" y1="-519.667" y2="-519.667" xlink:href="#d"/><linearGradient id="r" x1="-920.519" x2="-912.562" y1="-520.858" y2="-520.858" xlink:href="#d"/><linearGradient id="s" x1="-914.484" x2="-906.527" y1="-524.365" y2="-524.365" xlink:href="#d"/><linearGradient id="t" x1="-912.416" x2="-904.459" y1="-525.556" y2="-525.556" xlink:href="#d"/><linearGradient id="u" x1="-910.349" x2="-902.392" y1="-526.741" y2="-526.741" xlink:href="#d"/><linearGradient id="v" x1="-908.281" x2="-900.324" y1="-527.932" y2="-527.932" xlink:href="#d"/><linearGradient id="w" x1="-902.246" x2="-894.289" y1="-531.439" y2="-531.439" xlink:href="#d"/><linearGradient id="x" x1="-900.179" x2="-892.222" y1="-532.63" y2="-532.63" xlink:href="#d"/><linearGradient id="y" x1="-898.111" x2="-890.154" y1="-533.815" y2="-533.815" xlink:href="#d"/><linearGradient id="z" x1="-896.055" x2="-888.098" y1="-535.006" y2="-535.006" xlink:href="#d"/><linearGradient id="A" x1="92.546" x2="106.695" y1="46.85" y2="46.85" xlink:href="#e"/><linearGradient id="B" x1="104.531" x2="93.051" y1="57.666" y2="51.641" gradientTransform="matrix(1 0 0 -1 0 147.11)" gradientUnits="userSpaceOnUse"><stop offset="0" stop-color="#54addf"/><stop offset=".92" stop-color="#4d9ed7"/></linearGradient></defs><path fill="#48486a" d="M45.988 38.682h4.995l-1.21-2.72L0 16.527v83.234a.544.544 0 0 0 .302.4l45.396 26.204a1.21 1.21 0 0 0 .29.109z"/><path fill="url(#f)" d="M92.106 26.686l-28.66 16.35v83.463a2.056 2.056 0 0 0 .92-.254l27.293-15.72a.75.75 0 0 0 .435-.568z" transform="translate(-16.878 .097)"/><path fill="#363650" d="M44.562 18.112v107.625l1.209.69a1.633 1.633 0 0 0 .846.18c.327 0 .351-.193.617-.35l.242-.097-.327-12.746V93.353l.593-75.24z"/><path fill="#c0c7cf" d="M47.754 113.536V42.455l-1.21.677v83.464h.206a2.104 2.104 0 0 0 .436-.121l.205-.097.254-.145z"/><path fill="url(#a)" d="M59.676 44.986a2.165 2.165 0 0 0-.98-1.705.69.69 0 0 0-.701-.073l-.69.411h.436a1.124 1.124 0 0 0 0 .218 2.165 2.165 0 0 0 .955 1.717l.206.097-.206.375.677-.4a.69.69 0 0 0 .303-.64z" transform="translate(-16.878 .097)"/><path fill="url(#b)" d="M58.975 45.397c0 .629-.435.883-.98.568a2.165 2.165 0 0 1-.98-1.705c0-.629.435-.883.98-.568a2.165 2.165 0 0 1 .98 1.705z" transform="translate(-16.878 .097)"/><path fill="#5d6873" d="M41.674 45.252c0 .363-.254.508-.569.327a1.21 1.21 0 0 1-.568-.98c0-.363.254-.508.568-.327a1.21 1.21 0 0 1 .569.98z"/><path fill="url(#g)" d="M60.087 121.532a2.165 2.165 0 0 0-.98-1.705.69.69 0 0 0-.701-.072l-.69.41h.436a1.124 1.124 0 0 0 0 .219 2.165 2.165 0 0 0 .98 1.705l.205.096-.205.375.677-.399a.69.69 0 0 0 .278-.629z" transform="translate(-16.878 .097)"/><path fill="url(#h)" d="M59.338 121.944c0 .629-.436.883-.98.568a2.165 2.165 0 0 1-.98-1.705c0-.629.435-.883.98-.568a2.165 2.165 0 0 1 .98 1.705z" transform="translate(-16.878 .097)"/><path fill="#5d6873" d="M42 121.835c0 .363-.254.508-.568.326a1.21 1.21 0 0 1-.568-.98c0-.362.253-.508.568-.326a1.21 1.21 0 0 1 .568.98z"/><path fill="#363650" d="M2.25 21.111l40.002 23.097v77.817L2.25 98.928z" opacity=".4" style="isolation:isolate"/><g data-name="6bc0ef65-9cf4-4c6d-9190-c3d2d0ea7cd7"><path fill="#bfc6e5" d="M8.747 67.754c0-.351.247-.504.56-.323l18.077 10.45a1.246 1.246 0 0 1 .561.951v20.825c0 .352-.247.504-.56.323L9.316 89.52a1.246 1.246 0 0 1-.56-.95z" data-name="0e262da9-19f3-44e8-92e4-21a56c4995e0"/><path fill="#363650" d="M27.384 77.881L9.317 67.421a.348.348 0 0 0-.56.324v.047L26.69 78.167a1.246 1.246 0 0 1 .56.95v20.796l.087.048a.348.348 0 0 0 .56-.324V78.832a1.246 1.246 0 0 0-.513-.95z" data-name="ca3d8f51-b481-44b8-84f9-bea409d48965" opacity=".4" style="isolation:isolate"/><path fill="#e5e9f4" d="M10.24 73.412l13.974 7.859v1.103L10.24 74.335v-.923z" data-name="3beb0187-8912-4c5e-b14e-fbbdfb89ebd3"/><path fill="#e5e9f4" d="M10.24 71.311l4.241 2.424v1.103l-4.241-2.605v-.922z" data-name="1111b5eb-97fc-40d3-9165-40efa8926710"/><path fill="#e5e9f4" d="M18.688 87.269a1.373 1.373 0 0 0 .435-1.127 4.108 4.108 0 0 0-1.893-3.2c-1.013-.587-1.846-.104-1.846 1.07a4.061 4.061 0 0 0 .947 2.414 2.953 2.953 0 0 0-1.6 2.66v.738l5.5 3.219v-1.476a6.91 6.91 0 0 0-1.543-4.298z" data-name="410d98b2-4c14-4660-ad5b-3a1cb24ebcfc"/><path fill="#e5e9f4" d="M10.406 75.637l13.975 7.859v1.103L10.406 76.56v-.923z" data-name="3beb0187-8912-4c5e-b14e-fbbdfb89ebd3"/></g><path fill="url(#i)" d="M31.348 47.733l-1.15-.67a.49.49 0 0 0-.293-.077q-.137 0-.189.223l-1.305 6.011-1.15-4.92a2.095 2.095 0 0 0-.146-.37.953.953 0 0 0-.395-.403l-1.271-.738q-.284-.164-.395-.052a.515.515 0 0 0-.146.198l-1.151 3.59-1.305-7.515a.97.97 0 0 0-.19-.447 1.073 1.073 0 0 0-.291-.266l-1.15-.67a.318.318 0 0 0-.293-.043.223.223 0 0 0-.12.232.859.859 0 0 0 0 .138l1.984 11.206a1.494 1.494 0 0 0 .18.498.988.988 0 0 0 .369.36l1.254.688q.231.137.352.051a.61.61 0 0 0 .197-.275l1.34-3.958 1.34 5.538a2.43 2.43 0 0 0 .198.507.859.859 0 0 0 .352.352l1.262.73a.371.371 0 0 0 .37.06.412.412 0 0 0 .18-.283l1.966-8.905a.593.593 0 0 0 0-.12.721.721 0 0 0-.12-.378.859.859 0 0 0-.284-.292zm12.46 7.23l-1.15-.67a.49.49 0 0 0-.293-.077q-.137 0-.189.223l-1.305 6.011-1.15-4.886a2.112 2.112 0 0 0-.146-.37.945.945 0 0 0-.395-.403l-1.271-.738q-.284-.163-.395-.052a.515.515 0 0 0-.146.198l-1.151 3.59-1.305-7.514a.97.97 0 0 0-.19-.447 1.073 1.073 0 0 0-.291-.266l-1.15-.67a.318.318 0 0 0-.293-.043.223.223 0 0 0-.12.232.859.859 0 0 0 0 .138l1.992 11.215a1.494 1.494 0 0 0 .18.498.988.988 0 0 0 .37.36l1.262.73q.231.138.352.052a.61.61 0 0 0 .197-.275l1.34-3.993 1.314 5.487a2.447 2.447 0 0 0 .197.507.859.859 0 0 0 .352.352l1.263.73a.371.371 0 0 0 .369.06.412.412 0 0 0 .18-.283l1.992-8.905a.584.584 0 0 0 0-.12.721.721 0 0 0-.12-.378.859.859 0 0 0-.3-.283zm12.76 7.531a.859.859 0 0 0-.291-.3l-1.16-.619a.49.49 0 0 0-.292-.077q-.137 0-.189.223l-1.305 6.011-1.15-4.92a2.095 2.095 0 0 0-.147-.369.945.945 0 0 0-.395-.403l-1.27-.739q-.284-.163-.395-.051a.515.515 0 0 0-.146.197l-1.16 3.564-1.305-7.514a.97.97 0 0 0-.189-.447 1.065 1.065 0 0 0-.292-.266l-1.15-.67a.318.318 0 0 0-.293-.043.223.223 0 0 0-.12.232.859.859 0 0 0 0 .138l2.001 11.146a1.494 1.494 0 0 0 .18.498.988.988 0 0 0 .37.36l1.262.73q.231.138.352.052a.61.61 0 0 0 .197-.275l1.305-3.941 1.34 5.538a2.439 2.439 0 0 0 .198.507.859.859 0 0 0 .352.352l1.262.73a.371.371 0 0 0 .37.06.412.412 0 0 0 .18-.283l1.992-8.905a.584.584 0 0 0 0-.12.721.721 0 0 0-.112-.386z" transform="translate(-16.878 .097)"/><path fill="#f0f0f0" d="M0 87.694l44.525-29.809V42.528L0 16.54z" opacity=".1" style="isolation:isolate"/><path fill="#f2f3f4" d="M45.71 43.205L.314 17c-.46-.266-.399-.726.133-1.028L27.741.252a1.983 1.983 0 0 1 1.79-.073l45.383 26.168c.46.266.4.726-.133 1.028l-27.293 15.72a1.983 1.983 0 0 1-1.778.11z"/><path fill="url(#j)" d="M45.949 2.827L24.133 15.416l-2.116-.387v1.608l41.019 23.69L83.81 26.202z" transform="translate(-16.878 .097)"/><path fill="url(#k)" d="M86.967 24.896v1.609L63.036 40.327v-1.62z" transform="translate(-16.878 .097)"/><path fill="#f2f3f4" d="M46.158 38.803L5.139 15.126 29.071 1.304l41.018 23.69z"/><path fill="url(#l)" d="M86.725 55.938v26.386L67.691 93.317v1.16L87.85 82.845V55.297z" transform="translate(-16.878 .097)"/><path fill="url(#m)" d="M99.99 89.955l-1.075.568-10.872-6.227a.786.786 0 0 0-.701 0L68.695 95.082l-.992-.496.4 1.028a.23.23 0 0 0 .108.121l11.404 6.59a.786.786 0 0 0 .701 0l19.118-11.04a.339.339 0 0 0 .158-.17z" transform="translate(-16.878 .097)"/><path fill="#f2f3f4" d="M82.944 90.233l-19.59 11.307a.81.81 0 0 1-.726 0l-11.694-6.748c-.181-.109-.157-.29 0-.423l19.59-11.307a.81.81 0 0 1 .726 0l11.694 6.748c.242.109.217.29 0 .423z"/><path fill="#5d639e" d="M57.44 99.097v-.194l.762.436v.218l-.762-.436a.06.06 0 0 1 0-.024zm1.137.653v-.218l.762.435v.218z"/><path fill="#c0c7cf" d="M53.982 94.187l16.277-9.396a.35.35 0 0 1 .35 0l5.793 3.35a.12.12 0 0 1 0 .218l-16.277 9.396a.35.35 0 0 1-.35 0l-5.805-3.35a.12.12 0 0 1 .012-.218z"/><path fill="#5d639e" d="M53.982 94.405l16.229-9.372a.35.35 0 0 1 .35 0l5.744 3.326a.12.12 0 0 0 0-.218l-5.792-3.35a.35.35 0 0 0-.35 0l-16.18 9.396a.12.12 0 0 0 0 .218z"/><path fill="#49486b" d="M71.057 85.638L56.908 93.8l-.629-.362 14.149-8.163zm1.535.895l-13.265 7.654-.63-.362 13.267-7.655zm1.004.58l-15.612 9.009-.628-.363 15.611-9.009zm1.004.568l-15.612 9.022-.629-.363 15.624-9.021zm1.003.58l-15.61 9.022-.63-.363 15.624-9.009zm-19.541 6.035l-.63.363-.628-.363.629-.363zm2.213.496l-1.306.762-.63-.363 1.307-.762z"/><path fill="#dee2e6" d="M70.9 96.485l4.39-2.54a.194.194 0 0 0 0-.362l-3-1.73a.69.69 0 0 0-.616 0l-4.39 2.54a.194.194 0 0 0 0 .363l2.987 1.729a.69.69 0 0 0 .628 0z"/><path fill="#80909f" d="M67.272 94.514l4.39-2.54a.69.69 0 0 1 .616 0l3 1.73a.266.266 0 0 1 .108.109.261.261 0 0 0-.109-.254l-2.999-1.73a.69.69 0 0 0-.616 0l-4.39 2.54c-.121.072-.158.17-.11.254a.266.266 0 0 1 .11-.11z"/><path fill="#24126a" d="M69.847 56.035L50.813 67.027v26.386l19.034-10.992z"/><path fill="#363650" d="M69.847 56.035L50.813 67.027v26.386l19.034-10.992z"/><path fill="#48486a" d="M68.783 83.038V57.861l-17.97 10.376v25.177z"/><g opacity=".11"><g clip-path="url(#n)"><path fill="url(#c)" d="M87.511 82.953L68.006 94.211a.798.798 0 0 1-.726 0l-11.633-6.723c-.181-.109-.157-.29 0-.411L75.2 75.83a.798.798 0 0 1 .725 0l11.634 6.723c.18.097.169.278-.049.4z" transform="translate(-16.878 .097)"/><path fill="url(#o)" d="M67.957 84.973l4.366-2.516a.194.194 0 0 0 0-.362l-2.987-1.73a.677.677 0 0 0-.617 0l-4.377 2.528a.194.194 0 0 0 0 .363l2.987 1.729a.69.69 0 0 0 .628-.012z" transform="translate(-16.878 .097)"/><path fill="#9198db" d="M47.464 83.183l4.353-2.564a.677.677 0 0 1 .617 0l3.01 1.718a.266.266 0 0 1 .11.109.261.261 0 0 0-.11-.254l-2.986-1.73a.677.677 0 0 0-.617 0l-4.377 2.528c-.121.072-.157.17-.11.254a.266.266 0 0 1 .11-.06z"/><path fill="#adb1f2" d="M45.541 89.012l16.204-9.36a.35.35 0 0 1 .35 0l5.77 3.337a.12.12 0 0 1 0 .218l-16.193 9.36a.35.35 0 0 1-.35 0l-5.78-3.338a.12.12 0 0 1 0-.217z"/><path fill="#9198db" d="M45.541 89.23l16.144-9.324a.35.35 0 0 1 .35 0l5.708 3.3a.12.12 0 0 0 0-.217l-5.768-3.337a.35.35 0 0 0-.35 0l-16.205 9.36a.125.125 0 0 0 .121.217z"/><path fill="#24126a" d="M66.365 82.772l-14.125 8.15.557.326 14.124-8.15zm-1.488-.859l-13.423 7.752.557.314 13.422-7.74zm-14.426 8.32l-1.246.726.556.326 1.246-.725zm1.112 1.089l-.87.495.555.326.871-.508zm12.383-9.953l-15.684 9.058.569.314 15.671-9.045zm-.931-.532l-15.672 9.045.556.327 15.672-9.045zm-.943-.544L46.4 89.35l.568.315 15.672-9.046z"/></g></g><path fill="#dee2e6" d="M56.001 70.304l-1.136.653v-.761L56 69.543zm0 5.152l-1.136.665v-4.462L56 70.994zm0 2.467l-1.136.665V76.81L56 76.157zm0 2.563l-1.136.653v-1.765L56 78.709zm1.705-8.694l-1.148.653v-1.766l1.148-.665zm0 3.386l-1.148.653v-2.6l1.148-.653zm0 3.12l-1.148.653v-2.225l1.148-.665zm-1.705 4.74l-1.136.665v-1.778L56 81.272zm1.705-13.713l-1.148.653v-.762l1.148-.653z"/><path fill="url(#e)" d="M73.725 84.936l-1.983 1.15v-.75l1.983-1.137z" transform="translate(-16.878 .097)"/><g><path fill="#5d6873" d="M19.415 13.493l-.677-.387.06-.327 6.312-3.664.87.412-.157.278z"/><path fill="url(#d)" d="M42.012 9.309l.69.399.435-.254-1.125-.653-6.832 3.954.435.254z" transform="translate(-16.878 .097)"/><path fill="#5d6873" d="M21.482 14.678l-.677-.387.048-.314 6.313-3.677.883.412-.17.278z"/><path fill="url(#p)" d="M44.08 10.506l.677.387.448-.254L44.08 10l-6.832 3.941.435.254z" transform="translate(-16.878 .097)"/><path fill="#5d6873" d="M23.55 15.875l-.677-.399.049-.314 6.312-3.677.883.424-.17.266z"/><path fill="url(#q)" d="M46.148 11.691l.677.387.436-.254-1.113-.64-6.844 3.942.447.253z" transform="translate(-16.878 .097)"/><path fill="#5d6873" d="M25.618 17.06l-.689-.399.06-.314 6.313-3.676.87.423-.156.266z"/><path fill="url(#r)" d="M48.216 12.876l.677.387.435-.242-1.112-.653-6.845 3.955.448.254z" transform="translate(-16.878 .097)"/><path fill="#5d6873" d="M31.652 20.567l-.677-.387.048-.327 6.313-3.664.883.411-.17.278z"/><path fill="url(#s)" d="M54.25 16.383l.677.4.448-.255-1.125-.653-6.832 3.954.435.254z" transform="translate(-16.878 .097)"/><path fill="#5d6873" d="M33.72 21.752l-.677-.387.049-.314 6.312-3.676.883.41-.17.279z"/><path fill="url(#t)" d="M56.318 17.58l.677.387.435-.254-1.112-.64-6.832 3.941.435.254z" transform="translate(-16.878 .097)"/><path fill="#5d6873" d="M35.788 22.95l-.689-.4.06-.314 6.313-3.676.87.423-.156.266z"/><path fill="url(#u)" d="M58.386 18.765l.677.387.435-.254-1.112-.64L51.54 22.2l.436.254z" transform="translate(-16.878 .097)"/><path fill="#5d6873" d="M37.844 24.135l-.677-.387.06-.327 6.313-3.664.87.411-.157.278z"/><path fill="url(#v)" d="M60.442 19.95l.689.4.435-.255-1.124-.653-6.833 3.954.436.254z" transform="translate(-16.878 .097)"/><g><path fill="#5d6873" d="M43.89 27.641l-.677-.387.049-.326 6.312-3.664.883.411-.17.278z"/><path fill="url(#w)" d="M66.488 23.457l.677.4.435-.254-1.112-.654-6.845 3.955.448.254z" transform="translate(-16.878 .097)"/><path fill="#5d6873" d="M45.958 28.827l-.69-.387.06-.315 6.314-3.676.87.411-.156.278z"/><path fill="url(#x)" d="M68.556 24.654l.677.387.435-.254-1.112-.64-6.845 3.942.436.254z" transform="translate(-16.878 .097)"/><path fill="#5d6873" d="M48.014 30.024l-.677-.4.06-.314 6.312-3.676.87.423-.156.266z"/><path fill="url(#y)" d="M70.612 25.84l.689.387.435-.254-1.124-.64-6.833 3.941.435.254z" transform="translate(-16.878 .097)"/><path fill="#5d6873" d="M50.082 31.209l-.677-.387.06-.327 6.312-3.664.871.411-.17.278z"/><path fill="url(#z)" d="M72.68 27.025l.677.399.447-.254-1.124-.653-6.833 3.954.435.254z" transform="translate(-16.878 .097)"/></g></g><g><path fill="#48486a" d="M89.226 139.314v2.69a1.868 1.868 0 0 1-.929 1.615l-.364.263a5.232 5.232 0 0 1-5.127.078l-4.747-2.573a.811.811 0 0 1-.018-1.418 5.476 5.476 0 0 1 2.948-1.173 10.373 10.373 0 0 0 1.367.14l2.2.3z"/><path fill="#363650" d="M78.06 140.768l4.747 2.574a5.232 5.232 0 0 0 5.126-.078l.364-.262a1.868 1.868 0 0 0 .929-1.615v.617a1.868 1.868 0 0 1-.929 1.615l-.364.262a5.232 5.232 0 0 1-5.127.077l-4.747-2.573a.805.805 0 0 1-.357-1.022.792.792 0 0 0 .357.405z"/><path fill="#fff" d="M81.565 140.5l-.553-.273.662-1.339a5.502 5.502 0 0 0 .665.047zm1.124.273l-.553-.273.738-1.493.644.087z"/><path fill="#48486a" d="M81.524 144.721v2.69a1.868 1.868 0 0 1-.929 1.615l-.364.263a5.232 5.232 0 0 1-5.127.077l-4.748-2.573a.811.811 0 0 1-.017-1.417 5.477 5.477 0 0 1 2.947-1.173 10.372 10.372 0 0 0 1.368.14l2.2.3z"/><path fill="#363650" d="M70.356 146.176l4.75 2.574a5.232 5.232 0 0 0 5.125-.078l.363-.262a1.868 1.868 0 0 0 .93-1.615v.617a1.868 1.868 0 0 1-.929 1.614l-.364.263a5.232 5.232 0 0 1-5.127.078l-4.748-2.574a.805.805 0 0 1-.356-1.022.792.792 0 0 0 .358.405z"/><path fill="#f2b1b5" d="M80.812 95.752a1.944 1.944 0 0 0 .976-3.626l-8.836-5.116a1.944 1.944 0 0 0-1.947 3.366l8.835 5.115a1.936 1.936 0 0 0 .972.261z"/><path fill="#f2b1b5" d="M73.867 90.746l.017.082a.46.46 0 0 1-.357.545l-2.128.448a.46.46 0 0 1-.544-.356l-.018-.083a.462.462 0 0 1 .356-.547l2.126-.447a.462.462 0 0 1 .547.358h.001z"/><path fill="#d4daed" d="M86.917 142.183a2.342 2.342 0 0 0 2.299-2.385q-.002-.086-.01-.171l-.801-16.181 1.07-17.601a2.556 2.556 0 0 0-2.555-2.558h-.003c-1.412 0-4.16 1.145-4.16 2.558l1.604 33.782a2.556 2.556 0 0 0 2.556 2.556z"/><path fill="#d4daed" d="M78.952 147.661a2.556 2.556 0 0 0 2.558-2.555v-.001l-.327-17.298 1.931-16.484c0-1.413-2.75-2.558-4.16-2.558a2.556 2.556 0 0 0-2.558 2.555v33.785a2.556 2.556 0 0 0 2.556 2.556z"/><path fill="#49486b" d="M88.672 102.945l1.096 8.133a2.877 2.877 0 0 1-1.44 2.491l-6.668 3.746a2.677 2.677 0 0 1-4.015-2.318V98.49c0-1.028-2.14-.32-1.25-.834l9.358-5.402c1.784-1.032 2.92 8.632 2.92 10.692z" opacity=".3" style="isolation:isolate"/><path fill="url(#A)" d="M106.441 89.79l-.507 7.875c.17 1.677.113 3.355.282 5.03a75.224 75.224 0 0 1 .435 8.1c-.124.605-1.782 1.92-3.994 3.072-.203.105-.41-5.033-.621-4.93-.195.093-.395 5.427-.595 5.518-2.814 1.259-6.164 2.068-8.433.974l.265-9.626-.467-6.004c-.29-4.114-1.08-9.607 2.964-12.125q.257-.161.525-.306l4.305-2.351a3.284 3.284 0 0 1 3.285 0 5.132 5.132 0 0 1 2.556 4.772z" transform="translate(-16.878 .097)"/><path fill="#fff" d="M73.863 145.908l-.552-.273.66-1.34a5.482 5.482 0 0 0 .665.047zm1.124.273l-.554-.273.739-1.494.644.088z"/><path fill="#f2b1b5" d="M83 87.75a1.533 1.533 0 0 0 1.532-1.533V80.19a1.533 1.533 0 1 0-3.066 0v6.028a1.533 1.533 0 0 0 1.533 1.532z"/><path fill="#f2b1b5" d="M83.14 85.915h-.638a5.684 5.684 0 0 1-5.683-5.684v-4.53h6.32a1.24 1.24 0 0 1 1.241 1.239v7.735a1.24 1.24 0 0 1-1.24 1.24z"/><path fill="#49486b" d="M74.89 73.549a2.121 2.121 0 0 1 1.104-.81 12.563 12.563 0 0 1 2.527-.222 13.939 13.939 0 0 1 2.681-.138 9.541 9.541 0 0 1 4.94 1.718 2.805 2.805 0 0 1 1.4 2.167 10.78 10.78 0 0 1 .304 4.188 8.721 8.721 0 0 1-1.805 3.805 2.88 2.88 0 0 1-1.132.913c-1.786.682-2.9-2.348-3.143-3.613-.09-.472-.29-1.015-.755-1.137a.902.902 0 0 0-.863.304 1.993 1.993 0 0 0-.41.862 1.17 1.17 0 0 1-.202.492.352.352 0 0 1-.477.077L79 79.19c-.012-.567.173-1.567-.268-2.02-.353-.363-1.172-.419-1.633-.545a3.773 3.773 0 0 1-1.946-1.013 1.814 1.814 0 0 1-.419-1.742 1.494 1.494 0 0 1 .157-.32z"/><path fill="#49486b" d="M81.191 83.87q-.028-.08-.059-.159c-.359-.934-1.245-1.463-1.371-2.446a4.571 4.571 0 0 1-.03-.663c-.194-.044-.532-.113-.728-.157.017.777.12 2.237-.7 2.66a.712.712 0 0 1-.91-.21 2.228 2.228 0 0 1-.146-.83c-.041-.25-.315-.892-.65-.839-.378.06-.316.856-.319 1.1a4.078 4.078 0 0 0 .46 2.159 3.54 3.54 0 0 0 2.63 1.47 2.767 2.767 0 0 0 1.132-.137 1.331 1.331 0 0 0 .802-.774 1.8 1.8 0 0 0-.109-1.175z"/><path fill="#f2b1b5" d="M66.914 96.215h-.077a.417.417 0 0 1-.417-.417v-1.961a.417.417 0 0 1 .417-.416h.077a.417.417 0 0 1 .417.416v1.962a.416.416 0 0 1-.416.416z"/><path fill="#231f20" d="M77.495 100.02a4.784 4.784 0 0 1-1.4 1.7l-.139-1.62q-.07-.957-.088-1.918c.006-.665.036-1.338.109-2l1.901-3.85a1.444 1.444 0 0 1 2.035-.667 1.711 1.711 0 0 1 .613 2.216z" opacity=".3" style="isolation:isolate"/><path fill="#f2b1b5" d="M72.173 102.18a5.253 5.253 0 0 0 4.455-2.469l3.966-6.34a1.756 1.756 0 1 0-2.977-1.86l-3.965 6.338a1.747 1.747 0 0 1-2.563.448l-5.32-4.188a1.755 1.755 0 0 0-2.17 2.758l5.32 4.186a5.265 5.265 0 0 0 3.253 1.127z"/><path fill="url(#B)" d="M93.071 97.338a3.151 3.151 0 0 1-1.601-1.554l2.849-4.48a1.963 1.963 0 1 1 3.328 2.082l-2.4 3.836q-.39.632-.741 1.285a3.593 3.593 0 0 0-1.435-1.17z" transform="translate(-16.878 .097)"/></g></svg>