<svg xmlns="http://www.w3.org/2000/svg" xmlns:xlink="http://www.w3.org/1999/xlink" data-name="scalability" viewBox="0 0 145.515 150"><defs><linearGradient id="d" x1="-.266" x2="83.145" y1="97.432" y2="97.432" gradientTransform="rotate(180 43.886 76.168)" gradientUnits="userSpaceOnUse"><stop offset="0" stop-color="#ebe9eb"/><stop offset="1" stop-color="#99a7d8"/></linearGradient><linearGradient id="e" x1="-55.295" x2="80.856" y1="46.553" y2="46.553" gradientTransform="rotate(180 43.886 76.168)" gradientUnits="userSpaceOnUse"><stop offset="0" stop-color="#fff"/><stop offset="1" stop-color="#99a7d8"/></linearGradient><linearGradient id="a" x1="-536.933" x2="-519.655" y1="484.358" y2="484.358" gradientTransform="matrix(-1 0 0 1 -496.334 -425.53)" gradientUnits="userSpaceOnUse"><stop offset="0" stop-color="#4e9dd5"/><stop offset=".02" stop-color="#4e9ed5"/><stop offset=".48" stop-color="#53a8da"/><stop offset="1" stop-color="#54acdc"/></linearGradient><linearGradient id="b" x1="-533.878" x2="-533.878" y1="504.855" y2="472.649" gradientTransform="matrix(-1 0 0 1 -496.334 -425.53)" gradientUnits="userSpaceOnUse"><stop offset="0" stop-color="#4e9dd5"/><stop offset=".57" stop-color="#4f9fd6"/><stop offset=".9" stop-color="#52a8da"/><stop offset="1" stop-color="#54acdc"/></linearGradient><linearGradient id="f" x1="-539.193" x2="-529.692" y1="497.123" y2="480.664" xlink:href="#a"/><linearGradient id="g" x1="-579.32" x2="-562.042" y1="459.158" y2="459.158" xlink:href="#a"/><linearGradient id="h" x1="-576.264" x2="-576.264" y1="479.655" y2="447.448" xlink:href="#b"/><linearGradient id="i" x1="-581.579" x2="-572.079" y1="471.922" y2="455.464" xlink:href="#a"/><linearGradient id="j" x1="122.925" x2="132.028" y1="59.576" y2="59.576" gradientTransform="matrix(-1 0 0 1 189.706 0)" xlink:href="#b"/><linearGradient id="k" x1="120.437" x2="136.486" y1="40.261" y2="40.261" gradientTransform="matrix(-1 0 0 1 189.706 0)" gradientUnits="userSpaceOnUse"><stop offset="0" stop-color="#fad604"/><stop offset=".98" stop-color="#fac019"/></linearGradient><linearGradient id="l" x1="-34.511" x2="13.796" y1="70.263" y2="70.263" gradientTransform="matrix(1 0 0 -1 115.505 152.336)" gradientUnits="userSpaceOnUse"><stop offset="0" stop-color="#4f9ed7"/><stop offset=".48" stop-color="#53a9db"/><stop offset="1" stop-color="#55addd"/></linearGradient><linearGradient id="m" x1="-11.781" x2="-10.34" y1="91.774" y2="89.406" gradientTransform="translate(114.898 .26)" gradientUnits="userSpaceOnUse"><stop offset=".02" stop-color="#fac019"/><stop offset="1" stop-color="#fad604"/></linearGradient><linearGradient id="c" x1="2.265" x2="3.874" y1="203.375" y2="203.375" gradientTransform="rotate(180 65.027 126.168)" gradientUnits="userSpaceOnUse"><stop offset="0" stop-color="#fed900"/><stop offset=".92" stop-color="#e9b820"/></linearGradient><linearGradient id="n" x1="4.075" x2="6.535" y1="203.591" y2="203.591" xlink:href="#c"/><linearGradient id="o" x1="101.284" x2="139.881" y1="21.914" y2="21.914" gradientTransform="matrix(1 0 0 -1 0 152.336)" gradientUnits="userSpaceOnUse"><stop offset="0" stop-color="#d4daed"/><stop offset="1" stop-color="#9aa7d5"/></linearGradient></defs><g data-name="5164c586-8b88-4ea8-8e40-8439ae88d868"><path fill="none" d="M92.176 68.98l52.48 29.99a1.702 1.702 0 0 1 0 2.958l-81.7 47.173a6.77 6.77 0 0 1-6.742 0l-52.479-30a1.702 1.702 0 0 1 0-2.957l81.7-47.154a6.77 6.77 0 0 1 6.741-.01z" data-name="d0a47fa0-91f1-4977-992a-b0ae32ab4b78"/><path fill="#fbfbfb" d="M92.12 69.028l52.317 29.857a1.702 1.702 0 0 1 0 2.948l-81.443 47.068a6.751 6.751 0 0 1-6.723 0L3.973 118.996a1.702 1.702 0 0 1 0-2.947l81.424-47.012a6.751 6.751 0 0 1 6.722-.01z" opacity=".024" style="isolation:isolate"/><path fill="#f6f6f8" d="M92.072 69.075l52.155 29.81a1.693 1.693 0 0 1 0 2.939L63.023 148.71a6.732 6.732 0 0 1-6.704 0l-52.155-29.81a1.693 1.693 0 0 1 0-2.938l81.204-46.878a6.732 6.732 0 0 1 6.704-.01z" opacity=".049" style="isolation:isolate"/><path fill="#f2f2f4" d="M92.015 69.123l51.994 29.762a1.683 1.683 0 0 1 0 2.93L63.05 148.55a6.704 6.704 0 0 1-6.656 0L4.401 118.825a1.683 1.683 0 0 1 0-2.928l80.93-46.755a6.704 6.704 0 0 1 6.684-.02z" opacity=".073" style="isolation:isolate"/><path fill="#ededf1" d="M91.958 69.17L143.8 98.8a1.683 1.683 0 0 1 0 2.92l-80.71 46.592a6.656 6.656 0 0 1-6.656 0L4.6 118.682a1.683 1.683 0 0 1 0-2.919L85.31 69.17a6.656 6.656 0 0 1 6.647 0z" opacity=".098" style="isolation:isolate"/><path fill="#e9e9ed" d="M91.9 69.218l51.71 29.544a1.673 1.673 0 0 1 0 2.91l-80.464 46.45a6.656 6.656 0 0 1-6.656 0L4.781 118.597a1.673 1.673 0 0 1 0-2.91l80.483-46.45a6.656 6.656 0 0 1 6.637-.019z" opacity=".122" style="isolation:isolate"/><path fill="#e4e4e9" d="M91.853 69.266l51.519 29.477a1.673 1.673 0 0 1 0 2.852l-80.207 46.308a6.656 6.656 0 0 1-6.656 0L4.991 118.426a1.673 1.673 0 0 1 0-2.853l80.235-46.288a6.656 6.656 0 0 1 6.627-.02z" opacity=".146" style="isolation:isolate"/><path fill="#e0e0e6" d="M91.796 69.313l51.348 29.354a1.664 1.664 0 0 1 0 2.852l-79.96 46.165a6.656 6.656 0 0 1-6.599 0L5.238 118.331a1.664 1.664 0 0 1 0-2.853l79.96-46.146a6.656 6.656 0 0 1 6.598-.019z" opacity=".171" style="isolation:isolate"/><path fill="#dbdbe2" d="M91.74 69.408l51.194 29.22a1.664 1.664 0 0 1 0 2.853l-79.712 46.022a6.656 6.656 0 0 1-6.58 0L5.447 118.236a1.664 1.664 0 0 1 0-2.853l79.712-45.975a6.656 6.656 0 0 1 6.58 0z" opacity=".195" style="isolation:isolate"/><path fill="#d7d7de" d="M91.682 69.408l51.043 29.183a1.655 1.655 0 0 1 0 2.852L63.27 147.38a6.59 6.59 0 0 1-6.561 0L5.666 118.207a1.655 1.655 0 0 1 0-2.852L85.12 69.408a6.59 6.59 0 0 1 6.561 0z" opacity=".22" style="isolation:isolate"/><path fill="#d3d2db" d="M91.634 69.465l50.872 29.088a1.655 1.655 0 0 1 0 2.852L63.29 147.142a6.561 6.561 0 0 1-6.542 0L5.865 118.055a1.655 1.655 0 0 1 0-2.853l79.228-45.727a6.561 6.561 0 0 1 6.541-.01z" opacity=".244" style="isolation:isolate"/><path fill="#ceced7" d="M91.577 69.513l50.72 28.992a1.645 1.645 0 0 1 0 2.853l-78.923 45.594a6.542 6.542 0 0 1-6.523 0L6.131 117.96a1.645 1.645 0 0 1 0-2.853l78.923-45.594a6.542 6.542 0 0 1 6.523 0z" opacity=".268" style="isolation:isolate"/><path fill="#cacad4" d="M91.52 69.56l50.559 28.907a1.645 1.645 0 0 1 0 2.853L63.354 146.77a6.523 6.523 0 0 1-6.494 0L6.312 117.904a1.645 1.645 0 0 1 0-2.853l78.714-45.47a6.523 6.523 0 0 1 6.494-.02z" opacity=".293" style="isolation:isolate"/><path fill="#c5c5d0" d="M91.464 69.608l50.396 28.811a1.635 1.635 0 0 1 0 2.853l-78.476 45.31a6.504 6.504 0 0 1-6.476 0L6.512 117.77a1.635 1.635 0 0 1 0-2.853l78.476-45.29a6.504 6.504 0 0 1 6.476-.02z" opacity=".317" style="isolation:isolate"/><path fill="#c1c1cc" d="M91.416 69.655l50.235 28.726a1.626 1.626 0 0 1 0 2.853l-78.22 45.167a6.485 6.485 0 0 1-6.456 0L6.731 117.684a1.626 1.626 0 0 1 0-2.852l78.228-45.158a6.485 6.485 0 0 1 6.457-.019z" opacity=".341" style="isolation:isolate"/><path fill="#bcbcc9" d="M91.311 69.703l50.13 28.63a1.626 1.626 0 0 1 0 2.853L63.47 146.201a6.466 6.466 0 0 1-6.437 0L6.95 117.57a1.626 1.626 0 0 1 0-2.853l77.972-45.015a6.466 6.466 0 0 1 6.39 0z" opacity=".366" style="isolation:isolate"/><path fill="#b8b8c5" d="M91.311 69.76l49.921 28.526a1.617 1.617 0 0 1 0 2.853L63.507 146.01a6.437 6.437 0 0 1-6.418 0L7.17 117.484a1.617 1.617 0 0 1 0-2.852l77.715-44.863a6.437 6.437 0 0 1 6.427-.009z" opacity=".39" style="isolation:isolate"/><path fill="#b3b3c1" d="M91.245 69.807l49.769 28.441a1.617 1.617 0 0 1 0 2.805l-77.478 44.692a6.418 6.418 0 0 1-6.4 0l-49.759-28.45a1.617 1.617 0 0 1 0-2.806l77.478-44.691a6.418 6.418 0 0 1 6.39.01z" opacity=".415" style="isolation:isolate"/><path fill="#afafbe" d="M91.197 69.855l49.56 28.355a1.607 1.607 0 0 1 0 2.796l-77.23 44.586a6.4 6.4 0 0 1-6.38 0L7.634 117.247a1.607 1.607 0 0 1 0-2.796l77.183-44.586a6.4 6.4 0 0 1 6.38-.01z" opacity=".439" style="isolation:isolate"/><path fill="#aaaaba" d="M91.14 69.903l49.446 28.26a1.607 1.607 0 0 1 0 2.786l-77.021 44.444a6.38 6.38 0 0 1-6.352 0l-49.446-28.26a1.607 1.607 0 0 1 0-2.786l77.021-44.444a6.38 6.38 0 0 1 6.352 0z" opacity=".463" style="isolation:isolate"/><path fill="#a6a6b7" d="M91.083 69.95l49.284 28.175a1.597 1.597 0 0 1 0 2.777l-76.726 44.291a6.361 6.361 0 0 1-6.333 0L8.024 117.02a1.597 1.597 0 0 1 0-2.777L84.75 69.96a6.361 6.361 0 0 1 6.333-.01z" opacity=".488" style="isolation:isolate"/><path fill="#a2a2b3" d="M91.026 69.998l49.122 28.08a1.597 1.597 0 0 1 0 2.766l-76.47 44.159a6.342 6.342 0 0 1-6.314 0L8.243 116.952a1.597 1.597 0 0 1 0-2.767l76.47-44.168a6.342 6.342 0 0 1 6.313-.02z" opacity=".512" style="isolation:isolate"/><path fill="#9d9daf" d="M90.978 70.045L139.94 98.04a1.588 1.588 0 0 1 0 2.758l-76.203 44.006a6.314 6.314 0 0 1-6.295 0L8.481 116.81a1.588 1.588 0 0 1 0-2.757l76.174-43.988a6.314 6.314 0 0 1 6.323-.019z" opacity=".537" style="isolation:isolate"/><path fill="#9999ac" d="M90.921 70.093l48.8 27.898a1.588 1.588 0 0 1 0 2.749l-75.985 43.873a6.295 6.295 0 0 1-6.276 0L8.661 116.714a1.588 1.588 0 0 1 0-2.748l75.994-43.854a6.295 6.295 0 0 1 6.266-.02z" opacity=".561" style="isolation:isolate"/><path fill="#9494a8" d="M90.864 70.14l48.647 27.795a1.579 1.579 0 0 1 0 2.738l-75.737 43.74a6.276 6.276 0 0 1-6.257 0L8.87 116.61a1.579 1.579 0 0 1 0-2.739L84.655 70.16a6.276 6.276 0 0 1 6.21-.018z" opacity=".585" style="isolation:isolate"/><path fill="#9090a5" d="M90.807 70.197l48.485 27.738a1.569 1.569 0 0 1 0 2.728l-75.49 43.589a6.257 6.257 0 0 1-6.228 0L9.08 116.534a1.569 1.569 0 0 1 0-2.73l75.5-43.597a6.257 6.257 0 0 1 6.228-.01z" opacity=".61" style="isolation:isolate"/><path fill="#8b8ba1" d="M90.76 70.245l48.324 27.623a1.569 1.569 0 0 1 0 2.72L63.84 144.024a6.238 6.238 0 0 1-6.209 0L9.308 116.4a1.569 1.569 0 0 1 0-2.72L84.54 70.254a6.238 6.238 0 0 1 6.219-.01z" opacity=".634" style="isolation:isolate"/><path fill="#87879d" d="M90.703 70.292l48.152 27.529a1.56 1.56 0 0 1 0 2.71l-74.996 43.293a6.219 6.219 0 0 1-6.19 0L9.507 116.248a1.56 1.56 0 0 1 0-2.71l75.005-43.236a6.219 6.219 0 0 1 6.19-.01z" opacity=".659" style="isolation:isolate"/><path fill="#82829a" d="M90.646 70.359l48.01 27.423a1.56 1.56 0 0 1 0 2.7l-74.74 43.152a6.19 6.19 0 0 1-6.17 0L9.735 116.19a1.56 1.56 0 0 1 0-2.7L84.473 70.36a6.19 6.19 0 0 1 6.172 0z" opacity=".683" style="isolation:isolate"/><path fill="#7e7e96" d="M90.588 70.359l47.849 27.376a1.55 1.55 0 0 1 0 2.69l-74.492 43.009a6.171 6.171 0 0 1-6.152 0L9.945 116.087a1.55 1.55 0 0 1 0-2.691l74.5-43.037a6.171 6.171 0 0 1 6.144 0z" opacity=".707" style="isolation:isolate"/><path fill="#7a7992" d="M90.541 70.435l47.687 27.262a1.55 1.55 0 0 1 0 2.681l-74.245 42.866a6.152 6.152 0 0 1-6.133 0L10.164 116a1.55 1.55 0 0 1 0-2.681l74.244-42.866a6.152 6.152 0 0 1 6.133-.019z" opacity=".732" style="isolation:isolate"/><path fill="#75758f" d="M90.484 70.483l47.544 27.166a1.54 1.54 0 0 1 0 2.672L64.02 143.054a6.133 6.133 0 0 1-6.105 0l-47.544-27.167a1.54 1.54 0 0 1 0-2.672L84.37 70.502a6.133 6.133 0 0 1 6.114-.02z" opacity=".756" style="isolation:isolate"/><path fill="#71718b" d="M90.427 70.53L137.8 97.613a1.54 1.54 0 0 1 0 2.662l-73.75 42.58a6.114 6.114 0 0 1-6.086 0l-47.363-27.081a1.54 1.54 0 0 1 0-2.663l73.74-42.56a6.114 6.114 0 0 1 6.086-.02z" opacity=".78" style="isolation:isolate"/><path fill="#6c6c88" d="M90.36 70.578l47.22 26.986a1.53 1.53 0 0 1 0 2.653l-73.492 42.409a6.095 6.095 0 0 1-6.067 0L10.81 115.64a1.53 1.53 0 0 1 0-2.653l73.494-42.39a6.095 6.095 0 0 1 6.056-.02z" opacity=".805" style="isolation:isolate"/><path fill="#686884" d="M90.36 70.635l47.002 26.89a1.53 1.53 0 0 1 0 2.644l-73.217 42.295a6.067 6.067 0 0 1-6.048 0l-47.05-26.89a1.53 1.53 0 0 1 0-2.644l73.228-42.286a6.067 6.067 0 0 1 6.085-.01z" opacity=".829" style="isolation:isolate"/><path fill="#636380" d="M90.265 70.682l46.888 26.796a1.521 1.521 0 0 1 0 2.643l-73 42.153a6.048 6.048 0 0 1-6.028 0l-46.887-26.805a1.521 1.521 0 0 1 0-2.644l72.999-42.133a6.048 6.048 0 0 1 6.028-.01z" opacity=".854" style="isolation:isolate"/><path fill="#5f5f7d" d="M90.208 70.73l46.745 26.71a1.512 1.512 0 0 1 0 2.634l-72.751 42.01a6.029 6.029 0 0 1-6.01 0l-46.755-26.71a1.512 1.512 0 0 1 0-2.634l72.761-42a6.029 6.029 0 0 1 6.01-.01z" opacity=".878" style="isolation:isolate"/><path fill="#5a5a79" d="M90.151 70.777l46.593 26.625a1.512 1.512 0 0 1 0 2.624L64.24 141.865a6.01 6.01 0 0 1-5.99 0l-46.594-26.624a1.512 1.512 0 0 1 0-2.625l72.505-41.839a6.01 6.01 0 0 1 5.99 0z" opacity=".902" style="isolation:isolate"/><path fill="#565676" d="M90.104 70.825l46.402 26.53a1.502 1.502 0 0 1 0 2.614L64.24 141.684a5.99 5.99 0 0 1-5.962 0l-46.413-26.53a1.502 1.502 0 0 1 0-2.614l72.267-41.715a5.99 5.99 0 0 1 5.972 0z" opacity=".927" style="isolation:isolate"/><path fill="#525172" d="M90.046 70.873l46.251 26.443a1.502 1.502 0 0 1 0 2.606l-72.01 41.572a5.971 5.971 0 0 1-5.943 0l-46.25-26.443a1.502 1.502 0 0 1 0-2.606l72.01-41.553a5.971 5.971 0 0 1 5.942-.02z" opacity=".951" style="isolation:isolate"/><path fill="#4d4d6e" d="M89.99 70.92l46.088 26.349a1.493 1.493 0 0 1 0 2.596l-71.753 41.43a5.943 5.943 0 0 1-5.924 0l-46.089-26.349a1.493 1.493 0 0 1 0-2.596l71.754-41.41a5.943 5.943 0 0 1 5.923-.02z" opacity=".976" style="isolation:isolate"/><path fill="#49486b" d="M89.932 70.968L135.86 97.22a1.493 1.493 0 0 1 0 2.587l-71.496 41.296a5.924 5.924 0 0 1-5.905 0L12.53 114.851a1.493 1.493 0 0 1 0-2.587l71.496-41.277a5.924 5.924 0 0 1 5.905-.02z" data-name="6737871d-dbdc-47e3-8518-2e21181ee376"/><path fill="url(#d)" d="M6.339 45.708L85.632-.048a1.607 1.607 0 0 1 2.406 1.388v59.735a3.49 3.49 0 0 1-1.75 3.023L7.033 109.855a1.607 1.607 0 0 1-2.406-1.389V48.732a3.49 3.49 0 0 1 1.712-3.024z" data-name="6180c3f5-c4d3-4f68-9a0e-e17ab9d67d95" transform="translate(-.606 .26)"/><path fill="#49486b" d="M6.797 46.654L86.053.897a1.607 1.607 0 0 1 2.406 1.389V62.01a3.49 3.49 0 0 1-1.75 3.023L7.454 110.791a1.607 1.607 0 0 1-2.406-1.389V49.677a3.49 3.49 0 0 1 1.75-3.023z" data-name="d2023f8b-9eba-4fbf-aa88-f4b18f5f7b85"/><path fill="#fff" d="M9.745 50.429L84.332 7.116v54.638L9.745 105.066V50.429z" data-name="a4bd9804-79c2-4b09-afc2-b1b39a21d883"/><path fill="url(#e)" d="M92.279 67.655l50.758 26.767s.275 3.965-.809 4.593l-77.762 44.89a6.447 6.447 0 0 1-6.419 0L8.107 115.38c-2.063-1.284-.817-4.593-.817-4.593l78.57-43.122a6.447 6.447 0 0 1 6.419-.01z" data-name="c014855b-e36a-4d09-a8a2-355e8cbd5594" transform="translate(-.606 .26)"/><path fill="#f7f7f7" d="M91.672 64.844l49.94 28.526a1.617 1.617 0 0 1 0 2.853l-77.762 44.89a6.447 6.447 0 0 1-6.418 0l-49.94-28.526a1.617 1.617 0 0 1 0-2.852l77.762-44.882a6.447 6.447 0 0 1 6.419-.009z" data-name="808c86a7-6d4e-43c3-9f94-92f6b00bc511"/><path fill="#e5e9f4" d="M96.066 101.814l13.198 7.531a.428.428 0 0 1 0 .742l-20.492 11.829a1.702 1.702 0 0 1-1.692 0l-13.16-7.522a.428.428 0 0 1 0-.742l20.491-11.838a1.702 1.702 0 0 1 1.655 0z" data-name="985edd17-ccaf-4de6-b13b-9d74cff38557"/><path fill="#d4daed" d="M86.167 69.199l-4.308 2.482a.257.257 0 0 0 0 .447L84 73.353a.551.551 0 0 0 .551 0l4.299-2.482a.257.257 0 0 0 0-.447l-2.14-1.226a.551.551 0 0 0-.542 0z" data-name="a39f27a7-f4f3-4eff-b784-28c53e04acf7"/><path fill="#d4daed" d="M79.9 72.955l-4.307 2.482a.257.257 0 0 0 0 .447l2.14 1.227a.551.551 0 0 0 .551 0l4.308-2.482a.257.257 0 0 0 0-.447l-2.14-1.227a.551.551 0 0 0-.551 0z" data-name="39f810b7-128f-4122-8f24-f481ef95c9b4"/><path fill="#d4daed" d="M73.54 76.511l-4.308 2.482a.257.257 0 0 0 0 .447l2.11 1.236a.551.551 0 0 0 .552 0l4.298-2.482a.257.257 0 0 0 0-.447l-2.14-1.226a.551.551 0 0 0-.513-.01z" data-name="8df05768-637c-443a-a629-3810d699ebb3"/><path fill="#d4daed" d="M67.016 80.191l-4.307 2.482a.257.257 0 0 0 0 .447l2.14 1.226a.551.551 0 0 0 .55 0l4.308-2.481a.257.257 0 0 0 0-.447L67.54 80.19a.551.551 0 0 0-.523 0z" data-name="8a843231-5672-4a25-81d3-6800493ab82c"/><path fill="#d4daed" d="M60.75 83.671l-4.308 2.482a.257.257 0 0 0 0 .447l2.14 1.227a.551.551 0 0 0 .551 0l4.317-2.473a.257.257 0 0 0 0-.447l-2.139-1.236a.551.551 0 0 0-.561 0z" data-name="8238f20d-6be5-4def-9102-5d450141d1b9"/><path fill="#d4daed" d="M54.664 87.475l-4.307 2.482a.257.257 0 0 0 0 .447l2.14 1.227a.551.551 0 0 0 .55 0l4.308-2.482a.257.257 0 0 0 0-.447l-2.177-1.227a.551.551 0 0 0-.514 0z" data-name="e771145f-2e80-47c6-ab6a-26e178553eb5"/><path fill="#d4daed" d="M48.294 90.945l-4.308 2.482a.257.257 0 0 0 0 .447l2.14 1.208a.551.551 0 0 0 .551 0l4.308-2.482a.257.257 0 0 0 0-.447l-2.14-1.227a.551.551 0 0 0-.551.02z" data-name="5e5cf13e-25aa-4242-b9a9-b825a0176e86"/><path fill="#d4daed" d="M42.008 94.692l-4.307 2.482a.257.257 0 0 0 0 .447l2.149 1.264a.551.551 0 0 0 .551 0l4.317-2.52a.257.257 0 0 0 0-.446l-2.14-1.227a.551.551 0 0 0-.57 0z" data-name="d4536420-d6d7-4479-b046-0bef4d0e187a"/><path fill="#d4daed" d="M35.837 98.334l-4.298 2.482a.257.257 0 0 0 0 .446l2.14 1.227a.551.551 0 0 0 .551 0l4.308-2.482a.257.257 0 0 0 0-.447l-2.14-1.226a.551.551 0 0 0-.561 0z" data-name="8f3f2580-ceee-40f0-bf9f-dd25f690b865"/><path fill="#d4daed" d="M29.324 102.08l-4.308 2.482a.257.257 0 0 0 0 .447l2.14 1.227a.551.551 0 0 0 .551 0l4.308-2.482a.257.257 0 0 0 0-.447l-2.14-1.226a.551.551 0 0 0-.551 0z" data-name="ae94cd3d-09e0-4dac-8fa7-897ca26612da"/><path fill="#d4daed" d="M23 105.627l-4.307 2.482a.257.257 0 0 0 0 .447l2.14 1.226a.551.551 0 0 0 .55 0l4.318-2.481a.257.257 0 0 0 0-.447l-2.14-1.227a.551.551 0 0 0-.56 0z" data-name="e1c4569b-ddf8-4c00-9c63-679ba872f749"/><g fill="#d4daed" data-name="f76bcf04-d8f9-4c8c-a992-fbf8a9eb7efc"><path d="M94.924 73.887l-2.919-1.712a1.217 1.217 0 0 0-1.226 0l-2.853 1.646a.609.609 0 0 0 0 1.046l2.853 1.74a1.217 1.217 0 0 0 1.245 0l2.92-1.683a.609.609 0 0 0-.02-1.037z" data-name="53e09ef5-7f35-4c91-b4be-de254a1f5e0e"/><path d="M88.392 77.643l-2.92-1.712a1.217 1.217 0 0 0-1.226 0l-2.852 1.645a.609.609 0 0 0 0 1.046l2.852 1.74a1.217 1.217 0 0 0 1.246 0l2.92-1.683a.609.609 0 0 0-.02-1.036z" data-name="d1157c93-cb51-4ba7-8b29-09372cd28eaa"/><path d="M82.06 81.199l-2.92-1.712a1.217 1.217 0 0 0-1.227 0l-2.852 1.645a.609.609 0 0 0 0 1.046l2.852 1.74a1.217 1.217 0 0 0 1.246 0l2.89-1.673a.609.609 0 0 0 .01-1.046z" data-name="bb065071-242e-4841-b4d6-545d72d67913"/><path d="M75.317 84.87l-2.919-1.712a1.217 1.217 0 0 0-1.226 0l-2.853 1.645a.609.609 0 0 0 0 1.046l2.853 1.74a1.217 1.217 0 0 0 1.245 0l2.92-1.683a.609.609 0 0 0-.02-1.037z" data-name="926cc91a-7e18-419f-87f4-de75c317c0fa"/><path d="M69.374 88.36l-2.919-1.712a1.217 1.217 0 0 0-1.226 0l-2.853 1.645a.609.609 0 0 0 0 1.046l2.853 1.74a1.217 1.217 0 0 0 1.245 0l2.9-1.702a.609.609 0 0 0 0-1.018z" data-name="4ab6dcc7-d1eb-4bc1-aadb-7527b6f9a7d9"/><path d="M63.336 92.096l-2.919-1.712a1.217 1.217 0 0 0-1.226 0l-2.853 1.645a.609.609 0 0 0 0 1.046l2.853 1.74a1.217 1.217 0 0 0 1.245 0l2.9-1.635a.609.609 0 0 0 0-1.084z" data-name="57e72b86-82f9-466e-b8d1-a60c1fce7c1c"/><path d="M56.89 95.633l-2.92-1.711a1.217 1.217 0 0 0-1.226 0l-2.853 1.645a.609.609 0 0 0 0 1.046l2.853 1.74a1.217 1.217 0 0 0 1.245 0l2.92-1.683a.609.609 0 0 0-.02-1.037z" data-name="fd32d5fc-1433-4299-b231-4441fd57f46e"/><path d="M50.585 99.209l-2.92-1.712a1.217 1.217 0 0 0-1.226 0l-2.852 1.645a.609.609 0 0 0 0 1.046l2.852 1.74a1.217 1.217 0 0 0 1.246 0l2.92-1.683a.609.609 0 0 0-.02-1.036z" data-name="dee3147e-3ce5-413b-8d98-b9a71dd25375"/><path d="M44.376 103.012l-2.92-1.711a1.217 1.217 0 0 0-1.226 0l-2.852 1.645a.609.609 0 0 0 0 1.046l2.852 1.74a1.217 1.217 0 0 0 1.246 0l2.919-1.683a.609.609 0 0 0-.02-1.037z" data-name="893adb3b-8b22-42a0-b39f-b8fe119276bf"/><path d="M37.615 106.996l-2.919-1.711a1.217 1.217 0 0 0-1.227 0l-2.852 1.645a.609.609 0 0 0 0 1.046l2.852 1.74a1.217 1.217 0 0 0 1.246 0l2.92-1.683a.609.609 0 0 0-.02-1.037z" data-name="a4d9cff1-eb0b-4c96-9e1c-198e4eea46ff"/><path d="M31.501 110.296l-2.92-1.712a1.217 1.217 0 0 0-1.226 0l-2.852 1.645a.609.609 0 0 0 0 1.046l2.852 1.74a1.217 1.217 0 0 0 1.246 0l2.919-1.683a.609.609 0 0 0-.019-1.036z" data-name="d68ec40c-f8a7-4331-ad09-86f78154e987"/></g><g fill="#d4daed" data-name="a2bdc0b6-372a-4a29-a920-9d491128efc1"><path d="M101.419 77.415l-2.92-1.712a1.217 1.217 0 0 0-1.226 0l-2.852 1.645a.609.609 0 0 0 0 1.046l2.852 1.74a1.217 1.217 0 0 0 1.246 0l2.92-1.683a.609.609 0 0 0-.02-1.037z" data-name="872c442c-d672-4228-b687-329a87dd457b"/><path d="M94.886 81.17l-2.919-1.711a1.217 1.217 0 0 0-1.226 0l-2.853 1.645a.609.609 0 0 0 0 1.046l2.853 1.74a1.217 1.217 0 0 0 1.245 0l2.92-1.683a.609.609 0 0 0-.02-1.037z" data-name="16d9ff6b-fef1-4481-baed-749efc48b73c"/><path d="M88.554 84.727l-2.948-1.702a1.217 1.217 0 0 0-1.227 0l-2.852 1.645a.609.609 0 0 0 0 1.046l2.852 1.74a1.217 1.217 0 0 0 1.227.019l2.92-1.683a.609.609 0 0 0 .028-1.065z" data-name="ced7c7cc-5bfc-44d5-b6e8-48585576002e"/><path d="M81.802 88.426l-2.918-1.712a1.217 1.217 0 0 0-1.227 0l-2.853 1.645a.609.609 0 0 0 0 1.046l2.852 1.74a1.217 1.217 0 0 0 1.246 0l2.9-1.692a.609.609 0 0 0 0-1.027z" data-name="9c0fa6a2-293e-414b-944a-a20ede1732dc"/><path d="M75.869 91.887l-2.92-1.712a1.217 1.217 0 0 0-1.226 0l-2.853 1.646a.609.609 0 0 0 0 1.046l2.853 1.74a1.217 1.217 0 0 0 1.246 0l2.919-1.683a.609.609 0 0 0-.02-1.037z" data-name="a2aa73b5-0434-458a-b42a-4256bdcc7866"/><path d="M69.84 95.624l-2.919-1.712a1.217 1.217 0 0 0-1.226 0l-2.853 1.645a.609.609 0 0 0 0 1.046l2.853 1.74a1.217 1.217 0 0 0 1.245 0l2.92-1.682a.609.609 0 0 0-.02-1.037z" data-name="84f67e81-0c32-4cb7-bceb-47c7961b1602"/><path d="M63.384 99.161l-2.92-1.712a1.217 1.217 0 0 0-1.226 0l-2.852 1.646a.609.609 0 0 0 0 1.045l2.852 1.74a1.217 1.217 0 0 0 1.246 0l2.919-1.682a.609.609 0 0 0-.02-1.037z" data-name="17a31329-3bcf-4645-b0b2-25b21b722d7b"/><path d="M57.08 102.736l-2.92-1.711a1.217 1.217 0 0 0-1.226 0l-2.853 1.645a.609.609 0 0 0 0 1.046l2.853 1.74a1.217 1.217 0 0 0 1.245 0l2.9-1.664a.609.609 0 0 0 0-1.056z" data-name="166a277d-2a60-4a8e-8f21-caaf70c0c62a"/><path d="M50.87 106.55l-2.919-1.712a1.217 1.217 0 0 0-1.226 0l-2.853 1.645a.609.609 0 0 0 0 1.046l2.853 1.74a1.217 1.217 0 0 0 1.245 0l2.92-1.683a.609.609 0 0 0-.02-1.037z" data-name="df7f22dd-edf5-4802-87b6-2a562856b329"/><path d="M44.11 110.524l-2.92-1.712a1.217 1.217 0 0 0-1.226 0l-2.853 1.645a.609.609 0 0 0 0 1.046l2.853 1.74a1.217 1.217 0 0 0 1.246 0l2.919-1.682a.609.609 0 0 0-.02-1.037z" data-name="74717123-eba5-4698-afc0-b1e49f60f4ad"/><path d="M37.995 113.843l-2.919-1.712a1.217 1.217 0 0 0-1.226 0l-2.853 1.645a.609.609 0 0 0 0 1.046l2.853 1.74a1.217 1.217 0 0 0 1.245 0l2.92-1.683a.609.609 0 0 0-.02-1.037z" data-name="0ef4a843-4b3b-467f-b731-4f41041c680e"/></g><g fill="#d4daed" data-name="221eed73-c01a-4391-9fec-6d64508efec8"><path d="M107.914 80.952l-2.92-1.711a1.217 1.217 0 0 0-1.226 0l-2.853 1.645a.609.609 0 0 0 0 1.046l2.853 1.74a1.217 1.217 0 0 0 1.245 0l2.92-1.683a.609.609 0 0 0-.02-1.037z" data-name="57de5818-a729-4991-a399-451aa307e505"/><path d="M101.381 84.708l-2.92-1.712a1.217 1.217 0 0 0-1.226 0l-2.852 1.645a.609.609 0 0 0 0 1.046l2.852 1.74a1.217 1.217 0 0 0 1.246 0l2.92-1.683a.609.609 0 0 0-.02-1.036z" data-name="0aae3655-3889-421d-80c1-4cf85114af43"/><path d="M95.048 88.264l-2.92-1.74a1.217 1.217 0 0 0-1.226 0L88.05 88.17a.609.609 0 0 0 0 1.046l2.852 1.74a1.217 1.217 0 0 0 1.246 0l2.92-1.683a.609.609 0 0 0-.02-1.008z" data-name="2eac6431-cc80-4619-bd06-8de557fd00a8"/><path d="M88.306 91.934l-2.919-1.711a1.217 1.217 0 0 0-1.226 0l-2.853 1.645a.609.609 0 0 0 0 1.046l2.853 1.74a1.217 1.217 0 0 0 1.245 0l2.92-1.683a.609.609 0 0 0-.02-1.037z" data-name="53436e9e-71a5-46ad-8f04-98b5c78dd7f8"/><path d="M82.364 95.424l-2.92-1.711a1.217 1.217 0 0 0-1.226 0l-2.853 1.645a.609.609 0 0 0 0 1.046l2.853 1.74a1.217 1.217 0 0 0 1.245 0l2.92-1.683a.609.609 0 0 0-.02-1.037z" data-name="e154b1ef-4368-4f59-8bae-30e837ca552b"/><path d="M76.335 99.161l-2.92-1.712a1.217 1.217 0 0 0-1.226 0l-2.852 1.646a.609.609 0 0 0 0 1.045l2.852 1.74a1.217 1.217 0 0 0 1.246 0l2.919-1.682a.609.609 0 0 0-.02-1.037z" data-name="39815eb4-cff6-45cc-9162-5b99f8ad5782"/><path d="M69.878 102.689l-2.919-1.712a1.217 1.217 0 0 0-1.226 0l-2.853 1.645a.609.609 0 0 0 0 1.046l2.853 1.74a1.217 1.217 0 0 0 1.245 0l2.92-1.683a.609.609 0 0 0-.02-1.036z" data-name="45cb0851-9fc3-4e18-a412-cd36e2210a04"/><path d="M63.574 106.274l-2.92-1.712a1.217 1.217 0 0 0-1.226 0l-2.853 1.645a.609.609 0 0 0 0 1.046l2.853 1.74a1.217 1.217 0 0 0 1.246 0l2.919-1.683a.609.609 0 0 0-.02-1.036z" data-name="cb882ebf-1f5e-433b-95dc-42505f5a45bb"/><path d="M57.365 110.077l-2.92-1.711a1.217 1.217 0 0 0-1.226 0l-2.852 1.645a.609.609 0 0 0 0 1.046l2.852 1.74a1.217 1.217 0 0 0 1.246 0l2.919-1.683a.609.609 0 0 0-.02-1.037z" data-name="14b79bc0-91fb-4c03-89ea-282f64faa62c"/><path d="M50.604 114.1l-2.92-1.712a1.217 1.217 0 0 0-1.226 0l-2.853 1.645a.609.609 0 0 0 0 1.046l2.853 1.74a1.217 1.217 0 0 0 1.246 0l2.919-1.683a.609.609 0 0 0-.02-1.037z" data-name="34334c44-72e7-459b-ac06-a51d150c1438"/><path d="M44.49 117.38l-2.92-1.712a1.217 1.217 0 0 0-1.226 0l-2.852 1.645a.609.609 0 0 0 0 1.046l2.852 1.74a1.217 1.217 0 0 0 1.246 0l2.919-1.683a.609.609 0 0 0-.019-1.036z" data-name="f5c1cb14-cdfc-482d-81cd-5bc5b0470b87"/></g><g fill="#d4daed" data-name="d1c21a49-1fe6-49ee-9e70-33f77d8b20d6"><path d="M114.408 84.48l-2.92-1.712a1.217 1.217 0 0 0-1.226 0l-2.852 1.645a.609.609 0 0 0 0 1.046l2.852 1.74a1.217 1.217 0 0 0 1.246 0l2.9-1.626a.609.609 0 0 0 0-1.094z" data-name="13da8a7e-d13e-4212-9e58-fa3fc58a6c75"/><path d="M107.876 88.236l-2.91-1.712a1.217 1.217 0 0 0-1.227 0l-2.853 1.645a.609.609 0 0 0 0 1.046l2.853 1.74a1.217 1.217 0 0 0 1.246 0l2.89-1.674a.609.609 0 0 0 0-1.046z" data-name="d49fef7c-dde8-4ead-bbc1-62241cca19d4"/><path d="M101.543 91.792l-2.92-1.711a1.217 1.217 0 0 0-1.226 0l-2.853 1.644a.609.609 0 0 0 0 1.046l2.852 1.74a1.217 1.217 0 0 0 1.246 0l2.92-1.683a.609.609 0 0 0-.02-1.036z" data-name="6aaaae46-9bb9-4c39-a4f0-ea1e3dfc0138"/><path d="M94.8 95.462l-2.918-1.711a1.217 1.217 0 0 0-1.227 0l-2.853 1.645a.609.609 0 0 0 0 1.046l2.853 1.74a1.217 1.217 0 0 0 1.246 0l2.919-1.683a.609.609 0 0 0-.019-1.037z" data-name="8b86b2fa-939f-45e2-b139-735729b7617c"/><path d="M88.306 99.342l-2.919-1.711a1.217 1.217 0 0 0-1.226 0l-14.825 8.558a.609.609 0 0 0 0 1.046l2.853 1.74a1.217 1.217 0 0 0 1.246 0l14.89-8.558a.609.609 0 0 0-.019-1.075z" data-name="feb97d2f-8e77-4d13-b7da-4bd61657c594"/><path d="M70.069 109.801l-2.92-1.711a1.217 1.217 0 0 0-1.226 0l-2.853 1.645a.609.609 0 0 0 0 1.046l2.853 1.74a1.217 1.217 0 0 0 1.245 0l2.92-1.683a.609.609 0 0 0-.02-1.037z" data-name="12a4afb1-b383-4eff-a454-491dde9022f0"/><path d="M63.86 113.605l-2.92-1.712a1.217 1.217 0 0 0-1.226 0l-2.853 1.645a.609.609 0 0 0 0 1.046l2.853 1.74a1.217 1.217 0 0 0 1.245 0l2.92-1.683a.609.609 0 0 0-.02-1.036z" data-name="223b337d-14ce-45f4-a34e-0c5f87d33705"/><path d="M57.08 117.59l-2.92-1.713a1.217 1.217 0 0 0-1.226 0l-2.853 1.646a.609.609 0 0 0 0 1.045l2.853 1.74a1.217 1.217 0 0 0 1.245 0l2.9-1.664a.609.609 0 0 0 0-1.055z" data-name="ea9ee4ca-fa32-4aaa-a895-a16fcc3b3c2a"/><path d="M50.985 120.908l-2.92-1.702a1.217 1.217 0 0 0-1.226 0l-2.853 1.645a.609.609 0 0 0 0 1.046l2.853 1.74a1.217 1.217 0 0 0 1.245 0l2.92-1.683a.609.609 0 0 0-.02-1.046z" data-name="dca49a6e-f9c3-4527-8691-282a66f5528f"/></g><g fill="#eef0f8" data-name="97642045-cbe3-4c9c-8d58-a2e2aebb2d4a"><path d="M79.323 47.159v2.081l-60.22 34.987v-2.081l60.22-34.987z" data-name="a7223687-641a-4606-be94-99dd06d8a74f"/><path d="M79.323 52.809v2.097l-60.22 34.986v-2.081l60.22-35.002z" data-name="9ef0e5ca-0224-40c2-a8f4-4c8b5c663627"/><path d="M79.323 58.757v2.096L19.103 95.84v-2.082l60.22-35.001z" data-name="a9ff7613-2821-4b0b-907f-429071d35634"/></g><path fill="#eef0f8" d="M78.936 15.101V36.84L61.644 47.025v-21.59l17.292-10.334z" data-name="b81000f5-25e9-4d06-8224-97b568c91673"/><path fill="#eef0f8" d="M36.381 40.304v21.739L19.103 72.228v-21.59l17.278-10.334z" data-name="2fe2fc69-fd17-4b95-a7ba-086962bd2d29"/><path fill="#eef0f8" d="M56.96 29.836v21.739L39.682 61.76V40.17L56.96 29.836z" data-name="8e2879f0-897c-4b08-8a23-a26583c1de57"/><g><path fill="url(#a)" d="M40.599 42.867v21.739L23.321 74.791v-21.59l17.278-10.334z" data-name="53b5144a-bd2b-4874-85eb-c741c4281a4f" opacity=".3" style="isolation:isolate"/><g data-name="71862d94-598a-496c-8980-0c7657d55ebd"><path fill="url(#b)" d="M45.625 47.12l1.13.282-1.13 21.456-16.163 10.468-1.13-.282v-21.59L45.625 47.12z" data-name="efeff389-604e-4912-ba99-a6f5e794091c"/><path fill="url(#f)" d="M46.755 47.402v21.739L29.462 79.326v-21.59l17.293-10.334z" data-name="ec99d2f8-c926-438b-9907-a2d5d4098d86"/></g></g><g><path fill="url(#g)" d="M82.986 17.666v21.739L65.708 49.59V28l17.278-10.334z" data-name="53b5144a-bd2b-4874-85eb-c741c4281a4f" opacity=".3" style="isolation:isolate"/><g data-name="&lt;Group&gt;"><path fill="#ef9ea3" d="M66.85 50.189c.105 0 .21-.002.317-.005a9.384 9.384 0 0 0 7.328-3.885l.853-1.172a1.52 1.52 0 1 0-2.458-1.788l-.853 1.173a6.404 6.404 0 0 1-10.102.33l-3.417-4.103a1.52 1.52 0 1 0-2.335 1.945l3.417 4.104a9.38 9.38 0 0 0 7.25 3.4z" data-name="&lt;Path&gt;"/></g><g data-name="71862d94-598a-496c-8980-0c7657d55ebd"><path fill="url(#h)" d="M88.012 21.919l1.13.282-1.13 21.456-16.163 10.468-1.13-.282v-21.59l17.293-10.334z" data-name="efeff389-604e-4912-ba99-a6f5e794091c"/><path fill="url(#i)" d="M89.142 22.201V43.94L71.849 54.125v-21.59l17.293-10.334z" data-name="ec99d2f8-c926-438b-9907-a2d5d4098d86"/></g><path fill="#f9f7f9" d="M69.63 99.293l-4.086 1.095-2.323 1.465a.938.938 0 0 0-.438.793v4.516l1.247.72a1.521 1.521 0 0 0 1.522 0l7.076-4.085a1.763 1.763 0 0 0 .882-1.527 3.082 3.082 0 0 0-3.88-2.977z" data-name="&lt;Path&gt;"/><path fill="#48486a" d="M65.551 106.706l7.076-4.086a1.762 1.762 0 0 0 .806-1.023 3.11 3.11 0 0 1 .076.673 1.763 1.763 0 0 1-.881 1.527l-7.077 4.085a1.522 1.522 0 0 1-1.521 0l-1.247-.72v-1.176l1.247.72a1.521 1.521 0 0 0 1.521 0zM63.22 101.853l2.324-1.465 1.542-.414v2.8a2.099 2.099 0 0 1-4.113 0v-.682a.93.93 0 0 1 .247-.24z" data-name="&lt;Path&gt;"/><path fill="#f9f7f9" d="M63.63 93.579l-4.087 1.094-2.323 1.465a.938.938 0 0 0-.438.793v4.517l1.247.72a1.522 1.522 0 0 0 1.522 0l7.076-4.085a1.763 1.763 0 0 0 .882-1.527 3.082 3.082 0 0 0-3.88-2.977z" data-name="&lt;Path&gt;"/><path fill="#48486a" d="M59.55 100.991l7.077-4.085a1.761 1.761 0 0 0 .806-1.023 3.101 3.101 0 0 1 .076.673 1.763 1.763 0 0 1-.882 1.527l-7.076 4.085a1.522 1.522 0 0 1-1.521 0l-1.248-.72v-1.177l1.248.72a1.522 1.522 0 0 0 1.52 0zM57.22 96.138l2.323-1.465 1.543-.412v2.8a2.099 2.099 0 0 1-4.114 0v-.683a.928.928 0 0 1 .248-.24z" data-name="&lt;Path&gt;"/><g data-name="&lt;Group&gt;"><path fill="#f2b1b5" d="M64.982 103.872a1.52 1.52 0 0 0 1.52-1.52V83.588a1.52 1.52 0 0 0-1.52-1.52c-.84 0-3.359-3.59-3.359-2.75l1.839 23.034a1.52 1.52 0 0 0 1.52 1.52z" data-name="&lt;Path&gt;"/></g><g data-name="&lt;Group&gt;"><path fill="#f2b1b5" d="M59.06 98.112a1.52 1.52 0 0 0 1.52-1.52l.394-18.581c0-.84-1.074.068-1.913.068s-2.278-2.215-2.278-1.376l.758 19.89a1.52 1.52 0 0 0 1.52 1.519z" data-name="&lt;Path&gt;"/></g><path fill="#48486a" d="M65.137 40.054l-3.396-2.167a3.558 3.558 0 0 0-5.465 3.23l1.01 15.67.064 4.575 8.36 3.166.464-2.61.486-10.993 1.743-2.263-1.42-5.054a4.005 4.005 0 0 0-1.846-3.554z" data-name="&lt;Path&gt;"/><path fill="#48486a" d="M66.174 62.868c.728.313 1.275 5.178 1.335 5.84.284 3.136.016 7.521.147 10.667.066 1.57.173 6.02.173 6.02-7.69 1.767-12.306-3.463-13.24-5.919-.104-2.135-.121-12.536 1.005-15.382a20.928 20.928 0 0 0 .876-2.704l.602-2.448z" data-name="&lt;Path&gt;"/><path fill="url(#j)" d="M66.78 60.327v2.28c-2.364.247-8.11-1.87-9.102-3.926l.215-2.155c1.457 2.802 7.726 4.322 8.888 3.801z" data-name="&lt;Path&gt;" transform="translate(-.606 .26)"/><g data-name="&lt;Group&gt;"><path fill="#f2b1b5" d="M71.84 50.189a9.38 9.38 0 0 0 7.25-3.401l3.416-4.104a1.52 1.52 0 0 0-2.336-1.945l-3.417 4.104a6.405 6.405 0 0 1-10.102-.332L65.8 43.34a1.52 1.52 0 1 0-2.459 1.787l.854 1.173a9.384 9.384 0 0 0 7.328 3.885c.106.003.212.005.317.005z" data-name="&lt;Path&gt;"/></g><g data-name="&lt;Group&gt;"><path fill="#f2b1b5" d="M60.909 29.893h7.04v2.635a6.875 6.875 0 0 1-6.875 6.875h-.165v-9.51z" data-name="&lt;Rectangle&gt;"/></g><path fill="url(#k)" d="M53.307 46.204c.29-1.53 1.227-2.855 1.715-4.33.283-.855.198-1.73.43-2.552.297-1.055 1.068-2.005 1.468-3.03.603-1.55 1.097-3.157 1.65-4.727a4.729 4.729 0 0 1 3.293-3.26 12.761 12.761 0 0 1 5.985-.205c2.152.623 1.438 2.751.598 4.442-1.008 2.03-2.854 3.623-3.505 5.794-.671 2.24.058 4.623.43 6.932s.21 5.044-1.647 6.464a5.728 5.728 0 0 1-3.667.96 8.104 8.104 0 0 1-4.644-1.479 5.28 5.28 0 0 1-2.191-4.232 4.914 4.914 0 0 1 .085-.777z" data-name="&lt;Group&gt;" transform="translate(-.606 .26)"/><circle cx="81.624" cy="40.95" r="1.805" fill="#f2b1b5" data-name="&lt;Path&gt;"/></g></g><path fill="#5c629e" d="M.076 52.543c0 5.397 3.787 7.574 8.483 4.904a18.936 18.936 0 0 0 8.483-14.694c0-5.397-3.787-7.574-8.483-4.904A18.936 18.936 0 0 0 .076 52.543z" data-name="96915dc7-1f02-48fb-b8a4-35ff55249ade"/><path fill="#48486a" d="M0 52.543c0 4.014 2.178 6.249 5.17 6.021-2.595-.189-4.356-2.367-4.356-6.021A18.936 18.936 0 0 1 9.297 37.83a7.99 7.99 0 0 1 3.409-1.042 7.328 7.328 0 0 0-4.147 1.118A18.936 18.936 0 0 0 0 52.543z"/><path fill="#f4bc3d" d="M6.21 49.02a.663.663 0 0 1-.245.38l-.72.473a.795.795 0 0 0-.322.625v1.439a.208.208 0 0 0 .34.19l.72-.474c.114-.133.266-.095.266 0v.19a.473.473 0 0 1 0 .416l-.474.946c-.151.247-.151.493 0 .569l.871.454a.435.435 0 0 0 .474-.303l.492-.966a.473.473 0 0 1 .303-.265h.227c.114 0 .19 0 .19.19v.87a.208.208 0 0 0 .34.19l1.174-.757a.795.795 0 0 0 .322-.625v-.871a.682.682 0 0 1 .19-.436l.19-.227a.34.34 0 0 1 .321-.152l.53.265a.435.435 0 0 0 .473-.303l.796-1.533c.151-.247.151-.493 0-.568l-.55-.284v-.644a.663.663 0 0 1 .247-.379l.72-.473a.795.795 0 0 0 .549-.7v-1.402a.208.208 0 0 0-.34-.19l-.72.474c-.115.132-.266.095-.266 0v-.19a.473.473 0 0 1 0-.416l.473-.947c.152-.246.152-.511 0-.568l-1.041-.435a.435.435 0 0 0-.474.303l-.492.965a.473.473 0 0 1-.303.265h-.227c-.114 0-.19 0-.19-.189v-.928a.208.208 0 0 0-.34-.19l-1.174.777a.795.795 0 0 0-.322.625v.852a.682.682 0 0 1-.19.436l-.189.227a.34.34 0 0 1-.322.151l-.53-.265a.435.435 0 0 0-.473.303l-.796 1.534c-.151.246-.151.511 0 .568l.682.34a4.106 4.106 0 0 0-.19.664zm2.425 1.572c-.966.095-1.364-1.041-.815-2.48a3.087 3.087 0 0 1 2.027-2.026c.965-.095 1.363 1.041.814 2.48a3.087 3.087 0 0 1-2.026 2.026z" data-name="078fcfa7-54e1-4371-91d1-505eeb163693"/><g data-name="f9c50eed-b7b9-4c33-87ee-4d553d0d0d1b"><path fill="none" d="M124.648 97.337a3.284 3.284 0 0 1-2.941 0L79.983 73.243a.917.917 0 0 1 0-1.721l3.985-2.391a3.188 3.188 0 0 1 2.925 0l41.883 24.19a.893.893 0 0 1 0 1.69z" data-name="c024c93e-e517-47ce-b8ff-34cf772b89a1"/><path fill="#f5f4f6" d="M124.656 97.266a3.276 3.276 0 0 1-2.933 0l-41.66-24.063a.909.909 0 0 1 0-1.713l3.93-2.343a3.188 3.188 0 0 1 2.916 0l41.82 24.157a.885.885 0 0 1 0 1.682z" opacity=".024" style="isolation:isolate"/><path fill="#eeecef" d="M124.632 97.234a3.26 3.26 0 0 1-2.925 0L80.11 73.204a.909.909 0 0 1 0-1.706l3.914-2.335a3.188 3.188 0 0 1 2.909 0l41.756 24.125a.885.885 0 0 1 0 1.674z" opacity=".049" style="isolation:isolate"/><path fill="#e7e6ea" d="M124.592 97.202a3.252 3.252 0 0 1-2.91 0L80.15 73.204a.9.9 0 0 1 0-1.698l3.906-2.327a3.188 3.188 0 0 1 2.893 0L128.64 93.28a.877.877 0 0 1 0 1.665z" opacity=".073" style="isolation:isolate"/><path fill="#e2dfe5" d="M124.544 97.17a3.236 3.236 0 0 1-2.901 0L80.198 73.204a.9.9 0 0 1 0-1.69l3.89-2.32a3.188 3.188 0 0 1 2.885 0l41.62 24.062a.877.877 0 0 1 0 1.666z" opacity=".098" style="isolation:isolate"/><path fill="#dcd9e0" d="M124.544 97.122a3.188 3.188 0 0 1-2.893 0l-41.405-23.91a.893.893 0 0 1 0-1.69l3.873-2.311a3.14 3.14 0 0 1 2.87 0l41.564 24.03a.877.877 0 0 1 0 1.657z" opacity=".122" style="isolation:isolate"/><path fill="#d6d3db" d="M124.512 97.122a3.188 3.188 0 0 1-2.877 0l-41.341-23.91a.893.893 0 0 1 0-1.682l3.857-2.304a3.132 3.132 0 0 1 2.862 0l41.492 24.007a.869.869 0 0 1 0 1.65z" opacity=".146" style="isolation:isolate"/><path fill="#d1ced7" d="M124.465 97.13a3.188 3.188 0 0 1-2.87 0L80.318 73.22a.893.893 0 0 1 0-1.674l3.841-2.295a3.116 3.116 0 0 1 2.854 0l41.444 23.966a.869.869 0 0 1 0 1.642z" opacity=".171" style="isolation:isolate"/><path fill="#cbc8d2" d="M124.448 97.074a3.188 3.188 0 0 1-2.853 0L80.39 73.227a.885.885 0 0 1 0-1.665l3.826-2.28a3.108 3.108 0 0 1 2.837 0l41.366 23.91a.86.86 0 0 1 0 1.643z" opacity=".195" style="isolation:isolate"/><path fill="#c6c3ce" d="M124.377 97.042a3.188 3.188 0 0 1-2.846 0L80.39 73.227a.885.885 0 0 1 0-1.657l3.85-2.256a3.092 3.092 0 0 1 2.83 0l41.3 23.91a.86.86 0 0 1 0 1.595z" opacity=".22" style="isolation:isolate"/><path fill="#c1beca" d="M124.377 97.002a3.188 3.188 0 0 1-2.838 0l-41.078-23.79a.877.877 0 0 1 0-1.658l3.802-2.263a3.084 3.084 0 0 1 2.821 0l41.238 23.91a.86.86 0 0 1 0 1.594z" opacity=".244" style="isolation:isolate"/><path fill="#bcb9c6" d="M124.353 96.97a3.188 3.188 0 0 1-2.822 0L80.517 73.213a.877.877 0 0 1 0-1.65l3.786-2.256a3.068 3.068 0 0 1 2.805 0l41.166 23.87a.853.853 0 0 1 0 1.595z" opacity=".268" style="isolation:isolate"/><path fill="#b8b4c2" d="M124.329 96.939a3.14 3.14 0 0 1-2.813 0L80.564 73.212a.869.869 0 0 1 0-1.642l3.77-2.248a3.06 3.06 0 0 1 2.797 0l41.078 23.839a.853.853 0 0 1 0 1.594z" opacity=".293" style="isolation:isolate"/><path fill="#b3afbe" d="M124.297 96.907a3.132 3.132 0 0 1-2.805 0L80.605 73.212a.869.869 0 0 1 0-1.634l3.754-2.24a3.045 3.045 0 0 1 2.79 0l41.062 23.799a.845.845 0 0 1 0 1.594z" opacity=".317" style="isolation:isolate"/><path fill="#aeaaba" d="M124.265 96.85a3.116 3.116 0 0 1-2.79 0L80.652 73.189a.869.869 0 0 1 0-1.594l3.738-2.232a3.037 3.037 0 0 1 2.774 0l40.975 23.751a.845.845 0 0 1 0 1.594z" opacity=".341" style="isolation:isolate"/><path fill="#aaa5b6" d="M124.241 96.82a3.1 3.1 0 0 1-2.781 0L80.7 73.187a.86.86 0 0 1 0-1.594l3.722-2.224a3.02 3.02 0 0 1 2.766 0l40.91 23.727a.837.837 0 0 1 0 1.594z" opacity=".366" style="isolation:isolate"/><path fill="#a5a0b2" d="M124.217 96.803a3.092 3.092 0 0 1-2.773 0L80.748 73.196a.86.86 0 0 1 0-1.594l3.714-2.216a3.013 3.013 0 0 1 2.75 0l40.84 23.687a.837.837 0 0 1 0 1.594z" opacity=".39" style="isolation:isolate"/><path fill="#a19caf" d="M124.194 96.78a3.076 3.076 0 0 1-2.758 0L80.788 73.203a.853.853 0 0 1 0-1.594l3.698-2.208a2.997 2.997 0 0 1 2.742 0l40.776 23.647a.797.797 0 0 1 0 1.594z" opacity=".415" style="isolation:isolate"/><path fill="#9d97ab" d="M124.162 96.763a3.068 3.068 0 0 1-2.75 0L80.836 73.211a.853.853 0 0 1 0-1.593l3.682-2.2a2.989 2.989 0 0 1 2.734 0l40.712 23.615a.797.797 0 1 1 0 1.594z" opacity=".439" style="isolation:isolate"/><path fill="#9893a8" d="M124.13 96.763a3.053 3.053 0 0 1-2.734 0L80.884 73.188a.845.845 0 0 1 0-1.594l3.666-2.184a2.973 2.973 0 0 1 2.718 0l40.648 23.6a.797.797 0 1 1 0 1.594z" opacity=".463" style="isolation:isolate"/><path fill="#948fa4" d="M124.09 96.7a3.045 3.045 0 0 1-2.726 0L80.931 73.22a.845.845 0 0 1 0-1.594l3.65-2.176a2.965 2.965 0 0 1 2.71 0l40.577 23.535a.797.797 0 0 1 0 1.595z" opacity=".488" style="isolation:isolate"/><path fill="#908aa1" d="M124.058 96.684a3.029 3.029 0 0 1-2.718 0L80.971 73.227a.845.845 0 0 1 0-1.594l3.635-2.167a2.949 2.949 0 0 1 2.702 0l40.52 23.504a.797.797 0 0 1 0 1.594z" opacity=".512" style="isolation:isolate"/><path fill="#8c869d" d="M124.018 96.652a3.02 3.02 0 0 1-2.702 0L81.011 73.227a.837.837 0 0 1 0-1.594l3.627-2.16a2.941 2.941 0 0 1 2.685 0l40.457 23.513a.797.797 0 0 1 0 1.554z" opacity=".537" style="isolation:isolate"/><path fill="#88829a" d="M123.994 96.636a3.005 3.005 0 0 1-2.694 0L81.06 73.243a.797.797 0 1 1 0-1.594l3.61-2.152a2.925 2.925 0 0 1 2.678 0l40.385 23.473a.797.797 0 0 1 0 1.546z" opacity=".561" style="isolation:isolate"/><path fill="#847f97" d="M123.97 96.612a2.997 2.997 0 0 1-2.686 0l-40.177-23.36a.797.797 0 1 1 0-1.595l3.594-2.144a2.917 2.917 0 0 1 2.67 0l40.321 23.449a.797.797 0 0 1 0 1.538z" opacity=".585" style="isolation:isolate"/><path fill="#817b94" d="M123.97 96.604a2.98 2.98 0 0 1-2.67 0L81.186 73.275a.797.797 0 0 1 0-1.594l3.547-2.152a2.901 2.901 0 0 1 2.654 0l40.258 23.417a.797.797 0 0 1 0 1.53z" opacity=".61" style="isolation:isolate"/><path fill="#7d7791" d="M123.899 96.548a2.973 2.973 0 0 1-2.662 0l-40.05-23.305a.797.797 0 0 1 0-1.554l3.578-2.144a2.893 2.893 0 0 1 2.646 0l40.186 23.385a.797.797 0 0 1 0 1.522z" opacity=".634" style="isolation:isolate"/><path fill="#79748e" d="M123.867 96.5a2.957 2.957 0 0 1-2.646 0L81.242 73.228a.797.797 0 0 1 0-1.546l3.547-2.12a2.877 2.877 0 0 1 2.63 0l40.13 23.353a.797.797 0 0 1 0 1.522z" opacity=".659" style="isolation:isolate"/><path fill="#76708b" d="M123.843 96.468a2.949 2.949 0 0 1-2.638 0L81.29 73.228a.797.797 0 0 1 0-1.539l3.539-2.112a2.87 2.87 0 0 1 2.622 0l40.058 23.281a.797.797 0 0 1 0 1.514z" opacity=".683" style="isolation:isolate"/><path fill="#726d88" d="M123.81 96.437a2.933 2.933 0 0 1-2.63 0l-39.85-23.21a.797.797 0 0 1 0-1.53l3.523-2.104a2.853 2.853 0 0 1 2.614 0l39.994 23.273a.797.797 0 0 1 0 1.507z" opacity=".707" style="isolation:isolate"/><path fill="#6f6986" d="M123.779 96.405a2.917 2.917 0 0 1-2.614 0L81.378 73.227a.797.797 0 0 1 0-1.53l3.507-2.088a2.845 2.845 0 0 1 2.598 0l39.93 23.265a.797.797 0 0 1 0 1.498z" opacity=".732" style="isolation:isolate"/><path fill="#6b6683" d="M123.771 96.365a2.91 2.91 0 0 1-2.606 0L81.44 73.25a.797.797 0 0 1 0-1.522l3.491-2.08a2.83 2.83 0 0 1 2.59 0l39.852 23.233a.797.797 0 0 1 0 1.49z" opacity=".756" style="isolation:isolate"/><path fill="#686380" d="M123.763 96.365a2.893 2.893 0 0 1-2.598 0L81.505 73.25a.797.797 0 0 1 0-1.514l3.475-2.072a2.821 2.821 0 0 1 2.582 0l39.763 23.17a.797.797 0 0 1 0 1.49z" opacity=".78" style="isolation:isolate"/><path fill="#64607e" d="M123.715 96.349a2.885 2.885 0 0 1-2.582 0L81.537 73.235a.797.797 0 0 1 0-1.506l3.46-2.064a2.805 2.805 0 0 1 2.566 0l39.715 23.161a.797.797 0 0 1 0 1.482z" opacity=".805" style="isolation:isolate"/><path fill="#615d7b" d="M123.66 96.277a2.87 2.87 0 0 1-2.575 0L81.553 73.22a.797.797 0 0 1 0-1.498l3.45-2.056a2.797 2.797 0 0 1 2.56 0l39.675 23.146a.797.797 0 0 1 0 1.474z" opacity=".829" style="isolation:isolate"/><path fill="#5d5a79" d="M123.604 96.237a2.861 2.861 0 0 1-2.559 0L81.577 73.212a.797.797 0 0 1 0-1.499l3.435-2.048a2.782 2.782 0 0 1 2.55 0l39.628 23.13a.797.797 0 0 1 0 1.466z" opacity=".854" style="isolation:isolate"/><path fill="#5a5776" d="M123.588 96.245a2.845 2.845 0 0 1-2.55 0l-39.39-23.05a.797.797 0 0 1 0-1.49l3.42-2.04a2.774 2.774 0 0 1 2.534 0l39.54 23.114a.797.797 0 0 1 0 1.467z" opacity=".878" style="isolation:isolate"/><path fill="#565474" d="M123.58 96.213a2.837 2.837 0 0 1-2.543 0l-39.34-22.986a.797.797 0 0 1 0-1.482l3.403-2.032a2.758 2.758 0 0 1 2.526 0l39.477 23.05a.797.797 0 0 1 0 1.458z" opacity=".902" style="isolation:isolate"/><path fill="#535172" d="M123.564 96.182a2.821 2.821 0 0 1-2.527 0L81.744 73.227a.797.797 0 0 1 0-1.474l3.388-2.024a2.75 2.75 0 0 1 2.51 0l39.413 23.018a.797.797 0 0 1 0 1.45z" opacity=".927" style="isolation:isolate"/><path fill="#4f4e6f" d="M123.556 96.15a2.813 2.813 0 0 1-2.519 0L81.792 73.227a.797.797 0 0 1 0-1.466l3.372-2.016a2.734 2.734 0 0 1 2.502 0l39.341 22.993a.797.797 0 0 1 0 1.443z" opacity=".951" style="isolation:isolate"/><path fill="#4c4b6d" d="M123.484 96.11a2.797 2.797 0 0 1-2.51 0L81.831 73.235a.797.797 0 0 1 0-1.466l3.363-2a2.726 2.726 0 0 1 2.495 0l39.277 22.953a.797.797 0 0 1 0 1.435z" opacity=".976" style="isolation:isolate"/><path fill="#49486b" d="M123.428 96.07a2.79 2.79 0 0 1-2.494 0L81.88 73.227a.797.797 0 0 1 0-1.458l3.347-1.993a2.71 2.71 0 0 1 2.479 0L126.919 92.7a.797.797 0 0 1 0 1.434z" data-name="b11e07b4-57b5-4d8f-804b-39e52a0b9039"/><path fill="#90cff2" d="M124.154 96.38a3.188 3.188 0 0 1-2.846 0L80.964 73.093a.885.885 0 0 1 0-1.658l3.817-2.28a3.092 3.092 0 0 1 2.83 0l40.496 23.385a.86.86 0 0 1 0 1.594z" data-name="4b948ad5-0b06-4599-a5cf-91e8a073fd59"/><path fill="url(#l)" d="M124.776 95.706a3.188 3.188 0 0 1-2.846 0l-40.36-23.32a.885.885 0 0 1 0-1.659l3.818-2.28a3.092 3.092 0 0 1 2.83 0l40.496 23.425a.86.86 0 0 1 0 1.594z" data-name="8c3be8df-b0b6-46fa-8ba9-d21901cbb130" transform="translate(-.606 .26)"/><path fill="#49486b" d="M126.082 90.969l-2.566 1.514.582.335 2.59-1.506-.606-.343z" data-name="82e83bad-f8c5-405e-95e2-6f0c1819ad6e"/><path fill="#49486b" d="M122.934 89.144l-1.737 1.028.582.335 1.753-1.02-.598-.343z" data-name="7b57e326-cdd3-40e1-a6da-d8865e13014c"/><path fill="#49486b" d="M119.778 87.319l-1.73 1.028.574.335 1.762-1.021-.606-.342z" data-name="0244c2e8-dfc3-4013-95d0-8bf30f654a0f"/><path fill="#49486b" d="M116.63 85.494l-1.738 1.028.582.334 1.754-1.02-.598-.342z" data-name="41877a5a-89a6-49d4-8058-9169067249db"/><path fill="#49486b" d="M113.474 83.668l-2.567 1.515.574.334 2.59-1.506-.597-.343z" data-name="50ae6f63-b9fd-4cc6-aef9-85869c4d9ff9"/><path fill="#49486b" d="M110.325 81.843l-1.737 1.028.574.335 1.761-1.02-.598-.343z" data-name="529a6e74-a587-4405-9584-440cb1dd89b4"/><path fill="#49486b" d="M107.169 80.018l-1.737 1.028.582.335 1.753-1.02-.598-.343z" data-name="57963087-b53f-4c8f-ae00-21b918075ae3"/><path fill="#49486b" d="M104.013 78.193l-1.73 1.028.574.335 1.762-1.02-.606-.343z" data-name="6c7002be-5d27-4c82-a356-f98d64976a54"/><path fill="#49486b" d="M100.865 76.368l-2.567 1.514.574.335 2.591-1.507-.598-.342z" data-name="3546e436-031a-4346-bd09-2c19abdab383"/><path fill="#49486b" d="M97.709 74.543l-1.73 1.028.574.334 1.753-1.02-.597-.342z" data-name="8ecb6332-4016-49ee-9d8b-fd754cc92c2f"/><path fill="#49486b" d="M94.56 72.717l-1.737 1.029.582.326 1.753-1.012-.598-.343z" data-name="d75b66e6-292e-408c-ae9c-4ad38c254312"/><path fill="#49486b" d="M91.404 70.892l-1.737 1.028.582.327 1.753-1.012-.598-.343z" data-name="c27b87fe-44e2-4cc2-86c1-72e41015572e"/><path fill="#49486b" d="M88.248 69.067l-2.566 1.514.581.335 2.591-1.506-.606-.343z" data-name="cc38918e-7a87-4104-b32d-ebae7393635d"/></g><g data-name="&lt;Group&gt;"><path fill="url(#m)" d="M91.701 82.405L118.93 97.89l-1.306 2.442-25.923-14.823-2.406-2.898 2.406-.206z" data-name="&lt;Path&gt;"/><path fill="#f7f7f7" d="M91.701 82.405v3.104l-2.406-2.898 2.406-.206z" data-name="&lt;Path&gt;"/><path fill="#49486b" d="M89.851 82.564l-.556.047.556.67v-.717z" data-name="&lt;Path&gt;"/><path fill="#ffc107" d="M118.31 97.991a2.167 2.167 0 0 0-.982 1.701c.002.625.445.88.985.568a2.178 2.178 0 0 0 .982-1.7c0-.624-.443-.88-.984-.569z" data-name="&lt;Path&gt;"/><path fill="#f7f7f7" d="M118.31 98.013a2.125 2.125 0 0 0-.962 1.668c.001.612.436.863.965.557a2.137 2.137 0 0 0 .963-1.667c0-.612-.434-.863-.965-.558z" data-name="&lt;Path&gt;"/><path fill="#49486b" d="M118.311 98.822a.58.58 0 0 0-.263.456c0 .167.12.235.264.152a.584.584 0 0 0 .263-.456c0-.167-.119-.235-.264-.152z" data-name="&lt;Path&gt;"/></g><g><path fill="url(#c)" d="M127.726 45.713v5.6l-1.547.896v-5.537z" transform="translate(-.606 .26)"/><path fill="#e3e7f3" d="M115.318 68.37a4.934 4.934 0 0 0 2.923 4.084 15.623 15.623 0 0 0 14.092 0 4.934 4.934 0 0 0 2.985-4.052v-1.207l-1.114.201a7.255 7.255 0 0 0-1.794-1.407 15.623 15.623 0 0 0-14.091 0 7.255 7.255 0 0 0-1.795 1.407l-1.113-.2z"/><path fill="#f7f8fc" d="M132.333 71.14a15.623 15.623 0 0 1-14.092 0c-3.867-2.243-3.867-5.894 0-8.136a15.623 15.623 0 0 1 14.092 0c3.944 2.227 3.944 5.893 0 8.136z"/><path fill="#d4daed" d="M131.435 70.583a13.488 13.488 0 0 1-12.157 0c-3.341-1.934-3.341-5.089 0-7.023a13.488 13.488 0 0 1 12.157 0c3.342 1.918 3.342 5.09 0 7.023z"/><path fill="#f7f8fc" d="M130.461 69.933a11.524 11.524 0 0 1-10.193 0c-2.8-1.578-2.8-4.207 0-5.754a11.524 11.524 0 0 1 10.193 0c2.8 1.593 2.8 4.176 0 5.754z"/><path fill="#d4daed" d="M129.517 69.36a9.389 9.389 0 0 1-8.306 0c-2.289-1.237-2.289-3.356 0-4.64a9.389 9.389 0 0 1 8.306 0c2.29 1.284 2.29 3.403 0 4.64z"/><path fill="#f7f8fc" d="M128.605 68.727a7.827 7.827 0 0 1-6.388 0c-1.764-.913-1.764-2.398 0-3.31a7.827 7.827 0 0 1 6.388 0c1.763.974 1.763 2.397 0 3.31z"/><path fill="#d4daed" d="M127.367 68.077a4.78 4.78 0 0 1-3.897 0c-1.068-.557-1.068-1.47 0-2.026a4.78 4.78 0 0 1 3.897 0c1.068.557 1.068 1.47 0 2.026z"/><path fill="#49486b" d="M125.357 67.304a.449.449 0 0 1-.449-.449V46.097a.456.456 0 0 1 .913 0v20.758a.449.449 0 0 1-.449.449z"/><path fill="url(#n)" d="M123.534 45.28v5.584l2.444 1.346v-5.6z" transform="translate(-.606 .26)"/></g><g><path fill="none" d="M100.188 134.865v-.46l25.19-14.81a1.5 1.5 0 0 1 1.5-.17l13.22 7.59a.73.73 0 0 1 .29.31l.07.15a1.22 1.22 0 0 1-.49 1.59l-24.71 14.28a1.91 1.91 0 0 1-1.72 0l-12.65-7.28a1.38 1.38 0 0 1-.7-1.2z" data-name="53b3ff1e-a3a2-4f66-ac2e-3b9076cecfc4"/><path fill="#f5f4f6" d="M100.248 134.825v-.47l25.1-14.74a1.5 1.5 0 0 1 1.5-.17l13.18 7.56a.72.72 0 0 1 .29.31l.07.15a1.22 1.22 0 0 1-.49 1.59l-24.64 14.22a1.9 1.9 0 0 1-1.71 0l-12.61-7.26a1.38 1.38 0 0 1-.69-1.19z" opacity=".024" style="isolation:isolate"/><path fill="#eeecef" d="M100.307 134.785v-.47l25-14.69a1.49 1.49 0 0 1 1.49-.17l13.14 7.55a.72.72 0 0 1 .29.31l.07.15a1.21 1.21 0 0 1-.49 1.58l-24.54 14.17a1.89 1.89 0 0 1-1.71 0l-12.56-7.24a1.38 1.38 0 0 1-.69-1.19z" opacity=".049" style="isolation:isolate"/><path fill="#e7e6ea" d="M100.367 134.755v-.47l24.92-14.64a1.49 1.49 0 0 1 1.49-.16l13.08 7.51a.72.72 0 0 1 .29.31l.07.15a1.21 1.21 0 0 1-.48 1.58l-24.46 14.11a1.89 1.89 0 0 1-1.7 0l-12.52-7.21a1.37 1.37 0 0 1-.69-1.18z" opacity=".073" style="isolation:isolate"/><path fill="#e2dfe5" d="M100.427 134.715v-.47l24.83-14.58a1.48 1.48 0 0 1 1.48-.16l13 7.49a.71.71 0 0 1 .29.31l.07.15a1.21 1.21 0 0 1-.48 1.57l-24.34 14.06a1.88 1.88 0 0 1-1.7 0l-12.47-7.19a1.37 1.37 0 0 1-.68-1.18z" opacity=".098" style="isolation:isolate"/><path fill="#dcd9e0" d="M100.507 134.675v-.46l24.73-14.54a1.48 1.48 0 0 1 1.48-.16l13 7.46a.71.71 0 0 1 .29.31l.07.15a1.2 1.2 0 0 1-.48 1.57l-24.29 14a1.87 1.87 0 0 1-1.69 0l-12.45-7.15a1.36 1.36 0 0 1-.66-1.18z" opacity=".122" style="isolation:isolate"/><path fill="#d6d3db" d="M100.507 134.645v-.46l24.7-14.49a1.47 1.47 0 0 1 1.47-.16l12.95 7.43a.71.71 0 0 1 .29.31l.07.15a1.2 1.2 0 0 1-.48 1.55l-24.21 14a1.87 1.87 0 0 1-1.68 0l-12.4-7.16a1.36 1.36 0 0 1-.71-1.17z" opacity=".146" style="isolation:isolate"/><path fill="#d1ced7" d="M100.597 134.605v-.46l24.58-14.44a1.47 1.47 0 0 1 1.47-.16l12.86 7.41a.71.71 0 0 1 .28.3l.07.15a1.19 1.19 0 0 1-.48 1.55l-24.08 13.93a1.86 1.86 0 0 1-1.68 0l-12.34-7.11a1.35 1.35 0 0 1-.68-1.17z" opacity=".171" style="isolation:isolate"/><path fill="#cbc8d2" d="M100.657 134.575v-.46l24.49-14.39a1.46 1.46 0 0 1 1.46-.16l12.9 7.38a.71.71 0 0 1 .28.3l.07.15a1.19 1.19 0 0 1-.47 1.55l-24 13.87a1.85 1.85 0 0 1-1.67 0l-12.3-7.08a1.35 1.35 0 0 1-.76-1.16z" opacity=".195" style="isolation:isolate"/><path fill="#c6c3ce" d="M100.718 134.535v-.46l24.4-14.33a1.46 1.46 0 0 1 1.46-.16l12.81 7.36a.7.7 0 0 1 .28.3l.07.15a1.18 1.18 0 0 1-.47 1.54l-24 13.82a1.85 1.85 0 0 1-1.67 0l-12.21-7.06a1.34 1.34 0 0 1-.67-1.16z" opacity=".22" style="isolation:isolate"/><path fill="#c1beca" d="M100.777 134.495v-.46l24.31-14.28a1.45 1.45 0 0 1 1.42-.16l12.8 7.33a.7.7 0 0 1 .28.3l.07.15a1.18 1.18 0 0 1-.47 1.54l-23.87 13.77a1.84 1.84 0 0 1-1.66 0l-12.22-7a1.34 1.34 0 0 1-.66-1.19z" opacity=".244" style="isolation:isolate"/><path fill="#bcb9c6" d="M100.837 134.465v-.46l24.23-14.23a1.45 1.45 0 0 1 1.44-.16l12.72 7.3a.7.7 0 0 1 .28.3l.07.15a1.18 1.18 0 0 1-.47 1.53l-23.78 13.73a1.83 1.83 0 0 1-1.65 0l-12.17-7.01a1.33 1.33 0 0 1-.67-1.15z" opacity=".268" style="isolation:isolate"/><path fill="#b8b4c2" d="M100.887 134.405v-.45l24.15-14.16a1.44 1.44 0 0 1 1.47-.16l12.64 7.27a.69.69 0 0 1 .28.3l.07.15a1.17 1.17 0 0 1-.47 1.53l-23.7 13.68a1.83 1.83 0 0 1-1.65 0l-12.17-6.99a1.33 1.33 0 0 1-.62-1.17z" opacity=".293" style="isolation:isolate"/><path fill="#b3afbe" d="M100.947 134.405v-.45l24.06-14.15a1.44 1.44 0 0 1 1.43-.16l12.63 7.25a.69.69 0 0 1 .28.3l.07.15a1.17 1.17 0 0 1-.47 1.52l-23.61 13.63a1.82 1.82 0 0 1-1.64 0l-12.09-7a1.32 1.32 0 0 1-.66-1.09z" opacity=".317" style="isolation:isolate"/><path fill="#aeaaba" d="M101.007 134.355v-.45l24-14.08a1.43 1.43 0 0 1 1.43-.16l12.58 7.22a.69.69 0 0 1 .28.3l.07.14a1.16 1.16 0 0 1-.46 1.52l-23.56 13.56a1.82 1.82 0 0 1-1.64 0l-12-6.93a1.32 1.32 0 0 1-.7-1.12z" opacity=".341" style="isolation:isolate"/><path fill="#aaa5b6" d="M101.067 134.315v-.45l23.88-14a1.43 1.43 0 0 1 1.42-.16l12.54 7.2a.69.69 0 0 1 .28.3l.07.14a1.16 1.16 0 0 1-.46 1.51l-23.44 13.55a1.81 1.81 0 0 1-1.63 0l-12-7a1.31 1.31 0 0 1-.66-1.09z" opacity=".366" style="isolation:isolate"/><path fill="#a5a0b2" d="M101.127 134.275v-.45l23.8-14a1.42 1.42 0 0 1 1.42-.16l12.49 7.17a.69.69 0 0 1 .28.29l.07.14a1.15 1.15 0 0 1-.46 1.5l-23.37 13.53a1.8 1.8 0 0 1-1.62 0l-11.96-6.89a1.31 1.31 0 0 1-.65-1.13z" opacity=".39" style="isolation:isolate"/><path fill="#a19caf" d="M101.188 134.245v-.44l23.71-13.93a1.42 1.42 0 0 1 1.41-.16l12.45 7.15a.68.68 0 0 1 .27.29l.07.14a1.15 1.15 0 0 1-.46 1.5l-23.27 13.43a1.8 1.8 0 0 1-1.62 0l-11.91-6.82a1.3 1.3 0 0 1-.65-1.16z" opacity=".415" style="isolation:isolate"/><path fill="#9d97ab" d="M101.237 134.205v-.44l23.63-13.88a1.41 1.41 0 0 1 1.41-.16l12.4 7.12a.68.68 0 0 1 .27.29l.07.14a1.15 1.15 0 0 1-.46 1.49l-23.18 13.4a1.79 1.79 0 0 1-1.61 0l-11.88-6.83a1.3 1.3 0 0 1-.65-1.13z" opacity=".439" style="isolation:isolate"/><path fill="#9893a8" d="M101.297 134.175v-.44l23.54-13.83a1.41 1.41 0 0 1 1.4-.16l12.36 7.09a.68.68 0 0 1 .27.29l.07.14a1.14 1.14 0 0 1-.43 1.5l-23.1 13.33a1.78 1.78 0 0 1-1.61 0l-11.85-6.8a1.29 1.29 0 0 1-.65-1.12z" opacity=".463" style="isolation:isolate"/><path fill="#948fa4" d="M101.358 134.135v-.44l23.45-13.78a1.4 1.4 0 0 1 1.4-.16l12.3 7.08a.68.68 0 0 1 .27.29l.07.14a1.14 1.14 0 0 1-.45 1.48l-23 13.28a1.78 1.78 0 0 1-1.6 0l-11.79-6.77a1.29 1.29 0 0 1-.65-1.12z" opacity=".488" style="isolation:isolate"/><path fill="#908aa1" d="M101.417 134.095v-.44l23.36-13.72a1.39 1.39 0 0 1 1.39-.15l12.27 7a.67.67 0 0 1 .27.29l.07.14a1.13 1.13 0 0 1-.45 1.48l-22.93 13.27a1.77 1.77 0 0 1-1.59 0l-11.75-6.75a1.28 1.28 0 0 1-.64-1.12z" opacity=".512" style="isolation:isolate"/><path fill="#8c869d" d="M101.507 134.065v-.44l23.25-13.67a1.39 1.39 0 0 1 1.39-.15l12.22 7a.67.67 0 0 1 .27.29l.07.14a1.13 1.13 0 0 1-.45 1.47l-22.86 13.2a1.76 1.76 0 0 1-1.59 0l-11.69-6.73a1.28 1.28 0 0 1-.61-1.11z" opacity=".537" style="isolation:isolate"/><path fill="#88829a" d="M101.507 134.025v-.43l23.22-13.63a1.38 1.38 0 0 1 1.38-.15l12.18 7a.67.67 0 0 1 .27.29l.07.14a1.13 1.13 0 0 1-.45 1.47l-22.77 13.12a1.76 1.76 0 0 1-1.58 0l-11.66-6.7a1.28 1.28 0 0 1-.66-1.11z" opacity=".561" style="isolation:isolate"/><path fill="#847f97" d="M101.587 133.985v-.43l23.11-13.57a1.38 1.38 0 0 1 1.38-.15l12.13 7a.67.67 0 0 1 .27.29l.07.14a1.12 1.12 0 0 1-.45 1.46l-22.68 13.05a1.75 1.75 0 0 1-1.58 0l-11.61-6.68a1.27 1.27 0 0 1-.64-1.11z" opacity=".585" style="isolation:isolate"/><path fill="#817b94" d="M101.647 133.955v-.43l23-13.52a1.37 1.37 0 0 1 1.37-.15l12.09 6.94a.66.66 0 0 1 .27.29l.07.14a1.12 1.12 0 0 1-.45 1.46l-22.59 13a1.74 1.74 0 0 1-1.57 0l-11.55-6.63a1.27 1.27 0 0 1-.64-1.1z" opacity=".61" style="isolation:isolate"/><path fill="#7d7791" d="M101.707 133.915v-.43l22.93-13.47a1.37 1.37 0 0 1 1.37-.15l12 6.91a.66.66 0 0 1 .27.28l.07.14a1.11 1.11 0 0 1-.44 1.45l-22.51 13a1.74 1.74 0 0 1-1.57 0l-11.49-6.64a1.26 1.26 0 0 1-.63-1.09z" opacity=".634" style="isolation:isolate"/><path fill="#79748e" d="M101.767 133.885v-.48l22.84-13.37a1.36 1.36 0 0 1 1.36-.15l12 6.89a.66.66 0 0 1 .26.28l.07.14a1.11 1.11 0 0 1-.44 1.44l-22.42 12.94a1.73 1.73 0 0 1-1.56 0l-11.48-6.61a1.26 1.26 0 0 1-.63-1.08z" opacity=".659" style="isolation:isolate"/><path fill="#76708b" d="M101.828 133.845v-.44l22.76-13.36a1.36 1.36 0 0 1 1.36-.15l11.95 6.86a.65.65 0 0 1 .26.28l.07.14a1.1 1.1 0 0 1-.44 1.44l-22.35 12.9a1.72 1.72 0 0 1-1.55 0l-11.44-6.59a1.25 1.25 0 0 1-.62-1.08z" opacity=".683" style="isolation:isolate"/><path fill="#726d88" d="M101.887 133.805v-.4l22.62-13.34a1.35 1.35 0 0 1 1.35-.15l11.9 6.83a.65.65 0 0 1 .26.28l.07.14a1.1 1.1 0 0 1-.44 1.43l-22.2 12.81a1.72 1.72 0 0 1-1.55 0l-11.39-6.52a1.25 1.25 0 0 1-.62-1.08z" opacity=".707" style="isolation:isolate"/><path fill="#6f6986" d="M101.938 133.775v-.42l22.57-13.27a1.35 1.35 0 0 1 1.35-.15l11.86 6.81a.65.65 0 0 1 .26.28l.07.14a1.1 1.1 0 0 1-.44 1.43l-22.16 12.81a1.71 1.71 0 0 1-1.54 0l-11.34-6.56a1.24 1.24 0 0 1-.63-1.07z" opacity=".732" style="isolation:isolate"/><path fill="#6b6683" d="M101.998 133.735v-.42l22.51-13.22a1.34 1.34 0 0 1 1.34-.15l11.81 6.78a.65.65 0 0 1 .26.28l.07.14a1.09 1.09 0 0 1-.48 1.42l-22 12.75a1.7 1.7 0 0 1-1.54 0l-11.35-6.51a1.24 1.24 0 0 1-.62-1.07z" opacity=".756" style="isolation:isolate"/><path fill="#686380" d="M102.057 133.695v-.42l22.45-13.16a1.34 1.34 0 0 1 1.34-.15l11.77 6.76a.65.65 0 0 1 .26.28l.07.14a1.09 1.09 0 0 1-.44 1.41l-22 12.69a1.7 1.7 0 0 1-1.53 0l-11.3-6.48a1.23 1.23 0 0 1-.62-1.07z" opacity=".78" style="isolation:isolate"/><path fill="#64607e" d="M102.117 133.665v-.42l22.33-13.11a1.33 1.33 0 0 1 1.33-.15l11.73 6.73a.64.64 0 0 1 .26.28l.07.13a1.08 1.08 0 0 1-.43 1.41l-21.9 12.65a1.69 1.69 0 0 1-1.52 0l-11.26-6.46a1.23 1.23 0 0 1-.61-1.06z" opacity=".805" style="isolation:isolate"/><path fill="#615d7b" d="M102.177 133.625v-.42l22.24-13.06a1.33 1.33 0 0 1 1.33-.15l11.68 6.7a.64.64 0 0 1 .26.28l.07.13a1.08 1.08 0 0 1-.43 1.41l-21.82 12.6a1.68 1.68 0 0 1-1.52 0l-11.2-6.43a1.22 1.22 0 0 1-.61-1.06z" opacity=".829" style="isolation:isolate"/><path fill="#5d5a79" d="M102.237 133.595v-.42l22.15-13a1.32 1.32 0 0 1 1.32-.15l11.63 6.68a.64.64 0 0 1 .26.27l.06.13a1.07 1.07 0 0 1-.43 1.4l-21.72 12.55a1.68 1.68 0 0 1-1.51 0l-11.15-6.41a1.22 1.22 0 0 1-.61-1.05z" opacity=".854" style="isolation:isolate"/><path fill="#5a5776" d="M102.287 133.555v-.41l22.07-13a1.32 1.32 0 0 1 1.32-.15l11.59 6.65a.64.64 0 0 1 .26.27l.06.13a1.07 1.07 0 0 1-.43 1.4l-21.65 12.54a1.67 1.67 0 0 1-1.51 0l-11.1-6.38a1.21 1.21 0 0 1-.61-1.05z" opacity=".878" style="isolation:isolate"/><path fill="#565474" d="M102.347 133.515v-.41l22-12.91a1.31 1.31 0 0 1 1.31-.15l11.54 6.63a.63.63 0 0 1 .25.27l.06.13a1.07 1.07 0 0 1-.43 1.39l-21.57 12.46a1.66 1.66 0 0 1-1.5 0l-11-6.36a1.21 1.21 0 0 1-.66-1.05z" opacity=".902" style="isolation:isolate"/><path fill="#535172" d="M102.407 133.485v-.41l21.89-12.86a1.31 1.31 0 0 1 1.31-.14l11.49 6.6a.63.63 0 0 1 .25.27l.06.13a1.06 1.06 0 0 1-.41 1.33l-21.49 12.45a1.66 1.66 0 0 1-1.49 0l-11-6.33a1.2 1.2 0 0 1-.61-1.04z" opacity=".927" style="isolation:isolate"/><path fill="#4f4e6f" d="M102.507 133.405v-.41l21.77-12.77a1.3 1.3 0 0 1 1.3-.14l11.45 6.57a.63.63 0 0 1 .25.27l.06.13a1.06 1.06 0 0 1-.42 1.35l-21.41 12.39a1.65 1.65 0 0 1-1.49 0l-11-6.31a1.2 1.2 0 0 1-.51-1.08z" opacity=".951" style="isolation:isolate"/><path fill="#4c4b6d" d="M102.507 133.405v-.4l21.74-12.76a1.3 1.3 0 0 1 1.3-.14l11.4 6.55a.63.63 0 0 1 .25.27l.06.13a1.05 1.05 0 0 1-.42 1.35l-21.33 12.32a1.64 1.64 0 0 1-1.48 0l-10.9-6.32a1.19 1.19 0 0 1-.62-1z" opacity=".976" style="isolation:isolate"/><path fill="#49486b" d="M102.587 133.405v-.41l21.63-12.74a1.29 1.29 0 0 1 1.29-.14l11.36 6.52a.62.62 0 0 1 .25.27l.06.13a1 1 0 0 1-.396 1.357l-.023.013-21.25 12.25a1.64 1.64 0 0 1-1.48 0l-10.85-6.25a1.19 1.19 0 0 1-.59-1z" data-name="16ee14c8-4974-4940-88a2-c83eee3daa85"/><path fill="url(#o)" d="M101.284 133.684v-.45l24.06-14.09a1.44 1.44 0 0 1 1.43-.16l12.63 7.16a.69.69 0 0 1 .28.3l.07.15a1.17 1.17 0 0 1-.47 1.55l-23.61 13.64a1.82 1.82 0 0 1-1.64 0l-12.08-7a1.32 1.32 0 0 1-.67-1.1z" data-name="a3f3c787-b875-44c1-8393-37c526c57bab" transform="translate(-.606 .26)"/><path fill="#f8f7f9" d="M101.017 133.835a.5.5 0 0 1 0-.95l23.65-13.65a1.82 1.82 0 0 1 1.64 0l12.41 7.17a.5.5 0 0 1 0 .95l-23.65 13.64a1.82 1.82 0 0 1-1.64 0z" data-name="cd5972e1-40cd-4f1d-85ed-8ba47e8750d9"/><path fill="#d4daed" d="M103.868 132.125l19.56-11.36 12.49 7.21-19.56 11.37-12.49-7.22z" data-name="aaa5155b-cc38-4173-9706-4d3d23a5d1aa"/><g data-name="82f151e5-69e5-436f-9225-e3137eb02dd5"><path fill="#9aa7d5" d="M132.507 124.665h-.09l-3.25-1.87a.19.19 0 1 1 .19-.32l3.25 1.87a.19.19 0 0 1-.09.35z"/></g><path fill="#f2f2f2" d="M107.587 137.215a.62.62 0 0 1 0-1.17 2.25 2.25 0 0 1 2 0 .62.62 0 0 1 0 1.17 2.25 2.25 0 0 1-2 0z" data-name="1c1ff515-b743-4b14-a8dd-9a055df6d58d"/></g></svg>