<svg id="096f95b3-ca4e-49b9-beba-85173dd1608d" data-name="778b3a2d-11bf-4329-8f58-38438a15ecc5" xmlns="http://www.w3.org/2000/svg" xmlns:xlink="http://www.w3.org/1999/xlink" viewBox="0 0 200 277.56">
  <defs>
    <linearGradient id="7d74f88c-f90f-4372-8fc4-c573dd06f1f2" x1="90.9" y1="47.58" x2="129.96" y2="47.58" gradientTransform="translate(-0.24 79.08)" gradientUnits="userSpaceOnUse">
      <stop offset="0.15" stop-color="#4d9ed7"/>
      <stop offset="1" stop-color="#67bce9"/>
    </linearGradient>
    <linearGradient id="b53a9f79-e9a0-489d-8fdb-de264f1e229e" x1="104.84" y1="-29.39" x2="137.99" y2="-29.39" xlink:href="#7d74f88c-f90f-4372-8fc4-c573dd06f1f2"/>
    <linearGradient id="83a57ab0-89b0-454c-8686-7aece80c6d85" x1="97.34" y1="-57.41" x2="165.98" y2="8.21" xlink:href="#7d74f88c-f90f-4372-8fc4-c573dd06f1f2"/>
    <linearGradient id="7c7a6e62-de22-43ae-aa92-cc849dd226fc" x1="160.87" y1="72.01" x2="176.95" y2="72.01" gradientTransform="matrix(1, 0, 0, -1, -0.24, 279.15)" xlink:href="#7d74f88c-f90f-4372-8fc4-c573dd06f1f2"/>
    <linearGradient id="8b375c0a-6405-42d8-8e5a-7bc8684c8b08" x1="142.98" y1="66.97" x2="167.76" y2="66.97" gradientTransform="matrix(1, 0, 0, -1, -0.24, 279.15)" xlink:href="#7d74f88c-f90f-4372-8fc4-c573dd06f1f2"/>
  </defs>
  <title>team-respect</title>
  <g id="59af50bc-f7bc-4ecc-8639-47367d735be7" data-name="358f668d-1bc4-4298-b2c7-84610ffd828f">
    <g id="4d74dde0-9cc6-41eb-bb33-eda2f83eee4c" data-name="b6673691-16d3-4fa2-9c9e-6e25a9a5d973">
      <g>
        <g style="opacity: 0.46000000834465027">
          <path id="29ce6c62-0b31-4056-95f2-b85671581d4b" data-name="a4fba098-fb17-4f38-a38f-7d5232fadb04" d="M98.92,101.35l99.18,56.94a3.76,3.76,0,0,1,0,6.53l-50.77,29.1a7.5,7.5,0,0,1-7.48,0L40.69,137a3.76,3.76,0,0,1,0-6.53l50.75-29.1A7.5,7.5,0,0,1,98.92,101.35Z" style="fill: #fff;fill-opacity: 0"/>
          <path d="M99,101.45l98.93,56.8a3.76,3.76,0,0,1,0,6.51l-50.57,29a7.48,7.48,0,0,1-7.44,0L40.85,137a3.76,3.76,0,0,1,0-6.51l50.58-29A7.48,7.48,0,0,1,99,101.45Z" style="fill: #fafbfd;opacity: 0.01960800029337406;isolation: isolate"/>
          <path d="M99,101.57l98.74,56.67a3.74,3.74,0,0,1,0,6.49l-50.39,28.91a7.46,7.46,0,0,1-7.42,0L41.14,137a3.74,3.74,0,0,1,0-6.49l50.46-28.91A7.46,7.46,0,0,1,99,101.57Z" style="fill: #f6f7f8;opacity: 0.03921600058674812;isolation: isolate"/>
          <path d="M99,101.63l98.51,56.55a3.74,3.74,0,0,1,0,6.47l-50.26,28.77a7.44,7.44,0,0,1-7.4,0L41.36,137a3.74,3.74,0,0,1,0-6.47l50.26-28.77A7.44,7.44,0,0,1,99,101.63Z" style="fill: #f3f3f5;opacity: 0.058823999017477036;isolation: isolate"/>
          <path d="M99.06,101.8l98.28,56.39a3.72,3.72,0,0,1,0,6.45l-50.1,28.8a7.42,7.42,0,0,1-7.38,0L41.59,137a3.72,3.72,0,0,1,0-6.45l50.09-28.77A7.42,7.42,0,0,1,99.06,101.8Z" style="fill: #f0f0f2;opacity: 0.07843100279569626;isolation: isolate"/>
          <path d="M99.1,101.91l98.07,56.3a3.7,3.7,0,0,1,0,6.43l-49.93,28.62a7.38,7.38,0,0,1-7.36,0L41.82,137a3.7,3.7,0,0,1,0-6.43l49.93-28.62A7.38,7.38,0,0,1,99.1,101.91Z" style="fill: #ececee;opacity: 0.09803900122642517;isolation: isolate"/>
          <path d="M99.14,102,197,158.18a3.7,3.7,0,0,1,0,6.41l-49.8,28.52a7.36,7.36,0,0,1-7.33,0L42,137a3.7,3.7,0,0,1,0-6.41L91.81,102A7.36,7.36,0,0,1,99.14,102Z" style="fill: #e8e8eb;opacity: 0.11764699965715408;isolation: isolate"/>
          <path d="M99.16,102l97.64,56a3.68,3.68,0,0,1,0,6.39L147.19,193a7.33,7.33,0,0,1-7.29,0L42.27,137a3.68,3.68,0,0,1,0-6.39L91.88,102A7.33,7.33,0,0,1,99.16,102Z" style="fill: #e5e5ea;opacity: 0.137254998087883;isolation: isolate"/>
          <path d="M99.21,102.24l97.4,55.91a3.68,3.68,0,0,1,0,6.37l-49.47,28.33a7.31,7.31,0,0,1-7.27,0L42.46,137a3.68,3.68,0,0,1,0-6.37l49.47-28.33A7.31,7.31,0,0,1,99.21,102.24Z" style="fill: #e1e1e7;opacity: 0.1568630039691925;isolation: isolate"/>
          <path d="M99.25,102.33l97.17,55.79a3.66,3.66,0,0,1,0,6.35L147.1,192.73a7.29,7.29,0,0,1-7.25,0L42.72,137a3.66,3.66,0,0,1,0-6.35L92,102.37A7.29,7.29,0,0,1,99.25,102.33Z" style="fill: #dedee4;opacity: 0.17647099494934082;isolation: isolate"/>
          <path d="M99.29,102.46l97,55.66a3.64,3.64,0,0,1,0,6.33l-49.12,28.2a7.27,7.27,0,0,1-7.23,0L42.94,137a3.64,3.64,0,0,1,0-6.33L92,102.55A7.27,7.27,0,0,1,99.29,102.46Z" style="fill: #dadae2;opacity: 0.19607800245285034;isolation: isolate"/>
          <path d="M99.33,102.56,196,158a3.64,3.64,0,0,1,0,6.31L147.1,192.44a7.23,7.23,0,0,1-7.21,0L43.17,137a3.64,3.64,0,0,1,0-6.31l49.05-28.11A7.23,7.23,0,0,1,99.33,102.56Z" style="fill: #d6d7de;opacity: 0.21568599343299866;isolation: isolate"/>
          <path d="M99.37,102.62l96.57,55.48a3.62,3.62,0,0,1,0,6.29l-48.86,27.88a7.21,7.21,0,0,1-7.17,0L43.34,136.83a3.62,3.62,0,0,1,0-6.29l48.87-27.92A7.21,7.21,0,0,1,99.37,102.62Z" style="fill: #d3d3db;opacity: 0.23529399931430817;isolation: isolate"/>
          <path d="M99.39,102.79,195.68,158a3.62,3.62,0,0,1,0,6.16l-48.62,28a7.19,7.19,0,0,1-7.15,0L43.63,137a3.62,3.62,0,0,1,0-6.16l48.6-28A7.19,7.19,0,0,1,99.39,102.79Z" style="fill: #cfd0d8;opacity: 0.2549020051956177;isolation: isolate"/>
          <path d="M99.43,102.89,195.49,158a3.59,3.59,0,0,1,0,6.16L147,192a7.17,7.17,0,0,1-7.13,0l-96-55a3.59,3.59,0,0,1,0-6.16l48.37-27.93A7.17,7.17,0,0,1,99.43,102.89Z" style="fill: #ccccd5;opacity: 0.274509996175766;isolation: isolate"/>
          <path d="M99.48,103l95.83,55a3.57,3.57,0,0,1,0,6.16L147,191.89a7.15,7.15,0,0,1-7.11,0L44.07,137a3.57,3.57,0,0,1,0-6.16l48.29-27.7A7.15,7.15,0,0,1,99.48,103Z" style="fill: #c8c7d1;opacity: 0.2941179871559143;isolation: isolate"/>
          <path d="M99.52,103.12,195.13,158a3.57,3.57,0,0,1,0,6.16L147,191.8a7.11,7.11,0,0,1-7.09,0L44.3,137a3.57,3.57,0,0,1,0-6.16l48.12-27.7A7.11,7.11,0,0,1,99.52,103.12Z" style="fill: #c4c4ce;opacity: 0.31372499465942383;isolation: isolate"/>
          <path d="M99.56,103.22,195,158a3.55,3.55,0,0,1,0,6.16l-48,27.47a7.09,7.09,0,0,1-7.06,0L44.53,137a3.55,3.55,0,0,1,0-6.16l48-27.49A7.09,7.09,0,0,1,99.56,103.22Z" style="fill: #c1c1cc;opacity: 0.33333298563957214;isolation: isolate"/>
          <path d="M99.58,103.34,194.75,158a3.55,3.55,0,0,1,0,6.16L147,191.55a7.06,7.06,0,0,1-7,0L44.76,137a3.55,3.55,0,0,1,0-6.16l47.79-27.39A7.06,7.06,0,0,1,99.58,103.34Z" style="fill: #bdbdc9;opacity: 0.35294100642204285;isolation: isolate"/>
          <path d="M99.62,103.44l95,54.51a3.53,3.53,0,0,1,0,6.16l-47.66,27.28a7,7,0,0,1-7,0L45,137a3.53,3.53,0,0,1,0-6.16l47.63-27.31A7,7,0,0,1,99.62,103.44Z" style="fill: #babac6;opacity: 0.37254899740219116;isolation: isolate"/>
          <path d="M99.65,103.55,194.38,158a3.53,3.53,0,0,1,0,6.16L146.9,191.33a7,7,0,0,1-7,0L45.18,136.92a3.53,3.53,0,0,1,0-6.16l47.49-27.21A7,7,0,0,1,99.65,103.55Z" style="fill: #b6b6c4;opacity: 0.3921569883823395;isolation: isolate"/>
          <path d="M99.69,103.67l94.52,54.25a3.51,3.51,0,0,1,0,6.16L147,191.21a7,7,0,0,1-6.93,0L45.43,137a3.51,3.51,0,0,1,0-6.16l47.26-27.13A7,7,0,0,1,99.69,103.67Z" style="fill: #b4b4c2;opacity: 0.4117650091648102;isolation: isolate"/>
          <path d="M99.74,103.78,194,157.91a3.49,3.49,0,0,1,0,6.16L146.87,191a6.93,6.93,0,0,1-6.93,0L45.66,136.85a3.49,3.49,0,0,1,0-6.16l47.13-27A6.93,6.93,0,0,1,99.74,103.78Z" style="fill: #afafbe;opacity: 0.4313730001449585;isolation: isolate"/>
          <path d="M99.78,103.88l94,54a3.49,3.49,0,0,1,0,6l-47,26.92a6.93,6.93,0,0,1-6.93,0l-94-54a3.49,3.49,0,0,1,0-6l47-26.92A6.93,6.93,0,0,1,99.78,103.88Z" style="fill: #acacbb;opacity: 0.450980007648468;isolation: isolate"/>
          <path d="M99.84,104l93.82,53.88a3.47,3.47,0,0,1,0,6l-46.81,26.83a6.93,6.93,0,0,1-6.93,0L46.11,136.85a3.47,3.47,0,0,1,0-6L92.92,104A6.93,6.93,0,0,1,99.84,104Z" style="fill: #a9a9b9;opacity: 0.47058799862861633;isolation: isolate"/>
          <path d="M99.84,104.1l93.59,53.75a3.47,3.47,0,0,1,0,6l-46.65,26.71a6.93,6.93,0,0,1-6.87,0L46.34,136.85a3.47,3.47,0,0,1,0-6L93,104.14A6.93,6.93,0,0,1,99.84,104.1Z" style="fill: #a4a4b5;opacity: 0.49019598960876465;isolation: isolate"/>
          <path d="M99.84,104.2l93.36,53.61a3.45,3.45,0,0,1,0,5.94l-46.5,26.61a6.93,6.93,0,0,1-6.85,0L46.57,136.83a3.45,3.45,0,0,1,0-5.94l46.5-26.71A6.93,6.93,0,0,1,99.84,104.2Z" style="fill: #a1a0b2;opacity: 0.5098040103912354;isolation: isolate"/>
          <path d="M99.92,104.33l93.15,53.42a3.43,3.43,0,0,1,0,5.94L146.76,190.4a6.85,6.85,0,0,1-6.83,0L46.78,137a3.43,3.43,0,0,1,0-5.94L93.1,104.5A6.85,6.85,0,0,1,99.92,104.33Z" style="fill: #9d9daf;opacity: 0.5294119715690613;isolation: isolate"/>
          <path d="M100,104.43l92.92,53.42a3.43,3.43,0,0,1,0,5.84l-46.17,26.5a6.83,6.83,0,0,1-6.8,0L47,136.83a3.43,3.43,0,0,1,0-6l46.15-26.44A6.83,6.83,0,0,1,100,104.43Z" style="fill: #999aac;opacity: 0.549019992351532;isolation: isolate"/>
          <path d="M100,104.53l92.71,53.24a3.41,3.41,0,0,1,0,5.94l-46,26.37a6.8,6.8,0,0,1-6.76,0L47.24,136.81a3.41,3.41,0,0,1,0-5.94l46-26.37A6.8,6.8,0,0,1,100,104.53Z" style="fill: #9695a8;opacity: 0.5686269998550415;isolation: isolate"/>
          <path d="M100,104.66l92.46,53.12a3.41,3.41,0,0,1,0,5.94L146.68,190a6.78,6.78,0,0,1-6.74,0L47.47,136.81a3.41,3.41,0,0,1,0-5.94l45.82-26.26A6.78,6.78,0,0,1,100,104.66Z" style="fill: #9292a6;opacity: 0.5882350206375122;isolation: isolate"/>
          <path d="M100.07,104.76l92.26,53a3.39,3.39,0,0,1,0,5.88l-45.66,26.2a6.76,6.76,0,0,1-6.72,0l-92.26-53a3.39,3.39,0,0,1,0-5.88l45.66-26.18A6.76,6.76,0,0,1,100.07,104.76Z" style="fill: #8f8fa2;opacity: 0.6078429818153381;isolation: isolate"/>
          <path d="M100.11,104.87l92,52.87a3.37,3.37,0,0,1,0,5.86l-45.51,26.08a6.74,6.74,0,0,1-6.7,0l-92-52.85a3.37,3.37,0,0,1,0-5.86l45.51-26.08A6.74,6.74,0,0,1,100.11,104.87Z" style="fill: #8b8ba1;opacity: 0.6274510025978088;isolation: isolate"/>
          <path d="M100.15,105,192,157.71a3.37,3.37,0,0,1,0,5.84l-45.33,26a6.7,6.7,0,0,1-6.68,0L48.14,136.79a3.37,3.37,0,0,1,0-5.84l45.33-26A6.7,6.7,0,0,1,100.15,105Z" style="fill: #88889e;opacity: 0.6470590233802795;isolation: isolate"/>
          <path d="M100.19,105.09l91.58,52.6a3.35,3.35,0,0,1,0,5.82l-45.2,25.89a6.68,6.68,0,0,1-6.66,0L48.4,136.79a3.35,3.35,0,0,1,0-5.82l45.18-25.88A6.68,6.68,0,0,1,100.19,105.09Z" style="fill: #84849a;opacity: 0.6666669845581055;isolation: isolate"/>
          <path d="M100.21,105.21l91.36,52.43a3.35,3.35,0,0,1,0,5.8l-45,25.79a6.66,6.66,0,0,1-6.62,0L48.6,136.8a3.35,3.35,0,0,1,0-5.8l45-25.79A6.66,6.66,0,0,1,100.21,105.21Z" style="fill: #818098;opacity: 0.6862750053405762;isolation: isolate"/>
          <path d="M100.26,105.31l91.13,52.34a3.32,3.32,0,0,1,0,5.78l-44.82,25.72a6.64,6.64,0,0,1-6.6,0L48.82,136.81a3.32,3.32,0,0,1,0-5.78l44.84-25.72A6.64,6.64,0,0,1,100.26,105.31Z" style="fill: #7e7e95;opacity: 0.7058820128440857;isolation: isolate"/>
          <path d="M100.3,105.42l90.92,52.21a3.3,3.3,0,0,1,0,5.76L146.55,189a6.62,6.62,0,0,1-6.58,0l-90.9-52.24a3.3,3.3,0,0,1,0-5.76l44.67-25.6A6.62,6.62,0,0,1,100.3,105.42Z" style="fill: #7b7a91;opacity: 0.7254899740219116;isolation: isolate"/>
          <path d="M100.34,105.59l90.69,52a3.3,3.3,0,0,1,0,5.73l-44.52,25.6a6.58,6.58,0,0,1-6.56,0L49.28,136.77a3.3,3.3,0,0,1,0-5.73l44.52-25.5A6.58,6.58,0,0,1,100.34,105.59Z" style="fill: #77778f;opacity: 0.7450979948043823;isolation: isolate"/>
          <path d="M100.44,105.65l90.43,51.88a3.28,3.28,0,0,1,0,5.71l-44.37,25.46a6.56,6.56,0,0,1-6.53,0L49.54,136.77a3.28,3.28,0,0,1,0-5.71l44.36-25.42A6.56,6.56,0,0,1,100.44,105.65Z" style="fill: #73738c;opacity: 0.764706015586853;isolation: isolate"/>
          <path d="M100.44,105.75l90.21,51.78a3.28,3.28,0,0,1,0,5.69l-44.18,25.38a6.53,6.53,0,0,1-6.51,0L49.72,136.77a3.28,3.28,0,0,1,0-5.69l44.18-25.32A6.53,6.53,0,0,1,100.44,105.75Z" style="fill: #6f6f89;opacity: 0.784313976764679;isolation: isolate"/>
          <path d="M100.44,105.87l90,51.65a3.26,3.26,0,0,1,0,5.67l-44,25.29a6.51,6.51,0,0,1-6.47,0l-90-51.72a3.26,3.26,0,0,1,0-5.67l44-25.23A6.51,6.51,0,0,1,100.44,105.87Z" style="fill: #6d6c86;opacity: 0.8039219975471497;isolation: isolate"/>
          <path d="M100.44,106l89.83,51.55a3.25,3.25,0,0,1,0,5.65l-43.85,25.17a6.49,6.49,0,0,1-6.45,0L50.18,136.77a3.25,3.25,0,0,1,0-5.65L94,106A6.49,6.49,0,0,1,100.44,106Z" style="fill: #696883;opacity: 0.8235290050506592;isolation: isolate"/>
          <path d="M100.44,106.16,190,157.53a3.25,3.25,0,0,1,0,5.63l-43.6,25.05a6.47,6.47,0,0,1-6.43,0L50.38,136.83a3.25,3.25,0,0,1,0-5.63l43.68-25.05A6.47,6.47,0,0,1,100.44,106.16Z" style="fill: #666580;opacity: 0.8431370258331299;isolation: isolate"/>
          <path d="M100.57,106.16l89.31,51.37a3.23,3.23,0,0,1,0,5.61l-43.53,24.94a6.43,6.43,0,0,1-6.41,0L50.59,136.71a3.23,3.23,0,0,1,0-5.61l43.53-24.94A6.43,6.43,0,0,1,100.57,106.16Z" style="fill: #62627e;opacity: 0.8627449870109558;isolation: isolate"/>
          <path d="M100.6,106.3l89.12,51.23a3.23,3.23,0,0,1,0,5.59L146.34,188a6.41,6.41,0,0,1-6.39,0L50.83,136.73a3.23,3.23,0,0,1,0-5.59L94.24,106.3A6.41,6.41,0,0,1,100.6,106.3Z" style="fill: #5e5f7c;opacity: 0.8823530077934265;isolation: isolate"/>
          <path d="M100.62,106.4l88.91,51.12a3.21,3.21,0,0,1,0,5.57L146.34,187.7a6.39,6.39,0,0,1-6.35,0l-88.86-51a3.21,3.21,0,0,1,0-5.57l43.15-24.65A6.39,6.39,0,0,1,100.62,106.4Z" style="fill: #5b5b7a;opacity: 0.9019610285758972;isolation: isolate"/>
          <path d="M100.66,106.53l88.68,51a3.19,3.19,0,0,1,0,5.55l-43,24.62a6.37,6.37,0,0,1-6.33,0l-88.7-51a3.19,3.19,0,0,1,0-5.55l43-24.65A6.37,6.37,0,0,1,100.66,106.53Z" style="fill: #565777;opacity: 0.9215689897537231;isolation: isolate"/>
          <path d="M100.7,106.63l88.36,50.81a3.19,3.19,0,0,1,0,5.53L146.2,187.62a6.35,6.35,0,0,1-6.31,0L51.53,136.81a3.19,3.19,0,0,1,0-5.53L94.4,106.63A6.35,6.35,0,0,1,100.7,106.63Z" style="fill: #535474;opacity: 0.9411759972572327;isolation: isolate"/>
          <path d="M100.74,106.76,189,157.53a3.17,3.17,0,0,1,0,5.51l-42.7,24.37a6.31,6.31,0,0,1-6.29,0L51.76,136.71a3.17,3.17,0,0,1,0-5.51l42.7-24.48A6.31,6.31,0,0,1,100.74,106.76Z" style="fill: #4f5071;opacity: 0.9607840180397034;isolation: isolate"/>
          <path d="M100.83,106.86l88.05,50.57a3.17,3.17,0,0,1,0,5.49l-42.54,24.37a6.29,6.29,0,0,1-6.16,0L52,136.71a3.17,3.17,0,0,1,0-5.49l42.54-24.39A6.29,6.29,0,0,1,100.83,106.86Z" style="fill: #4d4c6e;opacity: 0.9803919792175293;isolation: isolate"/>
          <path id="e51c2935-4e00-4253-965e-9e41c5edd7f2" data-name="df8807f4-92b7-4586-a2f9-7f1a7fa5bfa8" d="M100.83,107l87.78,50.46a3.15,3.15,0,0,1,0,5.46l-42.37,24.26a6.26,6.26,0,0,1-6.16,0L52.22,136.68a3.15,3.15,0,0,1,0-5.46l42.37-24.29A6.26,6.26,0,0,1,100.83,107Z" style="fill: #49486b"/>
        </g>
        <polygon id="a562b767-164e-46c3-8c2c-2b4efba8ab12" data-name="b1b95588-6184-4deb-93b4-c03dbaedd4d9" points="99.84 75.46 195.37 130.28 142.44 160.61 46.93 105.79 99.84 75.46" style="fill: #f5f6f9"/>
        <polygon id="16255c52-bade-4d37-9532-a5354e0b6c11" data-name="5072605f-7b86-45f7-9a38-fe3e004efe06" points="142.44 160.61 142.44 190.79 195.37 160.45 195.37 130.28 142.44 160.61" style="fill: #e4e8f3"/>
        <polygon id="f9e22120-3697-4a86-9efd-8304fc58d6c6" data-name="367f4e85-52a5-4dea-9581-d2d5c114050d" points="142.44 190.79 46.93 135.95 46.93 105.79 142.44 160.61 142.44 190.79" style="fill: #dbe0f1"/>
      </g>
      <g id="71cbb383-e519-42a5-b75d-b587bf0c6cbb" data-name="16f75f7d-e143-40b4-9cb8-f4ae27239b2a">
        <g>
          <path d="M148.27,116.26c.94-.34-3.95-4.65-3.95-4.65l-34.51,6.83-9.77,5.22a32,32,0,0,0-5.68,3.95l-6,3.46a.82.82,0,0,0-.48.65h0v.59a.88.88,0,0,0,.45.77l1.56.91A23.58,23.58,0,0,0,88.3,143s-.23,2.58-.36,6l18.16,10.47h.45l8.15,4.71v-2.84a17.4,17.4,0,0,1,1.91.59c2.66,1.08,3.38-12.26,3.38-12.26a8.8,8.8,0,0,1,5-6.36l16.34-9.31A15.16,15.16,0,0,0,148.27,116.26Z" style="fill: #231f20;opacity: 0.30000001192092896;isolation: isolate"/>
          <g id="9397f14b-38f4-48f1-9a2e-5c25121eeb5b" data-name="a4eae316-34a7-4b9a-87af-26456ce3028c">
            <path id="8f762bda-7bda-4b92-ac4c-5eb8bf8c5fde" data-name="cb0cbbf6-9852-43cf-a39d-7eebf9809c83" d="M90.52,175,71.16,186.32v2.06a5,5,0,0,0,2.39,4.31L77.32,195a3.21,3.21,0,0,0,3.34,0l15-8.8A4.92,4.92,0,0,0,98,182v-2.24Z" style="fill: #c0c7cf"/>
            <path id="e79837ac-afa9-4837-be6f-12d7cfc68907" data-name="25cfc624-92fc-4988-9e7a-ff7a834dabd4" d="M85.9,175.75l-12.66,7.34a4.22,4.22,0,0,0,0,7.24l3.41,2.07a4.56,4.56,0,0,0,4.76,0l14.39-8.51a4.74,4.74,0,0,0,0-8.15l-.4-.23A9.16,9.16,0,0,0,85.9,175.75Z" style="fill: #fff"/>
            <g id="130fd63a-cb41-4dd1-93e5-6d5c7b96989e" data-name="1b509b12-7646-4f6f-90a8-3f1539b8b658">
              <path d="M94.92,179.77a4.26,4.26,0,0,0-2.1-3.12l-.36-.2a8.51,8.51,0,0,0-3.16-1.06,6,6,0,0,0-2.24.79l-6.84,4a2.84,2.84,0,0,0,0,4.76l2.24,1.36a3,3,0,0,0,3.16,0l7.94-4.69A3.07,3.07,0,0,0,94.92,179.77Z" style="fill: #af7980"/>
            </g>
            <path id="8b41b77f-30f0-4ab1-97b7-98491f5ef755" data-name="9d9c09af-27fc-4046-9cad-6dad2c0dee48" d="M107.29,184.19,87.93,195.51v2a5,5,0,0,0,2.39,4.31l3.77,2.28a3.21,3.21,0,0,0,3.34,0l15-8.8a4.92,4.92,0,0,0,2.35-4.2v-2.2Z" style="fill: #c0c7cf"/>
            <path id="525ab451-3d44-480d-ac7d-b0b5795880d3" data-name="c25ef53f-de5a-4e31-975d-7eed78f40d9b" d="M102.78,184.94,90,192.29a4.22,4.22,0,0,0,0,7.24l3.41,2.07a4.56,4.56,0,0,0,4.76,0l14.39-8.51a4.74,4.74,0,0,0,0-8.15l-.4-.23A9.16,9.16,0,0,0,102.78,184.94Z" style="fill: #fff"/>
            <g id="00156758-d09d-4fe7-82e7-de10b0e3585f" data-name="b5ba348b-cf82-4fb7-9064-abf73c19c39d">
              <path d="M111.8,189a4.26,4.26,0,0,0-2.12-3.1l-.36-.2a8.51,8.51,0,0,0-3.16-1.06,6,6,0,0,0-2.24.79l-6.84,4a2.84,2.84,0,0,0,0,4.76l2.24,1.36a3,3,0,0,0,3.16,0l7.93-4.63A3.07,3.07,0,0,0,111.8,189Z" style="fill: #af7980"/>
            </g>
            <g id="fa69ddcd-d43d-407c-b754-21de6647d09e" data-name="39ef096e-144c-431e-8646-966b605afeee">
              <g id="8fcebbdb-a903-47eb-9dd1-5f5b6ca01c9a" data-name="d79c69e0-f5ae-46a2-949d-42371f78b390">
                <path d="M91.09,182.52A4.09,4.09,0,0,1,87,178.44h0V152a4.09,4.09,0,1,1,8.15,0v26.4A4.09,4.09,0,0,1,91.09,182.52Z" style="fill: #af7980"/>
              </g>
            </g>
            <path d="M87.91,178.44V152a4.06,4.06,0,0,1,3.63-4h-.45A4.09,4.09,0,0,0,87,152.09h0v26.4a4.09,4.09,0,0,0,4.09,4.09h.45A4.06,4.06,0,0,1,87.91,178.44Z" style="fill: #b7868e"/>
            <g id="5424a178-ce47-4e33-b5ad-ac4a25feee8a" data-name="11f15341-898c-4551-8cd0-a8aaad7ac4cf">
              <g id="09ee0c49-5b7c-4a89-8e17-12d5394a31a8" data-name="b51e42e9-41c7-4bab-8899-13aa41c27d7e">
                <path d="M107.95,191.77a4.09,4.09,0,0,1-4.09-4.09h0V149.06a4.09,4.09,0,0,1,8.15,0v38.63A4.09,4.09,0,0,1,107.95,191.77Z" style="fill: #af7980"/>
              </g>
            </g>
            <path id="862e2905-746d-4dd3-a3c7-594e4b04ce1c" data-name="ce61b14b-50e5-4360-8151-31d7f294543e" d="M119,92.62l-7.86,21.8-13.83,7.4c-6.21,3.63-11.64,8.17-11.64,19.38,0,0-.29,3.12-.4,7.06-.25,7.29,23.47,9.91,28.66,12,2.66,1.08,3.38-12.26,3.38-12.26a8.8,8.8,0,0,1,5-6.36l16.15-9.39a15.21,15.21,0,0,0,0-26.4Z" style="fill: #e6e7e8"/>
            <path d="M87.09,148.27a62.32,62.32,0,0,1,.4-7.06c0-11.21,5.42-15.75,11.64-19.38l13.83-7.4,7.54-20.8-1.47-1-7.86,21.8-13.83,7.4c-6.21,3.63-11.64,8.17-11.64,19.38,0,0-.29,3.12-.4,7.06-.25,7.29,23.47,9.91,28.66,12a.85.85,0,0,0,1-.31C108.37,157.92,86.86,155.22,87.09,148.27Z" style="fill: #5c629e;opacity: 0.15000000596046448;isolation: isolate"/>
            <g id="036f4039-7361-4aac-b283-7a0c7a303868" data-name="3f23df7c-dfa3-4fa2-a999-62206f10f8e6">
              <path id="9f3a093e-deea-4ed1-a259-c7a21d49abb1" data-name="42f11dfb-3cd2-4ee2-a5af-fdd5aad91f59" d="M85.27,129.9v.65a.88.88,0,0,0,.45.77l17.6,10.16a2.58,2.58,0,0,0,2.33,0l27.5-16a1.13,1.13,0,0,0,.57-1v-.23l-18.05-10.42a2.58,2.58,0,0,0-2.33,0Z" style="fill: #e6e7e8"/>
              <path id="6e1dbec3-63ab-4ee1-bfdc-6a29b8c1e141" data-name="083a9ca8-c518-4634-b7f5-28a87699673b" d="M85.76,129.3a.7.7,0,0,0,0,1.33l17.6,10.16a2.58,2.58,0,0,0,2.33,0l27.58-15.86a.7.7,0,0,0,0-1.33l-17.6-10.22a2.58,2.58,0,0,0-2.33,0Z" style="fill: #fff"/>
              <polygon id="17c36090-533e-4368-8943-057005f79fbc" data-name="eac2c101-b008-42dc-890e-28ed68d47c31" points="90.66 127.92 107.94 137.97 129.72 125.45 112.46 115.35 90.66 127.92" style="fill: url(#7d74f88c-f90f-4372-8fc4-c573dd06f1f2)"/>
              <g id="9d22d01b-dce2-4f04-9d87-fed9d078cde2" data-name="eca28fef-3bc8-464e-a0af-88fcba641f72">
                <path id="67a492df-1cea-4fbe-951b-96b5370000c0" data-name="adf3e070-3b01-4d53-834d-08fcaf57e888" d="M98.44,135.16h-.18l-3.68-2.09a.34.34,0,1,1,.34-.59h0l3.68,2.12a.34.34,0,0,1-.18.63Z" style="fill: #48486a"/>
              </g>
            </g>
            <g id="8383328a-379b-46f0-9ece-ea105d1afd18" data-name="a7bb57eb-9e98-445a-adf8-e274982975dd">
              <path d="M113.2,120.89a4.56,4.56,0,0,1-3.07-1.19,37.82,37.82,0,0,1-2.72-53.42h0q.8-.89,1.67-1.73l.88-.85a4.61,4.61,0,0,1,6.62,6.41l-.18.18-.88.85A28.64,28.64,0,0,0,115,111.6a15.86,15.86,0,0,0,1.36,1.26,4.6,4.6,0,0,1-3.07,8Z" style="fill: #af7980"/>
            </g>
            <g id="0dfeab01-8633-4a80-a4d7-6f77aef6cc2e" data-name="76f9fb70-5971-4ab4-803b-a4b6ada46189">
              <path d="M105.05,40.85l.34-1.58a3.38,3.38,0,0,1,2.41-2.84,9.88,9.88,0,0,1,3.77-.31l7,.36c4.56.23,9.84.88,12.26,4.74,1.67,2.69,1.47,6.29,3.46,8.8.65.82,1.53,1.47,2.19,2.33a9.3,9.3,0,0,1,.57,8.08,4.45,4.45,0,0,1-1.26,2.33,3.77,3.77,0,0,1-4.29-.2A29.34,29.34,0,0,0,127.77,60c-2.21-.91-4.83-.25-7.09-1-4.48-1.47-6-7.66-10.36-9.39A15.61,15.61,0,0,1,106.17,48C104.14,46.5,104.45,43.27,105.05,40.85Z" style="fill: url(#b53a9f79-e9a0-489d-8fdb-de264f1e229e)"/>
            </g>
            <path id="cec40d4c-5dca-4afe-a9f3-6765f503c491" data-name="b1ae02da-740e-431e-83eb-37684e35b1f2" d="M144.84,74.05A23,23,0,0,0,136.33,64l-11.69-6.75h-8.3a6,6,0,0,0-4.37,2h0a9.25,9.25,0,0,0-1.53,5.14V68.8l-2.28,8.51A5.68,5.68,0,0,0,109,82l1.51,2.19a21.14,21.14,0,0,1,3.66,13.43l-1,14.67c6.29,12.82,33.8,1.51,33.8,1.51C144.19,93.55,150.62,89.19,144.84,74.05Z" style="fill: #48486a"/>
            <path d="M115,112.34l1-14.67a21.14,21.14,0,0,0-3.66-13.43l-1.51-2.19a5.68,5.68,0,0,1-.74-4.74l2.28-8.51V64.5a9.25,9.25,0,0,1,1.53-5.14,6,6,0,0,1,4.37-2h-1.79a6,6,0,0,0-4.37,2,9.25,9.25,0,0,0-1.53,5.14v4.31l-2.28,8.51a5.68,5.68,0,0,0,.85,4.65l1.51,2.19a21.14,21.14,0,0,1,3.66,13.43l-1,14.67c2.41,4.88,7.89,6.29,13.76,6.1C121.8,118.28,117.17,116.73,115,112.34Z" style="fill: #d3daed;opacity: 0.15000000596046448;isolation: isolate"/>
            <g id="16272b24-bbf6-42d2-b982-5c646450914b" data-name="4a3e51d1-98cc-4e91-b7b9-a5f0b8f24329">
              <g id="06252945-f380-486c-a5e5-10e91bc3a025" data-name="d68f2de8-0975-476a-84dc-8894dad86575">
                <path d="M127.81,67.44a4.09,4.09,0,0,0,4.09-4.09h0V48.94a4.09,4.09,0,1,0-8.15,0V63.42A4.09,4.09,0,0,0,127.81,67.44Z" style="fill: #af7980"/>
              </g>
            </g>
            <g id="3a98a7c6-8502-4902-9c4e-a0876441c20a" data-name="7ab116f6-4c2a-4e4c-bd42-fecb6ca77103">
              <path d="M129.7,57.21l-12.95,4A3.77,3.77,0,0,1,112,58.76l0-.1-5.53-18h0l16.61-5h0l6.65,21.71Z" style="fill: #af7980"/>
            </g>
            <path d="M128.37,118.39a60.9,60.9,0,0,0,13.17-2.64A39.42,39.42,0,0,0,137.77,72c-1.58-2-3.43,4.69-3.43,4.69,8.89,10.95,5.19,27.92-3.68,38.88Z" style="fill: #231f20;opacity: 0.17000000178813934;isolation: isolate"/>
            <g id="702f47ac-52f9-43dc-aa74-0cc46401c939" data-name="6c7297be-39fa-4eda-bbb7-55f416f28e67">
              <path d="M118.28,130a4.6,4.6,0,0,1-2.84-8.23l9.5-6.93a30.17,30.17,0,0,0,9.7-36.53,4.65,4.65,0,1,1,8.51-3.77,39.4,39.4,0,0,1-12.68,47.77l-9.5,6.93A4.56,4.56,0,0,1,118.28,130Z" style="fill: #af7980"/>
            </g>
            <path d="M143.13,74.48a4.56,4.56,0,0,0-4.63-2.66,4.56,4.56,0,0,1,3.77,2.66,39.4,39.4,0,0,1-12.68,47.77l-9.5,6.93a4.56,4.56,0,0,1-2.16.85h.36a4.56,4.56,0,0,0,2.84-.88l9.5-6.93A39.4,39.4,0,0,0,143.13,74.48Z" style="fill: #b7868e"/>
            <g id="8695a0e0-31a2-41ba-9626-7e51af8dad83" data-name="a5841372-4f75-4a4a-a3b0-d3a2df48be69">
              <path d="M113.2,120.89a4.56,4.56,0,0,1-3.07-1.19,37.71,37.71,0,0,1-12-34.05,4.6,4.6,0,0,1,9.05,1.45,28.57,28.57,0,0,0,9.08,25.79,4.6,4.6,0,0,1-3.07,8Z" style="fill: #af7980"/>
            </g>
            <g id="90ee4f3d-9478-418d-b4cb-a38719e1fa9f" data-name="495f83eb-c710-4198-ab36-8d5b3eb4a683">
              <path d="M141.12,78.26a8.51,8.51,0,0,1,3.57.7,5.25,5.25,0,0,0,3.23.85c1.47-.36,2-2.19,2.24-3.77a10.16,10.16,0,0,0,0-3.95,15,15,0,0,0-2.59-4.4,15.86,15.86,0,0,1-2.51-7.13c-.2-1.9,0-3.77-.25-5.68a12.77,12.77,0,0,0-2.39-5.68c-1.33-2.19-1.73-4.8-3.12-7s-3.77-3.54-5.33-5.68a15,15,0,0,0-5-5,21.71,21.71,0,0,0-5.68-3.07,12.93,12.93,0,0,0-4.69.54c-1.65.23-3.29,0-5,.36a16.61,16.61,0,0,0-8.69,4.92c-1.85,2-2.28,4.49.44,6s5.68.36,8.8.2a2.84,2.84,0,0,1,1.65.34c1.26.82.7,4.09,1.08,5.51a7,7,0,0,0,2.3,3.8,14.19,14.19,0,0,0,3.68,1.67A5.82,5.82,0,0,1,126,54.13c1.26,2.24-.34,4.94-.29,7.54a5.87,5.87,0,0,0,1.79,4,13.31,13.31,0,0,1,2.21,2.07,6.73,6.73,0,0,1,.77,2.84,15.64,15.64,0,0,0,.88,4,5.68,5.68,0,0,0,5.93,3.77c1.06,0,2.07-.34,3.12-.43Z" style="fill: url(#83a57ab0-89b0-454c-8686-7aece80c6d85)"/>
            </g>
            <g style="opacity: 0.15000000596046448">
              <path d="M150.14,76.13a6.07,6.07,0,0,1-1.17,3,11.31,11.31,0,0,0,.25-1.19,10.16,10.16,0,0,0,.06-4,15,15,0,0,0-2.61-4.51,15.86,15.86,0,0,1-2.51-7.13c-.2-1.9,0-3.77-.25-5.68A12.75,12.75,0,0,0,141.52,51c-1.33-2.19-1.73-4.8-3.12-7s-3.77-3.54-5.33-5.68a15,15,0,0,0-5-5,21.73,21.73,0,0,0-5.68-3.07,12.93,12.93,0,0,0-4.69.54c-1.65.23-3.29,0-5,.36A16.61,16.61,0,0,0,104,36.08l-.45.57a5.68,5.68,0,0,1,1.36-2.41,16.61,16.61,0,0,1,8.69-4.92,48.72,48.72,0,0,1,5-.36,12.93,12.93,0,0,1,4.69-.54A21.71,21.71,0,0,1,129,31.48a15,15,0,0,1,5,5c1.48,2.11,3.85,3.54,5.25,5.74s1.79,4.76,3.12,7a12.77,12.77,0,0,1,2.39,5.68c.2,1.9,0,3.77.25,5.68a15.86,15.86,0,0,0,2.51,7.13,15,15,0,0,1,2.61,4.51A9.57,9.57,0,0,1,150.14,76.13Z" style="fill: #ef9ea3"/>
            </g>
            <g id="6db8ef63-bb31-48a6-905f-bc551ed59799" data-name="9ee00e62-1fc2-4f8a-8a8b-d75f94f5b161">
              <path d="M108.71,110.58l8.89,2.58a1.26,1.26,0,0,0,1.55-.85h0a1.26,1.26,0,0,0-.85-1.51l-8.8-2.64Z" style="fill: #af7980"/>
            </g>
            <g id="e4da45bc-ed38-4534-8928-fd091a26bb7c" data-name="f0de5da1-7f99-4008-ba0d-55828b4140f1">
              <path d="M116.61,121.59l-7.35,5.68A1.26,1.26,0,0,0,109,129h0a1.26,1.26,0,0,0,1.73.2l7.35-5.68Z" style="fill: #af7980"/>
            </g>
            <g id="78eb5e99-affa-468f-b70f-70123fc25793" data-name="a9fc5c15-f77b-47c7-89f1-f94ae6af979a">
              <path d="M121.23,120.92l-7.35,5.68a1.26,1.26,0,0,0-.23,1.75h0a1.26,1.26,0,0,0,1.73.2l7.35-5.68Z" style="fill: #af7980"/>
            </g>
          </g>
        </g>
      </g>
    </g>
    <g>
      <circle id="fc45de67-0d66-4739-a57d-307ff40740b9" data-name="5a1487fc-93a8-42d4-af16-1d540c53a2ce" cx="13.57" cy="17" r="5.18" style="fill: #5c6873"/>
      <circle id="ebd08b20-3395-42cd-9627-53b44af31525" data-name="6de62dae-d709-4662-8ca1-cfcd566692f5" cx="14.8" cy="23.59" r="5.18" style="fill: #5c6873"/>
      <path id="20656cbe-0a12-4965-80f9-a633a95b9ce3" data-name="2bdfabc8-dbf2-4639-985e-659be4a5dfe9" d="M35.41,12.68,34.9,25.84a10.13,10.13,0,0,1-5.54,9.4h0c-8,4.46-18.05-1.12-18.05-10.06V12.62a11.53,11.53,0,0,1,6-10.06h0C25.38-1.82,35.41,3.76,35.41,12.68Z" style="fill: #5c6873"/>
      <g id="9ac10b90-bdda-49ee-a939-d5dd29763a1d" data-name="d31e858f-71d0-4675-b2ce-15c4f9b4ad8b">
        <path id="3c345f57-0a31-40cb-90c7-ba8b9c335b63" data-name="8e8776b9-4e9d-4aa6-8fc4-7365dc2a427a" d="M39.84,116.39a4.35,4.35,0,0,0,2.31-8L32,65.54V56.19a4.35,4.35,0,0,0-8.7,0h0V70.37l14.22,45.35A4.32,4.32,0,0,0,39.84,116.39Z" style="fill: #af7980"/>
        <path id="5e0ce164-b332-4ab3-a138-864c9d065dfd" data-name="d72eaf57-4ea7-4982-a44e-30db3b799468" d="M36.16,110.91l2.51,8.8a1,1,0,0,0,1.26.73h0a1,1,0,0,0,.73-1.26h0l-2.51-8.8a1,1,0,0,0-1.26-.73h0A1,1,0,0,0,36.16,110.91Z" style="fill: #af7980"/>
        <path id="04e20187-a806-48a3-96e3-4100a0efe435" data-name="9f1b56c3-7ed4-446e-98aa-23349a9db238" d="M38.46,111.2,41,120a1,1,0,0,0,1.26.73h0a1,1,0,0,0,.73-1.26h0l-2.51-8.8a1,1,0,0,0-1.26-.73h0A1,1,0,0,0,38.46,111.2Z" style="fill: #af7980"/>
        <path id="f0e13c92-c54d-4e60-bd47-e717582ac317" data-name="48bf1362-5aa7-4956-b63f-e6b11cf3bb59" d="M40.74,110.91l2.51,8.8a1,1,0,0,0,1.26.73h0a1,1,0,0,0,.73-1.26h0l-2.51-8.8a1,1,0,0,0-1.26-.73h0A1,1,0,0,0,40.74,110.91Z" style="fill: #af7980"/>
        <path id="5d8e8fd0-b980-4eae-8910-7ac012447378" data-name="8f8d6567-0526-47ee-8c0a-3c9942907743" d="M41.18,110.23l4.26,8a1,1,0,0,0,1.41.44h0a1,1,0,0,0,.44-1.41h0l-4.26-8a1,1,0,0,0-1.41-.44h0a1,1,0,0,0-.44,1.41Z" style="fill: #af7980"/>
        <path id="15784ec8-a3ee-458d-9cc9-29375b2b6eda" data-name="1758290f-9492-4f41-a980-16e1e4d723f3" d="M38.76,108.52l7.88,4.5a1,1,0,0,0,1.43-.37h0a1,1,0,0,0-.37-1.43h0l-7.88-4.54a1,1,0,0,0-1.43.37h0a1,1,0,0,0,.37,1.43h0Z" style="fill: #af7980"/>
      </g>
      <path id="488737df-ec6f-4962-8f1b-f00f797dd061" data-name="19896074-c4f7-4eb2-abf1-09c52815b8d8" d="M53.05,195.51v3.34a2.65,2.65,0,0,1-2.25,2.63l-.55.09a7,7,0,0,1-4.74-1L28.29,190.07l.11-5,19.94,13.2Z" style="fill: #c0c7cf"/>
      <path id="59f9afa4-bb6a-432d-86fe-4f67cd4e0a3f" data-name="f3015a9d-4905-4275-b0a9-f50e5916cb61" d="M40.48,180.15l1.7,6.47,9,5.82a3.88,3.88,0,0,1,0,6.7h0a3.88,3.88,0,0,1-3.87,0L28.44,187.27v-7.13Z" style="fill: #fff"/>
      <path id="4c5e970b-3339-4795-a815-0a67976a40ba" data-name="0048db67-1316-4572-8e31-23d908119e03" d="M28.15,210.43v3.34a2.65,2.65,0,0,1-2.25,2.63l-.55.09a7,7,0,0,1-4.74-1L3.38,205l.09-5,19.94,13.19Z" style="fill: #c0c7cf"/>
      <path id="ab7a0ad3-de61-475d-aeb7-bac45a7b30f3" data-name="a7b93aaa-697f-422a-a4f0-99669b7bd0f3" d="M15.57,195.07l1.73,6.47,9,5.82a3.88,3.88,0,0,1,0,6.7h0a3.88,3.88,0,0,1-3.87,0L3.47,202.21v-7.13Z" style="fill: #fff"/>
      <path id="4097bd79-81be-4c14-abcd-0ac0876da58c" data-name="ac9723ab-fad2-468c-8b8c-06c48b09ba89" d="M40.44,56.19V180.84a6.07,6.07,0,0,1-3,5.3h0a6.07,6.07,0,0,1-9.11-5.3L22,64.55Z" style="fill: #5c6873"/>
      <path d="M38.87,56.91V180.84a6.08,6.08,0,0,1-5.28,6,6,6,0,0,0,3.77-.77,6.07,6.07,0,0,0,3.08-5.25V56.19Z" style="fill: #80909f;opacity: 0.23999999463558197;isolation: isolate"/>
      <polygon points="23.84 98.31 26.23 142.56 38.87 111.99 38.87 56.19 23.84 63.77 23.84 98.31" style="fill: #020202;opacity: 0.10000000149011612;isolation: isolate"/>
      <path id="eea0b697-bcfd-4152-8d26-2d0cade5cc5e" data-name="483efcf2-4dfc-4066-9752-ced4510c25bd" d="M23.85,71.71,15.74,195.18a6.07,6.07,0,0,1-3,5.25h0a6.07,6.07,0,0,1-9.11-5.25V77.5Z" style="fill: #5c6873"/>
      <path id="6eb6e6d5-f307-4fbf-bc2e-acf5a861af74" data-name="597d0b1b-f8cb-41bd-919c-538666031382" d="M40.44,56.39v52a8.23,8.23,0,0,1-4.12,7.13L9.76,130.77a4.1,4.1,0,0,1-6.16-3.56v-52a8.23,8.23,0,0,1,4.11-7.13L34.28,52.8a4.1,4.1,0,0,1,6.16,3.6Z" style="fill: #5c6873"/>
      <path id="536bcca9-bf38-4150-88ec-d5d519cc8b44" data-name="423bad4b-d714-4d01-ac71-2c9d3cdeab0f" d="M42.14,46.26v41.8c0,5.67.4,14.63-4.51,17.47,0,0-16.84,15.55-35.44,14.34,0,0-4.93-46.44,0-63.61.29-1,.72-2.38,1.26-3.77a16.19,16.19,0,0,1,8.74-9.13l14.17-6.22a10.52,10.52,0,0,1,15.79,9.11Z" style="fill: #5c629e"/>
      <g id="d2b6644a-d1cf-40f8-bc99-d7aced766e88" data-name="ef1ab7b0-738f-4fda-8ef8-b1062c1d5ac0">
        <path id="8611f939-2975-4cc5-9324-05ec7a8c885f" data-name="7ca3b463-2b5d-457b-98ba-aaff3363820b" d="M18.56,121.41c1,.36,2.84,0,3.87-2.35.64-1.46-.6-4.25-1.75-5.81L13.37,76.79V67.54a4.46,4.46,0,0,0-3.48-4.42,4.35,4.35,0,0,0-5.15,4.26v8.91c0,3.27,10.57,41.92,10.57,41.92C15.39,119.13,17.11,122,18.56,121.41Z" style="fill: #af7980"/>
        <path id="d7037de8-6398-488d-b81f-d00edbb76bf7" data-name="a71a64a1-b05a-4e53-b6be-8ed4152c3545" d="M17.11,114.66l7.83,4.59a1,1,0,0,0,1.43-.36h0a1,1,0,0,0-.36-1.43h0l-7.83-4.6a1,1,0,0,0-1.43.36h0a1,1,0,0,0,.36,1.43h0Z" style="fill: #af7980"/>
        <path id="c109ed1b-9e61-4b88-8f67-b6190e7426f9" data-name="3d57ae00-4088-4159-bebc-651a3ec3f970" d="M14.5,115.6l2.73,8.47a1.09,1.09,0,0,0,1.26.75h0a.92.92,0,0,0,.65-1.26h0l-2.73-8.47a1.09,1.09,0,0,0-1.26-.75h0a.92.92,0,0,0-.65,1.26Z" style="fill: #af7980"/>
        <path id="9ab4d1da-bc3b-4d3d-9dd4-a42b86614333" data-name="ce7b5479-d66b-4e93-bb4f-799bd41b306f" d="M17.19,115.86l2.51,8.8a1,1,0,0,0,1.26.73h0a1,1,0,0,0,.73-1.26h0l-2.51-8.8a1,1,0,0,0-1.26-.73h0A1,1,0,0,0,17.19,115.86Z" style="fill: #af7980"/>
        <path id="8a0cdf15-9313-49af-994d-01674638e6e8" data-name="699fa2a1-f508-4f16-ac07-23802aaca2e5" d="M18.56,115.65,22.13,124a1,1,0,0,0,1.36.57h0a1,1,0,0,0,.57-1.36h0l-3.57-8.35a1,1,0,0,0-1.36-.57h0a1,1,0,0,0-.57,1.36Z" style="fill: #af7980"/>
        <path id="d47a1164-cd9d-4dd8-b352-371b95570d9a" data-name="0e63312d-3ab9-4418-9f2a-65346a75b96d" d="M19.31,115.06l5,7.54a1,1,0,0,0,1.44.3h0a1,1,0,0,0,.3-1.44h0l-5-7.54a1,1,0,0,0-1.44-.3h0a1,1,0,0,0-.3,1.44Z" style="fill: #af7980"/>
      </g>
      <g id="d1242f52-2feb-4909-8bbc-9674067a89b4" data-name="0a68aaba-f457-46a4-9f7f-9d5624ab1179">
        <path id="c029838d-54c7-41d6-b070-c03e928d2608" data-name="58fe928f-5478-47f8-a7a6-341b7704e5f9" d="M8.6,79a4.79,4.79,0,0,0,4.79-4.79V56.63a4.78,4.78,0,1,0-9.57,0v17.6A4.79,4.79,0,0,0,8.6,79Z" style="fill: #5c629e"/>
      </g>
      <g id="eda3c2ca-5091-4634-b397-f233b987b4fa" data-name="464b6a2f-5713-42a8-806c-f1108d2533d6">
        <path id="27cf45d6-a757-400a-9f09-e838013adb1b" data-name="a008ccb8-1521-40f7-a104-ebb2275f7ff9" d="M20,49.93a4.35,4.35,0,0,0,4.35-4.3l.15-13.92a4.35,4.35,0,0,0-8.7-.09l-.15,13.92a4.35,4.35,0,0,0,4.3,4.4H20Z" style="fill: #af7980"/>
      </g>
      <path id="f25b6802-7569-4654-9e18-1af30ff64a7f" data-name="dcf2802e-f097-4eee-8569-8e6a46b06588" d="M15.84,39.94V31.63a4.35,4.35,0,0,1,8.7.09l-.1,9.44c-1.4.41-2.87-.6-4.39-.6Z" style="fill: #231f20;opacity: 0.30000001192092896;isolation: isolate"/>
      <path id="c0fad28a-0686-495f-a847-ed7c72cbb571" data-name="232ac343-6461-4c03-a54b-598a69344d1f" d="M15.84,39.94h9.74a9.84,9.84,0,0,0,9.84-9.84h0V13.65H24.62a8.8,8.8,0,0,0-8.8,8.8h0Z" style="fill: #af7980"/>
      <path d="M33.84,13.65V30.09A9.84,9.84,0,0,1,24,39.94h1.57a9.84,9.84,0,0,0,9.84-9.84h0V13.65Z" style="fill: #b7868e"/>
      <circle id="d36bee81-a5a2-464e-9ff8-fbcfe87de35f" data-name="66d51d54-e6e8-4cf5-b3a1-60d596fd076c" cx="15.84" cy="20.72" r="2.28" style="fill: #af7980"/>
      <rect id="3b3d998d-ea85-48fd-8f09-858e901a8917" data-name="bfbe3aaa-a6c5-4bca-8fc1-e3d1573c8a02" x="16.82" y="10.4" width="3.29" height="13.2" rx="0.78" ry="0.78" style="fill: #5c6873"/>
      <circle id="879409bf-eee5-4b8f-85cf-097e8f791873" data-name="45169313-f5c3-4e3b-b9fc-2517683eb96a" cx="33.21" cy="11.82" r="3.72" style="fill: #5c6873"/>
      <circle id="d4713000-19e2-40c2-bf66-6f7a47a2b9f1" data-name="1bbb1782-41a5-481f-8761-1a8e8035fa90" cx="25.63" cy="10.97" r="3.72" style="fill: #5c6873"/>
      <circle id="df08b118-db78-4ec2-a9c9-e83e556211d2" data-name="22c5fd3c-1710-44bc-b59b-c1e9d958daee" cx="20.19" cy="12.43" r="3.72" style="fill: #5c6873"/>
      <circle id="a3334c19-c715-4a95-abdd-271b1ff88062" data-name="d00fb94a-a668-4c4f-ac9a-a5c30a07aa59" cx="33.21" cy="7.25" r="5.18" style="fill: #5c6873"/>
      <circle id="991b12c3-6d5f-4ac0-b5f8-396d9c61f0b7" data-name="dcbabfd6-bace-46e8-a61a-02ffab2c38eb" cx="25.63" cy="5.18" r="5.18" style="fill: #5c6873"/>
      <circle id="d0780566-8e01-4294-91ed-8965dfba66a6" data-name="fbffba64-b4b1-4e02-be7b-936a8967c030" cx="19.98" cy="5.18" r="5.18" style="fill: #5c6873"/>
      <circle id="3df781f6-401e-443f-9f81-05171141c574" data-name="36a30d5c-4281-4969-a296-a4de31dde33c" cx="14.8" cy="10.36" r="5.18" style="fill: #5c6873"/>
    </g>
    <g>
      <path id="829089c2-5c68-4730-b5a5-6c54667ced74" data-name="4d59eace-5367-4f06-aff2-cd1941172827" d="M112.71,144.48h0a1.4,1.4,0,0,1-2,0L108,141.87a1.4,1.4,0,0,1,0-2h0a1.4,1.4,0,0,1,2,0l2.79,2.66A1.4,1.4,0,0,1,112.71,144.48Z" style="fill: #f2b1b5"/>
      <path id="f0fc3fbe-d8ca-4939-b511-0f79679f09ce" data-name="244c616d-cd44-4c78-ba98-4be5f59ff903" d="M151.58,277.56l-4.78-2.79V272.6l-5-.72-11.21-6.5a3.77,3.77,0,0,1,.59-6.89h0a8.42,8.42,0,0,1,6.59.33l8.64,4.21,11.87,4.39-.24,4.36a6.11,6.11,0,0,1-6.08,5.76Z" style="fill: #363650"/>
      <path id="45197855-54e3-46c3-8865-bcf43248882c" data-name="ad5747b4-c184-438b-8ed1-71879950a8f2" d="M153.45,276.17H153l-4.78-2.79v-2.16l-5-.72L132,264a3.77,3.77,0,0,1-1.41-5.14v0a3.77,3.77,0,0,0,0,6.56l11.21,6.5,4.93.7v2.16l4.78,2.79H152a6.08,6.08,0,0,0,5-2.58A5.93,5.93,0,0,1,153.45,276.17Z" style="fill: #48486a"/>
      <path id="b208fe68-9022-482e-af89-2d5b3b79d4b2" data-name="32ba1df6-e09f-4420-a0df-ae0b6a0a4aa5" d="M169.88,265.06l-4.78-2.79V260l-5-.72-11.21-6.5a3.77,3.77,0,0,1,.59-6.89h0a8.42,8.42,0,0,1,6.59.33l8.64,4.21,11.87,4.39-.24,4.36a6.11,6.11,0,0,1-6.08,5.76Z" style="fill: #363650"/>
      <path id="1c0ce4b3-317a-4f7f-8ee6-cd818ee2a3d8" data-name="a3d20362-42b7-4f63-9069-169b1bea8305" d="M171.75,263.61h-.35l-4.78-2.79v-2.16l-5-.72-11.31-6.5a3.77,3.77,0,0,1-1.41-5.14v0a3.77,3.77,0,0,0,0,6.56l11.21,6.5,5,.72v2.16l4.78,2.79h.48a6.08,6.08,0,0,0,5-2.58A5.93,5.93,0,0,1,171.75,263.61Z" style="fill: #48486a"/>
      <g id="a7cca820-c4d3-4042-bbe6-a7207f5e48d0" data-name="9aba974f-0f99-494e-84e0-a18fe60fccb7">
        <path id="83b73d85-5618-4ccc-a0e0-6440db19c8f1" data-name="c9ba0c67-87f1-4723-a48f-d2fd9bd89665" d="M170.42,259.32c-3.47,0-6.29-1.42-6.29-4.89l-3.53-93.17c0-3.47,6.29-6.29,9.79-6.29a6.29,6.29,0,0,1,6.29,6.29v93.17C176.71,257.9,173.89,259.32,170.42,259.32Z" style="fill: url(#7c7a6e62-de22-43ae-aa92-cc849dd226fc)"/>
      </g>
      <g id="44b91ed3-4708-4549-a209-1870905ccff0" data-name="08355aa5-6b18-4c62-b806-cfdeea9d6b74">
        <path id="273adb1a-35a2-4448-a033-651c4ce2793e" data-name="1a3c46ce-6a52-4d80-a18c-f1ed320a8a3f" d="M152.52,270c-3.23,0-5.93-.39-6.29-3.68l-3.53-54.51v-.48l3.51-51.06a6.29,6.29,0,0,1,6.56-5.95h.14c3.47.24,14.83,3.32,14.57,6.8L156.92,211.6l1.84,53.46c.26,3.47-2.31,4.39-5.76,4.69Z" style="fill: url(#8b375c0a-6405-42d8-8e5a-7bc8684c8b08)"/>
      </g>
      <path id="4c266db5-e439-4107-953c-ae6760891f62" data-name="e0026b50-ef66-4b82-a44d-f218e409cd7e" d="M141.61,138.2h0a1.4,1.4,0,0,1-.09,2h0l-4.41,4a1.4,1.4,0,0,1-2-.18h0a1.4,1.4,0,0,1,.09-2h0l4.41-4A1.4,1.4,0,0,1,141.61,138.2Z" style="fill: #f2b1b5"/>
      <g id="ddbfb845-dce0-407e-9036-aa63983c15e9" data-name="00682c21-25bb-4fcf-8ea6-17c4294182ea">
        <path id="41316afb-bd6d-48d8-923d-0b9556ee6bf4" data-name="89beaa64-7e50-4a5b-bf0f-030d6bb8f687" d="M147.22,139.63q-1.26.29-2.63.48l-9.72,1.41a4.2,4.2,0,0,1-1.26-8.3l9.72-1.41c11.9-1.62,17.86-1.07,20-12.88a4.2,4.2,0,0,1,8.27,1.48C169,134.89,161.36,136.48,147.22,139.63Z" style="fill: #f2b1b5"/>
      </g>
      <path id="9f1604e3-acab-4b2f-ac28-5ef24e228cea" data-name="8702352e-a0e0-42c5-ae9d-79220856e007" d="M147.3,140.37q-1.26.29-2.69.49a4.9,4.9,0,0,1-2-9.59l.55-.08c11.51-1.7,17.33-.82,19.4-12.28a4.89,4.89,0,1,1,9.69,1.34q0,.2-.07.39C169.59,135.33,161.77,137.13,147.3,140.37Z" style="fill: #5c6873"/>
      <path d="M167,123.59c-8,7.27-12,4.21-20.77-.74a40.23,40.23,0,0,0-2.51,9.47c12.11,5.54,19.26,8,29.67-1.51a4.89,4.89,0,0,0-6.59-7.22Z" style="fill: #231f20;opacity: 0.20000000298023224;isolation: isolate"/>
      <path id="fd1deaad-530a-43d6-8581-1ab054cdf09c" data-name="4bbbe2d6-e956-4694-8190-c88645eae4bb" d="M177.33,110.9c-.85-5.93-6.44-9.86-11.87-7h0l-1.7,1c-15.2,9.7-18.67,22.31-18.67,35.93l.3,11.54-2.11,29.69a14.48,14.48,0,0,0,8.7,2c.3,0,2-9.82,2.31-9.86.77,0,1.51,9.62,2.31,9.49,8.9-1.55,17.21-5.25,20.59-11.87l-1-34.77A114.92,114.92,0,0,0,177.33,110.9Z" style="fill: #5c6873"/>
      <path id="66149855-a1f6-4bff-bf99-3e493c601cd5" data-name="bc4cad3c-4113-4358-b2f6-befc111ab9f0" d="M164.45,112.23h0a3,3,0,0,1-3-3h0V95.06h6.15v14a3,3,0,0,1-2.71,3.2h-.47Z" style="fill: #f2b1b5"/>
      <path id="f98e51c6-24b6-4e8c-82d4-22d8fdbe5d79" data-name="061c4bfc-cf97-493b-9309-ae25996f5e8d" d="M153.15,77.76h18.58v26.56h0L161.5,104c-3,0-8.37-5.93-8.37-9V77.76Z" style="fill: #f2b1b5"/>
      <path d="M154.87,93.36V77.76h-1.81V93.37A11,11,0,0,0,164,104.32h1.75a11,11,0,0,1-10.95-10.95Z" style="fill: #f7d0d3"/>
      <path id="35b53e5a-7e8a-4fec-b7ef-0ed8e4fcf06b" data-name="4f35423c-b4cb-4225-9d7f-1ed112bf6a17" d="M177.81,91.44V89.36a49.35,49.35,0,0,0,0-8.07,10.36,10.36,0,0,0-5.28-8.18,14.22,14.22,0,0,0-5.93-.83H154.23a9.53,9.53,0,0,0-5.34,1.13c-3,2-1.48,5.73.26,8a10.23,10.23,0,0,0,3.53,3c1.33.65,3.62,0,4.48,1.46,1.18,1.87-1.07,7.87,1.55,8.57,2,.57,1.75-1.55,2.07-2.7a1.87,1.87,0,0,1,1.51-1.51c1,0,1.57,1,1.75,1.92a18.3,18.3,0,0,1-.41,5.61A5.93,5.93,0,0,0,165,103a5.49,5.49,0,0,0,1.79,1c1.87.68,5.28,1.51,7,.15a9.58,9.58,0,0,0,4.3-7.09A44.84,44.84,0,0,0,177.81,91.44Z" style="fill: #48486a"/>
      <g id="14dbed29-298c-49ec-8ee3-bf84b56724a3" data-name="e084cf89-383b-4e6f-bd85-52e58810e12c">
        <path id="256d788f-91e3-4b98-a3c7-db76504f7327" data-name="6221287c-98bf-4de3-b67e-a764f90bf458" d="M123.33,151.75h-2.68L105.49,151a4.19,4.19,0,0,1,.41-8.37l15.25.77a27.81,27.81,0,0,0,27.77-17l3-6.85a4.2,4.2,0,0,1,7.87,2.92q-.06.16-.13.31l-3,6.85A36.14,36.14,0,0,1,123.33,151.75Z" style="fill: #f2b1b5"/>
      </g>
      <path d="M159,124.52a4.89,4.89,0,0,0-3.19-6.13h0c-2.58-.8-4.39.85-5.22,3.44l-3.14,6.83a27.15,27.15,0,0,1-1.81,4.36,62.31,62.31,0,0,0-.48,7.87l.18,7.83a36.82,36.82,0,0,0,11.48-17.15Z" style="fill: #231f20;opacity: 0.20000000298023224;isolation: isolate"/>
      <path id="f59b705a-43e3-4b42-b734-893a44e0cee2" data-name="0004e117-f4b2-40b8-9a08-0e6b6e9dceda" d="M123.33,152.44H120.6l-5.76-.41a4.9,4.9,0,1,1,.72-9.77l5.76.41a27.09,27.09,0,0,0,27-16.56l3-6.85a4.89,4.89,0,1,1,8.9,3.77l-3,6.85A36.82,36.82,0,0,1,123.33,152.44Z" style="fill: #5c6873"/>
    </g>
  </g>
</svg>
