<svg xmlns="http://www.w3.org/2000/svg" xmlns:xlink="http://www.w3.org/1999/xlink" data-name="a287df36-3c5d-4bbb-a1c9-9d5e43098a8a" viewBox="0 0 199.98 187.747">
  <defs>
    <linearGradient id="a" x1="-6.178" x2="-6.178" y1="-519.687" y2="-469.217" gradientTransform="matrix(.87 .5 0 -1.15 144.47 -490.517)" gradientUnits="userSpaceOnUse">
      <stop offset="0"/>
      <stop offset=".06" stop-color="#2a2a2a"/>
      <stop offset=".15" stop-color="#626262"/>
      <stop offset=".23" stop-color="#929292"/>
      <stop offset=".31" stop-color="#b6b6b6"/>
      <stop offset=".39" stop-color="#d1d1d1"/>
      <stop offset=".45" stop-color="#e0e0e0"/>
      <stop offset=".51" stop-color="#e6e6e6"/>
      <stop offset=".55" stop-color="#dedede"/>
      <stop offset=".62" stop-color="#c9c9c9"/>
      <stop offset=".71" stop-color="#a7a7a7"/>
      <stop offset=".8" stop-color="#787878"/>
      <stop offset=".91" stop-color="#3b3b3b"/>
      <stop offset="1"/>
    </linearGradient>
    <linearGradient id="l" x1="-17.586" x2="-17.586" y1="-501.197" y2="-460.937" xlink:href="#a"/>
    <linearGradient id="b" x1="-17.586" x2="-17.586" y1="-501.197" y2="-460.937" gradientTransform="matrix(.87 .5 0 -1.15 144.47 -490.517)" gradientUnits="userSpaceOnUse">
      <stop offset="0" stop-color="#5761d7"/>
      <stop offset=".01" stop-color="#5665d7"/>
      <stop offset=".13" stop-color="#4f94da"/>
      <stop offset=".24" stop-color="#49b8dd"/>
      <stop offset=".34" stop-color="#45d3df"/>
      <stop offset=".43" stop-color="#43e2e0"/>
      <stop offset=".51" stop-color="#42e8e0"/>
      <stop offset=".57" stop-color="#43e0df"/>
      <stop offset=".67" stop-color="#46ccde"/>
      <stop offset=".8" stop-color="#4ca9dc"/>
      <stop offset=".93" stop-color="#537ad9"/>
      <stop offset="1" stop-color="#5761d7"/>
    </linearGradient>
    <linearGradient id="m" x1="-6.178" x2="-6.178" y1="-519.687" y2="-469.217" xlink:href="#b"/>
    <linearGradient id="j" x1="81.785" x2="81.785" y1="16.285" y2="95.285" gradientTransform="matrix(1 0 0 -1 0 187.89)" gradientUnits="userSpaceOnUse">
      <stop offset=".15" stop-color="#666"/>
      <stop offset="1" stop-color="gray"/>
    </linearGradient>
    <linearGradient id="g" x1="660.862" x2="765.718" y1="239.393" y2="239.393" gradientTransform="matrix(-.87 .5 -.87 -.5 908.924 -110.545)" gradientUnits="userSpaceOnUse">
      <stop offset="0" stop-color="#c0bff6"/>
      <stop offset=".29" stop-color="#c5c4f7"/>
      <stop offset=".64" stop-color="#d3d2f9"/>
      <stop offset="1" stop-color="#e9e9fd"/>
    </linearGradient>
    <linearGradient id="c" x1="4.36" x2="159.19" y1="63.27" y2="63.27" gradientTransform="matrix(1 0 0 -1 0 187.89)" gradientUnits="userSpaceOnUse">
      <stop offset="0" stop-color="#eff0f8"/>
      <stop offset="1" stop-color="#e2e2e2"/>
    </linearGradient>
    <linearGradient id="d" x1="80.49" x2="122.65" y1="118.98" y2="118.98" gradientTransform="matrix(1 0 0 -1 0 187.89)" gradientUnits="userSpaceOnUse">
      <stop offset=".15" stop-color="#333"/>
      <stop offset="1" stop-color="#434343"/>
    </linearGradient>
    <linearGradient id="e" x1="119" x2="142.69" y1="114.69" y2="114.69" gradientTransform="matrix(1 0 0 -1 0 187.89)" gradientUnits="userSpaceOnUse">
      <stop offset="0" stop-color="#eff0f8"/>
      <stop offset="1" stop-color="#e0e0e0"/>
    </linearGradient>
    <linearGradient id="n" x1="84.74" x2="135.83" y1="160.185" y2="160.185" gradientTransform="matrix(1 0 0 -1 0 188.395)" xlink:href="#c"/>
    <linearGradient id="f" x1="118.66" x2="138.44" y1="151.06" y2="151.06" gradientTransform="matrix(1 0 0 -1 0 188.395)" gradientUnits="userSpaceOnUse">
      <stop offset="0" stop-color="#e9e8e9"/>
      <stop offset="1" stop-color="#c7c7c7"/>
    </linearGradient>
    <linearGradient id="o" x1="122.83" x2="139.97" y1="116.447" y2="116.447" gradientTransform="matrix(1 0 0 -1 0 187.89)" gradientUnits="userSpaceOnUse">
      <stop offset="0" stop-color="gray"/>
      <stop offset=".85" stop-color="#666"/>
    </linearGradient>
    <linearGradient id="p" x1="51.15" x2="93.31" y1="111.55" y2="111.55" xlink:href="#d"/>
    <linearGradient id="q" x1="101.51" x2="101.51" y1="65.99" y2="148.53" xlink:href="#e"/>
    <linearGradient id="r" x1="55.4" x2="106.5" y1="152.755" y2="152.755" gradientTransform="matrix(1 0 0 -1 0 188.395)" xlink:href="#c"/>
    <linearGradient id="s" x1="89.32" x2="109.11" y1="143.63" y2="143.63" xlink:href="#f"/>
    <linearGradient id="t" x1="101.505" x2="101.505" y1="92.47" y2="124.87" gradientTransform="matrix(1 0 0 -1 0 188.395)" gradientUnits="userSpaceOnUse">
      <stop offset="0" stop-color="#b8bfc7"/>
      <stop offset="1" stop-color="#c0c7cf"/>
    </linearGradient>
    <linearGradient id="u" x1="93.18" x2="119.88" y1="93.435" y2="93.435" gradientTransform="matrix(1 0 0 -1 0 187.89)" gradientUnits="userSpaceOnUse">
      <stop offset="0" stop-color="#9aa6d4"/>
      <stop offset="1" stop-color="#e9e8e9"/>
    </linearGradient>
    <linearGradient id="v" x1="93.17" x2="108.91" y1="108.885" y2="108.885" gradientTransform="matrix(1 0 0 -1 0 188.395)" xlink:href="#d"/>
    <clipPath id="w" transform="translate(0 .505)">
      <path fill="none" d="M108.03 85.88V65.06l-14.86 8.58v20.82l14.86-8.58z"/>
    </clipPath>
    <linearGradient id="x" x1="92.05" x2="118.65" y1="100.29" y2="100.29" gradientTransform="matrix(1 0 0 -1 0 187.89)" xlink:href="#g"/>
    <linearGradient id="y" x1="90.296" x2="97.096" y1="102.232" y2="102.232" gradientTransform="matrix(1 0 0 -1 0 187.89)" xlink:href="#g"/>
    <linearGradient id="z" x1="22.05" x2="64.21" y1="85.21" y2="85.21" xlink:href="#d"/>
    <linearGradient id="A" x1="60.56" x2="84.26" y1="80.93" y2="80.93" xlink:href="#e"/>
    <linearGradient id="h" x1="-338.56" x2="-340.52" y1="107.691" y2="107.691" gradientTransform="matrix(1 0 0 -1 396.21 187.89)" gradientUnits="userSpaceOnUse">
      <stop offset="0" stop-color="#c0c6ce"/>
      <stop offset=".07" stop-color="#c6cbd2"/>
      <stop offset=".41" stop-color="#dee0e2"/>
      <stop offset=".73" stop-color="#ececec"/>
      <stop offset="1" stop-color="#f1f0ef"/>
    </linearGradient>
    <linearGradient id="i" x1="-340.76" x2="-339.13" y1="107.49" y2="107.49" gradientTransform="matrix(1 0 0 -1 396.21 187.89)" gradientUnits="userSpaceOnUse">
      <stop offset="0" stop-color="#b8bec6"/>
      <stop offset=".76" stop-color="#bdc3cb"/>
      <stop offset="1" stop-color="#c0c6ce"/>
    </linearGradient>
    <linearGradient id="B" x1="-370.29" x2="-372.26" y1="125.706" y2="125.706" xlink:href="#h"/>
    <linearGradient id="C" x1="-372.49" x2="-370.87" y1="125.53" y2="125.53" xlink:href="#i"/>
    <linearGradient id="D" x1="-338.26" x2="-340.22" y1="44.396" y2="44.396" xlink:href="#h"/>
    <linearGradient id="E" x1="-340.46" x2="-338.84" y1="44.19" y2="44.19" xlink:href="#i"/>
    <linearGradient id="F" x1="-370.39" x2="-372.36" y1="63.091" y2="63.091" xlink:href="#h"/>
    <linearGradient id="G" x1="-372.6" x2="-370.97" y1="62.9" y2="62.9" xlink:href="#i"/>
    <linearGradient id="H" x1="26.3" x2="77.39" y1="126.425" y2="126.425" gradientTransform="matrix(1 0 0 -1 0 188.395)" xlink:href="#c"/>
    <linearGradient id="I" x1="60.22" x2="80.01" y1="117.3" y2="117.3" xlink:href="#f"/>
    <linearGradient id="J" x1="64.39" x2="81.53" y1="82.687" y2="82.687" xlink:href="#j"/>
    <linearGradient id="K" x1="25.74" x2="29.5" y1="74.05" y2="74.05" xlink:href="#f"/>
    <linearGradient id="L" x1="30.07" x2="31.43" y1="75.85" y2="75.85" xlink:href="#f"/>
    <linearGradient id="M" x1="32" x2="32.92" y1="76.84" y2="76.84" xlink:href="#f"/>
    <linearGradient id="N" x1="28.36" x2="30.87" y1="77.08" y2="77.08" xlink:href="#f"/>
    <linearGradient id="O" x1="31.45" x2="32.36" y1="78.405" y2="78.405" xlink:href="#f"/>
    <linearGradient id="P" x1="32.87" x2="33.78" y1="79.225" y2="79.225" xlink:href="#f"/>
    <linearGradient id="Q" x1="27.8" x2="28.3" y1="78.065" y2="78.065" xlink:href="#f"/>
    <linearGradient id="R" x1="28.88" x2="29.8" y1="78.805" y2="78.805" xlink:href="#f"/>
    <linearGradient id="S" x1="31.78" x2="33.13" y1="82.49" y2="82.49" xlink:href="#f"/>
    <linearGradient id="T" x1="25.74" x2="27.22" y1="80.925" y2="80.925" xlink:href="#f"/>
    <linearGradient id="U" x1="27.8" x2="30.7" y1="82.525" y2="82.525" xlink:href="#f"/>
    <linearGradient id="V" x1="31.27" x2="32.19" y1="83.955" y2="83.955" xlink:href="#f"/>
    <linearGradient id="W" x1="25.74" x2="28.77" y1="83.26" y2="83.26" xlink:href="#f"/>
    <linearGradient id="X" x1="32.11" x2="33.59" y1="86.485" y2="86.485" xlink:href="#f"/>
    <linearGradient id="Y" x1="25.74" x2="26.77" y1="84.56" y2="84.56" xlink:href="#f"/>
    <linearGradient id="Z" x1="27.34" x2="28.69" y1="85.58" y2="85.58" xlink:href="#f"/>
    <linearGradient id="aa" x1="25.74" x2="28.88" y1="87.055" y2="87.055" xlink:href="#f"/>
    <linearGradient id="ab" x1="29.45" x2="32.39" y1="89.135" y2="89.135" xlink:href="#f"/>
    <linearGradient id="ac" x1="32.96" x2="33.88" y1="90.58" y2="90.58" xlink:href="#f"/>
    <linearGradient id="ad" x1="34.39" x2="35.31" y1="91.41" y2="91.41" xlink:href="#f"/>
    <linearGradient id="ae" x1="25.74" x2="27.62" y1="88.58" y2="88.58" xlink:href="#f"/>
    <linearGradient id="af" x1="35.47" x2="38.08" y1="79.33" y2="79.33" xlink:href="#f"/>
    <linearGradient id="ag" x1="36.03" x2="38.08" y1="81.38" y2="81.38" xlink:href="#f"/>
    <linearGradient id="ah" x1="36.6" x2="38.08" y1="83.425" y2="83.425" xlink:href="#f"/>
    <linearGradient id="ai" x1="35.92" x2="38.08" y1="85.115" y2="85.115" xlink:href="#f"/>
    <linearGradient id="aj" x1="36.6" x2="38.08" y1="87.195" y2="87.195" xlink:href="#f"/>
    <linearGradient id="ak" x1="36.2" x2="38.08" y1="88.96" y2="88.96" xlink:href="#f"/>
    <linearGradient id="al" x1="37.05" x2="38.08" y1="91.095" y2="91.095" xlink:href="#f"/>
    <linearGradient id="am" x1="36.09" x2="38.08" y1="92.7" y2="92.7" xlink:href="#f"/>
    <linearGradient id="an" x1="36.2" x2="38.08" y1="94.61" y2="94.61" xlink:href="#f"/>
    <linearGradient id="ao" x1="28.2" x2="28.99" y1="89.68" y2="89.68" xlink:href="#f"/>
    <linearGradient id="ap" x1="29.57" x2="31.36" y1="90.76" y2="90.76" xlink:href="#f"/>
    <linearGradient id="aq" x1="29.82" x2="32.85" y1="96.74" y2="96.74" xlink:href="#f"/>
    <linearGradient id="ar" x1="30.07" x2="31.43" y1="100.52" y2="100.52" xlink:href="#f"/>
    <linearGradient id="as" x1="32" x2="32.92" y1="101.51" y2="101.51" xlink:href="#f"/>
    <linearGradient id="at" x1="25.74" x2="27.79" y1="100.11" y2="100.11" xlink:href="#f"/>
    <linearGradient id="au" x1="28.36" x2="30.87" y1="101.75" y2="101.75" xlink:href="#f"/>
    <linearGradient id="av" x1="31.45" x2="32.36" y1="103.075" y2="103.075" xlink:href="#f"/>
    <linearGradient id="aw" x1="32.87" x2="33.78" y1="103.895" y2="103.895" xlink:href="#f"/>
    <linearGradient id="ax" x1="25.74" x2="27.22" y1="101.825" y2="101.825" xlink:href="#f"/>
    <linearGradient id="ay" x1="27.8" x2="28.3" y1="102.735" y2="102.735" xlink:href="#f"/>
    <linearGradient id="az" x1="28.88" x2="29.8" y1="103.475" y2="103.475" xlink:href="#f"/>
    <linearGradient id="aA" x1="25.74" x2="31.21" y1="104.865" y2="104.865" xlink:href="#f"/>
    <linearGradient id="aB" x1="31.78" x2="33.13" y1="107.16" y2="107.16" xlink:href="#f"/>
    <linearGradient id="aC" x1="25.74" x2="27.22" y1="105.595" y2="105.595" xlink:href="#f"/>
    <linearGradient id="aD" x1="27.8" x2="30.7" y1="107.195" y2="107.195" xlink:href="#f"/>
    <linearGradient id="aE" x1="31.27" x2="32.19" y1="108.625" y2="108.625" xlink:href="#f"/>
    <linearGradient id="aF" x1="25.74" x2="28.77" y1="107.93" y2="107.93" xlink:href="#f"/>
    <linearGradient id="aG" x1="32.11" x2="33.59" y1="111.155" y2="111.155" xlink:href="#f"/>
    <linearGradient id="aH" x1="25.74" x2="26.77" y1="109.23" y2="109.23" xlink:href="#f"/>
    <linearGradient id="aI" x1="27.34" x2="28.69" y1="110.25" y2="110.25" xlink:href="#f"/>
    <linearGradient id="aJ" x1="29.27" x2="31.45" y1="111.6" y2="111.6" xlink:href="#f"/>
    <linearGradient id="aK" x1="25.74" x2="28.88" y1="111.725" y2="111.725" xlink:href="#f"/>
    <linearGradient id="aL" x1="32.96" x2="33.88" y1="115.25" y2="115.25" xlink:href="#f"/>
    <linearGradient id="aM" x1="34.39" x2="35.31" y1="116.08" y2="116.08" xlink:href="#f"/>
    <linearGradient id="aN" x1="25.74" x2="27.62" y1="113.245" y2="113.245" xlink:href="#f"/>
    <linearGradient id="aO" x1="35.47" x2="38.08" y1="104" y2="104" xlink:href="#f"/>
    <linearGradient id="aP" x1="36.03" x2="38.08" y1="106.05" y2="106.05" xlink:href="#f"/>
    <linearGradient id="aQ" x1="36.6" x2="38.08" y1="108.095" y2="108.095" xlink:href="#f"/>
    <linearGradient id="aR" x1="36.6" x2="38.08" y1="111.865" y2="111.865" xlink:href="#f"/>
    <linearGradient id="aS" x1="36.2" x2="38.08" y1="113.63" y2="113.63" xlink:href="#f"/>
    <linearGradient id="aT" x1="37.05" x2="38.08" y1="115.765" y2="115.765" xlink:href="#f"/>
    <linearGradient id="aU" x1="36.09" x2="38.08" y1="117.37" y2="117.37" xlink:href="#f"/>
    <linearGradient id="aV" x1="36.2" x2="38.08" y1="119.28" y2="119.28" xlink:href="#f"/>
    <linearGradient id="aW" x1="28.2" x2="28.99" y1="114.35" y2="114.35" xlink:href="#f"/>
    <linearGradient id="aX" x1="29.57" x2="31.36" y1="115.43" y2="115.43" xlink:href="#f"/>
    <linearGradient id="aY" x1="29.82" x2="32.85" y1="121.41" y2="121.41" xlink:href="#f"/>
    <linearGradient id="aZ" x1="33.73" x2="34.93" y1="123.14" y2="123.14" xlink:href="#f"/>
    <linearGradient id="ba" x1="42.37" x2="46.13" y1="83.01" y2="83.01" xlink:href="#f"/>
    <linearGradient id="bb" x1="46.7" x2="48.05" y1="84.82" y2="84.82" xlink:href="#f"/>
    <linearGradient id="bc" x1="48.63" x2="49.55" y1="85.805" y2="85.805" xlink:href="#f"/>
    <linearGradient id="bd" x1="42.37" x2="44.42" y1="84.405" y2="84.405" xlink:href="#f"/>
    <linearGradient id="be" x1="44.99" x2="47.5" y1="86.05" y2="86.05" xlink:href="#f"/>
    <linearGradient id="bf" x1="48.07" x2="48.99" y1="87.37" y2="87.37" xlink:href="#f"/>
    <linearGradient id="bg" x1="49.49" x2="50.41" y1="88.19" y2="88.19" xlink:href="#f"/>
    <linearGradient id="bh" x1="42.37" x2="43.85" y1="86.125" y2="86.125" xlink:href="#f"/>
    <linearGradient id="bi" x1="44.43" x2="44.93" y1="87.03" y2="87.03" xlink:href="#f"/>
    <linearGradient id="bj" x1="45.51" x2="46.42" y1="87.77" y2="87.77" xlink:href="#f"/>
    <linearGradient id="bk" x1="42.37" x2="47.84" y1="89.155" y2="89.155" xlink:href="#f"/>
    <linearGradient id="bl" x1="48.41" x2="49.76" y1="91.46" y2="91.46" xlink:href="#f"/>
    <linearGradient id="bm" x1="42.37" x2="43.85" y1="89.895" y2="89.895" xlink:href="#f"/>
    <linearGradient id="bn" x1="44.43" x2="47.33" y1="91.485" y2="91.485" xlink:href="#f"/>
    <linearGradient id="bo" x1="47.9" x2="48.82" y1="92.92" y2="92.92" xlink:href="#f"/>
    <linearGradient id="bp" x1="42.37" x2="45.4" y1="92.225" y2="92.225" xlink:href="#f"/>
    <linearGradient id="bq" x1="45.97" x2="48.16" y1="94.06" y2="94.06" xlink:href="#f"/>
    <linearGradient id="br" x1="48.74" x2="50.22" y1="95.455" y2="95.455" xlink:href="#f"/>
    <linearGradient id="bs" x1="43.97" x2="45.32" y1="94.545" y2="94.545" xlink:href="#f"/>
    <linearGradient id="bt" x1="45.89" x2="48.07" y1="95.895" y2="95.895" xlink:href="#f"/>
    <linearGradient id="bu" x1="42.37" x2="45.51" y1="96.02" y2="96.02" xlink:href="#f"/>
    <linearGradient id="bv" x1="51.02" x2="51.94" y1="100.375" y2="100.375" xlink:href="#f"/>
    <linearGradient id="bw" x1="42.37" x2="44.25" y1="97.54" y2="97.54" xlink:href="#f"/>
    <linearGradient id="bx" x1="52.1" x2="54.71" y1="88.3" y2="88.3" xlink:href="#f"/>
    <linearGradient id="by" x1="52.66" x2="54.71" y1="90.345" y2="90.345" xlink:href="#f"/>
    <linearGradient id="bz" x1="53.23" x2="54.71" y1="92.395" y2="92.395" xlink:href="#f"/>
    <linearGradient id="bA" x1="52.55" x2="54.71" y1="94.08" y2="94.08" xlink:href="#f"/>
    <linearGradient id="bB" x1="53.23" x2="54.71" y1="96.155" y2="96.155" xlink:href="#f"/>
    <linearGradient id="bC" x1="53.68" x2="54.71" y1="100.06" y2="100.06" xlink:href="#f"/>
    <linearGradient id="bD" x1="52.72" x2="54.71" y1="101.67" y2="101.67" xlink:href="#f"/>
    <linearGradient id="bE" x1="44.82" x2="45.62" y1="98.645" y2="98.645" xlink:href="#f"/>
    <linearGradient id="bF" x1="46.2" x2="47.99" y1="99.725" y2="99.725" xlink:href="#f"/>
    <linearGradient id="bG" x1="46.45" x2="49.48" y1="105.71" y2="105.71" xlink:href="#f"/>
    <linearGradient id="bH" x1="50.36" x2="51.56" y1="107.44" y2="107.44" xlink:href="#f"/>
    <linearGradient id="bI" x1="42.37" x2="46.13" y1="107.68" y2="107.68" xlink:href="#f"/>
    <linearGradient id="bJ" x1="46.7" x2="48.05" y1="109.49" y2="109.49" xlink:href="#f"/>
    <linearGradient id="bK" x1="48.63" x2="49.55" y1="110.475" y2="110.475" xlink:href="#f"/>
    <linearGradient id="bL" x1="42.37" x2="44.42" y1="109.075" y2="109.075" xlink:href="#f"/>
    <linearGradient id="bM" x1="44.99" x2="47.5" y1="110.72" y2="110.72" xlink:href="#f"/>
    <linearGradient id="bN" x1="48.07" x2="48.99" y1="112.04" y2="112.04" xlink:href="#f"/>
    <linearGradient id="bO" x1="49.49" x2="50.41" y1="112.86" y2="112.86" xlink:href="#f"/>
    <linearGradient id="bP" x1="42.37" x2="43.85" y1="110.795" y2="110.795" xlink:href="#f"/>
    <linearGradient id="bQ" x1="44.43" x2="44.93" y1="111.7" y2="111.7" xlink:href="#f"/>
    <linearGradient id="bR" x1="45.51" x2="46.42" y1="112.44" y2="112.44" xlink:href="#f"/>
    <linearGradient id="bS" x1="48.41" x2="49.76" y1="116.13" y2="116.13" xlink:href="#f"/>
    <linearGradient id="bT" x1="42.37" x2="43.85" y1="114.565" y2="114.565" xlink:href="#f"/>
    <linearGradient id="bU" x1="44.43" x2="47.33" y1="116.155" y2="116.155" xlink:href="#f"/>
    <linearGradient id="bV" x1="47.9" x2="48.82" y1="117.595" y2="117.595" xlink:href="#f"/>
    <linearGradient id="bW" x1="42.37" x2="45.4" y1="116.895" y2="116.895" xlink:href="#f"/>
    <linearGradient id="bX" x1="48.74" x2="50.22" y1="120.125" y2="120.125" xlink:href="#f"/>
    <linearGradient id="bY" x1="42.37" x2="43.39" y1="118.2" y2="118.2" xlink:href="#f"/>
    <linearGradient id="bZ" x1="43.97" x2="45.32" y1="119.215" y2="119.215" xlink:href="#f"/>
    <linearGradient id="ca" x1="45.89" x2="48.07" y1="120.565" y2="120.565" xlink:href="#f"/>
    <linearGradient id="cb" x1="42.37" x2="45.51" y1="120.69" y2="120.69" xlink:href="#f"/>
    <linearGradient id="cc" x1="49.59" x2="50.51" y1="124.22" y2="124.22" xlink:href="#f"/>
    <linearGradient id="cd" x1="51.02" x2="51.94" y1="125.045" y2="125.045" xlink:href="#f"/>
    <linearGradient id="ce" x1="42.37" x2="44.25" y1="122.21" y2="122.21" xlink:href="#f"/>
    <linearGradient id="cf" x1="52.1" x2="54.71" y1="112.97" y2="112.97" xlink:href="#f"/>
    <linearGradient id="cg" x1="52.66" x2="54.71" y1="115.015" y2="115.015" xlink:href="#f"/>
    <linearGradient id="ch" x1="52.55" x2="54.71" y1="118.75" y2="118.75" xlink:href="#f"/>
    <linearGradient id="ci" x1="53.23" x2="54.71" y1="120.825" y2="120.825" xlink:href="#f"/>
    <linearGradient id="cj" x1="52.83" x2="54.71" y1="122.6" y2="122.6" xlink:href="#f"/>
    <linearGradient id="ck" x1="53.68" x2="54.71" y1="124.73" y2="124.73" xlink:href="#f"/>
    <linearGradient id="cl" x1="52.72" x2="54.71" y1="126.34" y2="126.34" xlink:href="#f"/>
    <linearGradient id="cm" x1="52.83" x2="54.71" y1="128.25" y2="128.25" xlink:href="#f"/>
    <linearGradient id="cn" x1="44.82" x2="45.62" y1="123.315" y2="123.315" xlink:href="#f"/>
    <linearGradient id="co" x1="46.2" x2="47.99" y1="124.395" y2="124.395" xlink:href="#f"/>
    <linearGradient id="cp" x1="46.45" x2="49.48" y1="130.38" y2="130.38" xlink:href="#f"/>
    <linearGradient id="cq" x1="50.36" x2="51.56" y1="132.11" y2="132.11" xlink:href="#f"/>
    <linearGradient id="k" x1="-924.44" x2="-917.86" y1="135.515" y2="135.515" gradientTransform="matrix(1 0 0 -1 961.89 188.395)" gradientUnits="userSpaceOnUse">
      <stop offset="0" stop-color="#7f8f9e"/>
      <stop offset=".18" stop-color="#8493a2"/>
      <stop offset=".4" stop-color="#92a0ad"/>
      <stop offset=".64" stop-color="#aab5bf"/>
      <stop offset=".88" stop-color="#cbd1d7"/>
      <stop offset="1" stop-color="#dee2e6"/>
    </linearGradient>
    <linearGradient id="cr" x1="-922.73" x2="-916.15" y1="134.53" y2="134.53" xlink:href="#k"/>
    <linearGradient id="cs" x1="-921.03" x2="-914.45" y1="133.55" y2="133.55" xlink:href="#k"/>
    <linearGradient id="ct" x1="-919.32" x2="-912.74" y1="132.565" y2="132.565" xlink:href="#k"/>
    <linearGradient id="cu" x1="-914.32" x2="-907.74" y1="129.665" y2="129.665" xlink:href="#k"/>
    <linearGradient id="cv" x1="-912.62" x2="-906.04" y1="128.68" y2="128.68" xlink:href="#k"/>
    <linearGradient id="cw" x1="-910.91" x2="-904.33" y1="127.7" y2="127.7" xlink:href="#k"/>
    <linearGradient id="cx" x1="-909.2" x2="-902.62" y1="126.715" y2="126.715" xlink:href="#k"/>
    <linearGradient id="cy" x1="-904.21" x2="-897.63" y1="123.815" y2="123.815" xlink:href="#k"/>
    <linearGradient id="cz" x1="-902.5" x2="-895.92" y1="122.83" y2="122.83" xlink:href="#k"/>
    <linearGradient id="cA" x1="-900.79" x2="-894.21" y1="121.845" y2="121.845" xlink:href="#k"/>
    <linearGradient id="cB" x1="-899.08" x2="-892.5" y1="120.865" y2="120.865" xlink:href="#k"/>
    <linearGradient id="cC" x1="-895.55" x2="-888.98" y1="161.93" y2="161.93" xlink:href="#k"/>
    <linearGradient id="cD" x1="-893.85" x2="-887.27" y1="160.945" y2="160.945" xlink:href="#k"/>
    <linearGradient id="cE" x1="-892.14" x2="-885.56" y1="159.965" y2="159.965" xlink:href="#k"/>
    <linearGradient id="cF" x1="-890.43" x2="-883.85" y1="158.98" y2="158.98" xlink:href="#k"/>
    <linearGradient id="cG" x1="-885.44" x2="-878.86" y1="156.08" y2="156.08" xlink:href="#k"/>
    <linearGradient id="cH" x1="-883.73" x2="-877.15" y1="155.095" y2="155.095" xlink:href="#k"/>
    <linearGradient id="cI" x1="-882.02" x2="-875.44" y1="154.115" y2="154.115" xlink:href="#k"/>
    <linearGradient id="cJ" x1="-880.31" x2="-873.73" y1="153.13" y2="153.13" xlink:href="#k"/>
    <linearGradient id="cK" x1="-875.32" x2="-868.74" y1="150.23" y2="150.23" xlink:href="#k"/>
    <linearGradient id="cL" x1="-873.61" x2="-867.03" y1="149.245" y2="149.245" xlink:href="#k"/>
    <linearGradient id="cM" x1="-871.9" x2="-865.32" y1="148.265" y2="148.265" xlink:href="#k"/>
    <linearGradient id="cN" x1="-870.2" x2="-863.62" y1="147.28" y2="147.28" xlink:href="#k"/>
    <linearGradient id="cO" x1="-866.84" x2="-860.26" y1="169.415" y2="169.415" xlink:href="#k"/>
    <linearGradient id="cP" x1="-865.13" x2="-858.55" y1="168.435" y2="168.435" xlink:href="#k"/>
    <linearGradient id="cQ" x1="-863.42" x2="-856.85" y1="167.45" y2="167.45" xlink:href="#k"/>
    <linearGradient id="cR" x1="-861.72" x2="-855.14" y1="166.47" y2="166.47" xlink:href="#k"/>
    <linearGradient id="cS" x1="-856.72" x2="-850.14" y1="163.565" y2="163.565" xlink:href="#k"/>
    <linearGradient id="cT" x1="-855.01" x2="-848.44" y1="162.585" y2="162.585" xlink:href="#k"/>
    <linearGradient id="cU" x1="-853.31" x2="-846.73" y1="161.6" y2="161.6" xlink:href="#k"/>
    <linearGradient id="cV" x1="-851.6" x2="-845.02" y1="160.615" y2="160.615" xlink:href="#k"/>
    <linearGradient id="cW" x1="-846.61" x2="-840.03" y1="157.715" y2="157.715" xlink:href="#k"/>
    <linearGradient id="cX" x1="-844.9" x2="-838.32" y1="156.735" y2="156.735" xlink:href="#k"/>
    <linearGradient id="cY" x1="-843.19" x2="-836.61" y1="155.75" y2="155.75" xlink:href="#k"/>
    <linearGradient id="cZ" x1="-841.48" x2="-834.9" y1="154.765" y2="154.765" xlink:href="#k"/>
    <linearGradient id="da" x1="-309.17" x2="-311.13" y1="134.026" y2="134.026" xlink:href="#h"/>
    <linearGradient id="db" x1="-311.37" x2="-309.74" y1="133.82" y2="133.82" xlink:href="#i"/>
    <linearGradient id="dc" x1="-341.84" x2="-343.8" y1="152.596" y2="152.596" xlink:href="#h"/>
    <linearGradient id="dd" x1="-344.04" x2="-342.42" y1="152.39" y2="152.39" xlink:href="#i"/>
    <linearGradient id="de" x1="-280.202" x2="-281.92" y1="141.388" y2="141.388" xlink:href="#h"/>
    <linearGradient id="df" x1="-282.13" x2="-280.71" y1="141.24" y2="141.24" xlink:href="#i"/>
  </defs>
  <path fill="url(#a)" d="M139.28 49.76l-.37-.21c-1.36-.79-2.47 0-2.47 1.86v51.71a5.91 5.91 0 0 0 2.47 4.71l.37.21c1.36.79 2.47 0 2.47-1.86v-51.7a5.91 5.91 0 0 0-2.47-4.72z" data-name="bdeca5cf-3b87-4d01-ac0e-ec01fafc9a5f" transform="translate(0 .505)"/>
  <path fill="url(#l)" d="M129.34 34.47l-.37-.21c-1.36-.79-2.47 0-2.47 1.86V76a5.91 5.91 0 0 0 2.5 4.74l.37.21c1.36.79 2.47 0 2.47-1.86V39.18a5.91 5.91 0 0 0-2.5-4.71z" data-name="8b2d8825-06da-4eb2-807a-a04daeef2628" transform="translate(0 .505)"/>
  <path fill="#f4bc3d" d="M156.45 159.215a5.35 5.35 0 0 1-2.67-.71l-17.72-10.23.52-.9 17.72 10.23a4.32 4.32 0 0 0 4.3 0l17.93-10.35.52.9-17.93 10.35a5.35 5.35 0 0 1-2.67.71z"/>
  <path fill="#777" d="M193.19 146.625a15 15 0 0 1-13.58 0c-3.75-2.16-3.75-5.67 0-7.84a15 15 0 0 1 13.58 0c3.75 2.17 3.75 5.72 0 7.84z"/>
  <path fill="#f4bc3d" d="M190.07 144.825a8.11 8.11 0 0 1-7.34 0c-2-1.17-2-3.07 0-4.24a8.11 8.11 0 0 1 7.34 0c2.03 1.17 2.03 3.07 0 4.24z"/>
  <path fill="#f4bc3d" d="M186.4 150.765a19.44 19.44 0 0 1-9.51-2.27c-2.64-1.52-4.09-3.58-4.09-5.79s1.45-4.27 4.09-5.79c5.24-3 13.77-3 19 0 2.64 1.52 4.09 3.58 4.09 5.79s-1.45 4.27-4.09 5.79a19.45 19.45 0 0 1-9.49 2.27zm0-15.09a18.38 18.38 0 0 0-9 2.15c-2.3 1.33-3.57 3.06-3.57 4.89s1.27 3.56 3.57 4.89c5 2.86 13 2.86 18 0 2.3-1.33 3.57-3.06 3.57-4.89s-1.27-3.56-3.57-4.89a18.38 18.38 0 0 0-9-2.15z"/>
  <path fill="none" stroke="#f4bc3d" stroke-miterlimit="10" d="M119.4 7.875l-.4-.21c-1.36-.79-2.47 0-2.47 1.86v82.63a5.91 5.91 0 0 0 2.47 4.71l.37.21c1.36.79 2.47 0 2.47-1.86v-82.62a5.91 5.91 0 0 0-2.44-4.72z"/>
  <path fill="url(#b)" d="M129.34 34.47l-.37-.21c-1.36-.79-2.47 0-2.47 1.86V76a5.91 5.91 0 0 0 2.5 4.74l.37.21c1.36.79 2.47 0 2.47-1.86V39.18a5.91 5.91 0 0 0-2.5-4.71z" opacity=".66" style="isolation:isolate" transform="translate(0 .505)"/>
  <path fill="url(#m)" d="M139.28 49.76l-.37-.21c-1.36-.79-2.47 0-2.47 1.86v51.71a5.91 5.91 0 0 0 2.47 4.71l.37.21c1.36.79 2.47 0 2.47-1.86v-51.7a5.91 5.91 0 0 0-2.47-4.72z" opacity=".66" style="isolation:isolate" transform="translate(0 .505)"/>
  <path fill="none" stroke="#f4bc3d" stroke-miterlimit="10" d="M149.22 1.015l-.37-.21c-1.36-.79-2.47 0-2.47 1.86v106.7a5.91 5.91 0 0 0 2.47 4.71l.37.21c1.36.79 2.47 0 2.47-1.86V5.725a5.91 5.91 0 0 0-2.47-4.71zM159.16 23.755l-.37-.21c-1.36-.79-2.47 0-2.47 1.86v89.7a5.91 5.91 0 0 0 2.47 4.71l.37.21c1.36.79 2.47 0 2.47-1.86v-89.66a5.91 5.91 0 0 0-2.47-4.75zM169.09 36.575l-.37-.21c-1.36-.79-2.47 0-2.47 1.86v33.61a5.91 5.91 0 0 0 2.48 4.67l.37.21c1.36.79 2.47 0 2.47-1.86v-33.57a5.91 5.91 0 0 0-2.48-4.71z"/>
  <path fill="#f4bc3d" d="M67.3 187.745a6.37 6.37 0 0 1-3.11-.79L1.5 150.765a2.58 2.58 0 0 1-1.5-2.1 2 2 0 0 1 1.13-1.72l92.66-53.78a6.1 6.1 0 0 1 5.58.21l62.69 36.19a2.58 2.58 0 0 1 1.5 2.1 2 2 0 0 1-1.13 1.72l-92.67 53.79a5 5 0 0 1-2.46.57zm28.94-94.12a4 4 0 0 0-1.93.43l-92.65 53.8a1 1 0 0 0-.62.82c0 .4.37.85 1 1.2l62.69 36.19a5.13 5.13 0 0 0 4.53.21l92.63-53.77a1 1 0 0 0 .62-.82c0-.4-.37-.85-1-1.2l-62.67-36.21a5.38 5.38 0 0 0-2.6-.65z"/>
  <path fill="url(#j)" d="M6.45 133.57l19.69-1.28 67.42-39.22a5.17 5.17 0 0 1 4.66.19l43.36 25 15.54-1v2.56a1.37 1.37 0 0 1-.79 1.17L70 171.14a5.17 5.17 0 0 1-4.66-.19L7.58 137.6a1.93 1.93 0 0 1-1.13-1.47z" transform="translate(0 .505)"/>
  <path fill="url(#g)" d="M70 168.61l86.31-50.13c1.19-.69 1-1.89-.33-2.69L98.21 82.45a5.17 5.17 0 0 0-4.66-.19l-86.3 50.12c-1.19.69-1 1.89.33 2.69l57.75 33.34a5.17 5.17 0 0 0 4.67.2z" transform="translate(0 .505)"/>
  <path fill="url(#c)" d="M4.36 121.74l20.28-1.32 69.09-40.18a5.33 5.33 0 0 1 4.8.2l44.66 25.78 16-1v11.17a1.41 1.41 0 0 1-.82 1.21L69.82 169a5.33 5.33 0 0 1-4.8-.2L5.54 134.42a2 2 0 0 1-1.16-1.52z" transform="translate(0 .505)"/>
  <path fill="#f2f3f4" d="M69.82 158.225l88.54-51.41c1.23-.71 1.07-1.95-.34-2.77l-59.49-34.35a5.33 5.33 0 0 0-4.8-.2l-88.54 51.41c-1.23.71-1.07 1.95.34 2.77L65 158.025a5.33 5.33 0 0 0 4.82.2z"/>
  <g fill="#f4bc3d">
    <path d="M16.22 103.965a8 8 0 0 1-7.28 0c-2-1.16-2-3 0-4.2a8 8 0 0 1 7.28 0c2.01 1.15 2.01 3.04 0 4.2zM5.89 111.005a4.24 4.24 0 0 1-3.84 0 1.17 1.17 0 0 1 0-2.22 4.24 4.24 0 0 1 3.84 0 1.17 1.17 0 0 1 0 2.22z"/>
  </g>
  <g>
    <path fill="url(#d)" d="M118.52 41.77h4.13l-1-2.25-41.16-16.07v68.83a.45.45 0 0 0 .25.33l37.54 21.67a1 1 0 0 0 .24.09z" transform="translate(0 .505)"/>
    <path fill="url(#e)" d="M142.69 31.93L119 45.45v69.02a1.7 1.7 0 0 0 .76-.21l22.57-13a.62.62 0 0 0 .36-.47z" transform="translate(0 .505)"/>
    <path fill="#333" d="M117.3 25.265v89l1 .57a1.35 1.35 0 0 0 .7.15c.27 0 .29-.16.51-.29l.2-.08-.22-10.56v-16.55l.51-62.24z"/>
    <path fill="#c0c7cf" d="M120 104.175v-58.78l-1 .56v69.02h.17a1.74 1.74 0 0 0 .36-.1l.17-.08.21-.12z"/>
    <path fill="#666" d="M82.34 27.735l33.09 19.11v64.35l-33.09-19.11v-64.35z" opacity=".4"/>
    <path fill="#f0f0f0" d="M80.49 82.805l36.81-24.65v-12.7l-36.81-21.5v58.85z" opacity=".1"/>
    <path fill="#f2f3f4" d="M118.28 46.015l-37.54-21.67c-.38-.22-.33-.6.11-.85l22.57-13a1.64 1.64 0 0 1 1.48-.06l37.54 21.67c.38.22.33.6-.11.85l-22.57 13a1.64 1.64 0 0 1-1.48.06z"/>
    <path fill="url(#n)" d="M104.52 12.705l-18.04 10.41-1.74-.32v1.33l33.92 19.59 17.17-11.68-31.31-19.33z"/>
    <path fill="url(#f)" d="M138.44 30.955v1.33l-19.78 11.43v-1.34l19.78-11.42z"/>
    <path fill="#f2f3f4" d="M118.66 42.375l-33.92-19.58 19.78-11.43 33.92 19.59-19.78 11.42z"/>
    <path fill="url(#o)" d="M123.51 87.54a.69.69 0 0 1-.34-.09.68.68 0 0 1-.34-.59V65.53a1.41 1.41 0 0 1 .71-1.22l15.4-8.89a.69.69 0 0 1 1 .59v21.32a1.41 1.41 0 0 1-.71 1.22l-15.4 8.89a.68.68 0 0 1-.32.1zm15.76-31.75a.22.22 0 0 0-.11 0l-15.4 8.89a1 1 0 0 0-.47.82v21.35a.22.22 0 0 0 .33.19L139 78.15a1 1 0 0 0 .47-.82V56a.22.22 0 0 0-.11-.19.23.23 0 0 0-.09-.02z" transform="translate(0 .505)"/>
    <g>
      <path fill="#f4bc3d" d="M89.4 131.695a1.76 1.76 0 0 1-.87-.2l-42.69-24.65a.76.76 0 0 1-.43-.66 1 1 0 0 1 .55-.79l25.66-14.81a2.14 2.14 0 0 1 2-.07l42.69 24.65a.76.76 0 0 1 .43.66 1 1 0 0 1-.55.79l-25.71 14.81a2.23 2.23 0 0 1-1.08.27zm-.6-.68a1.6 1.6 0 0 0 1.41-.07l25.66-14.82c.2-.12.28-.24.28-.31s-.1-.15-.15-.19l-42.7-24.64a1.6 1.6 0 0 0-1.41.07l-25.66 14.82c-.2.12-.28.24-.28.31s.1.15.15.19z"/>
      <path fill="url(#p)" d="M89.18 49.2h4.13l-1-2.25-41.16-16.07v68.83a.45.45 0 0 0 .25.33l37.54 21.67a1 1 0 0 0 .24.09z" transform="translate(0 .505)"/>
      <path fill="url(#q)" d="M113.36 39.36l-23.7 13.52v69.02a1.7 1.7 0 0 0 .76-.21l22.57-13a.62.62 0 0 0 .36-.47z" transform="translate(0 .505)"/>
      <path fill="#333" d="M88 32.695v89l1 .57a1.35 1.35 0 0 0 .7.15c.27 0 .29-.16.51-.29l.2-.08-.27-10.54v-16.59l.49-62.22z"/>
      <path fill="#c0c7cf" d="M90.64 111.605v-58.78l-1 .56v69.02h.17a1.74 1.74 0 0 0 .36-.1l.17-.08.21-.12z"/>
      <path fill="#666" d="M53.01 35.175l33.08 19.1v64.35l-33.08-19.1v-64.35z" opacity=".4"/>
      <path fill="#f0f0f0" d="M51.15 90.235l36.82-24.65v-12.7l-36.82-21.49v58.84z" opacity=".1"/>
      <path fill="#f2f3f4" d="M88.95 53.445l-37.54-21.67c-.38-.22-.33-.6.11-.85l22.57-13a1.64 1.64 0 0 1 1.48-.06l37.53 21.64c.38.22.33.6-.11.85l-22.57 13a1.64 1.64 0 0 1-1.47.09z"/>
      <path fill="url(#r)" d="M75.19 20.135l-18.04 10.41-1.75-.32v1.33l33.92 19.59 17.18-11.68-31.31-19.33z"/>
      <path fill="url(#s)" d="M109.11 38.385v1.33l-19.79 11.43v-1.34l19.79-11.42z"/>
      <path fill="#f2f3f4" d="M89.32 49.805L55.4 30.225l19.79-11.43 33.92 19.59-19.79 11.42z"/>
      <path fill="url(#t)" d="M108.91 64.055v21.82l-15.74 9.09v.96l16.67-9.62v-22.78l-.93.53z"/>
      <g>
        <path fill="url(#u)" d="M119.88 91.68l-.89.47L110 87a.65.65 0 0 0-.58 0L94 95.92l-.82-.41.33.85a.19.19 0 0 0 .09.1l9.43 5.45a.65.65 0 0 0 .58 0l15.81-9.13a.28.28 0 0 0 .13-.14z" transform="translate(0 .505)"/>
        <path fill="#f2f3f4" d="M119.74 92.335l-16.2 9.35a.67.67 0 0 1-.6 0l-9.67-5.58c-.15-.09-.13-.24 0-.35l16.2-9.35a.67.67 0 0 1 .6 0l9.67 5.58c.2.09.18.24 0 .35z"/>
        <path fill="#5d639e" d="M98.65 99.665v-.16l.63.36v.18l-.63-.36a.05.05 0 0 1 0-.02zM99.59 100.205v-.18l.63.36v.18l-.63-.36z"/>
        <path fill="#c0c7cf" d="M95.79 95.605l13.46-7.77a.29.29 0 0 1 .29 0l4.79 2.77a.1.1 0 0 1 0 .18l-13.46 7.77a.29.29 0 0 1-.29 0l-4.8-2.77a.1.1 0 0 1 .01-.18z"/>
        <path fill="#5d639e" d="M95.79 95.785l13.42-7.75a.29.29 0 0 1 .29 0l4.75 2.75a.1.1 0 0 0 0-.18l-4.79-2.77a.29.29 0 0 0-.29 0l-13.38 7.77a.1.1 0 0 0 0 .18z"/>
        <g fill="#777">
          <path d="M109.91 88.535l-11.7 6.75-.52-.3 11.7-6.75.52.3zM111.18 89.275l-10.97 6.33-.52-.3 10.97-6.33.52.3zM112.01 89.755l-12.91 7.45-.52-.3 12.91-7.45.52.3zM112.84 90.225l-12.91 7.46-.52-.3 12.92-7.46.51.3zM113.67 90.705l-12.91 7.46-.52-.3 12.92-7.45.51.29zM97.51 95.695l-.52.3-.52-.3.52-.3.52.3zM99.34 96.105l-1.08.63-.52-.3 1.08-.63.52.3z"/>
        </g>
        <path fill="#dee2e6" d="M109.78 97.505l3.63-2.1a.16.16 0 0 0 0-.3l-2.48-1.43a.57.57 0 0 0-.51 0l-3.63 2.1a.16.16 0 0 0 0 .3l2.47 1.43a.57.57 0 0 0 .52 0z"/>
        <path fill="#80909f" d="M106.78 95.875l3.63-2.1a.57.57 0 0 1 .51 0l2.48 1.43a.22.22 0 0 1 .09.09.216.216 0 0 0-.09-.21l-2.48-1.43a.57.57 0 0 0-.51 0l-3.63 2.1c-.1.06-.13.14-.09.21a.22.22 0 0 1 .09-.09z"/>
      </g>
      <path fill="#24126a" d="M108.91 64.055l-15.74 9.09v21.82l15.74-9.09v-21.82z"/>
      <path fill="url(#v)" d="M108.91 64.055l-15.74 9.09v21.82l15.74-9.09v-21.82z"/>
      <path fill="#666" d="M108.03 86.385v-20.82l-14.86 8.58v20.82l14.86-8.58z"/>
      <g opacity=".11">
        <g clip-path="url(#w)">
          <path fill="url(#x)" d="M109.56 85.89L93.43 95.2a.66.66 0 0 1-.6 0l-9.62-5.56c-.15-.09-.13-.24 0-.34L99.38 80a.66.66 0 0 1 .6 0l9.62 5.56c.15.08.14.23-.04.33z" transform="translate(0 .505)"/>
          <path fill="url(#y)" d="M93.39 87.56L97 85.48a.16.16 0 0 0 0-.3l-2.47-1.43a.56.56 0 0 0-.51 0l-3.62 2.09a.16.16 0 0 0 0 .3l2.47 1.43a.57.57 0 0 0 .52-.01z" transform="translate(0 .505)"/>
          <path fill="#9198db" d="M90.4 86.505l3.6-2.12a.56.56 0 0 1 .51 0l2.49 1.42a.22.22 0 0 1 .09.09.216.216 0 0 0-.09-.21l-2.47-1.43a.56.56 0 0 0-.51 0l-3.62 2.09c-.1.06-.13.14-.09.21a.22.22 0 0 1 .09-.05z"/>
          <path fill="#adb1f2" d="M88.81 91.325l13.4-7.74a.29.29 0 0 1 .29 0l4.77 2.76a.1.1 0 0 1 0 .18l-13.39 7.74a.29.29 0 0 1-.29 0l-4.78-2.76a.1.1 0 0 1 0-.18z"/>
          <path fill="#9198db" d="M88.81 91.505l13.35-7.71a.29.29 0 0 1 .29 0l4.72 2.73a.1.1 0 0 0 0-.18l-4.77-2.76a.29.29 0 0 0-.29 0l-13.4 7.74a.103.103 0 0 0 .1.18z"/>
          <g fill="#24126a">
            <path d="M106.03 86.165l-11.68 6.74.46.27 11.68-6.74-.46-.27zM104.8 85.455l-11.1 6.41.46.26 11.1-6.4-.46-.27zM92.87 92.335l-1.03.6.46.27 1.03-.6-.46-.27zM93.79 93.235l-.72.41.46.27.72-.42-.46-.26zM104.03 85.005l-12.97 7.49.47.26 12.96-7.48-.46-.27zM103.26 84.565l-12.96 7.48.46.27 12.96-7.48-.46-.27zM102.48 84.115l-12.96 7.49.47.26 12.96-7.48-.47-.27z"/>
          </g>
        </g>
      </g>
      <g fill="#dee2e6">
        <path d="M97.46 75.855l-.94.54v-.63l.94-.54v.63zM97.46 80.115l-.94.55v-3.69l.94-.55v3.69zM97.46 82.155l-.94.55v-1.47l.94-.54v1.46zM97.46 84.275l-.94.54v-1.46l.94-.55v1.47zM98.87 77.085l-.95.54v-1.46l.95-.55v1.47zM98.87 79.885l-.95.54v-2.15l.95-.54v2.15zM98.87 82.465l-.95.54v-1.84l.95-.55v1.85zM97.46 86.385l-.94.55v-1.47l.94-.54v1.46zM98.87 75.045l-.95.54v-.63l.95-.54v.63z"/>
      </g>
      <path fill="#f4bc3d" d="M98.16 88.035l-1.64.95v-.62l1.64-.94v.61z"/>
    </g>
    <g>
      <path fill="url(#z)" d="M60.08 75.53h4.13l-1-2.25L22 57.21V126.06a.45.45 0 0 0 .25.33l37.54 21.67a1 1 0 0 0 .24.09z" transform="translate(0 .505)"/>
      <path fill="url(#A)" d="M84.26 65.69l-23.7 13.52v69.02a1.7 1.7 0 0 0 .76-.21l22.57-13a.62.62 0 0 0 .36-.47z" transform="translate(0 .505)"/>
      <path fill="#333" d="M58.86 59.025v89l1 .57a1.35 1.35 0 0 0 .7.15c.27 0 .29-.16.51-.29l.2-.08-.27-10.58v-16.55l.49-62.22z"/>
      <path fill="#c0c7cf" d="M61.54 137.935v-58.78l-1 .56v69.02h.17a1.741 1.741 0 0 0 .36-.1l.17-.08.21-.12z"/>
      <path fill="#f0f0f0" d="M22.04 116.955l36.82-24.65v-13.15l-36.82-21.05v58.85z" opacity=".1"/>
      <path fill="url(#h)" d="M57.66 80.53a1.79 1.79 0 0 0-.81-1.41.57.57 0 0 0-.58-.06l-.57.34h.36a.93.93 0 0 0 0 .18 1.79 1.79 0 0 0 .79 1.42l.17.08-.17.31.56-.33a.57.57 0 0 0 .25-.53z" transform="translate(0 .505)"/>
      <path fill="url(#i)" d="M57.08 80.87c0 .52-.36.73-.81.47a1.79 1.79 0 0 1-.81-1.41c0-.52.36-.73.81-.47a1.79 1.79 0 0 1 .81 1.41z" transform="translate(0 .505)"/>
      <path fill="#5d6873" d="M56.73 81.175c0 .3-.21.42-.47.27a1 1 0 0 1-.47-.81c0-.3.21-.42.47-.27a1 1 0 0 1 .47.81z"/>
      <path fill="url(#B)" d="M25.92 62.5a1.79 1.79 0 0 0-.81-1.41.57.57 0 0 0-.58-.06l-.57.34h.36a.93.93 0 0 0 0 .18 1.79 1.79 0 0 0 .79 1.45l.17.08-.17.31.56-.33a.57.57 0 0 0 .25-.56z" transform="translate(0 .505)"/>
      <path fill="url(#C)" d="M25.34 62.83c0 .52-.36.73-.81.47a1.79 1.79 0 0 1-.81-1.41c0-.52.36-.73.81-.47a1.79 1.79 0 0 1 .81 1.41z" transform="translate(0 .505)"/>
      <path fill="#5d6873" d="M25 63.145c0 .3-.21.42-.47.27a1 1 0 0 1-.47-.81c0-.3.21-.42.47-.27a1 1 0 0 1 .47.81z"/>
      <path fill="url(#D)" d="M58 143.83a1.79 1.79 0 0 0-.81-1.41.57.57 0 0 0-.58-.06l-.57.34h.36a.93.93 0 0 0 0 .18 1.79 1.79 0 0 0 .81 1.41l.17.08-.17.31.56-.33a.57.57 0 0 0 .23-.52z" transform="translate(0 .505)"/>
      <path fill="url(#E)" d="M57.38 144.17c0 .52-.36.73-.81.47a1.79 1.79 0 0 1-.81-1.41c0-.52.36-.73.81-.47a1.79 1.79 0 0 1 .81 1.41z" transform="translate(0 .505)"/>
      <path fill="#5d6873" d="M57 144.505c0 .3-.21.42-.47.27a1 1 0 0 1-.47-.81c0-.3.21-.42.47-.27a1 1 0 0 1 .47.81z"/>
      <g>
        <path fill="url(#F)" d="M25.82 125.12a1.79 1.79 0 0 0-.81-1.41.57.57 0 0 0-.58-.06l-.57.34h.36a.93.93 0 0 0 0 .18 1.79 1.79 0 0 0 .81 1.41l.17.08-.2.34.56-.33a.57.57 0 0 0 .26-.55z" transform="translate(0 .505)"/>
        <path fill="url(#G)" d="M25.24 125.46c0 .52-.36.73-.81.47a1.79 1.79 0 0 1-.81-1.41c0-.52.36-.73.81-.47a1.79 1.79 0 0 1 .81 1.41z" transform="translate(0 .505)"/>
        <path fill="#5d6873" d="M24.9 125.765c0 .3-.21.42-.47.27a1 1 0 0 1-.47-.81c0-.3.21-.42.47-.27a1 1 0 0 1 .47.81z"/>
      </g>
      <g opacity=".4">
        <path fill="#666" d="M23.9 61.505l33.09 19.1v64.35l-33.09-19.11v-64.34z"/>
      </g>
      <path fill="#f2f3f4" d="M59.85 79.775L22.3 58.105c-.38-.22-.33-.6.11-.85L45 44.215a1.64 1.64 0 0 1 1.48-.06L84 65.835c.38.22.33.6-.11.85l-22.57 13a1.64 1.64 0 0 1-1.47.09z"/>
      <path fill="url(#H)" d="M46.09 46.465l-18.04 10.41-1.75-.32v1.33l33.92 19.59 17.17-11.68-31.3-19.33z"/>
      <path fill="url(#I)" d="M80.01 64.715v1.33l-19.79 11.43v-1.34l19.79-11.42z"/>
      <path fill="#f2f3f4" d="M60.22 76.135L26.3 56.555l19.79-11.43 33.92 19.59-19.79 11.42z"/>
      <path fill="url(#J)" d="M65.07 121.3a.69.69 0 0 1-.34-.09.68.68 0 0 1-.34-.59V99.29a1.41 1.41 0 0 1 .71-1.22l15.4-8.89a.69.69 0 0 1 1 .59v21.32a1.41 1.41 0 0 1-.71 1.22l-15.4 8.89a.68.68 0 0 1-.32.1zm15.76-31.75a.22.22 0 0 0-.11 0l-15.4 8.89a1 1 0 0 0-.47.82v21.32a.22.22 0 0 0 .33.19l15.4-8.89a1 1 0 0 0 .47-.82V89.77a.22.22 0 0 0-.11-.19.23.23 0 0 0-.11-.03z" transform="translate(0 .505)"/>
    </g>
  </g>
  <g>
    <path fill="url(#K)" d="M29.5 75.545l-3.76-2.17v-.82l3.76 2.16v.83z"/>
    <path fill="url(#L)" d="M31.43 76.655l-1.36-.78v-.83l1.36.79v.82z"/>
    <path fill="url(#M)" d="M32.92 77.515l-.92-.53v-.82l.92.53v.82z"/>
    <path fill="#f4bc3d" d="M27.79 76.445l-2.05-1.19v-.82l2.05 1.18v.83z"/>
    <path fill="url(#N)" d="M30.87 78.215l-2.51-1.44v-.83l2.51 1.45v.82z"/>
    <path fill="url(#O)" d="M32.36 79.085l-.91-.53v-.83l.91.53v.83z"/>
    <path fill="url(#P)" d="M33.78 79.905l-.91-.54v-.82l.91.53v.83z"/>
    <path fill="#f4bc3d" d="M27.22 77.995l-1.48-.85v-.83l1.48.86v.82z"/>
    <path fill="url(#Q)" d="M28.3 78.625l-.5-.3v-.82l.5.29v.83z"/>
    <path fill="url(#R)" d="M29.8 79.485l-.92-.53v-.83l.92.53v.83z"/>
    <path fill="#f4bc3d" d="M31.21 82.185l-5.47-3.16v-.82l5.47 3.15v.83z"/>
    <path fill="url(#S)" d="M33.13 83.295l-1.35-.78v-.83l1.35.78v.83z"/>
    <path fill="url(#T)" d="M27.22 81.765l-1.48-.85v-.83l1.48.86v.82z"/>
    <path fill="url(#U)" d="M30.7 83.775l-2.9-1.68v-.82l2.9 1.67v.83z"/>
    <path fill="url(#V)" d="M32.19 84.635l-.92-.53v-.83l.92.53v.83z"/>
    <path fill="url(#W)" d="M28.77 84.545l-3.03-1.75v-.82l3.03 1.74v.83z"/>
    <path fill="#f4bc3d" d="M31.54 86.135l-2.19-1.26v-.82l2.19 1.26v.82z"/>
    <path fill="url(#X)" d="M33.59 87.325l-1.48-.85v-.83l1.48.86v.82z"/>
    <path fill="url(#Y)" d="M26.77 85.265l-1.03-.59v-.82l1.03.59v.82z"/>
    <path fill="url(#Z)" d="M28.69 86.385l-1.35-.79v-.82l1.35.78v.83z"/>
    <path fill="#f4bc3d" d="M31.45 87.975l-2.18-1.26v-.83l2.18 1.26v.83z"/>
    <path fill="url(#aa)" d="M28.88 88.375l-3.14-1.81v-.83l3.14 1.81v.83z"/>
    <path fill="url(#ab)" d="M32.39 90.395l-2.94-1.69v-.83l2.94 1.7v.82z"/>
    <path fill="url(#ac)" d="M33.88 91.255l-.92-.53v-.82l.92.53v.82z"/>
    <path fill="url(#ad)" d="M35.31 92.085l-.92-.53v-.82l.92.53v.82z"/>
    <path fill="url(#ae)" d="M27.62 89.535l-1.88-1.09v-.82l1.88 1.08v.83z"/>
    <path fill="url(#af)" d="M35.47 78.995l2.61 1.5v-.82l-2.61-1.51v.83z"/>
    <path fill="url(#ag)" d="M36.03 81.195l2.05 1.19v-.83l-2.05-1.18v.82z"/>
    <path fill="url(#ah)" d="M36.6 83.405l1.48.86v-.83l-1.48-.85v.82z"/>
    <path fill="url(#ai)" d="M35.92 84.905l2.16 1.24v-.82l-2.16-1.24v.82z"/>
    <path fill="url(#aj)" d="M36.6 87.175l1.48.86v-.83l-1.48-.85v.82z"/>
    <path fill="url(#ak)" d="M36.2 88.835l1.88 1.08v-.82l-1.88-1.09v.83z"/>
    <path fill="url(#al)" d="M37.05 91.205l1.03.6v-.83l-1.03-.59v.82z"/>
    <path fill="url(#am)" d="M36.09 92.535l1.99 1.15v-.83l-1.99-1.14v.82z"/>
    <path fill="url(#an)" d="M36.2 94.485l1.88 1.08v-.82l-1.88-1.09v.83z"/>
    <path fill="url(#ao)" d="M28.99 90.325l-.79-.46v-.83l.79.46v.83z"/>
    <path fill="url(#ap)" d="M31.36 91.695l-1.79-1.04v-.83l1.79 1.04v.83z"/>
    <path fill="url(#aq)" d="M32.85 98.025l-3.03-1.75v-.82l3.03 1.75v.82z"/>
    <path fill="#f4bc3d" d="M34.93 99.225l-1.2-.69v-.82l1.2.69v.82z"/>
    <g>
      <path fill="#f4bc3d" d="M29.5 100.215l-3.76-2.17v-.82l3.76 2.16v.83z"/>
      <path fill="url(#ar)" d="M31.43 101.325l-1.36-.78v-.83l1.36.79v.82z"/>
      <path fill="url(#as)" d="M32.92 102.185l-.92-.53v-.82l.92.53v.82z"/>
      <path fill="url(#at)" d="M27.79 101.115l-2.05-1.19v-.82l2.05 1.18v.83z"/>
      <path fill="url(#au)" d="M30.87 102.885l-2.51-1.44v-.83l2.51 1.45v.82z"/>
      <path fill="url(#av)" d="M32.36 103.755l-.91-.53v-.83l.91.53v.83z"/>
      <path fill="url(#aw)" d="M33.78 104.575l-.91-.54v-.82l.91.53v.83z"/>
      <path fill="url(#ax)" d="M27.22 102.665l-1.48-.85v-.83l1.48.86v.82z"/>
      <path fill="url(#ay)" d="M28.3 103.295l-.5-.3v-.82l.5.29v.83z"/>
      <path fill="url(#az)" d="M29.8 104.155l-.92-.53v-.83l.92.53v.83z"/>
      <path fill="url(#aA)" d="M31.21 106.855l-5.47-3.16v-.82l5.47 3.15v.83z"/>
      <path fill="url(#aB)" d="M33.13 107.965l-1.35-.78v-.83l1.35.78v.83z"/>
      <path fill="url(#aC)" d="M27.22 106.435l-1.48-.85v-.83l1.48.86v.82z"/>
      <path fill="url(#aD)" d="M30.7 108.445l-2.9-1.68v-.82l2.9 1.67v.83z"/>
      <path fill="url(#aE)" d="M32.19 109.305l-.92-.53v-.83l.92.53v.83z"/>
      <path fill="url(#aF)" d="M28.77 109.215l-3.03-1.75v-.82l3.03 1.74v.83z"/>
      <path fill="#f4bc3d" d="M31.54 110.805l-2.19-1.26v-.82l2.19 1.26v.82z"/>
      <path fill="url(#aG)" d="M33.59 111.995l-1.48-.85v-.83l1.48.86v.82z"/>
      <path fill="url(#aH)" d="M26.77 109.935l-1.03-.59v-.82l1.03.59v.82z"/>
      <path fill="url(#aI)" d="M28.69 111.055l-1.35-.78v-.83l1.35.78v.83z"/>
      <path fill="url(#aJ)" d="M31.45 112.645l-2.18-1.26v-.83l2.18 1.26v.83z"/>
      <path fill="url(#aK)" d="M28.88 113.045l-3.14-1.81v-.83l3.14 1.81v.83z"/>
      <path fill="#f4bc3d" d="M32.39 115.065l-2.94-1.69v-.83l2.94 1.7v.82z"/>
      <path fill="url(#aL)" d="M33.88 115.925l-.92-.53v-.82l.92.53v.82z"/>
      <path fill="url(#aM)" d="M35.31 116.755l-.92-.53v-.82l.92.53v.82z"/>
      <path fill="url(#aN)" d="M27.62 114.195l-1.88-1.08v-.82l1.88 1.08v.82z"/>
      <path fill="url(#aO)" d="M35.47 103.665l2.61 1.5v-.82l-2.61-1.51v.83z"/>
      <path fill="url(#aP)" d="M36.03 105.865l2.05 1.19v-.83l-2.05-1.18v.82z"/>
      <path fill="url(#aQ)" d="M36.6 108.075l1.48.86v-.83l-1.48-.85v.82z"/>
      <path fill="#f4bc3d" d="M35.92 109.575l2.16 1.24v-.82l-2.16-1.24v.82z"/>
      <path fill="url(#aR)" d="M36.6 111.845l1.48.86v-.83l-1.48-.85v.82z"/>
      <path fill="url(#aS)" d="M36.2 113.505l1.88 1.08v-.82l-1.88-1.09v.83z"/>
      <path fill="url(#aT)" d="M37.05 115.875l1.03.6v-.83l-1.03-.59v.82z"/>
      <path fill="url(#aU)" d="M36.09 117.205l1.99 1.15v-.83l-1.99-1.14v.82z"/>
      <path fill="url(#aV)" d="M36.2 119.155l1.88 1.08v-.82l-1.88-1.09v.83z"/>
      <path fill="url(#aW)" d="M28.99 114.995l-.79-.46v-.83l.79.46v.83z"/>
      <path fill="url(#aX)" d="M31.36 116.365l-1.79-1.04v-.83l1.79 1.04v.83z"/>
      <path fill="url(#aY)" d="M32.85 122.695l-3.03-1.75v-.82l3.03 1.75v.82z"/>
      <path fill="url(#aZ)" d="M34.93 123.895l-1.2-.69v-.82l1.2.69v.82z"/>
    </g>
    <g>
      <path fill="url(#ba)" d="M46.13 84.505l-3.76-2.16v-.83l3.76 2.17v.82z"/>
      <path fill="url(#bb)" d="M48.05 85.625l-1.35-.78v-.83l1.35.78v.83z"/>
      <path fill="url(#bc)" d="M49.55 86.485l-.92-.53v-.83l.92.53v.83z"/>
      <path fill="url(#bd)" d="M44.42 85.405l-2.05-1.18v-.82l2.05 1.18v.82z"/>
      <path fill="url(#be)" d="M47.5 87.185l-2.51-1.45v-.82l2.51 1.45v.82z"/>
      <path fill="url(#bf)" d="M48.99 88.045l-.92-.53v-.82l.92.53v.82z"/>
      <path fill="url(#bg)" d="M50.41 88.865l-.92-.53v-.82l.92.53v.82z"/>
      <path fill="url(#bh)" d="M43.85 86.965l-1.48-.85v-.83l1.48.86v.82z"/>
      <path fill="url(#bi)" d="M44.93 87.585l-.5-.29v-.82l.5.29v.82z"/>
      <path fill="url(#bj)" d="M46.42 88.445l-.91-.53v-.82l.91.53v.82z"/>
      <path fill="url(#bk)" d="M47.84 91.145l-5.47-3.15v-.83l5.47 3.16v.82z"/>
      <path fill="url(#bl)" d="M49.76 92.265l-1.35-.79v-.82l1.35.78v.83z"/>
      <path fill="url(#bm)" d="M43.85 90.735l-1.48-.86v-.82l1.48.85v.83z"/>
      <path fill="url(#bn)" d="M47.33 92.735l-2.9-1.67v-.83l2.9 1.68v.82z"/>
      <path fill="url(#bo)" d="M48.82 93.595l-.92-.53v-.82l.92.53v.82z"/>
      <path fill="url(#bp)" d="M45.4 93.515l-3.03-1.75v-.83l3.03 1.75v.83z"/>
      <path fill="url(#bq)" d="M48.16 95.105l-2.19-1.26v-.83l2.19 1.27v.82z"/>
      <path fill="url(#br)" d="M50.22 96.295l-1.48-.86v-.82l1.48.85v.83z"/>
      <path fill="#f4bc3d" d="M43.39 94.235l-1.02-.59v-.82l1.02.59v.82z"/>
      <path fill="url(#bs)" d="M45.32 95.345l-1.35-.78v-.82l1.35.78v.82z"/>
      <path fill="url(#bt)" d="M48.07 96.935l-2.18-1.26v-.82l2.18 1.26v.82z"/>
      <path fill="url(#bu)" d="M45.51 97.335l-3.14-1.8v-.83l3.14 1.81v.82z"/>
      <path fill="#f4bc3d" d="M49.02 99.365l-2.94-1.69v-.83l2.94 1.7v.82zM50.51 100.225l-.92-.53v-.82l.92.53v.82z"/>
      <path fill="url(#bv)" d="M51.94 101.055l-.92-.53v-.83l.92.53v.83z"/>
      <path fill="url(#bw)" d="M44.25 98.495l-1.88-1.08v-.83l1.88 1.09v.82z"/>
      <path fill="url(#bx)" d="M52.1 87.955l2.61 1.51v-.83l-2.61-1.5v.82z"/>
      <path fill="url(#by)" d="M52.66 90.165l2.05 1.18v-.82l-2.05-1.18v.82z"/>
      <path fill="url(#bz)" d="M53.23 92.375l1.48.86v-.83l-1.48-.85v.82z"/>
      <path fill="url(#bA)" d="M52.55 93.875l2.16 1.24v-.82l-2.16-1.25v.83z"/>
      <path fill="url(#bB)" d="M53.23 96.145l1.48.85v-.82l-1.48-.86v.83z"/>
      <path fill="#f4bc3d" d="M52.83 97.795l1.88 1.09v-.83l-1.88-1.08v.82z"/>
      <path fill="url(#bC)" d="M53.68 100.175l1.03.59v-.82l-1.03-.59v.82z"/>
      <path fill="url(#bD)" d="M52.72 101.505l1.99 1.15v-.83l-1.99-1.14v.82z"/>
      <path fill="#f4bc3d" d="M52.83 103.455l1.88 1.08v-.83l-1.88-1.08v.83z"/>
      <path fill="url(#bE)" d="M45.62 99.285l-.8-.46v-.82l.8.46v.82z"/>
      <path fill="url(#bF)" d="M47.99 100.655l-1.79-1.03v-.83l1.79 1.04v.82z"/>
      <path fill="url(#bG)" d="M49.48 106.995l-3.03-1.75v-.82l3.03 1.75v.82z"/>
      <path fill="url(#bH)" d="M51.56 108.195l-1.2-.69v-.82l1.2.69v.82z"/>
    </g>
    <g>
      <path fill="url(#bI)" d="M46.13 109.175l-3.76-2.16v-.83l3.76 2.17v.82z"/>
      <path fill="url(#bJ)" d="M48.05 110.295l-1.35-.78v-.83l1.35.78v.83z"/>
      <path fill="url(#bK)" d="M49.55 111.155l-.92-.53v-.83l.92.53v.83z"/>
      <path fill="url(#bL)" d="M44.42 110.075l-2.05-1.18v-.82l2.05 1.18v.82z"/>
      <path fill="url(#bM)" d="M47.5 111.855l-2.51-1.45v-.82l2.51 1.45v.82z"/>
      <path fill="url(#bN)" d="M48.99 112.715l-.92-.53v-.82l.92.53v.82z"/>
      <path fill="url(#bO)" d="M50.41 113.535l-.92-.53v-.82l.92.53v.82z"/>
      <path fill="url(#bP)" d="M43.85 111.635l-1.48-.85v-.83l1.48.86v.82z"/>
      <path fill="url(#bQ)" d="M44.93 112.255l-.5-.29v-.82l.5.29v.82z"/>
      <path fill="url(#bR)" d="M46.42 113.115l-.91-.53v-.82l.91.53v.82z"/>
      <path fill="#f4bc3d" d="M47.84 115.815l-5.47-3.15v-.83l5.47 3.16v.82z"/>
      <path fill="url(#bS)" d="M49.76 116.935l-1.35-.79v-.82l1.35.78v.83z"/>
      <path fill="url(#bT)" d="M43.85 115.405l-1.48-.86v-.82l1.48.85v.83z"/>
      <path fill="url(#bU)" d="M47.33 117.405l-2.9-1.67v-.83l2.9 1.68v.82z"/>
      <path fill="url(#bV)" d="M48.82 118.275l-.92-.54v-.82l.92.53v.83z"/>
      <path fill="url(#bW)" d="M45.4 118.185l-3.03-1.75v-.83l3.03 1.75v.83z"/>
      <path fill="#f4bc3d" d="M48.16 119.775l-2.19-1.26v-.83l2.19 1.27v.82z"/>
      <path fill="url(#bX)" d="M50.22 120.965l-1.48-.86v-.82l1.48.85v.83z"/>
      <path fill="url(#bY)" d="M43.39 118.905l-1.02-.59v-.82l1.02.59v.82z"/>
      <path fill="url(#bZ)" d="M45.32 120.015l-1.35-.78v-.82l1.35.78v.82z"/>
      <path fill="url(#ca)" d="M48.07 121.605l-2.18-1.26v-.82l2.18 1.26v.82z"/>
      <path fill="url(#cb)" d="M45.51 122.005l-3.14-1.81v-.82l3.14 1.81v.82z"/>
      <path fill="#f4bc3d" d="M49.02 124.035l-2.94-1.7v-.82l2.94 1.7v.82z"/>
      <path fill="url(#cc)" d="M50.51 124.895l-.92-.53v-.82l.92.53v.82z"/>
      <path fill="url(#cd)" d="M51.94 125.725l-.92-.53v-.83l.92.53v.83z"/>
      <path fill="url(#ce)" d="M44.25 123.165l-1.88-1.08v-.83l1.88 1.09v.82z"/>
      <path fill="url(#cf)" d="M52.1 112.635l2.61 1.5v-.83l-2.61-1.5v.83z"/>
      <path fill="url(#cg)" d="M52.66 114.835l2.05 1.18v-.82l-2.05-1.18v.82z"/>
      <path fill="#f4bc3d" d="M53.23 117.045l1.48.86v-.83l-1.48-.85v.82z"/>
      <path fill="url(#ch)" d="M52.55 118.545l2.16 1.24v-.83l-2.16-1.24v.83z"/>
      <path fill="url(#ci)" d="M53.23 120.815l1.48.85v-.82l-1.48-.86v.83z"/>
      <path fill="url(#cj)" d="M52.83 122.465l1.88 1.09v-.83l-1.88-1.08v.82z"/>
      <path fill="url(#ck)" d="M53.68 124.845l1.03.59v-.82l-1.03-.59v.82z"/>
      <path fill="url(#cl)" d="M52.72 126.175l1.99 1.15v-.83l-1.99-1.14v.82z"/>
      <path fill="url(#cm)" d="M52.83 128.125l1.88 1.08v-.82l-1.88-1.09v.83z"/>
      <path fill="url(#cn)" d="M45.62 123.955l-.8-.46v-.82l.8.46v.82z"/>
      <path fill="url(#co)" d="M47.99 125.325l-1.79-1.03v-.83l1.79 1.04v.82z"/>
      <path fill="url(#cp)" d="M49.48 131.665l-3.03-1.75v-.82l3.03 1.75v.82z"/>
      <path fill="url(#cq)" d="M51.56 132.865l-1.2-.69v-.82l1.2.69v.82z"/>
    </g>
  </g>
  <path fill="#f4bc3d" d="M120.22 183.735a5.22 5.22 0 0 1-4.72 0c-1.3-.75-1.3-2 0-2.73a5.22 5.22 0 0 1 4.72 0c1.3.75 1.3 1.97 0 2.73z"/>
  <path fill="#f4bc3d" d="M117.86 186.615a10.27 10.27 0 0 1-5-1.2 3.23 3.23 0 0 1 0-6.1 11.12 11.12 0 0 1 10 0 3.23 3.23 0 0 1 0 6.1 10.27 10.27 0 0 1-5 1.2zm0-8a9.73 9.73 0 0 0-4.76 1.14 2.73 2.73 0 0 0 0 5.2 10.54 10.54 0 0 0 9.52 0 2.73 2.73 0 0 0 0-5.2 9.74 9.74 0 0 0-4.76-1.12z"/>
  <g>
    <path fill="#5d6873" d="M38.38 54.945l-.57-.33.05-.26 5.22-3.04.72.35-.13.22-5.29 3.06z"/>
    <path fill="url(#k)" d="M43.11 51.565l.56.32.36-.21-.92-.53-5.66 3.26.36.21 5.3-3.05z"/>
    <path fill="#5d6873" d="M40.09 55.925l-.57-.33.05-.26 5.22-3.04.72.35-.13.23-5.29 3.05z"/>
    <path fill="url(#cr)" d="M44.81 52.545l.57.33.36-.21-.93-.54-5.65 3.27.36.21 5.29-3.06z"/>
    <g>
      <path fill="#5d6873" d="M41.79 56.905l-.56-.32.05-.27 5.21-3.03.73.34-.13.23-5.3 3.05z"/>
      <path fill="url(#cs)" d="M46.52 53.525l.57.33.36-.21-.93-.54-5.65 3.27.36.21 5.29-3.06z"/>
    </g>
    <g>
      <path fill="#5d6873" d="M43.5 57.895l-.56-.33.04-.26 5.22-3.04.73.35-.14.22-5.29 3.06z"/>
      <path fill="url(#ct)" d="M48.23 54.515l.56.32.37-.21-.93-.53-5.65 3.26.36.21 5.29-3.05z"/>
    </g>
    <g>
      <path fill="#5d6873" d="M48.49 60.795l-.56-.33.05-.26 5.22-3.04.72.35-.13.22-5.3 3.06z"/>
      <path fill="url(#cu)" d="M53.23 57.415l.56.32.36-.21-.92-.53-5.66 3.26.36.21 5.3-3.05z"/>
      <path fill="#5d6873" d="M50.2 61.775l-.56-.32.05-.27 5.22-3.03.72.34-.14.23-5.29 3.05z"/>
      <path fill="url(#cv)" d="M54.93 58.395l.56.33.37-.21-.93-.54-5.65 3.27.36.21 5.29-3.06z"/>
      <g>
        <path fill="#5d6873" d="M51.91 62.755l-.56-.32.04-.27 5.22-3.03.73.34-.14.23-5.29 3.05z"/>
        <path fill="url(#cw)" d="M56.64 59.375l.56.33.36-.21-.92-.54-5.65 3.27.36.21 5.29-3.06z"/>
      </g>
      <g>
        <path fill="#5d6873" d="M53.62 63.745l-.57-.33.05-.26 5.22-3.04.73.35-.14.22-5.29 3.06z"/>
        <path fill="url(#cx)" d="M58.35 60.365l.56.32.36-.21-.92-.53-5.66 3.26.37.21 5.29-3.05z"/>
      </g>
    </g>
    <g>
      <path fill="#5d6873" d="M58.61 66.645l-.56-.33.05-.26 5.21-3.04.73.35-.14.22-5.29 3.06z"/>
      <path fill="url(#cy)" d="M63.34 63.265l.56.32.37-.21-.93-.53-5.65 3.26.36.21 5.29-3.05z"/>
      <path fill="#5d6873" d="M60.32 67.625l-.56-.32.04-.27 5.22-3.04.73.35-.14.22-5.29 3.06z"/>
      <path fill="url(#cz)" d="M65.05 64.245l.56.32.36-.2-.92-.54-5.65 3.27.36.21 5.29-3.06z"/>
      <g>
        <path fill="#5d6873" d="M62.03 68.605l-.57-.32.05-.26 5.22-3.04.72.34-.13.23-5.29 3.05z"/>
        <path fill="url(#cA)" d="M66.76 65.225l.56.33.36-.21-.92-.53-5.66 3.26.37.21 5.29-3.06z"/>
      </g>
      <g>
        <path fill="#5d6873" d="M63.73 69.595l-.56-.33.05-.26 5.22-3.04.72.35-.13.22-5.3 3.06z"/>
        <path fill="url(#cB)" d="M68.47 66.215l.56.32.36-.21-.92-.53-5.66 3.26.36.21 5.3-3.05z"/>
      </g>
    </g>
  </g>
  <g>
    <path fill="#5d6873" d="M67.26 28.525l-.56-.32.05-.27 5.22-3.03.72.34-.13.23-5.3 3.05z"/>
    <path fill="url(#cC)" d="M71.99 25.145l.57.33.36-.21-.93-.54-5.65 3.27.36.21 5.29-3.06z"/>
    <path fill="#5d6873" d="M68.97 29.505l-.56-.32.04-.26 5.22-3.04.73.34-.14.23-5.29 3.05z"/>
    <path fill="url(#cD)" d="M73.7 26.135l.56.32.37-.21-.93-.53-5.65 3.26.36.21 5.29-3.05z"/>
    <g>
      <path fill="#5d6873" d="M70.68 30.495l-.56-.33.04-.26 5.22-3.04.73.35-.14.22-5.29 3.06z"/>
      <path fill="url(#cE)" d="M75.41 27.115l.56.32.36-.21-.92-.53-5.66 3.26.37.21 5.29-3.05z"/>
    </g>
    <g>
      <path fill="#5d6873" d="M72.39 31.475l-.57-.33.05-.26 5.22-3.04.72.35-.13.22-5.29 3.06z"/>
      <path fill="url(#cF)" d="M77.12 28.095l.56.32.36-.2-.92-.54-5.66 3.27.37.21 5.29-3.06z"/>
    </g>
    <g>
      <path fill="#5d6873" d="M77.38 34.375l-.56-.32.04-.27 5.22-3.03.73.34-.14.23-5.29 3.05z"/>
      <path fill="url(#cG)" d="M82.11 30.995l.56.33.37-.21-.93-.54-5.65 3.27.36.21 5.29-3.06z"/>
      <path fill="#5d6873" d="M79.09 35.355l-.56-.32.04-.26 5.22-3.04.73.34-.14.23-5.29 3.05z"/>
      <path fill="url(#cH)" d="M83.82 31.985l.56.32.36-.21-.92-.53-5.65 3.26.36.21 5.29-3.05z"/>
      <g>
        <path fill="#5d6873" d="M80.8 36.345l-.57-.33.05-.26 5.22-3.04.72.35-.13.22-5.29 3.06z"/>
        <path fill="url(#cI)" d="M85.53 32.965l.56.32.36-.21-.92-.53-5.66 3.26.36.21 5.3-3.05z"/>
      </g>
      <g>
        <path fill="#5d6873" d="M82.5 37.325l-.56-.32.05-.27 5.22-3.03.72.34-.13.23-5.3 3.05z"/>
        <path fill="url(#cJ)" d="M87.23 33.945l.57.33.36-.21-.93-.54-5.65 3.27.36.21 5.29-3.06z"/>
      </g>
    </g>
    <g>
      <path fill="#5d6873" d="M87.5 40.225l-.56-.32.04-.27 5.22-3.03.73.34-.14.23-5.29 3.05z"/>
      <path fill="url(#cK)" d="M92.23 36.845l.56.33.36-.21-.92-.54-5.66 3.27.37.21 5.29-3.06z"/>
      <path fill="#5d6873" d="M89.21 41.205l-.57-.32.05-.26 5.22-3.04.72.34-.13.23-5.29 3.05z"/>
      <path fill="url(#cL)" d="M93.94 37.835l.56.32.36-.21-.92-.53-5.66 3.26.36.21 5.3-3.05z"/>
      <g>
        <path fill="#5d6873" d="M90.91 42.195l-.56-.33.05-.26 5.22-3.04.72.35-.13.22-5.3 3.06z"/>
        <path fill="url(#cM)" d="M95.64 38.815l.57.32.36-.21-.93-.53-5.65 3.26.36.21 5.29-3.05z"/>
      </g>
      <g>
        <path fill="#5d6873" d="M92.62 43.175l-.56-.32.05-.27 5.22-3.03.72.34-.14.23-5.29 3.05z"/>
        <path fill="url(#cN)" d="M97.35 39.795l.56.33.37-.21-.93-.54-5.65 3.27.36.21 5.29-3.06z"/>
      </g>
    </g>
  </g>
  <g>
    <path fill="#5d6873" d="M95.98 21.045l-.56-.33.04-.26 5.22-3.04.73.34-.14.23-5.29 3.06z"/>
    <path fill="url(#cO)" d="M100.71 17.665l.56.32.36-.21-.92-.53-5.66 3.26.37.21 5.29-3.05z"/>
    <path fill="#5d6873" d="M97.69 22.025l-.57-.33.05-.26 5.22-3.04.72.35-.13.22-5.29 3.06z"/>
    <path fill="url(#cP)" d="M102.42 18.645l.56.32.36-.21-.92-.53-5.66 3.26.36.21 5.3-3.05z"/>
    <g>
      <path fill="#5d6873" d="M99.39 23.005l-.56-.32.05-.27 5.22-3.03.72.34-.13.23-5.3 3.05z"/>
      <path fill="url(#cQ)" d="M104.12 19.625l.57.33.36-.21-.93-.54-5.65 3.27.36.21 5.29-3.06z"/>
    </g>
    <g>
      <path fill="#5d6873" d="M101.1 23.985l-.56-.32.04-.27 5.22-3.03.73.34-.14.23-5.29 3.05z"/>
      <path fill="url(#cR)" d="M105.83 20.605l.56.33.37-.21-.93-.54-5.65 3.27.36.21 5.29-3.06z"/>
    </g>
    <g>
      <path fill="#5d6873" d="M106.1 26.895l-.57-.33.05-.26 5.22-3.04.72.35-.13.22-5.29 3.06z"/>
      <path fill="url(#cS)" d="M110.83 23.505l.56.33.36-.21-.92-.53-5.66 3.26.36.21 5.3-3.06z"/>
      <path fill="#5d6873" d="M107.8 27.875l-.56-.33.05-.26 5.22-3.04.72.35-.13.22-5.3 3.06z"/>
      <path fill="url(#cT)" d="M112.53 24.495l.57.32.36-.21-.93-.53-5.65 3.26.36.21 5.29-3.05z"/>
      <g>
        <path fill="#5d6873" d="M109.51 28.855l-.56-.32.05-.27 5.21-3.03.73.34-.14.23-5.29 3.05z"/>
        <path fill="url(#cU)" d="M114.24 25.475l.56.33.37-.21-.93-.54-5.65 3.27.36.21 5.29-3.06z"/>
      </g>
      <g>
        <path fill="#5d6873" d="M111.22 29.835l-.56-.32.04-.26 5.22-3.04.73.34-.14.23-5.29 3.05z"/>
        <path fill="url(#cV)" d="M115.95 26.455l.56.33.36-.21-.92-.53-5.65 3.26.36.21 5.29-3.06z"/>
      </g>
    </g>
    <g>
      <path fill="#5d6873" d="M116.21 32.735l-.56-.32.05-.26 5.22-3.04.72.34-.14.23-5.29 3.05z"/>
      <path fill="url(#cW)" d="M120.94 29.365l.56.32.37-.21-.93-.53-5.65 3.26.36.21 5.29-3.05z"/>
      <path fill="#5d6873" d="M117.92 33.725l-.56-.33.04-.26 5.22-3.04.73.35-.14.22-5.29 3.06z"/>
      <path fill="url(#cX)" d="M122.65 30.345l.56.32.37-.21-.93-.53-5.65 3.27.36.2 5.29-3.05z"/>
      <g>
        <path fill="#5d6873" d="M119.63 34.705l-.57-.32.05-.27 5.22-3.04.73.35-.14.23-5.29 3.05z"/>
        <path fill="url(#cY)" d="M124.36 31.325l.56.33.36-.21-.92-.54-5.66 3.27.37.21 5.29-3.06z"/>
      </g>
      <g>
        <path fill="#5d6873" d="M121.34 35.685l-.57-.32.05-.26 5.22-3.04.72.34-.13.23-5.29 3.05z"/>
        <path fill="url(#cZ)" d="M126.07 32.305l.56.33.36-.21-.92-.53-5.66 3.26.36.21 5.3-3.06z"/>
      </g>
    </g>
  </g>
  <g>
    <path fill="url(#da)" d="M87 54.2a1.79 1.79 0 0 0-.81-1.41.57.57 0 0 0-.58-.06l-.57.34h.36a.93.93 0 0 0 0 .18 1.79 1.79 0 0 0 .81 1.41l.17.08-.17.31.56-.33a.57.57 0 0 0 .23-.52z" transform="translate(0 .505)"/>
    <path fill="url(#db)" d="M86.47 54.54c0 .52-.36.73-.81.47a1.79 1.79 0 0 1-.81-1.41c0-.52.36-.73.81-.47a1.79 1.79 0 0 1 .81 1.41z" transform="translate(0 .505)"/>
    <path fill="#5d6873" d="M86.12 54.845c0 .3-.21.42-.47.27a1 1 0 0 1-.47-.81c0-.3.21-.42.47-.27a1 1 0 0 1 .47.81z"/>
  </g>
  <g>
    <path fill="url(#dc)" d="M54.38 35.63a1.79 1.79 0 0 0-.81-1.41.57.57 0 0 0-.58-.06l-.57.34h.36a.93.93 0 0 0 0 .18 1.79 1.79 0 0 0 .81 1.41l.17.08-.17.31.56-.33a.57.57 0 0 0 .23-.52z" transform="translate(0 .505)"/>
    <path fill="url(#dd)" d="M53.8 36c0 .52-.36.73-.81.47a1.79 1.79 0 0 1-.82-1.47c0-.52.36-.73.81-.47A1.79 1.79 0 0 1 53.8 36z" transform="translate(0 .505)"/>
    <path fill="#5d6873" d="M53.45 36.275c0 .3-.21.42-.47.27a1 1 0 0 1-.47-.81c0-.3.21-.42.47-.27a1 1 0 0 1 .47.81z"/>
  </g>
  <g>
    <path fill="url(#de)" d="M116 46.76a1.57 1.57 0 0 0-.71-1.23.5.5 0 0 0-.5 0l-.5.29h.31a.81.81 0 0 0 0 .15 1.57 1.57 0 0 0 .71 1.23l.15.07-.14.27.49-.29a.5.5 0 0 0 .19-.49z" transform="translate(0 .505)"/>
    <path fill="url(#df)" d="M115.51 47.06c0 .45-.32.64-.71.41a1.57 1.57 0 0 1-.71-1.23c0-.45.32-.64.71-.41a1.57 1.57 0 0 1 .71 1.23z" transform="translate(0 .505)"/>
    <path fill="#5d6873" d="M115.2 47.385c0 .26-.18.37-.41.24a.9.9 0 0 1-.41-.71c0-.26.18-.37.41-.24a.9.9 0 0 1 .41.71z"/>
  </g>
</svg>
